M48
;GenerationSoftware,Autodesk,EAGLE,9.6.1*%
;CreationDate,2022-12-06T16:55:28Z*%
FMAT,2
ICI,OFF
METRIC,TZ,000.000
T3C0.350
T2C1.016
T1C1.300
%
G90
M71
T1
X39210Y37250
X8730Y37250
X11270Y37250
X13810Y37250
X16350Y37250
X18890Y37250
X21430Y37250
X23970Y37250
X26510Y37250
X18950Y22000
X29050Y37250
X31590Y37250
X34130Y37250
X36670Y37250
X41750Y37250
X6190Y37250
X6250Y22000
X8790Y22000
X11330Y22000
X13870Y22000
X16410Y22000
X21490Y22000
X24030Y22000
X26570Y22000
X29110Y22000
X31650Y22000
X34190Y22000
X36730Y22000
X39270Y22000
X41810Y22000
T2
X22110Y50000
X19570Y50000
X50650Y3000
X53190Y3000
X55730Y3000
X58270Y3000
X60810Y3000
X63350Y3000
X24650Y50000
X43350Y3000
X40810Y3000
X38270Y3000
X35730Y3000
X33190Y3000
X30650Y3000
X28110Y3000
X45890Y3000
X53730Y50000
X63890Y50000
X61350Y50000
X58810Y50000
X56270Y50000
X51190Y50000
X48650Y50000
X46110Y50000
X42430Y50000
X39890Y50000
X37350Y50000
X34810Y50000
X32270Y50000
X29730Y50000
X27190Y50000
T3
X45250Y24000
X53500Y27000
X50000Y19050
X48100Y19050
X46250Y39000
X53500Y24950
X21000Y12500
X18000Y12500
X15000Y12500
X41250Y41000
X42250Y40000
X44250Y39000
X60200Y36200
X24000Y12500
M30