G04 EAGLE Gerber RS-274X export*
G75*
%MOMM*%
%FSLAX34Y34*%
%LPD*%
%INTop Copper*%
%IPPOS*%
%AMOC8*
5,1,8,0,0,1.08239X$1,22.5*%
G01*
%ADD10R,1.500000X1.300000*%
%ADD11R,1.300000X1.500000*%
%ADD12C,1.524000*%
%ADD13R,1.950000X1.950000*%
%ADD14C,1.950000*%
%ADD15R,1.200000X0.550000*%
%ADD16R,1.400000X1.000000*%
%ADD17R,1.200000X0.750000*%
%ADD18R,1.300000X2.700000*%
%ADD19R,1.200000X1.200000*%
%ADD20C,0.406400*%
%ADD21C,0.756400*%

G36*
X273833Y12871D02*
X273833Y12871D01*
X273905Y12873D01*
X273954Y12891D01*
X274005Y12899D01*
X274069Y12933D01*
X274136Y12958D01*
X274177Y12990D01*
X274223Y13015D01*
X274272Y13067D01*
X274328Y13111D01*
X274356Y13155D01*
X274392Y13193D01*
X274422Y13258D01*
X274461Y13318D01*
X274474Y13369D01*
X274496Y13416D01*
X274504Y13487D01*
X274521Y13557D01*
X274517Y13609D01*
X274523Y13660D01*
X274507Y13731D01*
X274502Y13802D01*
X274482Y13850D01*
X274470Y13901D01*
X274434Y13962D01*
X274406Y14028D01*
X274361Y14084D01*
X274344Y14112D01*
X274326Y14127D01*
X274301Y14159D01*
X272096Y16364D01*
X270479Y20267D01*
X270479Y39733D01*
X272096Y43636D01*
X275084Y46624D01*
X278987Y48241D01*
X283213Y48241D01*
X287116Y46624D01*
X290104Y43636D01*
X291721Y39733D01*
X291721Y20267D01*
X290104Y16364D01*
X287899Y14159D01*
X287857Y14101D01*
X287808Y14049D01*
X287786Y14002D01*
X287756Y13960D01*
X287735Y13891D01*
X287704Y13826D01*
X287699Y13774D01*
X287683Y13724D01*
X287685Y13653D01*
X287677Y13582D01*
X287688Y13531D01*
X287690Y13479D01*
X287714Y13411D01*
X287730Y13341D01*
X287756Y13296D01*
X287774Y13248D01*
X287819Y13192D01*
X287856Y13130D01*
X287895Y13096D01*
X287928Y13056D01*
X287988Y13017D01*
X288043Y12970D01*
X288091Y12951D01*
X288135Y12923D01*
X288204Y12905D01*
X288271Y12878D01*
X288342Y12870D01*
X288373Y12862D01*
X288397Y12864D01*
X288438Y12860D01*
X299162Y12860D01*
X299233Y12871D01*
X299305Y12873D01*
X299354Y12891D01*
X299405Y12899D01*
X299469Y12933D01*
X299536Y12958D01*
X299577Y12990D01*
X299623Y13015D01*
X299672Y13067D01*
X299728Y13111D01*
X299756Y13155D01*
X299792Y13193D01*
X299822Y13258D01*
X299861Y13318D01*
X299874Y13369D01*
X299896Y13416D01*
X299904Y13487D01*
X299921Y13557D01*
X299917Y13609D01*
X299923Y13660D01*
X299907Y13731D01*
X299902Y13802D01*
X299882Y13850D01*
X299870Y13901D01*
X299834Y13962D01*
X299806Y14028D01*
X299761Y14084D01*
X299744Y14112D01*
X299726Y14127D01*
X299701Y14159D01*
X297496Y16364D01*
X295879Y20267D01*
X295879Y39733D01*
X297496Y43636D01*
X300484Y46624D01*
X304387Y48241D01*
X308613Y48241D01*
X312516Y46624D01*
X315504Y43636D01*
X317121Y39733D01*
X317121Y20267D01*
X315504Y16364D01*
X313299Y14159D01*
X313257Y14101D01*
X313208Y14049D01*
X313186Y14002D01*
X313156Y13960D01*
X313135Y13891D01*
X313104Y13826D01*
X313099Y13774D01*
X313083Y13724D01*
X313085Y13653D01*
X313077Y13582D01*
X313088Y13531D01*
X313090Y13479D01*
X313114Y13411D01*
X313130Y13341D01*
X313156Y13296D01*
X313174Y13248D01*
X313219Y13192D01*
X313256Y13130D01*
X313295Y13096D01*
X313328Y13056D01*
X313388Y13017D01*
X313443Y12970D01*
X313491Y12951D01*
X313535Y12923D01*
X313604Y12905D01*
X313671Y12878D01*
X313742Y12870D01*
X313773Y12862D01*
X313797Y12864D01*
X313838Y12860D01*
X324562Y12860D01*
X324633Y12871D01*
X324705Y12873D01*
X324754Y12891D01*
X324805Y12899D01*
X324869Y12933D01*
X324936Y12958D01*
X324977Y12990D01*
X325023Y13015D01*
X325072Y13067D01*
X325128Y13111D01*
X325156Y13155D01*
X325192Y13193D01*
X325222Y13258D01*
X325261Y13318D01*
X325274Y13369D01*
X325296Y13416D01*
X325304Y13487D01*
X325321Y13557D01*
X325317Y13609D01*
X325323Y13660D01*
X325307Y13731D01*
X325302Y13802D01*
X325282Y13850D01*
X325270Y13901D01*
X325234Y13962D01*
X325206Y14028D01*
X325161Y14084D01*
X325144Y14112D01*
X325126Y14127D01*
X325101Y14159D01*
X322896Y16364D01*
X321279Y20267D01*
X321279Y39733D01*
X322896Y43636D01*
X325884Y46624D01*
X329787Y48241D01*
X334013Y48241D01*
X337916Y46624D01*
X340904Y43636D01*
X342521Y39733D01*
X342521Y20267D01*
X340904Y16364D01*
X338699Y14159D01*
X338657Y14101D01*
X338608Y14049D01*
X338586Y14002D01*
X338556Y13960D01*
X338535Y13891D01*
X338504Y13826D01*
X338499Y13774D01*
X338483Y13724D01*
X338485Y13653D01*
X338477Y13582D01*
X338488Y13531D01*
X338490Y13479D01*
X338514Y13411D01*
X338530Y13341D01*
X338556Y13296D01*
X338574Y13248D01*
X338619Y13192D01*
X338656Y13130D01*
X338695Y13096D01*
X338728Y13056D01*
X338788Y13017D01*
X338843Y12970D01*
X338891Y12951D01*
X338935Y12923D01*
X339004Y12905D01*
X339071Y12878D01*
X339142Y12870D01*
X339173Y12862D01*
X339197Y12864D01*
X339238Y12860D01*
X349962Y12860D01*
X350033Y12871D01*
X350105Y12873D01*
X350154Y12891D01*
X350205Y12899D01*
X350269Y12933D01*
X350336Y12958D01*
X350377Y12990D01*
X350423Y13015D01*
X350472Y13067D01*
X350528Y13111D01*
X350556Y13155D01*
X350592Y13193D01*
X350622Y13258D01*
X350661Y13318D01*
X350674Y13369D01*
X350696Y13416D01*
X350704Y13487D01*
X350721Y13557D01*
X350717Y13609D01*
X350723Y13660D01*
X350707Y13731D01*
X350702Y13802D01*
X350682Y13850D01*
X350670Y13901D01*
X350634Y13962D01*
X350606Y14028D01*
X350561Y14084D01*
X350544Y14112D01*
X350526Y14127D01*
X350501Y14159D01*
X348296Y16364D01*
X346679Y20267D01*
X346679Y39733D01*
X348296Y43636D01*
X351284Y46624D01*
X351497Y46712D01*
X351597Y46774D01*
X351697Y46834D01*
X351701Y46839D01*
X351706Y46842D01*
X351781Y46932D01*
X351857Y47021D01*
X351859Y47027D01*
X351863Y47031D01*
X351905Y47140D01*
X351949Y47249D01*
X351950Y47256D01*
X351951Y47261D01*
X351952Y47279D01*
X351967Y47416D01*
X351967Y143738D01*
X351964Y143758D01*
X351966Y143777D01*
X351944Y143879D01*
X351928Y143981D01*
X351918Y143998D01*
X351914Y144018D01*
X351861Y144107D01*
X351812Y144198D01*
X351798Y144212D01*
X351788Y144229D01*
X351709Y144296D01*
X351634Y144368D01*
X351616Y144376D01*
X351601Y144389D01*
X351505Y144428D01*
X351411Y144471D01*
X351391Y144473D01*
X351373Y144481D01*
X351206Y144499D01*
X349257Y144499D01*
X348038Y145718D01*
X348022Y145730D01*
X348010Y145745D01*
X347922Y145801D01*
X347839Y145862D01*
X347820Y145867D01*
X347803Y145878D01*
X347702Y145904D01*
X347603Y145934D01*
X347584Y145933D01*
X347564Y145938D01*
X347461Y145930D01*
X347358Y145928D01*
X347339Y145921D01*
X347319Y145919D01*
X347224Y145879D01*
X347127Y145843D01*
X347111Y145831D01*
X347093Y145823D01*
X346962Y145718D01*
X345743Y144499D01*
X330257Y144499D01*
X328499Y146257D01*
X328499Y149206D01*
X328496Y149226D01*
X328498Y149245D01*
X328476Y149347D01*
X328460Y149449D01*
X328450Y149466D01*
X328446Y149486D01*
X328393Y149575D01*
X328344Y149666D01*
X328330Y149680D01*
X328320Y149697D01*
X328241Y149764D01*
X328166Y149836D01*
X328148Y149844D01*
X328133Y149857D01*
X328037Y149896D01*
X327943Y149939D01*
X327923Y149941D01*
X327905Y149949D01*
X327738Y149967D01*
X297915Y149967D01*
X260667Y187215D01*
X260667Y207775D01*
X260648Y207889D01*
X260631Y208006D01*
X260629Y208011D01*
X260628Y208017D01*
X260573Y208120D01*
X260520Y208225D01*
X260515Y208229D01*
X260512Y208235D01*
X260429Y208314D01*
X260344Y208397D01*
X260338Y208401D01*
X260334Y208404D01*
X260317Y208412D01*
X260197Y208478D01*
X258477Y209190D01*
X254890Y212777D01*
X253703Y215643D01*
X253665Y215704D01*
X253636Y215770D01*
X253601Y215808D01*
X253574Y215852D01*
X253518Y215898D01*
X253470Y215951D01*
X253424Y215976D01*
X253384Y216009D01*
X253317Y216035D01*
X253254Y216069D01*
X253203Y216079D01*
X253155Y216097D01*
X253083Y216100D01*
X253012Y216113D01*
X252961Y216106D01*
X252909Y216108D01*
X252840Y216088D01*
X252769Y216077D01*
X252723Y216054D01*
X252673Y216039D01*
X252614Y215998D01*
X252550Y215966D01*
X252513Y215929D01*
X252471Y215899D01*
X252428Y215841D01*
X252378Y215790D01*
X252343Y215727D01*
X252324Y215702D01*
X252317Y215679D01*
X252297Y215643D01*
X251110Y212777D01*
X247523Y209190D01*
X242836Y207249D01*
X237764Y207249D01*
X233077Y209190D01*
X229490Y212777D01*
X228303Y215643D01*
X228265Y215704D01*
X228236Y215770D01*
X228201Y215808D01*
X228174Y215852D01*
X228118Y215898D01*
X228070Y215951D01*
X228024Y215976D01*
X227984Y216009D01*
X227917Y216035D01*
X227854Y216069D01*
X227803Y216079D01*
X227755Y216097D01*
X227683Y216100D01*
X227612Y216113D01*
X227561Y216106D01*
X227509Y216108D01*
X227440Y216088D01*
X227369Y216077D01*
X227323Y216054D01*
X227273Y216039D01*
X227214Y215998D01*
X227150Y215966D01*
X227113Y215929D01*
X227071Y215899D01*
X227028Y215841D01*
X226978Y215790D01*
X226943Y215727D01*
X226924Y215702D01*
X226917Y215679D01*
X226897Y215643D01*
X225710Y212777D01*
X222123Y209190D01*
X220403Y208478D01*
X220303Y208416D01*
X220203Y208356D01*
X220199Y208352D01*
X220194Y208348D01*
X220119Y208258D01*
X220043Y208170D01*
X220041Y208164D01*
X220037Y208159D01*
X219995Y208050D01*
X219951Y207941D01*
X219950Y207934D01*
X219949Y207929D01*
X219948Y207911D01*
X219933Y207775D01*
X219933Y187000D01*
X219947Y186910D01*
X219955Y186819D01*
X219967Y186789D01*
X219972Y186757D01*
X220015Y186677D01*
X220051Y186593D01*
X220077Y186561D01*
X220088Y186540D01*
X220111Y186518D01*
X220156Y186462D01*
X237394Y169224D01*
X237468Y169171D01*
X237537Y169111D01*
X237567Y169099D01*
X237593Y169080D01*
X237680Y169053D01*
X237765Y169019D01*
X237806Y169015D01*
X237828Y169008D01*
X237861Y169009D01*
X237932Y169001D01*
X248743Y169001D01*
X250501Y167243D01*
X250501Y151757D01*
X249282Y150538D01*
X249270Y150522D01*
X249255Y150510D01*
X249199Y150422D01*
X249138Y150339D01*
X249133Y150320D01*
X249122Y150303D01*
X249096Y150202D01*
X249066Y150103D01*
X249067Y150084D01*
X249062Y150064D01*
X249070Y149961D01*
X249072Y149858D01*
X249079Y149839D01*
X249081Y149819D01*
X249121Y149724D01*
X249157Y149627D01*
X249169Y149611D01*
X249177Y149593D01*
X249282Y149462D01*
X250501Y148243D01*
X250501Y132757D01*
X248743Y130999D01*
X245794Y130999D01*
X245774Y130996D01*
X245755Y130998D01*
X245653Y130976D01*
X245551Y130960D01*
X245534Y130950D01*
X245514Y130946D01*
X245425Y130893D01*
X245334Y130844D01*
X245320Y130830D01*
X245303Y130820D01*
X245236Y130741D01*
X245164Y130666D01*
X245156Y130648D01*
X245143Y130633D01*
X245104Y130537D01*
X245061Y130443D01*
X245059Y130423D01*
X245051Y130405D01*
X245033Y130238D01*
X245033Y129875D01*
X245047Y129785D01*
X245055Y129694D01*
X245067Y129664D01*
X245072Y129632D01*
X245115Y129551D01*
X245151Y129468D01*
X245177Y129435D01*
X245188Y129415D01*
X245211Y129393D01*
X245256Y129337D01*
X245750Y128842D01*
X246783Y126349D01*
X246783Y123651D01*
X245750Y121158D01*
X243842Y119250D01*
X241349Y118217D01*
X238651Y118217D01*
X236158Y119250D01*
X234250Y121158D01*
X233217Y123651D01*
X233217Y126349D01*
X234250Y128842D01*
X234744Y129337D01*
X234797Y129410D01*
X234857Y129480D01*
X234869Y129510D01*
X234888Y129536D01*
X234915Y129623D01*
X234949Y129708D01*
X234953Y129749D01*
X234960Y129771D01*
X234959Y129804D01*
X234967Y129875D01*
X234967Y130238D01*
X234964Y130258D01*
X234966Y130277D01*
X234944Y130379D01*
X234928Y130481D01*
X234918Y130498D01*
X234914Y130518D01*
X234861Y130607D01*
X234812Y130698D01*
X234798Y130712D01*
X234788Y130729D01*
X234709Y130796D01*
X234634Y130868D01*
X234616Y130876D01*
X234601Y130889D01*
X234505Y130928D01*
X234411Y130971D01*
X234391Y130973D01*
X234373Y130981D01*
X234206Y130999D01*
X231257Y130999D01*
X229499Y132757D01*
X229499Y148243D01*
X230718Y149462D01*
X230730Y149478D01*
X230745Y149490D01*
X230801Y149578D01*
X230862Y149661D01*
X230867Y149680D01*
X230878Y149697D01*
X230904Y149798D01*
X230934Y149897D01*
X230933Y149916D01*
X230938Y149936D01*
X230930Y150039D01*
X230928Y150142D01*
X230921Y150161D01*
X230919Y150181D01*
X230879Y150276D01*
X230843Y150373D01*
X230831Y150389D01*
X230823Y150407D01*
X230718Y150538D01*
X229499Y151757D01*
X229499Y162568D01*
X229485Y162658D01*
X229477Y162749D01*
X229465Y162779D01*
X229460Y162811D01*
X229417Y162891D01*
X229381Y162975D01*
X229355Y163007D01*
X229344Y163028D01*
X229321Y163050D01*
X229276Y163106D01*
X209867Y182515D01*
X209867Y207775D01*
X209848Y207889D01*
X209831Y208006D01*
X209829Y208011D01*
X209828Y208017D01*
X209773Y208120D01*
X209720Y208225D01*
X209715Y208229D01*
X209712Y208235D01*
X209629Y208314D01*
X209544Y208397D01*
X209538Y208401D01*
X209534Y208404D01*
X209517Y208412D01*
X209397Y208478D01*
X207677Y209190D01*
X204090Y212777D01*
X202903Y215643D01*
X202865Y215704D01*
X202836Y215770D01*
X202801Y215808D01*
X202774Y215852D01*
X202718Y215898D01*
X202670Y215951D01*
X202624Y215976D01*
X202584Y216009D01*
X202517Y216035D01*
X202454Y216069D01*
X202403Y216079D01*
X202355Y216097D01*
X202283Y216100D01*
X202212Y216113D01*
X202161Y216106D01*
X202109Y216108D01*
X202040Y216088D01*
X201969Y216077D01*
X201923Y216054D01*
X201873Y216039D01*
X201814Y215998D01*
X201750Y215966D01*
X201713Y215929D01*
X201671Y215899D01*
X201628Y215841D01*
X201578Y215790D01*
X201543Y215727D01*
X201524Y215702D01*
X201517Y215679D01*
X201497Y215643D01*
X200310Y212777D01*
X196723Y209190D01*
X195003Y208478D01*
X194903Y208416D01*
X194803Y208356D01*
X194799Y208352D01*
X194794Y208348D01*
X194719Y208258D01*
X194643Y208170D01*
X194641Y208164D01*
X194637Y208159D01*
X194595Y208050D01*
X194551Y207941D01*
X194550Y207934D01*
X194549Y207929D01*
X194548Y207911D01*
X194533Y207775D01*
X194533Y182400D01*
X194547Y182310D01*
X194555Y182219D01*
X194567Y182189D01*
X194572Y182157D01*
X194615Y182077D01*
X194651Y181993D01*
X194677Y181961D01*
X194688Y181940D01*
X194711Y181918D01*
X194756Y181862D01*
X207394Y169224D01*
X207468Y169171D01*
X207537Y169111D01*
X207567Y169099D01*
X207593Y169080D01*
X207680Y169053D01*
X207765Y169019D01*
X207806Y169015D01*
X207828Y169008D01*
X207861Y169009D01*
X207932Y169001D01*
X218743Y169001D01*
X220501Y167243D01*
X220501Y151757D01*
X219282Y150538D01*
X219270Y150522D01*
X219255Y150510D01*
X219199Y150422D01*
X219138Y150339D01*
X219133Y150320D01*
X219122Y150303D01*
X219096Y150202D01*
X219066Y150103D01*
X219067Y150084D01*
X219062Y150064D01*
X219070Y149961D01*
X219072Y149858D01*
X219079Y149839D01*
X219081Y149819D01*
X219121Y149724D01*
X219157Y149627D01*
X219169Y149611D01*
X219177Y149593D01*
X219282Y149462D01*
X220501Y148243D01*
X220501Y132757D01*
X218743Y130999D01*
X215794Y130999D01*
X215774Y130996D01*
X215755Y130998D01*
X215653Y130976D01*
X215551Y130960D01*
X215534Y130950D01*
X215514Y130946D01*
X215425Y130893D01*
X215334Y130844D01*
X215320Y130830D01*
X215303Y130820D01*
X215236Y130741D01*
X215164Y130666D01*
X215156Y130648D01*
X215143Y130633D01*
X215104Y130537D01*
X215061Y130443D01*
X215059Y130423D01*
X215051Y130405D01*
X215033Y130238D01*
X215033Y129875D01*
X215047Y129785D01*
X215055Y129694D01*
X215067Y129664D01*
X215072Y129632D01*
X215115Y129551D01*
X215151Y129468D01*
X215177Y129435D01*
X215188Y129415D01*
X215211Y129393D01*
X215256Y129337D01*
X215750Y128842D01*
X216783Y126349D01*
X216783Y123651D01*
X215750Y121158D01*
X213842Y119250D01*
X211349Y118217D01*
X208651Y118217D01*
X206158Y119250D01*
X204250Y121158D01*
X203217Y123651D01*
X203217Y126349D01*
X204250Y128842D01*
X204744Y129337D01*
X204797Y129410D01*
X204857Y129480D01*
X204869Y129510D01*
X204888Y129536D01*
X204915Y129623D01*
X204949Y129708D01*
X204953Y129749D01*
X204960Y129771D01*
X204959Y129804D01*
X204967Y129875D01*
X204967Y130238D01*
X204964Y130258D01*
X204966Y130277D01*
X204944Y130379D01*
X204928Y130481D01*
X204918Y130498D01*
X204914Y130518D01*
X204861Y130607D01*
X204812Y130698D01*
X204798Y130712D01*
X204788Y130729D01*
X204709Y130796D01*
X204634Y130868D01*
X204616Y130876D01*
X204601Y130889D01*
X204505Y130928D01*
X204411Y130971D01*
X204391Y130973D01*
X204373Y130981D01*
X204206Y130999D01*
X201257Y130999D01*
X199499Y132757D01*
X199499Y148243D01*
X200718Y149462D01*
X200730Y149478D01*
X200745Y149490D01*
X200801Y149578D01*
X200862Y149661D01*
X200867Y149680D01*
X200878Y149697D01*
X200904Y149798D01*
X200934Y149897D01*
X200933Y149916D01*
X200938Y149936D01*
X200930Y150039D01*
X200928Y150142D01*
X200921Y150161D01*
X200919Y150181D01*
X200879Y150276D01*
X200843Y150373D01*
X200831Y150389D01*
X200823Y150407D01*
X200718Y150538D01*
X199499Y151757D01*
X199499Y162568D01*
X199485Y162658D01*
X199477Y162749D01*
X199465Y162779D01*
X199460Y162811D01*
X199417Y162891D01*
X199381Y162975D01*
X199355Y163007D01*
X199344Y163028D01*
X199321Y163050D01*
X199276Y163106D01*
X184467Y177915D01*
X184467Y207775D01*
X184448Y207889D01*
X184431Y208006D01*
X184429Y208011D01*
X184428Y208017D01*
X184373Y208120D01*
X184320Y208225D01*
X184315Y208229D01*
X184312Y208235D01*
X184229Y208314D01*
X184144Y208397D01*
X184138Y208401D01*
X184134Y208404D01*
X184117Y208412D01*
X183997Y208478D01*
X182277Y209190D01*
X178690Y212777D01*
X177503Y215643D01*
X177465Y215704D01*
X177436Y215770D01*
X177401Y215808D01*
X177374Y215852D01*
X177318Y215898D01*
X177270Y215951D01*
X177224Y215976D01*
X177184Y216009D01*
X177117Y216035D01*
X177054Y216069D01*
X177003Y216079D01*
X176955Y216097D01*
X176883Y216100D01*
X176812Y216113D01*
X176761Y216106D01*
X176709Y216108D01*
X176640Y216088D01*
X176569Y216077D01*
X176523Y216054D01*
X176473Y216039D01*
X176414Y215998D01*
X176350Y215966D01*
X176313Y215929D01*
X176271Y215899D01*
X176228Y215841D01*
X176178Y215790D01*
X176143Y215727D01*
X176124Y215702D01*
X176117Y215679D01*
X176097Y215643D01*
X174910Y212777D01*
X171323Y209190D01*
X169603Y208478D01*
X169503Y208416D01*
X169403Y208356D01*
X169399Y208352D01*
X169394Y208348D01*
X169319Y208258D01*
X169243Y208170D01*
X169241Y208164D01*
X169237Y208159D01*
X169195Y208050D01*
X169151Y207941D01*
X169150Y207934D01*
X169149Y207929D01*
X169148Y207911D01*
X169133Y207775D01*
X169133Y177800D01*
X169147Y177710D01*
X169155Y177619D01*
X169167Y177589D01*
X169172Y177557D01*
X169215Y177477D01*
X169251Y177393D01*
X169277Y177361D01*
X169288Y177340D01*
X169311Y177318D01*
X169356Y177262D01*
X177394Y169224D01*
X177468Y169171D01*
X177537Y169111D01*
X177567Y169099D01*
X177593Y169080D01*
X177680Y169053D01*
X177765Y169019D01*
X177806Y169015D01*
X177828Y169008D01*
X177861Y169009D01*
X177932Y169001D01*
X188743Y169001D01*
X190501Y167243D01*
X190501Y151757D01*
X189282Y150538D01*
X189270Y150522D01*
X189255Y150510D01*
X189199Y150422D01*
X189138Y150339D01*
X189133Y150320D01*
X189122Y150303D01*
X189096Y150202D01*
X189066Y150103D01*
X189067Y150084D01*
X189062Y150064D01*
X189070Y149961D01*
X189072Y149858D01*
X189079Y149839D01*
X189081Y149819D01*
X189121Y149724D01*
X189157Y149627D01*
X189169Y149611D01*
X189177Y149593D01*
X189282Y149462D01*
X190501Y148243D01*
X190501Y132757D01*
X188743Y130999D01*
X185794Y130999D01*
X185774Y130996D01*
X185755Y130998D01*
X185653Y130976D01*
X185551Y130960D01*
X185534Y130950D01*
X185514Y130946D01*
X185425Y130893D01*
X185334Y130844D01*
X185320Y130830D01*
X185303Y130820D01*
X185236Y130741D01*
X185164Y130666D01*
X185156Y130648D01*
X185143Y130633D01*
X185104Y130537D01*
X185061Y130443D01*
X185059Y130423D01*
X185051Y130405D01*
X185033Y130238D01*
X185033Y129875D01*
X185047Y129785D01*
X185055Y129694D01*
X185067Y129664D01*
X185072Y129632D01*
X185115Y129551D01*
X185151Y129468D01*
X185177Y129435D01*
X185188Y129415D01*
X185211Y129393D01*
X185256Y129337D01*
X185750Y128842D01*
X186783Y126349D01*
X186783Y123651D01*
X185750Y121158D01*
X183842Y119250D01*
X181349Y118217D01*
X178651Y118217D01*
X176158Y119250D01*
X174250Y121158D01*
X173217Y123651D01*
X173217Y126349D01*
X174250Y128842D01*
X174744Y129337D01*
X174797Y129410D01*
X174857Y129480D01*
X174869Y129510D01*
X174888Y129536D01*
X174915Y129623D01*
X174949Y129708D01*
X174953Y129749D01*
X174960Y129771D01*
X174959Y129804D01*
X174967Y129875D01*
X174967Y130238D01*
X174964Y130258D01*
X174966Y130277D01*
X174944Y130379D01*
X174928Y130481D01*
X174918Y130498D01*
X174914Y130518D01*
X174861Y130607D01*
X174812Y130698D01*
X174798Y130712D01*
X174788Y130729D01*
X174709Y130796D01*
X174634Y130868D01*
X174616Y130876D01*
X174601Y130889D01*
X174505Y130928D01*
X174411Y130971D01*
X174391Y130973D01*
X174373Y130981D01*
X174206Y130999D01*
X171257Y130999D01*
X169499Y132757D01*
X169499Y148243D01*
X170718Y149462D01*
X170730Y149478D01*
X170745Y149490D01*
X170801Y149578D01*
X170862Y149661D01*
X170867Y149680D01*
X170878Y149697D01*
X170904Y149798D01*
X170934Y149897D01*
X170933Y149916D01*
X170938Y149936D01*
X170930Y150039D01*
X170928Y150142D01*
X170921Y150161D01*
X170919Y150181D01*
X170879Y150276D01*
X170843Y150373D01*
X170831Y150389D01*
X170823Y150407D01*
X170718Y150538D01*
X169499Y151757D01*
X169499Y162568D01*
X169485Y162658D01*
X169477Y162749D01*
X169465Y162779D01*
X169460Y162811D01*
X169417Y162892D01*
X169381Y162975D01*
X169355Y163008D01*
X169344Y163028D01*
X169321Y163050D01*
X169276Y163106D01*
X162238Y170144D01*
X159067Y173315D01*
X159067Y207775D01*
X159048Y207889D01*
X159031Y208006D01*
X159029Y208011D01*
X159028Y208017D01*
X158973Y208120D01*
X158920Y208225D01*
X158915Y208229D01*
X158912Y208235D01*
X158829Y208314D01*
X158744Y208397D01*
X158738Y208401D01*
X158734Y208404D01*
X158717Y208412D01*
X158597Y208478D01*
X156877Y209190D01*
X153290Y212777D01*
X152103Y215643D01*
X152065Y215704D01*
X152036Y215770D01*
X152001Y215808D01*
X151974Y215852D01*
X151918Y215898D01*
X151870Y215951D01*
X151824Y215976D01*
X151784Y216009D01*
X151717Y216035D01*
X151654Y216069D01*
X151603Y216079D01*
X151555Y216097D01*
X151483Y216100D01*
X151412Y216113D01*
X151361Y216106D01*
X151309Y216108D01*
X151240Y216088D01*
X151169Y216077D01*
X151123Y216054D01*
X151073Y216039D01*
X151014Y215998D01*
X150950Y215966D01*
X150913Y215929D01*
X150871Y215899D01*
X150828Y215841D01*
X150778Y215790D01*
X150743Y215727D01*
X150724Y215702D01*
X150717Y215679D01*
X150697Y215643D01*
X149510Y212777D01*
X145923Y209190D01*
X144203Y208478D01*
X144103Y208416D01*
X144003Y208356D01*
X143999Y208352D01*
X143994Y208348D01*
X143919Y208258D01*
X143843Y208170D01*
X143841Y208164D01*
X143837Y208159D01*
X143795Y208050D01*
X143751Y207941D01*
X143750Y207934D01*
X143749Y207929D01*
X143748Y207911D01*
X143733Y207775D01*
X143733Y173200D01*
X143747Y173110D01*
X143755Y173019D01*
X143767Y172989D01*
X143772Y172957D01*
X143815Y172877D01*
X143851Y172793D01*
X143877Y172760D01*
X143888Y172740D01*
X143911Y172718D01*
X143956Y172662D01*
X147394Y169224D01*
X147468Y169171D01*
X147537Y169111D01*
X147567Y169099D01*
X147593Y169080D01*
X147680Y169053D01*
X147765Y169019D01*
X147806Y169015D01*
X147828Y169008D01*
X147861Y169009D01*
X147932Y169001D01*
X158743Y169001D01*
X160501Y167243D01*
X160501Y151757D01*
X159282Y150538D01*
X159270Y150522D01*
X159255Y150510D01*
X159199Y150422D01*
X159138Y150339D01*
X159133Y150320D01*
X159122Y150303D01*
X159096Y150202D01*
X159066Y150103D01*
X159067Y150084D01*
X159062Y150064D01*
X159070Y149961D01*
X159072Y149858D01*
X159079Y149839D01*
X159081Y149819D01*
X159121Y149724D01*
X159157Y149627D01*
X159169Y149611D01*
X159177Y149593D01*
X159282Y149462D01*
X160501Y148243D01*
X160501Y132757D01*
X158743Y130999D01*
X155794Y130999D01*
X155774Y130996D01*
X155755Y130998D01*
X155653Y130976D01*
X155551Y130960D01*
X155534Y130950D01*
X155514Y130946D01*
X155425Y130893D01*
X155334Y130844D01*
X155320Y130830D01*
X155303Y130820D01*
X155236Y130741D01*
X155164Y130666D01*
X155156Y130648D01*
X155143Y130633D01*
X155104Y130537D01*
X155061Y130443D01*
X155059Y130423D01*
X155051Y130405D01*
X155033Y130238D01*
X155033Y129875D01*
X155047Y129785D01*
X155055Y129694D01*
X155067Y129664D01*
X155072Y129632D01*
X155115Y129551D01*
X155151Y129468D01*
X155177Y129435D01*
X155188Y129415D01*
X155211Y129393D01*
X155256Y129337D01*
X155750Y128842D01*
X156783Y126349D01*
X156783Y123651D01*
X155750Y121158D01*
X153842Y119250D01*
X151349Y118217D01*
X148651Y118217D01*
X146158Y119250D01*
X144250Y121158D01*
X143217Y123651D01*
X143217Y126349D01*
X144250Y128842D01*
X144744Y129337D01*
X144797Y129410D01*
X144857Y129480D01*
X144869Y129510D01*
X144888Y129536D01*
X144915Y129623D01*
X144949Y129708D01*
X144953Y129749D01*
X144960Y129771D01*
X144959Y129804D01*
X144967Y129875D01*
X144967Y130238D01*
X144964Y130258D01*
X144966Y130277D01*
X144944Y130379D01*
X144928Y130481D01*
X144918Y130498D01*
X144914Y130518D01*
X144861Y130607D01*
X144812Y130698D01*
X144798Y130712D01*
X144788Y130729D01*
X144709Y130796D01*
X144634Y130868D01*
X144616Y130876D01*
X144601Y130889D01*
X144505Y130928D01*
X144411Y130971D01*
X144391Y130973D01*
X144373Y130981D01*
X144206Y130999D01*
X141257Y130999D01*
X139499Y132757D01*
X139499Y148243D01*
X140718Y149462D01*
X140730Y149478D01*
X140745Y149490D01*
X140801Y149578D01*
X140862Y149661D01*
X140867Y149680D01*
X140878Y149697D01*
X140904Y149798D01*
X140934Y149897D01*
X140933Y149916D01*
X140938Y149936D01*
X140930Y150039D01*
X140928Y150142D01*
X140921Y150161D01*
X140919Y150181D01*
X140879Y150276D01*
X140843Y150373D01*
X140831Y150389D01*
X140823Y150407D01*
X140718Y150538D01*
X139499Y151757D01*
X139499Y162568D01*
X139485Y162658D01*
X139477Y162749D01*
X139465Y162779D01*
X139460Y162811D01*
X139417Y162891D01*
X139381Y162975D01*
X139355Y163008D01*
X139344Y163028D01*
X139321Y163050D01*
X139276Y163106D01*
X136838Y165544D01*
X133667Y168715D01*
X133667Y207775D01*
X133648Y207889D01*
X133631Y208006D01*
X133629Y208011D01*
X133628Y208017D01*
X133573Y208120D01*
X133520Y208225D01*
X133515Y208229D01*
X133512Y208235D01*
X133429Y208314D01*
X133344Y208397D01*
X133338Y208401D01*
X133334Y208404D01*
X133317Y208412D01*
X133197Y208478D01*
X131477Y209190D01*
X127890Y212777D01*
X126703Y215643D01*
X126665Y215704D01*
X126636Y215770D01*
X126601Y215808D01*
X126574Y215852D01*
X126518Y215898D01*
X126470Y215951D01*
X126424Y215976D01*
X126384Y216009D01*
X126317Y216035D01*
X126254Y216069D01*
X126203Y216079D01*
X126155Y216097D01*
X126083Y216100D01*
X126012Y216113D01*
X125961Y216106D01*
X125909Y216108D01*
X125840Y216088D01*
X125769Y216077D01*
X125723Y216054D01*
X125673Y216039D01*
X125614Y215998D01*
X125550Y215966D01*
X125513Y215929D01*
X125471Y215899D01*
X125428Y215841D01*
X125378Y215790D01*
X125343Y215727D01*
X125324Y215702D01*
X125317Y215679D01*
X125297Y215643D01*
X124110Y212777D01*
X120523Y209190D01*
X115836Y207249D01*
X110764Y207249D01*
X106077Y209190D01*
X102490Y212777D01*
X101303Y215643D01*
X101265Y215704D01*
X101236Y215770D01*
X101201Y215808D01*
X101174Y215852D01*
X101118Y215898D01*
X101070Y215951D01*
X101024Y215976D01*
X100984Y216009D01*
X100917Y216035D01*
X100854Y216069D01*
X100803Y216079D01*
X100755Y216097D01*
X100683Y216100D01*
X100612Y216113D01*
X100561Y216106D01*
X100509Y216108D01*
X100440Y216088D01*
X100369Y216077D01*
X100323Y216054D01*
X100273Y216039D01*
X100214Y215998D01*
X100150Y215966D01*
X100113Y215929D01*
X100071Y215899D01*
X100028Y215841D01*
X99978Y215790D01*
X99943Y215727D01*
X99924Y215702D01*
X99917Y215679D01*
X99897Y215643D01*
X98710Y212777D01*
X95123Y209190D01*
X90436Y207249D01*
X85364Y207249D01*
X80677Y209190D01*
X77090Y212777D01*
X76715Y213683D01*
X76664Y213766D01*
X76618Y213852D01*
X76599Y213870D01*
X76586Y213892D01*
X76511Y213954D01*
X76440Y214021D01*
X76416Y214032D01*
X76396Y214049D01*
X76305Y214084D01*
X76217Y214125D01*
X76191Y214128D01*
X76167Y214137D01*
X76069Y214141D01*
X75973Y214152D01*
X75947Y214146D01*
X75921Y214148D01*
X75827Y214120D01*
X75732Y214100D01*
X75710Y214086D01*
X75685Y214079D01*
X75605Y214023D01*
X75521Y213974D01*
X75504Y213954D01*
X75483Y213939D01*
X75424Y213861D01*
X75361Y213787D01*
X75351Y213762D01*
X75336Y213741D01*
X75306Y213649D01*
X75269Y213558D01*
X75266Y213526D01*
X75260Y213507D01*
X75260Y213474D01*
X75251Y213392D01*
X75251Y209007D01*
X73493Y207249D01*
X51507Y207249D01*
X49749Y209007D01*
X49749Y225318D01*
X49735Y225408D01*
X49727Y225499D01*
X49715Y225529D01*
X49710Y225561D01*
X49667Y225641D01*
X49631Y225725D01*
X49605Y225757D01*
X49594Y225778D01*
X49571Y225800D01*
X49526Y225856D01*
X27467Y247915D01*
X27467Y382585D01*
X30638Y385756D01*
X61776Y416894D01*
X61829Y416968D01*
X61889Y417037D01*
X61901Y417067D01*
X61920Y417093D01*
X61947Y417180D01*
X61981Y417265D01*
X61985Y417306D01*
X61992Y417328D01*
X61991Y417361D01*
X61999Y417432D01*
X61999Y428243D01*
X63218Y429462D01*
X63230Y429478D01*
X63245Y429490D01*
X63301Y429578D01*
X63362Y429661D01*
X63367Y429680D01*
X63378Y429697D01*
X63404Y429798D01*
X63434Y429897D01*
X63433Y429916D01*
X63438Y429936D01*
X63430Y430039D01*
X63428Y430142D01*
X63421Y430161D01*
X63419Y430181D01*
X63379Y430276D01*
X63343Y430373D01*
X63331Y430389D01*
X63323Y430407D01*
X63239Y430512D01*
X63237Y430516D01*
X63235Y430517D01*
X63218Y430538D01*
X61999Y431757D01*
X61999Y447243D01*
X63757Y449001D01*
X74568Y449001D01*
X74658Y449015D01*
X74749Y449023D01*
X74779Y449035D01*
X74811Y449040D01*
X74892Y449083D01*
X74975Y449119D01*
X75008Y449145D01*
X75028Y449156D01*
X75050Y449179D01*
X75106Y449224D01*
X105244Y479362D01*
X108415Y482533D01*
X188689Y482533D01*
X188760Y482544D01*
X188832Y482546D01*
X188881Y482564D01*
X188932Y482572D01*
X188996Y482606D01*
X189063Y482631D01*
X189104Y482663D01*
X189150Y482688D01*
X189199Y482740D01*
X189255Y482784D01*
X189283Y482828D01*
X189319Y482866D01*
X189349Y482931D01*
X189388Y482991D01*
X189401Y483042D01*
X189423Y483089D01*
X189431Y483160D01*
X189448Y483230D01*
X189444Y483282D01*
X189450Y483333D01*
X189434Y483404D01*
X189429Y483475D01*
X189409Y483523D01*
X189397Y483574D01*
X189361Y483635D01*
X189333Y483701D01*
X189288Y483757D01*
X189271Y483785D01*
X189256Y483798D01*
X189253Y483803D01*
X189247Y483808D01*
X189228Y483832D01*
X186696Y486364D01*
X185079Y490267D01*
X185079Y509733D01*
X186696Y513636D01*
X189684Y516624D01*
X193587Y518241D01*
X197813Y518241D01*
X201716Y516624D01*
X204704Y513636D01*
X206321Y509733D01*
X206321Y490267D01*
X204704Y486364D01*
X202172Y483832D01*
X202130Y483774D01*
X202081Y483722D01*
X202059Y483675D01*
X202029Y483633D01*
X202008Y483564D01*
X201977Y483499D01*
X201972Y483447D01*
X201956Y483397D01*
X201958Y483326D01*
X201950Y483255D01*
X201961Y483204D01*
X201963Y483152D01*
X201987Y483084D01*
X202003Y483014D01*
X202029Y482969D01*
X202047Y482921D01*
X202092Y482865D01*
X202129Y482803D01*
X202168Y482769D01*
X202201Y482729D01*
X202261Y482690D01*
X202316Y482643D01*
X202364Y482624D01*
X202408Y482596D01*
X202477Y482578D01*
X202544Y482551D01*
X202615Y482543D01*
X202646Y482535D01*
X202670Y482537D01*
X202711Y482533D01*
X214089Y482533D01*
X214160Y482544D01*
X214232Y482546D01*
X214281Y482564D01*
X214332Y482572D01*
X214396Y482606D01*
X214463Y482631D01*
X214504Y482663D01*
X214550Y482688D01*
X214599Y482740D01*
X214655Y482784D01*
X214683Y482828D01*
X214719Y482866D01*
X214749Y482931D01*
X214788Y482991D01*
X214801Y483042D01*
X214823Y483089D01*
X214831Y483160D01*
X214848Y483230D01*
X214844Y483282D01*
X214850Y483333D01*
X214834Y483404D01*
X214829Y483475D01*
X214809Y483523D01*
X214797Y483574D01*
X214761Y483635D01*
X214733Y483701D01*
X214688Y483757D01*
X214671Y483785D01*
X214656Y483798D01*
X214653Y483803D01*
X214647Y483808D01*
X214628Y483832D01*
X212096Y486364D01*
X210479Y490267D01*
X210479Y509733D01*
X212096Y513636D01*
X215084Y516624D01*
X218987Y518241D01*
X223213Y518241D01*
X227116Y516624D01*
X230104Y513636D01*
X231721Y509733D01*
X231721Y490267D01*
X230104Y486364D01*
X227572Y483832D01*
X227530Y483774D01*
X227481Y483722D01*
X227459Y483675D01*
X227429Y483633D01*
X227408Y483564D01*
X227377Y483499D01*
X227372Y483447D01*
X227356Y483397D01*
X227358Y483326D01*
X227350Y483255D01*
X227361Y483204D01*
X227363Y483152D01*
X227387Y483084D01*
X227403Y483014D01*
X227429Y482969D01*
X227447Y482921D01*
X227492Y482865D01*
X227529Y482803D01*
X227568Y482769D01*
X227601Y482729D01*
X227661Y482690D01*
X227716Y482643D01*
X227764Y482624D01*
X227808Y482596D01*
X227877Y482578D01*
X227944Y482551D01*
X228015Y482543D01*
X228046Y482535D01*
X228070Y482537D01*
X228111Y482533D01*
X239489Y482533D01*
X239560Y482544D01*
X239632Y482546D01*
X239681Y482564D01*
X239732Y482572D01*
X239796Y482606D01*
X239863Y482631D01*
X239904Y482663D01*
X239950Y482688D01*
X239999Y482740D01*
X240055Y482784D01*
X240083Y482828D01*
X240119Y482866D01*
X240149Y482931D01*
X240188Y482991D01*
X240201Y483042D01*
X240223Y483089D01*
X240231Y483160D01*
X240248Y483230D01*
X240244Y483282D01*
X240250Y483333D01*
X240234Y483404D01*
X240229Y483475D01*
X240209Y483523D01*
X240197Y483574D01*
X240161Y483635D01*
X240133Y483701D01*
X240088Y483757D01*
X240071Y483785D01*
X240056Y483798D01*
X240053Y483803D01*
X240047Y483808D01*
X240028Y483832D01*
X237496Y486364D01*
X235879Y490267D01*
X235879Y509733D01*
X237496Y513636D01*
X240484Y516624D01*
X244387Y518241D01*
X248613Y518241D01*
X252516Y516624D01*
X255504Y513636D01*
X257121Y509733D01*
X257121Y490267D01*
X255504Y486364D01*
X252972Y483832D01*
X252930Y483774D01*
X252881Y483722D01*
X252859Y483675D01*
X252829Y483633D01*
X252808Y483564D01*
X252777Y483499D01*
X252772Y483447D01*
X252756Y483397D01*
X252758Y483326D01*
X252750Y483255D01*
X252761Y483204D01*
X252763Y483152D01*
X252787Y483084D01*
X252803Y483014D01*
X252829Y482969D01*
X252847Y482921D01*
X252892Y482865D01*
X252929Y482803D01*
X252968Y482769D01*
X253001Y482729D01*
X253061Y482690D01*
X253116Y482643D01*
X253164Y482624D01*
X253208Y482596D01*
X253277Y482578D01*
X253344Y482551D01*
X253415Y482543D01*
X253446Y482535D01*
X253470Y482537D01*
X253511Y482533D01*
X264889Y482533D01*
X264960Y482544D01*
X265032Y482546D01*
X265081Y482564D01*
X265132Y482572D01*
X265196Y482606D01*
X265263Y482631D01*
X265304Y482663D01*
X265350Y482688D01*
X265399Y482740D01*
X265455Y482784D01*
X265483Y482828D01*
X265519Y482866D01*
X265549Y482931D01*
X265588Y482991D01*
X265601Y483042D01*
X265623Y483089D01*
X265631Y483160D01*
X265648Y483230D01*
X265644Y483282D01*
X265650Y483333D01*
X265634Y483404D01*
X265629Y483475D01*
X265609Y483523D01*
X265597Y483574D01*
X265561Y483635D01*
X265533Y483701D01*
X265488Y483757D01*
X265471Y483785D01*
X265456Y483798D01*
X265453Y483803D01*
X265447Y483808D01*
X265428Y483832D01*
X262896Y486364D01*
X261279Y490267D01*
X261279Y509733D01*
X262896Y513636D01*
X265884Y516624D01*
X269787Y518241D01*
X274013Y518241D01*
X277916Y516624D01*
X280904Y513636D01*
X282521Y509733D01*
X282521Y490267D01*
X281772Y488461D01*
X281750Y488366D01*
X281722Y488273D01*
X281722Y488247D01*
X281716Y488222D01*
X281725Y488125D01*
X281728Y488027D01*
X281737Y488003D01*
X281739Y487977D01*
X281779Y487888D01*
X281812Y487796D01*
X281829Y487776D01*
X281839Y487752D01*
X281905Y487680D01*
X281966Y487604D01*
X281988Y487590D01*
X282006Y487571D01*
X282091Y487524D01*
X282173Y487471D01*
X282198Y487465D01*
X282221Y487452D01*
X282317Y487435D01*
X282412Y487411D01*
X282438Y487413D01*
X282463Y487409D01*
X282560Y487423D01*
X282657Y487430D01*
X282681Y487441D01*
X282707Y487444D01*
X282794Y487489D01*
X282883Y487527D01*
X282909Y487547D01*
X282926Y487556D01*
X282949Y487579D01*
X283014Y487631D01*
X286456Y491074D01*
X286509Y491148D01*
X286569Y491217D01*
X286581Y491247D01*
X286600Y491273D01*
X286627Y491361D01*
X286661Y491445D01*
X286665Y491486D01*
X286672Y491508D01*
X286671Y491541D01*
X286679Y491612D01*
X286679Y509733D01*
X288296Y513636D01*
X291284Y516624D01*
X295187Y518241D01*
X299413Y518241D01*
X303316Y516624D01*
X306304Y513636D01*
X307921Y509733D01*
X307921Y491876D01*
X307932Y491805D01*
X307934Y491733D01*
X307952Y491684D01*
X307960Y491633D01*
X307994Y491570D01*
X308019Y491502D01*
X308051Y491462D01*
X308076Y491416D01*
X308127Y491366D01*
X308172Y491310D01*
X308216Y491282D01*
X308254Y491246D01*
X308319Y491216D01*
X308379Y491177D01*
X308430Y491165D01*
X308477Y491143D01*
X308548Y491135D01*
X308618Y491117D01*
X308670Y491121D01*
X308721Y491116D01*
X308792Y491131D01*
X308863Y491136D01*
X308911Y491157D01*
X308962Y491168D01*
X309023Y491205D01*
X309089Y491233D01*
X309145Y491278D01*
X309173Y491294D01*
X309188Y491312D01*
X309220Y491338D01*
X311856Y493974D01*
X311909Y494048D01*
X311969Y494117D01*
X311981Y494147D01*
X312000Y494173D01*
X312027Y494260D01*
X312061Y494345D01*
X312065Y494386D01*
X312072Y494408D01*
X312071Y494441D01*
X312079Y494512D01*
X312079Y509733D01*
X313696Y513636D01*
X316684Y516624D01*
X320587Y518241D01*
X324813Y518241D01*
X328716Y516624D01*
X331704Y513636D01*
X333321Y509733D01*
X333321Y491676D01*
X333323Y491660D01*
X333322Y491647D01*
X333333Y491597D01*
X333334Y491533D01*
X333352Y491484D01*
X333360Y491433D01*
X333373Y491409D01*
X333374Y491406D01*
X333381Y491395D01*
X333394Y491370D01*
X333419Y491302D01*
X333451Y491262D01*
X333476Y491216D01*
X333527Y491166D01*
X333572Y491110D01*
X333616Y491082D01*
X333654Y491046D01*
X333719Y491016D01*
X333779Y490977D01*
X333830Y490965D01*
X333877Y490943D01*
X333948Y490935D01*
X334018Y490917D01*
X334070Y490921D01*
X334121Y490916D01*
X334192Y490931D01*
X334263Y490936D01*
X334311Y490957D01*
X334362Y490968D01*
X334423Y491005D01*
X334489Y491033D01*
X334539Y491073D01*
X334552Y491080D01*
X334557Y491085D01*
X334573Y491094D01*
X334588Y491112D01*
X334620Y491138D01*
X337256Y493774D01*
X337309Y493848D01*
X337369Y493917D01*
X337381Y493947D01*
X337400Y493973D01*
X337427Y494060D01*
X337461Y494145D01*
X337465Y494186D01*
X337472Y494208D01*
X337471Y494241D01*
X337479Y494312D01*
X337479Y509733D01*
X339096Y513636D01*
X342084Y516624D01*
X345987Y518241D01*
X350213Y518241D01*
X354116Y516624D01*
X357104Y513636D01*
X358721Y509733D01*
X358721Y492559D01*
X358732Y492488D01*
X358734Y492416D01*
X358752Y492367D01*
X358760Y492316D01*
X358794Y492252D01*
X358819Y492185D01*
X358851Y492144D01*
X358876Y492098D01*
X358928Y492049D01*
X358972Y491993D01*
X359016Y491965D01*
X359054Y491929D01*
X359119Y491899D01*
X359179Y491860D01*
X359230Y491847D01*
X359277Y491825D01*
X359348Y491817D01*
X359418Y491800D01*
X359470Y491804D01*
X359521Y491798D01*
X359592Y491814D01*
X359663Y491819D01*
X359711Y491839D01*
X359762Y491851D01*
X359823Y491887D01*
X359889Y491915D01*
X359945Y491960D01*
X359973Y491977D01*
X359988Y491995D01*
X360020Y492020D01*
X362656Y494656D01*
X362709Y494730D01*
X362769Y494800D01*
X362781Y494830D01*
X362800Y494856D01*
X362827Y494943D01*
X362861Y495028D01*
X362865Y495069D01*
X362872Y495091D01*
X362871Y495123D01*
X362879Y495195D01*
X362879Y509733D01*
X364496Y513636D01*
X367484Y516624D01*
X371387Y518241D01*
X375613Y518241D01*
X379516Y516624D01*
X382504Y513636D01*
X384121Y509733D01*
X384121Y492559D01*
X384132Y492488D01*
X384134Y492416D01*
X384152Y492367D01*
X384160Y492316D01*
X384194Y492252D01*
X384219Y492185D01*
X384251Y492144D01*
X384276Y492098D01*
X384328Y492049D01*
X384372Y491993D01*
X384416Y491965D01*
X384454Y491929D01*
X384519Y491899D01*
X384579Y491860D01*
X384630Y491847D01*
X384677Y491825D01*
X384748Y491817D01*
X384818Y491800D01*
X384870Y491804D01*
X384921Y491798D01*
X384992Y491814D01*
X385063Y491819D01*
X385111Y491839D01*
X385162Y491851D01*
X385223Y491887D01*
X385289Y491915D01*
X385345Y491960D01*
X385373Y491977D01*
X385388Y491995D01*
X385420Y492020D01*
X388056Y494656D01*
X388109Y494730D01*
X388169Y494800D01*
X388181Y494830D01*
X388200Y494856D01*
X388227Y494943D01*
X388261Y495028D01*
X388265Y495069D01*
X388272Y495091D01*
X388271Y495123D01*
X388279Y495195D01*
X388279Y509733D01*
X389896Y513636D01*
X392884Y516624D01*
X396787Y518241D01*
X401013Y518241D01*
X404916Y516624D01*
X407904Y513636D01*
X409521Y509733D01*
X409521Y490267D01*
X408419Y487607D01*
X408397Y487513D01*
X408368Y487420D01*
X408369Y487393D01*
X408363Y487368D01*
X408372Y487271D01*
X408374Y487174D01*
X408383Y487149D01*
X408386Y487123D01*
X408425Y487034D01*
X408459Y486943D01*
X408475Y486922D01*
X408486Y486898D01*
X408552Y486827D01*
X408613Y486751D01*
X408635Y486737D01*
X408652Y486717D01*
X408738Y486670D01*
X408819Y486618D01*
X408845Y486611D01*
X408868Y486599D01*
X408964Y486581D01*
X409058Y486558D01*
X409084Y486560D01*
X409110Y486555D01*
X409206Y486569D01*
X409303Y486577D01*
X409327Y486587D01*
X409353Y486591D01*
X409440Y486635D01*
X409530Y486673D01*
X409555Y486693D01*
X409572Y486702D01*
X409596Y486726D01*
X409661Y486778D01*
X413456Y490574D01*
X413509Y490648D01*
X413569Y490717D01*
X413581Y490747D01*
X413600Y490773D01*
X413627Y490860D01*
X413661Y490945D01*
X413665Y490986D01*
X413672Y491008D01*
X413671Y491041D01*
X413679Y491112D01*
X413679Y509733D01*
X415296Y513636D01*
X418284Y516624D01*
X422187Y518241D01*
X426413Y518241D01*
X430316Y516624D01*
X433304Y513636D01*
X434921Y509733D01*
X434921Y490267D01*
X433304Y486364D01*
X433272Y486332D01*
X433230Y486274D01*
X433181Y486222D01*
X433159Y486175D01*
X433129Y486133D01*
X433108Y486064D01*
X433077Y485999D01*
X433072Y485947D01*
X433056Y485898D01*
X433058Y485826D01*
X433050Y485755D01*
X433061Y485704D01*
X433063Y485652D01*
X433087Y485584D01*
X433103Y485514D01*
X433129Y485469D01*
X433147Y485421D01*
X433192Y485365D01*
X433229Y485303D01*
X433268Y485269D01*
X433301Y485229D01*
X433361Y485190D01*
X433416Y485143D01*
X433464Y485124D01*
X433508Y485096D01*
X433577Y485078D01*
X433644Y485051D01*
X433715Y485043D01*
X433746Y485035D01*
X433770Y485037D01*
X433811Y485033D01*
X445100Y485033D01*
X445190Y485047D01*
X445281Y485055D01*
X445311Y485067D01*
X445343Y485072D01*
X445423Y485115D01*
X445507Y485151D01*
X445539Y485177D01*
X445560Y485188D01*
X445582Y485211D01*
X445638Y485256D01*
X450256Y489874D01*
X450309Y489948D01*
X450369Y490017D01*
X450381Y490047D01*
X450400Y490073D01*
X450427Y490160D01*
X450461Y490245D01*
X450465Y490286D01*
X450472Y490308D01*
X450471Y490341D01*
X450479Y490412D01*
X450479Y509733D01*
X452096Y513636D01*
X455084Y516624D01*
X458987Y518241D01*
X463213Y518241D01*
X467116Y516624D01*
X470104Y513636D01*
X471721Y509733D01*
X471721Y490676D01*
X471732Y490605D01*
X471734Y490533D01*
X471752Y490484D01*
X471760Y490433D01*
X471794Y490370D01*
X471819Y490302D01*
X471851Y490262D01*
X471876Y490216D01*
X471928Y490166D01*
X471972Y490110D01*
X472016Y490082D01*
X472054Y490046D01*
X472119Y490016D01*
X472179Y489977D01*
X472230Y489965D01*
X472277Y489943D01*
X472348Y489935D01*
X472418Y489917D01*
X472470Y489921D01*
X472521Y489916D01*
X472592Y489931D01*
X472663Y489936D01*
X472711Y489957D01*
X472762Y489968D01*
X472823Y490005D01*
X472889Y490033D01*
X472945Y490078D01*
X472973Y490094D01*
X472988Y490112D01*
X473020Y490138D01*
X475656Y492774D01*
X475709Y492848D01*
X475769Y492917D01*
X475781Y492947D01*
X475800Y492973D01*
X475827Y493061D01*
X475861Y493145D01*
X475865Y493186D01*
X475872Y493208D01*
X475871Y493241D01*
X475879Y493312D01*
X475879Y509733D01*
X477496Y513636D01*
X480484Y516624D01*
X484387Y518241D01*
X488613Y518241D01*
X492516Y516624D01*
X495504Y513636D01*
X497121Y509733D01*
X497121Y491076D01*
X497132Y491005D01*
X497134Y490933D01*
X497152Y490884D01*
X497160Y490833D01*
X497194Y490770D01*
X497219Y490702D01*
X497251Y490662D01*
X497276Y490616D01*
X497328Y490566D01*
X497372Y490510D01*
X497416Y490482D01*
X497454Y490446D01*
X497519Y490416D01*
X497579Y490377D01*
X497630Y490365D01*
X497677Y490343D01*
X497748Y490335D01*
X497818Y490317D01*
X497870Y490321D01*
X497921Y490316D01*
X497992Y490331D01*
X498063Y490336D01*
X498111Y490357D01*
X498162Y490368D01*
X498223Y490405D01*
X498289Y490433D01*
X498345Y490478D01*
X498373Y490494D01*
X498388Y490512D01*
X498420Y490538D01*
X501056Y493174D01*
X501109Y493248D01*
X501169Y493317D01*
X501181Y493347D01*
X501200Y493373D01*
X501227Y493461D01*
X501261Y493545D01*
X501265Y493586D01*
X501272Y493608D01*
X501271Y493641D01*
X501279Y493712D01*
X501279Y509733D01*
X502896Y513636D01*
X505884Y516624D01*
X509787Y518241D01*
X514013Y518241D01*
X517916Y516624D01*
X520904Y513636D01*
X522521Y509733D01*
X522521Y491476D01*
X522532Y491405D01*
X522534Y491333D01*
X522552Y491284D01*
X522560Y491233D01*
X522594Y491170D01*
X522619Y491102D01*
X522651Y491062D01*
X522676Y491016D01*
X522728Y490966D01*
X522772Y490910D01*
X522816Y490882D01*
X522854Y490846D01*
X522919Y490816D01*
X522979Y490777D01*
X523030Y490765D01*
X523077Y490743D01*
X523148Y490735D01*
X523218Y490717D01*
X523270Y490721D01*
X523321Y490716D01*
X523392Y490731D01*
X523463Y490736D01*
X523511Y490757D01*
X523562Y490768D01*
X523623Y490805D01*
X523689Y490833D01*
X523745Y490878D01*
X523773Y490894D01*
X523788Y490912D01*
X523820Y490938D01*
X526456Y493574D01*
X526509Y493648D01*
X526569Y493717D01*
X526581Y493747D01*
X526600Y493773D01*
X526627Y493861D01*
X526661Y493945D01*
X526665Y493986D01*
X526672Y494008D01*
X526671Y494041D01*
X526679Y494112D01*
X526679Y509733D01*
X528296Y513636D01*
X531284Y516624D01*
X535187Y518241D01*
X539413Y518241D01*
X543316Y516624D01*
X546304Y513636D01*
X547921Y509733D01*
X547921Y491876D01*
X547932Y491805D01*
X547934Y491733D01*
X547952Y491684D01*
X547960Y491633D01*
X547994Y491570D01*
X548019Y491502D01*
X548051Y491462D01*
X548076Y491416D01*
X548128Y491366D01*
X548172Y491310D01*
X548216Y491282D01*
X548254Y491246D01*
X548319Y491216D01*
X548379Y491177D01*
X548430Y491165D01*
X548477Y491143D01*
X548548Y491135D01*
X548618Y491117D01*
X548670Y491121D01*
X548721Y491116D01*
X548792Y491131D01*
X548863Y491136D01*
X548911Y491157D01*
X548962Y491168D01*
X549023Y491205D01*
X549089Y491233D01*
X549145Y491278D01*
X549173Y491294D01*
X549188Y491312D01*
X549220Y491338D01*
X551856Y493974D01*
X551909Y494048D01*
X551969Y494117D01*
X551981Y494147D01*
X552000Y494173D01*
X552027Y494261D01*
X552061Y494345D01*
X552065Y494386D01*
X552072Y494408D01*
X552071Y494441D01*
X552079Y494512D01*
X552079Y509733D01*
X553696Y513636D01*
X556684Y516624D01*
X560587Y518241D01*
X564813Y518241D01*
X568716Y516624D01*
X571704Y513636D01*
X573321Y509733D01*
X573321Y491776D01*
X573332Y491705D01*
X573334Y491633D01*
X573352Y491584D01*
X573360Y491533D01*
X573394Y491470D01*
X573419Y491402D01*
X573451Y491362D01*
X573476Y491316D01*
X573527Y491266D01*
X573572Y491210D01*
X573616Y491182D01*
X573654Y491146D01*
X573719Y491116D01*
X573779Y491077D01*
X573830Y491065D01*
X573877Y491043D01*
X573948Y491035D01*
X574018Y491017D01*
X574070Y491021D01*
X574121Y491016D01*
X574192Y491031D01*
X574263Y491036D01*
X574311Y491057D01*
X574362Y491068D01*
X574423Y491105D01*
X574489Y491133D01*
X574545Y491178D01*
X574573Y491194D01*
X574588Y491212D01*
X574620Y491238D01*
X577256Y493874D01*
X577309Y493948D01*
X577369Y494017D01*
X577381Y494047D01*
X577400Y494073D01*
X577427Y494160D01*
X577461Y494245D01*
X577465Y494286D01*
X577472Y494308D01*
X577471Y494341D01*
X577479Y494412D01*
X577479Y509733D01*
X579096Y513636D01*
X582084Y516624D01*
X585987Y518241D01*
X590213Y518241D01*
X594116Y516624D01*
X597104Y513636D01*
X598721Y509733D01*
X598721Y490267D01*
X597104Y486364D01*
X594116Y483376D01*
X590213Y481759D01*
X585987Y481759D01*
X582084Y483376D01*
X582077Y483383D01*
X582061Y483395D01*
X582048Y483410D01*
X581961Y483466D01*
X581877Y483527D01*
X581858Y483532D01*
X581841Y483543D01*
X581741Y483569D01*
X581642Y483599D01*
X581622Y483598D01*
X581603Y483603D01*
X581500Y483595D01*
X581396Y483593D01*
X581377Y483586D01*
X581358Y483584D01*
X581263Y483544D01*
X581165Y483508D01*
X581150Y483496D01*
X581131Y483488D01*
X581000Y483383D01*
X545724Y448106D01*
X545671Y448032D01*
X545611Y447963D01*
X545599Y447933D01*
X545580Y447907D01*
X545553Y447820D01*
X545519Y447735D01*
X545515Y447694D01*
X545508Y447672D01*
X545509Y447639D01*
X545501Y447568D01*
X545501Y436757D01*
X544282Y435538D01*
X544270Y435522D01*
X544255Y435510D01*
X544199Y435422D01*
X544138Y435339D01*
X544133Y435320D01*
X544122Y435303D01*
X544096Y435202D01*
X544066Y435103D01*
X544067Y435084D01*
X544062Y435064D01*
X544070Y434961D01*
X544072Y434858D01*
X544079Y434839D01*
X544081Y434819D01*
X544121Y434724D01*
X544157Y434627D01*
X544169Y434611D01*
X544177Y434593D01*
X544282Y434462D01*
X545501Y433243D01*
X545501Y417757D01*
X543743Y415999D01*
X533432Y415999D01*
X533342Y415985D01*
X533251Y415977D01*
X533221Y415965D01*
X533189Y415960D01*
X533109Y415917D01*
X533025Y415881D01*
X532993Y415855D01*
X532972Y415844D01*
X532950Y415821D01*
X532894Y415776D01*
X509585Y392467D01*
X494900Y392467D01*
X494810Y392453D01*
X494719Y392445D01*
X494689Y392433D01*
X494657Y392428D01*
X494577Y392385D01*
X494493Y392349D01*
X494461Y392323D01*
X494440Y392312D01*
X494418Y392289D01*
X494362Y392244D01*
X447085Y344967D01*
X336315Y344967D01*
X333144Y348138D01*
X320986Y360297D01*
X320891Y360365D01*
X320797Y360435D01*
X320791Y360437D01*
X320786Y360440D01*
X320674Y360475D01*
X320563Y360511D01*
X320557Y360511D01*
X320551Y360513D01*
X320434Y360510D01*
X320317Y360508D01*
X320310Y360506D01*
X320305Y360506D01*
X320288Y360500D01*
X320156Y360462D01*
X318436Y359749D01*
X313364Y359749D01*
X308677Y361690D01*
X305090Y365277D01*
X303903Y368143D01*
X303865Y368204D01*
X303836Y368270D01*
X303801Y368308D01*
X303774Y368352D01*
X303718Y368398D01*
X303670Y368451D01*
X303624Y368476D01*
X303584Y368509D01*
X303517Y368535D01*
X303454Y368569D01*
X303403Y368579D01*
X303355Y368597D01*
X303283Y368600D01*
X303212Y368613D01*
X303161Y368606D01*
X303109Y368608D01*
X303040Y368588D01*
X302969Y368577D01*
X302923Y368554D01*
X302873Y368539D01*
X302814Y368498D01*
X302750Y368466D01*
X302713Y368429D01*
X302671Y368399D01*
X302628Y368341D01*
X302578Y368290D01*
X302543Y368227D01*
X302524Y368202D01*
X302517Y368179D01*
X302497Y368143D01*
X301310Y365277D01*
X297723Y361690D01*
X293036Y359749D01*
X287964Y359749D01*
X283277Y361690D01*
X279690Y365277D01*
X278503Y368143D01*
X278465Y368204D01*
X278436Y368270D01*
X278401Y368308D01*
X278374Y368352D01*
X278318Y368398D01*
X278270Y368451D01*
X278224Y368476D01*
X278184Y368509D01*
X278117Y368535D01*
X278054Y368569D01*
X278003Y368579D01*
X277955Y368597D01*
X277883Y368600D01*
X277812Y368613D01*
X277761Y368606D01*
X277709Y368608D01*
X277640Y368588D01*
X277569Y368577D01*
X277523Y368554D01*
X277473Y368539D01*
X277414Y368498D01*
X277350Y368466D01*
X277313Y368429D01*
X277271Y368399D01*
X277228Y368341D01*
X277178Y368290D01*
X277143Y368227D01*
X277124Y368202D01*
X277117Y368179D01*
X277097Y368143D01*
X275910Y365277D01*
X272323Y361690D01*
X267636Y359749D01*
X262564Y359749D01*
X257877Y361690D01*
X254290Y365277D01*
X253103Y368143D01*
X253065Y368204D01*
X253036Y368270D01*
X253001Y368308D01*
X252974Y368352D01*
X252918Y368398D01*
X252870Y368451D01*
X252824Y368476D01*
X252784Y368509D01*
X252717Y368535D01*
X252654Y368569D01*
X252603Y368579D01*
X252555Y368597D01*
X252483Y368600D01*
X252412Y368613D01*
X252361Y368606D01*
X252309Y368608D01*
X252240Y368588D01*
X252169Y368577D01*
X252123Y368554D01*
X252073Y368539D01*
X252014Y368498D01*
X251950Y368466D01*
X251913Y368429D01*
X251871Y368399D01*
X251828Y368341D01*
X251778Y368290D01*
X251743Y368227D01*
X251724Y368202D01*
X251717Y368179D01*
X251697Y368143D01*
X250510Y365277D01*
X246923Y361690D01*
X242236Y359749D01*
X237164Y359749D01*
X232477Y361690D01*
X228890Y365277D01*
X227703Y368143D01*
X227665Y368204D01*
X227636Y368270D01*
X227601Y368308D01*
X227574Y368352D01*
X227518Y368398D01*
X227470Y368451D01*
X227424Y368476D01*
X227384Y368509D01*
X227317Y368535D01*
X227254Y368569D01*
X227203Y368579D01*
X227155Y368597D01*
X227083Y368600D01*
X227012Y368613D01*
X226961Y368606D01*
X226909Y368608D01*
X226840Y368588D01*
X226769Y368577D01*
X226723Y368554D01*
X226673Y368539D01*
X226614Y368498D01*
X226550Y368466D01*
X226513Y368429D01*
X226471Y368399D01*
X226428Y368341D01*
X226378Y368290D01*
X226343Y368227D01*
X226324Y368202D01*
X226317Y368179D01*
X226297Y368143D01*
X225110Y365277D01*
X221523Y361690D01*
X216836Y359749D01*
X211764Y359749D01*
X207077Y361690D01*
X203490Y365277D01*
X202303Y368143D01*
X202265Y368204D01*
X202236Y368270D01*
X202201Y368308D01*
X202174Y368352D01*
X202118Y368398D01*
X202070Y368451D01*
X202024Y368476D01*
X201984Y368509D01*
X201917Y368535D01*
X201854Y368569D01*
X201803Y368579D01*
X201755Y368597D01*
X201683Y368600D01*
X201612Y368613D01*
X201561Y368606D01*
X201509Y368608D01*
X201440Y368588D01*
X201369Y368577D01*
X201323Y368554D01*
X201273Y368539D01*
X201214Y368498D01*
X201150Y368466D01*
X201113Y368429D01*
X201071Y368399D01*
X201028Y368341D01*
X200978Y368290D01*
X200943Y368227D01*
X200924Y368202D01*
X200917Y368179D01*
X200897Y368143D01*
X199710Y365277D01*
X196123Y361690D01*
X191436Y359749D01*
X186364Y359749D01*
X181677Y361690D01*
X178090Y365277D01*
X176903Y368143D01*
X176865Y368204D01*
X176836Y368270D01*
X176801Y368308D01*
X176774Y368352D01*
X176718Y368398D01*
X176670Y368451D01*
X176624Y368476D01*
X176584Y368509D01*
X176517Y368535D01*
X176454Y368569D01*
X176403Y368579D01*
X176355Y368597D01*
X176283Y368600D01*
X176212Y368613D01*
X176161Y368606D01*
X176109Y368608D01*
X176040Y368588D01*
X175969Y368577D01*
X175923Y368554D01*
X175873Y368539D01*
X175814Y368498D01*
X175750Y368466D01*
X175713Y368429D01*
X175671Y368399D01*
X175628Y368341D01*
X175578Y368290D01*
X175543Y368227D01*
X175524Y368202D01*
X175517Y368179D01*
X175497Y368143D01*
X174310Y365277D01*
X170723Y361690D01*
X166036Y359749D01*
X160964Y359749D01*
X156277Y361690D01*
X152690Y365277D01*
X151503Y368143D01*
X151465Y368204D01*
X151436Y368270D01*
X151401Y368308D01*
X151374Y368352D01*
X151318Y368398D01*
X151270Y368451D01*
X151224Y368476D01*
X151184Y368509D01*
X151117Y368535D01*
X151054Y368569D01*
X151003Y368579D01*
X150955Y368597D01*
X150883Y368600D01*
X150812Y368613D01*
X150761Y368606D01*
X150709Y368608D01*
X150640Y368588D01*
X150569Y368577D01*
X150523Y368554D01*
X150473Y368539D01*
X150414Y368498D01*
X150350Y368466D01*
X150313Y368429D01*
X150271Y368399D01*
X150228Y368341D01*
X150178Y368290D01*
X150143Y368227D01*
X150124Y368202D01*
X150117Y368179D01*
X150097Y368143D01*
X148910Y365277D01*
X145323Y361690D01*
X140636Y359749D01*
X135564Y359749D01*
X130877Y361690D01*
X127290Y365277D01*
X126103Y368143D01*
X126065Y368204D01*
X126036Y368270D01*
X126001Y368308D01*
X125974Y368352D01*
X125918Y368398D01*
X125870Y368451D01*
X125824Y368476D01*
X125784Y368509D01*
X125717Y368535D01*
X125654Y368569D01*
X125603Y368579D01*
X125555Y368597D01*
X125483Y368600D01*
X125412Y368613D01*
X125361Y368606D01*
X125309Y368608D01*
X125240Y368588D01*
X125169Y368577D01*
X125123Y368554D01*
X125073Y368539D01*
X125014Y368498D01*
X124950Y368466D01*
X124913Y368429D01*
X124871Y368399D01*
X124828Y368341D01*
X124778Y368290D01*
X124743Y368227D01*
X124724Y368202D01*
X124717Y368179D01*
X124697Y368143D01*
X123510Y365277D01*
X119923Y361690D01*
X115236Y359749D01*
X110164Y359749D01*
X105477Y361690D01*
X101890Y365277D01*
X100703Y368143D01*
X100665Y368204D01*
X100636Y368270D01*
X100601Y368308D01*
X100574Y368352D01*
X100518Y368398D01*
X100470Y368451D01*
X100424Y368476D01*
X100384Y368509D01*
X100317Y368535D01*
X100254Y368569D01*
X100203Y368579D01*
X100155Y368597D01*
X100083Y368600D01*
X100012Y368613D01*
X99961Y368606D01*
X99909Y368608D01*
X99840Y368588D01*
X99769Y368577D01*
X99723Y368554D01*
X99673Y368539D01*
X99614Y368498D01*
X99550Y368466D01*
X99513Y368429D01*
X99471Y368399D01*
X99428Y368341D01*
X99378Y368290D01*
X99343Y368227D01*
X99324Y368202D01*
X99317Y368179D01*
X99297Y368143D01*
X98110Y365277D01*
X94523Y361690D01*
X89836Y359749D01*
X84764Y359749D01*
X80077Y361690D01*
X76490Y365277D01*
X75303Y368143D01*
X75265Y368204D01*
X75236Y368270D01*
X75201Y368308D01*
X75174Y368352D01*
X75118Y368398D01*
X75070Y368451D01*
X75024Y368476D01*
X74984Y368509D01*
X74917Y368535D01*
X74854Y368569D01*
X74803Y368579D01*
X74755Y368597D01*
X74683Y368600D01*
X74612Y368613D01*
X74561Y368606D01*
X74509Y368608D01*
X74440Y368588D01*
X74369Y368577D01*
X74323Y368554D01*
X74273Y368539D01*
X74214Y368498D01*
X74150Y368466D01*
X74113Y368429D01*
X74071Y368399D01*
X74028Y368341D01*
X73978Y368290D01*
X73943Y368227D01*
X73924Y368202D01*
X73917Y368179D01*
X73897Y368143D01*
X72710Y365277D01*
X69123Y361690D01*
X64436Y359749D01*
X59364Y359749D01*
X54677Y361690D01*
X51090Y365277D01*
X49149Y369964D01*
X49149Y375036D01*
X51090Y379723D01*
X54677Y383310D01*
X59364Y385251D01*
X64436Y385251D01*
X64813Y385095D01*
X64926Y385068D01*
X65040Y385040D01*
X65046Y385040D01*
X65052Y385039D01*
X65169Y385050D01*
X65285Y385059D01*
X65291Y385061D01*
X65297Y385062D01*
X65405Y385110D01*
X65511Y385155D01*
X65517Y385160D01*
X65522Y385162D01*
X65536Y385174D01*
X65642Y385260D01*
X90781Y410399D01*
X90793Y410415D01*
X90808Y410427D01*
X90865Y410515D01*
X90925Y410598D01*
X90931Y410617D01*
X90941Y410634D01*
X90967Y410735D01*
X90997Y410833D01*
X90997Y410853D01*
X91001Y410873D01*
X90993Y410976D01*
X90991Y411079D01*
X90984Y411098D01*
X90982Y411118D01*
X90942Y411213D01*
X90906Y411310D01*
X90894Y411326D01*
X90886Y411344D01*
X90781Y411475D01*
X89499Y412757D01*
X89499Y428243D01*
X90718Y429462D01*
X90730Y429478D01*
X90745Y429490D01*
X90801Y429578D01*
X90862Y429661D01*
X90867Y429680D01*
X90878Y429697D01*
X90904Y429798D01*
X90934Y429897D01*
X90933Y429916D01*
X90938Y429936D01*
X90930Y430039D01*
X90928Y430142D01*
X90921Y430161D01*
X90919Y430181D01*
X90879Y430276D01*
X90843Y430373D01*
X90831Y430389D01*
X90823Y430407D01*
X90739Y430512D01*
X90737Y430516D01*
X90735Y430517D01*
X90718Y430538D01*
X89499Y431757D01*
X89499Y447544D01*
X89497Y447560D01*
X89498Y447573D01*
X89487Y447622D01*
X89486Y447687D01*
X89468Y447736D01*
X89460Y447787D01*
X89446Y447812D01*
X89446Y447813D01*
X89442Y447820D01*
X89426Y447850D01*
X89401Y447918D01*
X89369Y447958D01*
X89344Y448004D01*
X89293Y448054D01*
X89248Y448110D01*
X89204Y448138D01*
X89166Y448174D01*
X89101Y448204D01*
X89041Y448243D01*
X88990Y448255D01*
X88943Y448277D01*
X88872Y448285D01*
X88802Y448303D01*
X88750Y448299D01*
X88699Y448304D01*
X88628Y448289D01*
X88557Y448284D01*
X88509Y448263D01*
X88458Y448252D01*
X88397Y448215D01*
X88331Y448187D01*
X88280Y448147D01*
X88267Y448140D01*
X88263Y448135D01*
X88247Y448126D01*
X88232Y448108D01*
X88200Y448082D01*
X83224Y443106D01*
X83171Y443032D01*
X83111Y442963D01*
X83099Y442933D01*
X83080Y442907D01*
X83053Y442820D01*
X83019Y442735D01*
X83015Y442694D01*
X83008Y442672D01*
X83009Y442639D01*
X83001Y442568D01*
X83001Y431757D01*
X81782Y430538D01*
X81770Y430522D01*
X81755Y430510D01*
X81724Y430462D01*
X81715Y430453D01*
X81708Y430437D01*
X81699Y430422D01*
X81638Y430339D01*
X81633Y430320D01*
X81622Y430303D01*
X81596Y430202D01*
X81566Y430103D01*
X81567Y430084D01*
X81562Y430064D01*
X81570Y429961D01*
X81572Y429858D01*
X81579Y429839D01*
X81581Y429819D01*
X81621Y429724D01*
X81657Y429627D01*
X81669Y429611D01*
X81677Y429593D01*
X81782Y429462D01*
X83001Y428243D01*
X83001Y412757D01*
X81243Y410999D01*
X70432Y410999D01*
X70342Y410985D01*
X70251Y410977D01*
X70221Y410965D01*
X70189Y410960D01*
X70108Y410917D01*
X70025Y410881D01*
X69992Y410855D01*
X69972Y410844D01*
X69967Y410839D01*
X69966Y410839D01*
X69948Y410820D01*
X69894Y410776D01*
X37756Y378638D01*
X37703Y378564D01*
X37643Y378495D01*
X37631Y378465D01*
X37612Y378439D01*
X37585Y378352D01*
X37551Y378267D01*
X37547Y378226D01*
X37540Y378204D01*
X37541Y378171D01*
X37533Y378100D01*
X37533Y252400D01*
X37547Y252310D01*
X37555Y252219D01*
X37567Y252189D01*
X37572Y252157D01*
X37615Y252077D01*
X37651Y251993D01*
X37677Y251961D01*
X37688Y251940D01*
X37711Y251918D01*
X37756Y251862D01*
X56644Y232974D01*
X56718Y232921D01*
X56787Y232861D01*
X56817Y232849D01*
X56843Y232830D01*
X56930Y232803D01*
X57015Y232769D01*
X57056Y232765D01*
X57078Y232758D01*
X57111Y232759D01*
X57182Y232751D01*
X73493Y232751D01*
X75251Y230993D01*
X75251Y226608D01*
X75266Y226512D01*
X75276Y226415D01*
X75286Y226391D01*
X75290Y226366D01*
X75336Y226280D01*
X75376Y226190D01*
X75393Y226171D01*
X75406Y226148D01*
X75476Y226081D01*
X75542Y226009D01*
X75565Y225997D01*
X75584Y225979D01*
X75672Y225938D01*
X75758Y225891D01*
X75783Y225886D01*
X75807Y225875D01*
X75904Y225864D01*
X76000Y225847D01*
X76026Y225851D01*
X76051Y225848D01*
X76146Y225869D01*
X76243Y225883D01*
X76266Y225895D01*
X76292Y225900D01*
X76376Y225950D01*
X76462Y225994D01*
X76480Y226013D01*
X76503Y226026D01*
X76566Y226101D01*
X76634Y226170D01*
X76650Y226199D01*
X76663Y226213D01*
X76675Y226244D01*
X76715Y226317D01*
X77090Y227223D01*
X80677Y230810D01*
X85364Y232751D01*
X90436Y232751D01*
X95123Y230810D01*
X98710Y227223D01*
X99897Y224357D01*
X99935Y224296D01*
X99964Y224230D01*
X99999Y224192D01*
X100026Y224148D01*
X100082Y224102D01*
X100130Y224049D01*
X100176Y224024D01*
X100216Y223991D01*
X100283Y223965D01*
X100346Y223931D01*
X100397Y223921D01*
X100445Y223903D01*
X100517Y223900D01*
X100588Y223887D01*
X100639Y223894D01*
X100691Y223892D01*
X100760Y223912D01*
X100831Y223923D01*
X100877Y223946D01*
X100927Y223961D01*
X100986Y224002D01*
X101050Y224034D01*
X101087Y224071D01*
X101129Y224101D01*
X101172Y224159D01*
X101222Y224210D01*
X101257Y224273D01*
X101276Y224298D01*
X101283Y224321D01*
X101303Y224357D01*
X102490Y227223D01*
X106077Y230810D01*
X110764Y232751D01*
X115836Y232751D01*
X120523Y230810D01*
X124110Y227223D01*
X125297Y224357D01*
X125335Y224296D01*
X125364Y224230D01*
X125399Y224192D01*
X125426Y224148D01*
X125482Y224102D01*
X125530Y224049D01*
X125576Y224024D01*
X125616Y223991D01*
X125683Y223965D01*
X125746Y223931D01*
X125797Y223921D01*
X125845Y223903D01*
X125917Y223900D01*
X125988Y223887D01*
X126039Y223894D01*
X126091Y223892D01*
X126160Y223912D01*
X126231Y223923D01*
X126277Y223946D01*
X126327Y223961D01*
X126386Y224002D01*
X126450Y224034D01*
X126487Y224071D01*
X126529Y224101D01*
X126572Y224159D01*
X126622Y224210D01*
X126657Y224273D01*
X126676Y224298D01*
X126683Y224321D01*
X126703Y224357D01*
X127890Y227223D01*
X131477Y230810D01*
X136164Y232751D01*
X141236Y232751D01*
X145923Y230810D01*
X149510Y227223D01*
X150697Y224357D01*
X150735Y224296D01*
X150764Y224230D01*
X150799Y224192D01*
X150826Y224148D01*
X150882Y224102D01*
X150930Y224049D01*
X150976Y224024D01*
X151016Y223991D01*
X151083Y223965D01*
X151146Y223931D01*
X151197Y223921D01*
X151245Y223903D01*
X151317Y223900D01*
X151388Y223887D01*
X151439Y223894D01*
X151491Y223892D01*
X151560Y223912D01*
X151631Y223923D01*
X151677Y223946D01*
X151727Y223961D01*
X151786Y224002D01*
X151850Y224034D01*
X151887Y224071D01*
X151929Y224101D01*
X151972Y224159D01*
X152022Y224210D01*
X152057Y224273D01*
X152076Y224298D01*
X152083Y224321D01*
X152103Y224357D01*
X153290Y227223D01*
X156877Y230810D01*
X161564Y232751D01*
X166636Y232751D01*
X171323Y230810D01*
X174910Y227223D01*
X176097Y224357D01*
X176135Y224296D01*
X176164Y224230D01*
X176199Y224192D01*
X176226Y224148D01*
X176282Y224102D01*
X176330Y224049D01*
X176376Y224024D01*
X176416Y223991D01*
X176483Y223965D01*
X176546Y223931D01*
X176597Y223921D01*
X176645Y223903D01*
X176717Y223900D01*
X176788Y223887D01*
X176839Y223894D01*
X176891Y223892D01*
X176960Y223912D01*
X177031Y223923D01*
X177077Y223946D01*
X177127Y223961D01*
X177186Y224002D01*
X177250Y224034D01*
X177287Y224071D01*
X177329Y224101D01*
X177372Y224159D01*
X177422Y224210D01*
X177457Y224273D01*
X177476Y224298D01*
X177483Y224321D01*
X177503Y224357D01*
X178690Y227223D01*
X182277Y230810D01*
X186964Y232751D01*
X192036Y232751D01*
X196723Y230810D01*
X200310Y227223D01*
X201497Y224357D01*
X201535Y224296D01*
X201564Y224230D01*
X201599Y224192D01*
X201626Y224148D01*
X201682Y224102D01*
X201730Y224049D01*
X201776Y224024D01*
X201816Y223991D01*
X201883Y223965D01*
X201946Y223931D01*
X201997Y223921D01*
X202045Y223903D01*
X202117Y223900D01*
X202188Y223887D01*
X202239Y223894D01*
X202291Y223892D01*
X202360Y223912D01*
X202431Y223923D01*
X202477Y223946D01*
X202527Y223961D01*
X202586Y224002D01*
X202650Y224034D01*
X202687Y224071D01*
X202729Y224101D01*
X202772Y224159D01*
X202822Y224210D01*
X202857Y224273D01*
X202876Y224298D01*
X202883Y224321D01*
X202903Y224357D01*
X204090Y227223D01*
X207677Y230810D01*
X212364Y232751D01*
X217436Y232751D01*
X222123Y230810D01*
X225710Y227223D01*
X226897Y224357D01*
X226935Y224296D01*
X226964Y224230D01*
X226999Y224192D01*
X227026Y224148D01*
X227082Y224102D01*
X227130Y224049D01*
X227176Y224024D01*
X227216Y223991D01*
X227283Y223965D01*
X227346Y223931D01*
X227397Y223921D01*
X227445Y223903D01*
X227517Y223900D01*
X227588Y223887D01*
X227639Y223894D01*
X227691Y223892D01*
X227760Y223912D01*
X227831Y223923D01*
X227877Y223946D01*
X227927Y223961D01*
X227986Y224002D01*
X228050Y224034D01*
X228087Y224071D01*
X228129Y224101D01*
X228172Y224159D01*
X228222Y224210D01*
X228257Y224273D01*
X228276Y224298D01*
X228283Y224321D01*
X228303Y224357D01*
X229490Y227223D01*
X233077Y230810D01*
X237764Y232751D01*
X242836Y232751D01*
X244556Y232038D01*
X244670Y232012D01*
X244783Y231983D01*
X244790Y231984D01*
X244796Y231982D01*
X244912Y231993D01*
X245029Y232002D01*
X245034Y232005D01*
X245041Y232005D01*
X245148Y232053D01*
X245255Y232098D01*
X245261Y232103D01*
X245265Y232105D01*
X245279Y232118D01*
X245386Y232203D01*
X335715Y322533D01*
X445600Y322533D01*
X445690Y322547D01*
X445781Y322555D01*
X445811Y322567D01*
X445843Y322572D01*
X445923Y322615D01*
X446007Y322651D01*
X446039Y322677D01*
X446060Y322688D01*
X446082Y322711D01*
X446138Y322756D01*
X460776Y337394D01*
X460821Y337456D01*
X460849Y337485D01*
X460854Y337497D01*
X460889Y337537D01*
X460901Y337567D01*
X460920Y337593D01*
X460947Y337680D01*
X460981Y337765D01*
X460985Y337806D01*
X460992Y337828D01*
X460991Y337861D01*
X460999Y337932D01*
X460999Y348743D01*
X462757Y350501D01*
X478243Y350501D01*
X479462Y349282D01*
X479478Y349270D01*
X479490Y349255D01*
X479578Y349199D01*
X479661Y349138D01*
X479680Y349133D01*
X479697Y349122D01*
X479798Y349096D01*
X479897Y349066D01*
X479916Y349067D01*
X479936Y349062D01*
X480039Y349070D01*
X480142Y349072D01*
X480161Y349079D01*
X480181Y349081D01*
X480276Y349121D01*
X480373Y349157D01*
X480389Y349169D01*
X480407Y349177D01*
X480538Y349282D01*
X481757Y350501D01*
X492568Y350501D01*
X492658Y350515D01*
X492749Y350523D01*
X492779Y350535D01*
X492811Y350540D01*
X492892Y350583D01*
X492975Y350619D01*
X493008Y350645D01*
X493028Y350656D01*
X493050Y350679D01*
X493106Y350724D01*
X608244Y465862D01*
X608297Y465936D01*
X608357Y466005D01*
X608369Y466035D01*
X608388Y466061D01*
X608415Y466148D01*
X608449Y466233D01*
X608453Y466274D01*
X608460Y466296D01*
X608459Y466329D01*
X608467Y466400D01*
X608467Y482460D01*
X608449Y482575D01*
X608431Y482691D01*
X608429Y482697D01*
X608428Y482703D01*
X608373Y482806D01*
X608320Y482910D01*
X608315Y482915D01*
X608312Y482920D01*
X608228Y483001D01*
X608144Y483083D01*
X608138Y483086D01*
X608134Y483090D01*
X608117Y483098D01*
X607997Y483164D01*
X607484Y483376D01*
X604496Y486364D01*
X602879Y490267D01*
X602879Y509733D01*
X604496Y513636D01*
X607484Y516624D01*
X611387Y518241D01*
X615613Y518241D01*
X619516Y516624D01*
X622504Y513636D01*
X624121Y509733D01*
X624121Y490267D01*
X622504Y486364D01*
X619516Y483376D01*
X619003Y483164D01*
X618904Y483102D01*
X618803Y483042D01*
X618799Y483037D01*
X618794Y483034D01*
X618720Y482944D01*
X618643Y482855D01*
X618641Y482849D01*
X618637Y482844D01*
X618595Y482737D01*
X618551Y482627D01*
X618550Y482619D01*
X618549Y482615D01*
X618548Y482597D01*
X618533Y482460D01*
X618533Y461915D01*
X615362Y458744D01*
X499224Y342606D01*
X499171Y342532D01*
X499111Y342463D01*
X499099Y342433D01*
X499080Y342407D01*
X499053Y342320D01*
X499019Y342235D01*
X499015Y342194D01*
X499008Y342172D01*
X499009Y342139D01*
X499001Y342068D01*
X499001Y331257D01*
X497243Y329499D01*
X481757Y329499D01*
X480538Y330718D01*
X480522Y330730D01*
X480510Y330745D01*
X480422Y330801D01*
X480339Y330862D01*
X480320Y330867D01*
X480303Y330878D01*
X480202Y330904D01*
X480103Y330934D01*
X480084Y330933D01*
X480064Y330938D01*
X479961Y330930D01*
X479858Y330928D01*
X479839Y330921D01*
X479819Y330919D01*
X479724Y330879D01*
X479627Y330843D01*
X479611Y330831D01*
X479593Y330823D01*
X479462Y330718D01*
X478243Y329499D01*
X467432Y329499D01*
X467342Y329485D01*
X467251Y329477D01*
X467221Y329465D01*
X467189Y329460D01*
X467109Y329417D01*
X467025Y329381D01*
X466993Y329355D01*
X466972Y329344D01*
X466950Y329321D01*
X466894Y329276D01*
X450085Y312467D01*
X340200Y312467D01*
X340110Y312453D01*
X340019Y312445D01*
X339989Y312433D01*
X339957Y312428D01*
X339877Y312385D01*
X339793Y312349D01*
X339761Y312323D01*
X339740Y312312D01*
X339718Y312289D01*
X339662Y312244D01*
X260756Y233339D01*
X260699Y233260D01*
X260637Y233185D01*
X260628Y233160D01*
X260612Y233139D01*
X260584Y233046D01*
X260549Y232955D01*
X260548Y232929D01*
X260540Y232904D01*
X260543Y232806D01*
X260538Y232709D01*
X260546Y232684D01*
X260546Y232658D01*
X260580Y232566D01*
X260607Y232473D01*
X260622Y232452D01*
X260631Y232427D01*
X260692Y232351D01*
X260747Y232271D01*
X260768Y232255D01*
X260785Y232235D01*
X260867Y232182D01*
X260945Y232124D01*
X260969Y232116D01*
X260992Y232102D01*
X261086Y232078D01*
X261179Y232048D01*
X261205Y232048D01*
X261230Y232042D01*
X261327Y232049D01*
X261424Y232050D01*
X261456Y232059D01*
X261475Y232061D01*
X261506Y232074D01*
X261586Y232097D01*
X263164Y232751D01*
X268236Y232751D01*
X272923Y230810D01*
X276510Y227223D01*
X277697Y224357D01*
X277735Y224296D01*
X277764Y224230D01*
X277799Y224192D01*
X277826Y224148D01*
X277882Y224102D01*
X277930Y224049D01*
X277976Y224024D01*
X278016Y223991D01*
X278083Y223965D01*
X278146Y223931D01*
X278197Y223921D01*
X278245Y223903D01*
X278317Y223900D01*
X278388Y223887D01*
X278439Y223894D01*
X278491Y223892D01*
X278560Y223912D01*
X278631Y223923D01*
X278677Y223946D01*
X278727Y223961D01*
X278786Y224002D01*
X278850Y224034D01*
X278887Y224071D01*
X278929Y224101D01*
X278972Y224159D01*
X279022Y224210D01*
X279057Y224273D01*
X279076Y224298D01*
X279083Y224321D01*
X279103Y224357D01*
X280290Y227223D01*
X283877Y230810D01*
X288564Y232751D01*
X293636Y232751D01*
X298323Y230810D01*
X301910Y227223D01*
X303097Y224357D01*
X303135Y224296D01*
X303164Y224230D01*
X303199Y224192D01*
X303226Y224148D01*
X303282Y224102D01*
X303330Y224049D01*
X303376Y224024D01*
X303416Y223991D01*
X303483Y223965D01*
X303546Y223931D01*
X303597Y223921D01*
X303645Y223903D01*
X303717Y223900D01*
X303788Y223887D01*
X303839Y223894D01*
X303891Y223892D01*
X303960Y223912D01*
X304031Y223923D01*
X304077Y223946D01*
X304127Y223961D01*
X304186Y224002D01*
X304250Y224034D01*
X304287Y224071D01*
X304329Y224101D01*
X304372Y224159D01*
X304422Y224210D01*
X304457Y224273D01*
X304476Y224298D01*
X304483Y224321D01*
X304503Y224357D01*
X305690Y227223D01*
X309277Y230810D01*
X313964Y232751D01*
X319036Y232751D01*
X323723Y230810D01*
X327310Y227223D01*
X328769Y223698D01*
X328823Y223613D01*
X328871Y223523D01*
X328887Y223508D01*
X328899Y223489D01*
X328977Y223425D01*
X329051Y223356D01*
X329071Y223347D01*
X329088Y223333D01*
X329183Y223296D01*
X329275Y223254D01*
X329297Y223252D01*
X329318Y223244D01*
X329419Y223240D01*
X329520Y223230D01*
X329542Y223235D01*
X329564Y223234D01*
X329661Y223262D01*
X329760Y223285D01*
X329779Y223296D01*
X329800Y223302D01*
X329883Y223360D01*
X329970Y223413D01*
X329984Y223430D01*
X330002Y223443D01*
X330063Y223524D01*
X330128Y223602D01*
X330139Y223627D01*
X330149Y223640D01*
X330159Y223671D01*
X330197Y223754D01*
X330510Y224718D01*
X331388Y226442D01*
X332525Y228007D01*
X333893Y229375D01*
X335458Y230512D01*
X337182Y231390D01*
X339022Y231988D01*
X340377Y232203D01*
X340377Y220762D01*
X340380Y220742D01*
X340378Y220723D01*
X340400Y220621D01*
X340417Y220519D01*
X340426Y220502D01*
X340430Y220482D01*
X340483Y220393D01*
X340532Y220302D01*
X340546Y220288D01*
X340556Y220271D01*
X340635Y220204D01*
X340710Y220133D01*
X340728Y220124D01*
X340743Y220111D01*
X340839Y220073D01*
X340933Y220029D01*
X340953Y220027D01*
X340971Y220019D01*
X341138Y220001D01*
X342662Y220001D01*
X342682Y220004D01*
X342701Y220002D01*
X342803Y220024D01*
X342905Y220041D01*
X342922Y220050D01*
X342942Y220054D01*
X343031Y220107D01*
X343122Y220156D01*
X343136Y220170D01*
X343153Y220180D01*
X343220Y220259D01*
X343291Y220334D01*
X343300Y220352D01*
X343313Y220367D01*
X343352Y220463D01*
X343395Y220557D01*
X343397Y220577D01*
X343405Y220595D01*
X343423Y220762D01*
X343423Y232203D01*
X344778Y231988D01*
X346618Y231390D01*
X348342Y230512D01*
X349907Y229375D01*
X351275Y228007D01*
X352412Y226442D01*
X353290Y224718D01*
X353603Y223754D01*
X353650Y223664D01*
X353691Y223572D01*
X353706Y223556D01*
X353716Y223536D01*
X353789Y223465D01*
X353857Y223391D01*
X353877Y223380D01*
X353893Y223365D01*
X353984Y223321D01*
X354073Y223272D01*
X354095Y223268D01*
X354115Y223259D01*
X354215Y223247D01*
X354315Y223229D01*
X354337Y223232D01*
X354359Y223229D01*
X354458Y223250D01*
X354558Y223264D01*
X354578Y223274D01*
X354600Y223279D01*
X354687Y223330D01*
X354778Y223376D01*
X354793Y223392D01*
X354812Y223403D01*
X354879Y223479D01*
X354950Y223551D01*
X354963Y223575D01*
X354974Y223588D01*
X354987Y223618D01*
X355031Y223698D01*
X356490Y227223D01*
X360077Y230810D01*
X364764Y232751D01*
X369836Y232751D01*
X374523Y230810D01*
X378110Y227223D01*
X379297Y224357D01*
X379335Y224296D01*
X379364Y224230D01*
X379399Y224192D01*
X379426Y224148D01*
X379482Y224102D01*
X379530Y224049D01*
X379576Y224024D01*
X379616Y223991D01*
X379683Y223965D01*
X379746Y223930D01*
X379797Y223921D01*
X379845Y223903D01*
X379917Y223900D01*
X379988Y223887D01*
X380039Y223894D01*
X380091Y223892D01*
X380160Y223912D01*
X380231Y223923D01*
X380277Y223946D01*
X380327Y223961D01*
X380386Y224002D01*
X380450Y224034D01*
X380487Y224071D01*
X380529Y224101D01*
X380572Y224158D01*
X380622Y224210D01*
X380657Y224272D01*
X380676Y224298D01*
X380683Y224321D01*
X380703Y224357D01*
X381890Y227223D01*
X385477Y230810D01*
X390164Y232751D01*
X395236Y232751D01*
X399923Y230810D01*
X403510Y227223D01*
X404697Y224357D01*
X404735Y224296D01*
X404764Y224230D01*
X404799Y224192D01*
X404826Y224148D01*
X404882Y224102D01*
X404930Y224049D01*
X404976Y224024D01*
X405016Y223991D01*
X405083Y223965D01*
X405146Y223930D01*
X405197Y223921D01*
X405245Y223903D01*
X405317Y223900D01*
X405388Y223887D01*
X405439Y223894D01*
X405491Y223892D01*
X405560Y223912D01*
X405631Y223923D01*
X405677Y223946D01*
X405727Y223961D01*
X405786Y224002D01*
X405850Y224034D01*
X405887Y224071D01*
X405929Y224101D01*
X405972Y224158D01*
X406022Y224210D01*
X406057Y224272D01*
X406076Y224298D01*
X406083Y224321D01*
X406103Y224357D01*
X407290Y227223D01*
X410877Y230810D01*
X415564Y232751D01*
X420636Y232751D01*
X425323Y230810D01*
X428910Y227223D01*
X430851Y222536D01*
X430851Y217464D01*
X428910Y212777D01*
X425323Y209190D01*
X420636Y207249D01*
X415564Y207249D01*
X410877Y209190D01*
X407290Y212777D01*
X406103Y215643D01*
X406065Y215704D01*
X406036Y215770D01*
X406001Y215808D01*
X405974Y215852D01*
X405918Y215898D01*
X405870Y215951D01*
X405824Y215976D01*
X405784Y216009D01*
X405717Y216035D01*
X405654Y216070D01*
X405603Y216079D01*
X405555Y216097D01*
X405483Y216100D01*
X405412Y216113D01*
X405361Y216106D01*
X405309Y216108D01*
X405240Y216088D01*
X405169Y216077D01*
X405123Y216054D01*
X405073Y216039D01*
X405014Y215998D01*
X404950Y215966D01*
X404913Y215929D01*
X404871Y215899D01*
X404828Y215842D01*
X404778Y215790D01*
X404743Y215728D01*
X404724Y215702D01*
X404717Y215679D01*
X404697Y215643D01*
X403510Y212777D01*
X399923Y209190D01*
X395236Y207249D01*
X390164Y207249D01*
X385477Y209190D01*
X381890Y212777D01*
X380703Y215643D01*
X380665Y215704D01*
X380636Y215770D01*
X380601Y215808D01*
X380574Y215852D01*
X380518Y215898D01*
X380470Y215951D01*
X380424Y215976D01*
X380384Y216009D01*
X380317Y216035D01*
X380254Y216070D01*
X380203Y216079D01*
X380155Y216097D01*
X380083Y216100D01*
X380012Y216113D01*
X379961Y216106D01*
X379909Y216108D01*
X379840Y216088D01*
X379769Y216077D01*
X379723Y216054D01*
X379673Y216039D01*
X379614Y215998D01*
X379550Y215966D01*
X379513Y215929D01*
X379471Y215899D01*
X379428Y215842D01*
X379378Y215790D01*
X379343Y215728D01*
X379324Y215702D01*
X379317Y215679D01*
X379297Y215643D01*
X378110Y212777D01*
X374523Y209190D01*
X369836Y207249D01*
X364764Y207249D01*
X360077Y209190D01*
X356490Y212777D01*
X355031Y216302D01*
X354977Y216387D01*
X354929Y216477D01*
X354913Y216492D01*
X354901Y216511D01*
X354823Y216575D01*
X354749Y216644D01*
X354729Y216653D01*
X354712Y216667D01*
X354617Y216704D01*
X354525Y216746D01*
X354503Y216748D01*
X354482Y216756D01*
X354381Y216760D01*
X354280Y216770D01*
X354258Y216765D01*
X354236Y216766D01*
X354139Y216738D01*
X354040Y216715D01*
X354021Y216704D01*
X354000Y216698D01*
X353917Y216640D01*
X353830Y216587D01*
X353816Y216570D01*
X353798Y216557D01*
X353737Y216476D01*
X353672Y216398D01*
X353661Y216373D01*
X353651Y216360D01*
X353641Y216329D01*
X353603Y216246D01*
X353290Y215282D01*
X352412Y213558D01*
X351275Y211993D01*
X349907Y210625D01*
X348342Y209488D01*
X346618Y208610D01*
X344778Y208012D01*
X343423Y207797D01*
X343423Y219238D01*
X343420Y219258D01*
X343422Y219277D01*
X343400Y219379D01*
X343383Y219481D01*
X343374Y219498D01*
X343370Y219518D01*
X343317Y219607D01*
X343268Y219698D01*
X343254Y219712D01*
X343244Y219729D01*
X343165Y219796D01*
X343090Y219867D01*
X343072Y219876D01*
X343057Y219889D01*
X342961Y219927D01*
X342867Y219971D01*
X342847Y219973D01*
X342829Y219981D01*
X342662Y219999D01*
X341138Y219999D01*
X341118Y219996D01*
X341099Y219998D01*
X340997Y219976D01*
X340895Y219959D01*
X340878Y219950D01*
X340858Y219946D01*
X340769Y219893D01*
X340678Y219844D01*
X340664Y219830D01*
X340647Y219820D01*
X340580Y219741D01*
X340509Y219666D01*
X340500Y219648D01*
X340487Y219633D01*
X340448Y219537D01*
X340405Y219443D01*
X340403Y219423D01*
X340395Y219405D01*
X340377Y219238D01*
X340377Y207797D01*
X339022Y208012D01*
X337182Y208610D01*
X335458Y209488D01*
X333893Y210625D01*
X332525Y211993D01*
X331388Y213558D01*
X330510Y215282D01*
X330197Y216246D01*
X330150Y216336D01*
X330109Y216428D01*
X330094Y216444D01*
X330084Y216464D01*
X330011Y216535D01*
X329943Y216609D01*
X329923Y216620D01*
X329907Y216635D01*
X329816Y216679D01*
X329727Y216728D01*
X329705Y216732D01*
X329685Y216741D01*
X329585Y216753D01*
X329485Y216771D01*
X329463Y216768D01*
X329441Y216771D01*
X329342Y216750D01*
X329242Y216736D01*
X329222Y216726D01*
X329200Y216721D01*
X329113Y216670D01*
X329022Y216624D01*
X329007Y216608D01*
X328988Y216597D01*
X328921Y216521D01*
X328850Y216449D01*
X328837Y216425D01*
X328826Y216412D01*
X328813Y216382D01*
X328769Y216302D01*
X327310Y212777D01*
X323723Y209190D01*
X319036Y207249D01*
X313964Y207249D01*
X309277Y209190D01*
X305690Y212777D01*
X304503Y215643D01*
X304465Y215704D01*
X304436Y215770D01*
X304401Y215808D01*
X304374Y215852D01*
X304318Y215898D01*
X304270Y215951D01*
X304224Y215976D01*
X304184Y216009D01*
X304117Y216035D01*
X304054Y216069D01*
X304003Y216079D01*
X303955Y216097D01*
X303883Y216100D01*
X303812Y216113D01*
X303761Y216106D01*
X303709Y216108D01*
X303640Y216088D01*
X303569Y216077D01*
X303523Y216054D01*
X303473Y216039D01*
X303414Y215998D01*
X303350Y215966D01*
X303313Y215929D01*
X303271Y215899D01*
X303228Y215841D01*
X303178Y215790D01*
X303143Y215727D01*
X303124Y215702D01*
X303117Y215679D01*
X303097Y215643D01*
X301910Y212777D01*
X298323Y209190D01*
X293636Y207249D01*
X288564Y207249D01*
X283877Y209190D01*
X280290Y212777D01*
X279103Y215643D01*
X279065Y215704D01*
X279036Y215770D01*
X279001Y215808D01*
X278974Y215852D01*
X278918Y215898D01*
X278870Y215951D01*
X278824Y215976D01*
X278784Y216009D01*
X278717Y216035D01*
X278654Y216069D01*
X278603Y216079D01*
X278555Y216097D01*
X278483Y216100D01*
X278412Y216113D01*
X278361Y216106D01*
X278309Y216108D01*
X278240Y216088D01*
X278169Y216077D01*
X278123Y216054D01*
X278073Y216039D01*
X278014Y215998D01*
X277950Y215966D01*
X277913Y215929D01*
X277871Y215899D01*
X277828Y215841D01*
X277778Y215790D01*
X277743Y215727D01*
X277724Y215702D01*
X277717Y215679D01*
X277697Y215643D01*
X276510Y212777D01*
X272923Y209190D01*
X271203Y208478D01*
X271103Y208416D01*
X271003Y208356D01*
X270999Y208352D01*
X270994Y208348D01*
X270919Y208258D01*
X270843Y208170D01*
X270841Y208164D01*
X270837Y208159D01*
X270795Y208050D01*
X270751Y207941D01*
X270750Y207934D01*
X270749Y207929D01*
X270748Y207911D01*
X270733Y207775D01*
X270733Y191700D01*
X270747Y191610D01*
X270755Y191519D01*
X270767Y191489D01*
X270772Y191457D01*
X270815Y191377D01*
X270851Y191293D01*
X270877Y191261D01*
X270888Y191240D01*
X270911Y191218D01*
X270956Y191162D01*
X301862Y160256D01*
X301936Y160203D01*
X302005Y160143D01*
X302035Y160131D01*
X302061Y160112D01*
X302148Y160085D01*
X302233Y160051D01*
X302274Y160047D01*
X302296Y160040D01*
X302329Y160041D01*
X302400Y160033D01*
X327738Y160033D01*
X327758Y160036D01*
X327777Y160034D01*
X327879Y160056D01*
X327981Y160072D01*
X327998Y160082D01*
X328018Y160086D01*
X328107Y160139D01*
X328198Y160188D01*
X328212Y160202D01*
X328229Y160212D01*
X328296Y160291D01*
X328368Y160366D01*
X328376Y160384D01*
X328389Y160399D01*
X328428Y160495D01*
X328471Y160589D01*
X328473Y160609D01*
X328481Y160627D01*
X328499Y160794D01*
X328499Y163743D01*
X330257Y165501D01*
X345743Y165501D01*
X346962Y164282D01*
X346978Y164270D01*
X346990Y164255D01*
X347078Y164199D01*
X347161Y164138D01*
X347180Y164133D01*
X347197Y164122D01*
X347298Y164096D01*
X347397Y164066D01*
X347416Y164067D01*
X347436Y164062D01*
X347539Y164070D01*
X347642Y164072D01*
X347661Y164079D01*
X347681Y164081D01*
X347776Y164121D01*
X347873Y164157D01*
X347889Y164169D01*
X347907Y164177D01*
X348038Y164282D01*
X349257Y165501D01*
X364743Y165501D01*
X366501Y163743D01*
X366501Y146257D01*
X364743Y144499D01*
X362794Y144499D01*
X362774Y144496D01*
X362755Y144498D01*
X362653Y144476D01*
X362551Y144460D01*
X362534Y144450D01*
X362514Y144446D01*
X362425Y144393D01*
X362334Y144344D01*
X362320Y144330D01*
X362303Y144320D01*
X362236Y144241D01*
X362164Y144166D01*
X362156Y144148D01*
X362143Y144133D01*
X362104Y144037D01*
X362061Y143943D01*
X362059Y143923D01*
X362051Y143905D01*
X362033Y143738D01*
X362033Y47664D01*
X362052Y47549D01*
X362069Y47433D01*
X362071Y47428D01*
X362072Y47421D01*
X362127Y47319D01*
X362180Y47214D01*
X362185Y47209D01*
X362188Y47204D01*
X362272Y47124D01*
X362356Y47042D01*
X362362Y47038D01*
X362366Y47035D01*
X362383Y47027D01*
X362503Y46961D01*
X363316Y46624D01*
X366304Y43636D01*
X367921Y39733D01*
X367921Y20267D01*
X366304Y16364D01*
X364099Y14159D01*
X364057Y14101D01*
X364008Y14049D01*
X363986Y14002D01*
X363956Y13960D01*
X363935Y13891D01*
X363904Y13826D01*
X363899Y13774D01*
X363883Y13724D01*
X363885Y13653D01*
X363877Y13582D01*
X363888Y13531D01*
X363890Y13479D01*
X363914Y13411D01*
X363930Y13341D01*
X363956Y13296D01*
X363974Y13248D01*
X364019Y13192D01*
X364056Y13130D01*
X364095Y13096D01*
X364128Y13056D01*
X364188Y13017D01*
X364243Y12970D01*
X364291Y12951D01*
X364335Y12923D01*
X364404Y12905D01*
X364471Y12878D01*
X364542Y12870D01*
X364573Y12862D01*
X364597Y12864D01*
X364638Y12860D01*
X375362Y12860D01*
X375433Y12871D01*
X375505Y12873D01*
X375554Y12891D01*
X375605Y12899D01*
X375669Y12933D01*
X375736Y12958D01*
X375777Y12990D01*
X375823Y13015D01*
X375872Y13067D01*
X375928Y13111D01*
X375956Y13155D01*
X375992Y13193D01*
X376022Y13258D01*
X376061Y13318D01*
X376074Y13369D01*
X376096Y13416D01*
X376104Y13487D01*
X376121Y13557D01*
X376117Y13609D01*
X376123Y13660D01*
X376107Y13731D01*
X376102Y13802D01*
X376082Y13850D01*
X376070Y13901D01*
X376034Y13962D01*
X376006Y14028D01*
X375961Y14084D01*
X375944Y14112D01*
X375926Y14127D01*
X375901Y14159D01*
X373696Y16364D01*
X372079Y20267D01*
X372079Y39733D01*
X373696Y43636D01*
X376684Y46624D01*
X380587Y48241D01*
X384813Y48241D01*
X388716Y46624D01*
X391704Y43636D01*
X393321Y39733D01*
X393321Y20267D01*
X391704Y16364D01*
X389499Y14159D01*
X389457Y14101D01*
X389408Y14049D01*
X389386Y14002D01*
X389356Y13960D01*
X389335Y13891D01*
X389304Y13826D01*
X389299Y13774D01*
X389283Y13724D01*
X389285Y13653D01*
X389277Y13582D01*
X389288Y13531D01*
X389290Y13479D01*
X389314Y13411D01*
X389330Y13341D01*
X389356Y13296D01*
X389374Y13248D01*
X389419Y13192D01*
X389456Y13130D01*
X389495Y13096D01*
X389528Y13056D01*
X389588Y13017D01*
X389643Y12970D01*
X389691Y12951D01*
X389735Y12923D01*
X389804Y12905D01*
X389871Y12878D01*
X389942Y12870D01*
X389973Y12862D01*
X389997Y12864D01*
X390038Y12860D01*
X400762Y12860D01*
X400833Y12871D01*
X400905Y12873D01*
X400954Y12891D01*
X401005Y12899D01*
X401069Y12933D01*
X401136Y12958D01*
X401177Y12990D01*
X401223Y13015D01*
X401272Y13067D01*
X401328Y13111D01*
X401356Y13155D01*
X401392Y13193D01*
X401422Y13258D01*
X401461Y13318D01*
X401474Y13369D01*
X401496Y13416D01*
X401504Y13487D01*
X401521Y13557D01*
X401517Y13609D01*
X401523Y13660D01*
X401507Y13731D01*
X401502Y13802D01*
X401482Y13850D01*
X401470Y13901D01*
X401434Y13962D01*
X401406Y14028D01*
X401361Y14084D01*
X401344Y14112D01*
X401326Y14127D01*
X401301Y14159D01*
X399096Y16364D01*
X397479Y20267D01*
X397479Y39733D01*
X399096Y43636D01*
X402084Y46624D01*
X402597Y46837D01*
X402697Y46898D01*
X402797Y46958D01*
X402801Y46963D01*
X402806Y46966D01*
X402881Y47056D01*
X402957Y47145D01*
X402959Y47151D01*
X402963Y47156D01*
X403005Y47264D01*
X403049Y47373D01*
X403050Y47381D01*
X403051Y47385D01*
X403052Y47404D01*
X403067Y47540D01*
X403067Y135185D01*
X440415Y172533D01*
X448238Y172533D01*
X448258Y172536D01*
X448277Y172534D01*
X448379Y172556D01*
X448481Y172572D01*
X448498Y172582D01*
X448518Y172586D01*
X448607Y172639D01*
X448698Y172688D01*
X448712Y172702D01*
X448729Y172712D01*
X448796Y172791D01*
X448868Y172866D01*
X448876Y172884D01*
X448889Y172899D01*
X448928Y172995D01*
X448971Y173089D01*
X448973Y173109D01*
X448981Y173127D01*
X448999Y173294D01*
X448999Y173743D01*
X450757Y175501D01*
X467243Y175501D01*
X469001Y173743D01*
X469001Y161257D01*
X467243Y159499D01*
X450757Y159499D01*
X448999Y161257D01*
X448999Y161706D01*
X448996Y161726D01*
X448998Y161745D01*
X448976Y161847D01*
X448960Y161949D01*
X448950Y161966D01*
X448946Y161986D01*
X448893Y162075D01*
X448844Y162166D01*
X448830Y162180D01*
X448820Y162197D01*
X448741Y162264D01*
X448666Y162336D01*
X448648Y162344D01*
X448633Y162357D01*
X448537Y162396D01*
X448443Y162439D01*
X448423Y162441D01*
X448405Y162449D01*
X448238Y162467D01*
X444900Y162467D01*
X444810Y162453D01*
X444719Y162445D01*
X444689Y162433D01*
X444657Y162428D01*
X444577Y162385D01*
X444493Y162349D01*
X444461Y162323D01*
X444440Y162312D01*
X444418Y162289D01*
X444362Y162244D01*
X413356Y131238D01*
X413303Y131164D01*
X413243Y131095D01*
X413231Y131065D01*
X413212Y131039D01*
X413185Y130952D01*
X413151Y130867D01*
X413147Y130826D01*
X413140Y130804D01*
X413141Y130771D01*
X413133Y130700D01*
X413133Y47540D01*
X413152Y47425D01*
X413169Y47309D01*
X413171Y47303D01*
X413172Y47297D01*
X413227Y47194D01*
X413280Y47090D01*
X413285Y47085D01*
X413288Y47080D01*
X413372Y47000D01*
X413456Y46917D01*
X413462Y46914D01*
X413466Y46910D01*
X413483Y46903D01*
X413603Y46837D01*
X414116Y46624D01*
X417104Y43636D01*
X418721Y39733D01*
X418721Y20267D01*
X417104Y16364D01*
X414899Y14159D01*
X414857Y14101D01*
X414808Y14049D01*
X414786Y14002D01*
X414756Y13960D01*
X414735Y13891D01*
X414704Y13826D01*
X414699Y13774D01*
X414683Y13724D01*
X414685Y13653D01*
X414677Y13582D01*
X414688Y13531D01*
X414690Y13479D01*
X414714Y13411D01*
X414730Y13341D01*
X414756Y13296D01*
X414774Y13248D01*
X414819Y13192D01*
X414856Y13130D01*
X414895Y13096D01*
X414928Y13056D01*
X414988Y13017D01*
X415043Y12970D01*
X415091Y12951D01*
X415135Y12923D01*
X415204Y12905D01*
X415271Y12878D01*
X415342Y12870D01*
X415373Y12862D01*
X415397Y12864D01*
X415438Y12860D01*
X426162Y12860D01*
X426233Y12871D01*
X426305Y12873D01*
X426354Y12891D01*
X426405Y12899D01*
X426469Y12933D01*
X426536Y12958D01*
X426577Y12990D01*
X426623Y13015D01*
X426672Y13067D01*
X426728Y13111D01*
X426756Y13155D01*
X426792Y13193D01*
X426822Y13258D01*
X426861Y13318D01*
X426874Y13369D01*
X426896Y13416D01*
X426904Y13487D01*
X426921Y13557D01*
X426917Y13609D01*
X426923Y13660D01*
X426907Y13731D01*
X426902Y13802D01*
X426882Y13850D01*
X426870Y13901D01*
X426834Y13962D01*
X426806Y14028D01*
X426761Y14084D01*
X426744Y14112D01*
X426726Y14127D01*
X426701Y14159D01*
X424496Y16364D01*
X422879Y20267D01*
X422879Y39733D01*
X424496Y43636D01*
X427484Y46624D01*
X431387Y48241D01*
X435613Y48241D01*
X439516Y46624D01*
X442504Y43636D01*
X444121Y39733D01*
X444121Y20267D01*
X442504Y16364D01*
X440299Y14159D01*
X440257Y14101D01*
X440208Y14049D01*
X440186Y14002D01*
X440156Y13960D01*
X440135Y13891D01*
X440104Y13826D01*
X440099Y13774D01*
X440083Y13724D01*
X440085Y13653D01*
X440077Y13582D01*
X440088Y13531D01*
X440090Y13479D01*
X440114Y13411D01*
X440130Y13341D01*
X440156Y13296D01*
X440174Y13248D01*
X440219Y13192D01*
X440256Y13130D01*
X440295Y13096D01*
X440328Y13056D01*
X440388Y13017D01*
X440443Y12970D01*
X440491Y12951D01*
X440535Y12923D01*
X440604Y12905D01*
X440671Y12878D01*
X440742Y12870D01*
X440773Y12862D01*
X440797Y12864D01*
X440838Y12860D01*
X451562Y12860D01*
X451633Y12871D01*
X451705Y12873D01*
X451754Y12891D01*
X451805Y12899D01*
X451869Y12933D01*
X451936Y12958D01*
X451977Y12990D01*
X452023Y13015D01*
X452072Y13067D01*
X452128Y13111D01*
X452156Y13155D01*
X452192Y13193D01*
X452222Y13258D01*
X452261Y13318D01*
X452274Y13369D01*
X452296Y13416D01*
X452304Y13487D01*
X452321Y13557D01*
X452317Y13609D01*
X452323Y13660D01*
X452307Y13731D01*
X452302Y13802D01*
X452282Y13850D01*
X452270Y13901D01*
X452234Y13962D01*
X452206Y14028D01*
X452161Y14084D01*
X452144Y14112D01*
X452126Y14127D01*
X452101Y14159D01*
X449896Y16364D01*
X448279Y20267D01*
X448279Y39733D01*
X449896Y43636D01*
X452884Y46624D01*
X456787Y48241D01*
X461013Y48241D01*
X464916Y46624D01*
X467904Y43636D01*
X469521Y39733D01*
X469521Y20267D01*
X467904Y16364D01*
X465699Y14159D01*
X465657Y14101D01*
X465608Y14049D01*
X465586Y14002D01*
X465556Y13960D01*
X465535Y13891D01*
X465504Y13826D01*
X465499Y13774D01*
X465483Y13724D01*
X465485Y13653D01*
X465477Y13582D01*
X465488Y13531D01*
X465490Y13479D01*
X465514Y13411D01*
X465530Y13341D01*
X465556Y13296D01*
X465574Y13248D01*
X465619Y13192D01*
X465656Y13130D01*
X465695Y13096D01*
X465728Y13056D01*
X465788Y13017D01*
X465843Y12970D01*
X465891Y12951D01*
X465935Y12923D01*
X466004Y12905D01*
X466071Y12878D01*
X466142Y12870D01*
X466173Y12862D01*
X466197Y12864D01*
X466238Y12860D01*
X499162Y12860D01*
X499233Y12871D01*
X499305Y12873D01*
X499354Y12891D01*
X499405Y12899D01*
X499469Y12933D01*
X499536Y12958D01*
X499577Y12990D01*
X499623Y13015D01*
X499672Y13067D01*
X499728Y13111D01*
X499756Y13155D01*
X499792Y13193D01*
X499822Y13258D01*
X499861Y13318D01*
X499874Y13369D01*
X499896Y13416D01*
X499904Y13487D01*
X499921Y13557D01*
X499917Y13609D01*
X499923Y13660D01*
X499907Y13731D01*
X499902Y13802D01*
X499882Y13850D01*
X499870Y13901D01*
X499834Y13962D01*
X499806Y14028D01*
X499761Y14084D01*
X499744Y14112D01*
X499726Y14127D01*
X499701Y14159D01*
X497496Y16364D01*
X495879Y20267D01*
X495879Y39733D01*
X497496Y43636D01*
X500484Y46624D01*
X504387Y48241D01*
X508613Y48241D01*
X512516Y46624D01*
X515504Y43636D01*
X517121Y39733D01*
X517121Y20267D01*
X515504Y16364D01*
X513299Y14159D01*
X513257Y14101D01*
X513208Y14049D01*
X513186Y14002D01*
X513156Y13960D01*
X513135Y13891D01*
X513104Y13826D01*
X513099Y13774D01*
X513083Y13724D01*
X513085Y13653D01*
X513077Y13582D01*
X513088Y13531D01*
X513090Y13479D01*
X513114Y13411D01*
X513130Y13341D01*
X513156Y13296D01*
X513174Y13248D01*
X513219Y13192D01*
X513256Y13130D01*
X513295Y13096D01*
X513328Y13056D01*
X513388Y13017D01*
X513443Y12970D01*
X513491Y12951D01*
X513535Y12923D01*
X513604Y12905D01*
X513671Y12878D01*
X513742Y12870D01*
X513773Y12862D01*
X513797Y12864D01*
X513838Y12860D01*
X524562Y12860D01*
X524633Y12871D01*
X524705Y12873D01*
X524754Y12891D01*
X524805Y12899D01*
X524869Y12933D01*
X524936Y12958D01*
X524977Y12990D01*
X525023Y13015D01*
X525072Y13067D01*
X525128Y13111D01*
X525156Y13155D01*
X525192Y13193D01*
X525222Y13258D01*
X525261Y13318D01*
X525274Y13369D01*
X525296Y13416D01*
X525304Y13487D01*
X525321Y13557D01*
X525317Y13609D01*
X525323Y13660D01*
X525307Y13731D01*
X525302Y13802D01*
X525282Y13850D01*
X525270Y13901D01*
X525234Y13962D01*
X525206Y14028D01*
X525161Y14084D01*
X525144Y14112D01*
X525126Y14127D01*
X525101Y14159D01*
X522896Y16364D01*
X521279Y20267D01*
X521279Y39733D01*
X522896Y43636D01*
X525884Y46624D01*
X529787Y48241D01*
X534013Y48241D01*
X537916Y46624D01*
X540904Y43636D01*
X542521Y39733D01*
X542521Y20267D01*
X540904Y16364D01*
X538699Y14159D01*
X538657Y14101D01*
X538608Y14049D01*
X538586Y14002D01*
X538556Y13960D01*
X538535Y13891D01*
X538504Y13826D01*
X538499Y13774D01*
X538483Y13724D01*
X538485Y13653D01*
X538477Y13582D01*
X538488Y13531D01*
X538490Y13479D01*
X538514Y13411D01*
X538530Y13341D01*
X538556Y13296D01*
X538574Y13248D01*
X538619Y13192D01*
X538656Y13130D01*
X538695Y13096D01*
X538728Y13056D01*
X538788Y13017D01*
X538843Y12970D01*
X538891Y12951D01*
X538935Y12923D01*
X539004Y12905D01*
X539071Y12878D01*
X539142Y12870D01*
X539173Y12862D01*
X539197Y12864D01*
X539238Y12860D01*
X549962Y12860D01*
X550033Y12871D01*
X550105Y12873D01*
X550154Y12891D01*
X550205Y12899D01*
X550269Y12933D01*
X550336Y12958D01*
X550377Y12990D01*
X550423Y13015D01*
X550472Y13067D01*
X550528Y13111D01*
X550556Y13155D01*
X550592Y13193D01*
X550622Y13258D01*
X550661Y13318D01*
X550674Y13369D01*
X550696Y13416D01*
X550704Y13487D01*
X550721Y13557D01*
X550717Y13609D01*
X550723Y13660D01*
X550707Y13731D01*
X550702Y13802D01*
X550682Y13850D01*
X550670Y13901D01*
X550634Y13962D01*
X550606Y14028D01*
X550561Y14084D01*
X550544Y14112D01*
X550526Y14127D01*
X550501Y14159D01*
X548296Y16364D01*
X546679Y20267D01*
X546679Y39733D01*
X548296Y43636D01*
X551284Y46624D01*
X555187Y48241D01*
X559413Y48241D01*
X563316Y46624D01*
X566304Y43636D01*
X567921Y39733D01*
X567921Y20267D01*
X566304Y16364D01*
X564099Y14159D01*
X564057Y14101D01*
X564008Y14049D01*
X563986Y14002D01*
X563956Y13960D01*
X563935Y13891D01*
X563904Y13826D01*
X563899Y13774D01*
X563883Y13724D01*
X563885Y13653D01*
X563877Y13582D01*
X563888Y13531D01*
X563890Y13479D01*
X563914Y13411D01*
X563930Y13341D01*
X563956Y13296D01*
X563974Y13248D01*
X564019Y13192D01*
X564056Y13130D01*
X564095Y13096D01*
X564128Y13056D01*
X564188Y13017D01*
X564243Y12970D01*
X564291Y12951D01*
X564335Y12923D01*
X564404Y12905D01*
X564471Y12878D01*
X564542Y12870D01*
X564573Y12862D01*
X564597Y12864D01*
X564638Y12860D01*
X575362Y12860D01*
X575433Y12871D01*
X575505Y12873D01*
X575554Y12891D01*
X575605Y12899D01*
X575669Y12933D01*
X575736Y12958D01*
X575777Y12990D01*
X575823Y13015D01*
X575872Y13067D01*
X575928Y13111D01*
X575956Y13155D01*
X575992Y13193D01*
X576022Y13258D01*
X576061Y13318D01*
X576074Y13369D01*
X576096Y13416D01*
X576104Y13487D01*
X576121Y13557D01*
X576117Y13609D01*
X576123Y13660D01*
X576107Y13731D01*
X576102Y13802D01*
X576082Y13850D01*
X576070Y13901D01*
X576034Y13962D01*
X576006Y14028D01*
X575961Y14084D01*
X575944Y14112D01*
X575926Y14127D01*
X575901Y14159D01*
X573696Y16364D01*
X572079Y20267D01*
X572079Y39733D01*
X573696Y43636D01*
X576684Y46624D01*
X580587Y48241D01*
X584813Y48241D01*
X588716Y46624D01*
X591704Y43636D01*
X593321Y39733D01*
X593321Y20267D01*
X591704Y16364D01*
X589499Y14159D01*
X589457Y14101D01*
X589408Y14049D01*
X589386Y14002D01*
X589356Y13960D01*
X589335Y13891D01*
X589304Y13826D01*
X589299Y13774D01*
X589283Y13724D01*
X589285Y13653D01*
X589277Y13582D01*
X589288Y13531D01*
X589290Y13479D01*
X589314Y13411D01*
X589330Y13341D01*
X589356Y13296D01*
X589374Y13248D01*
X589419Y13192D01*
X589456Y13130D01*
X589495Y13096D01*
X589528Y13056D01*
X589588Y13017D01*
X589643Y12970D01*
X589691Y12951D01*
X589735Y12923D01*
X589804Y12905D01*
X589871Y12878D01*
X589942Y12870D01*
X589973Y12862D01*
X589997Y12864D01*
X590038Y12860D01*
X600762Y12860D01*
X600833Y12871D01*
X600905Y12873D01*
X600954Y12891D01*
X601005Y12899D01*
X601069Y12933D01*
X601136Y12958D01*
X601177Y12990D01*
X601223Y13015D01*
X601272Y13067D01*
X601328Y13111D01*
X601356Y13155D01*
X601392Y13193D01*
X601422Y13258D01*
X601461Y13318D01*
X601474Y13369D01*
X601496Y13416D01*
X601504Y13487D01*
X601521Y13557D01*
X601517Y13609D01*
X601523Y13660D01*
X601507Y13731D01*
X601502Y13802D01*
X601482Y13850D01*
X601470Y13901D01*
X601434Y13962D01*
X601406Y14028D01*
X601361Y14084D01*
X601344Y14112D01*
X601326Y14127D01*
X601301Y14159D01*
X599096Y16364D01*
X597479Y20267D01*
X597479Y39733D01*
X599096Y43636D01*
X602084Y46624D01*
X605987Y48241D01*
X610213Y48241D01*
X614116Y46624D01*
X617104Y43636D01*
X618721Y39733D01*
X618721Y20267D01*
X617104Y16364D01*
X614899Y14159D01*
X614857Y14101D01*
X614808Y14049D01*
X614786Y14002D01*
X614756Y13960D01*
X614735Y13891D01*
X614704Y13826D01*
X614699Y13774D01*
X614683Y13724D01*
X614685Y13653D01*
X614677Y13582D01*
X614688Y13531D01*
X614690Y13479D01*
X614714Y13411D01*
X614730Y13341D01*
X614756Y13296D01*
X614774Y13248D01*
X614819Y13192D01*
X614856Y13130D01*
X614895Y13096D01*
X614928Y13056D01*
X614988Y13017D01*
X615043Y12970D01*
X615091Y12951D01*
X615135Y12923D01*
X615204Y12905D01*
X615271Y12878D01*
X615342Y12870D01*
X615373Y12862D01*
X615397Y12864D01*
X615438Y12860D01*
X626162Y12860D01*
X626233Y12871D01*
X626305Y12873D01*
X626354Y12891D01*
X626405Y12899D01*
X626469Y12933D01*
X626536Y12958D01*
X626577Y12990D01*
X626623Y13015D01*
X626672Y13067D01*
X626728Y13111D01*
X626756Y13155D01*
X626792Y13193D01*
X626822Y13258D01*
X626861Y13318D01*
X626874Y13369D01*
X626896Y13416D01*
X626904Y13487D01*
X626921Y13557D01*
X626917Y13609D01*
X626923Y13660D01*
X626907Y13731D01*
X626902Y13802D01*
X626882Y13850D01*
X626870Y13901D01*
X626834Y13962D01*
X626806Y14028D01*
X626761Y14084D01*
X626744Y14112D01*
X626726Y14127D01*
X626701Y14159D01*
X624496Y16364D01*
X622879Y20267D01*
X622879Y39733D01*
X624496Y43636D01*
X627484Y46624D01*
X631387Y48241D01*
X635613Y48241D01*
X639516Y46624D01*
X642504Y43636D01*
X644121Y39733D01*
X644121Y20267D01*
X642504Y16364D01*
X640299Y14159D01*
X640257Y14101D01*
X640208Y14049D01*
X640186Y14002D01*
X640156Y13960D01*
X640135Y13891D01*
X640104Y13826D01*
X640099Y13774D01*
X640083Y13724D01*
X640085Y13653D01*
X640077Y13582D01*
X640088Y13531D01*
X640090Y13479D01*
X640114Y13411D01*
X640130Y13341D01*
X640156Y13296D01*
X640174Y13248D01*
X640219Y13192D01*
X640256Y13130D01*
X640295Y13096D01*
X640328Y13056D01*
X640388Y13017D01*
X640443Y12970D01*
X640491Y12951D01*
X640535Y12923D01*
X640604Y12905D01*
X640671Y12878D01*
X640742Y12870D01*
X640773Y12862D01*
X640797Y12864D01*
X640838Y12860D01*
X650272Y12860D01*
X650292Y12863D01*
X650311Y12861D01*
X650413Y12883D01*
X650515Y12899D01*
X650532Y12909D01*
X650552Y12913D01*
X650641Y12966D01*
X650732Y13015D01*
X650746Y13029D01*
X650763Y13039D01*
X650830Y13118D01*
X650902Y13193D01*
X650910Y13211D01*
X650923Y13226D01*
X650962Y13322D01*
X651005Y13416D01*
X651007Y13436D01*
X651015Y13454D01*
X651033Y13621D01*
X651033Y29103D01*
X652774Y33304D01*
X676210Y56741D01*
X676263Y56815D01*
X676323Y56884D01*
X676335Y56914D01*
X676354Y56941D01*
X676381Y57027D01*
X676415Y57112D01*
X676419Y57153D01*
X676426Y57176D01*
X676425Y57208D01*
X676433Y57279D01*
X676433Y374839D01*
X676419Y374929D01*
X676411Y375020D01*
X676399Y375050D01*
X676394Y375082D01*
X676351Y375162D01*
X676315Y375246D01*
X676289Y375278D01*
X676278Y375299D01*
X676255Y375321D01*
X676210Y375377D01*
X652774Y398814D01*
X651033Y403015D01*
X651033Y490092D01*
X651018Y490188D01*
X651008Y490285D01*
X650998Y490309D01*
X650994Y490335D01*
X650948Y490421D01*
X650908Y490510D01*
X650891Y490529D01*
X650878Y490552D01*
X650808Y490619D01*
X650742Y490691D01*
X650719Y490703D01*
X650700Y490721D01*
X650612Y490762D01*
X650526Y490809D01*
X650501Y490814D01*
X650477Y490825D01*
X650380Y490836D01*
X650284Y490853D01*
X650258Y490849D01*
X650233Y490852D01*
X650137Y490832D01*
X650041Y490817D01*
X650018Y490806D01*
X649992Y490800D01*
X649909Y490750D01*
X649822Y490706D01*
X649803Y490687D01*
X649781Y490674D01*
X649718Y490600D01*
X649650Y490530D01*
X649634Y490502D01*
X649621Y490487D01*
X649609Y490456D01*
X649569Y490383D01*
X647904Y486364D01*
X644916Y483376D01*
X641013Y481759D01*
X636787Y481759D01*
X632884Y483376D01*
X629896Y486364D01*
X628279Y490267D01*
X628279Y509733D01*
X629896Y513636D01*
X632884Y516624D01*
X636787Y518241D01*
X641013Y518241D01*
X644916Y516624D01*
X647904Y513636D01*
X649569Y509617D01*
X649620Y509534D01*
X649666Y509448D01*
X649685Y509430D01*
X649698Y509408D01*
X649773Y509346D01*
X649844Y509279D01*
X649868Y509268D01*
X649888Y509251D01*
X649979Y509216D01*
X650067Y509175D01*
X650093Y509172D01*
X650117Y509163D01*
X650215Y509159D01*
X650311Y509148D01*
X650337Y509153D01*
X650363Y509152D01*
X650457Y509179D01*
X650552Y509200D01*
X650574Y509213D01*
X650599Y509221D01*
X650679Y509276D01*
X650763Y509326D01*
X650780Y509346D01*
X650801Y509361D01*
X650860Y509439D01*
X650923Y509513D01*
X650933Y509537D01*
X650948Y509558D01*
X650978Y509651D01*
X651015Y509741D01*
X651018Y509774D01*
X651024Y509792D01*
X651024Y509825D01*
X651033Y509908D01*
X651033Y514539D01*
X651031Y514552D01*
X651032Y514563D01*
X651020Y514617D01*
X651019Y514629D01*
X651011Y514720D01*
X650999Y514750D01*
X650994Y514782D01*
X650951Y514862D01*
X650915Y514946D01*
X650889Y514978D01*
X650878Y514999D01*
X650855Y515021D01*
X650810Y515077D01*
X642712Y523175D01*
X642638Y523228D01*
X642569Y523288D01*
X642539Y523300D01*
X642512Y523319D01*
X642426Y523346D01*
X642341Y523380D01*
X642300Y523384D01*
X642277Y523391D01*
X642245Y523390D01*
X642174Y523398D01*
X14256Y523398D01*
X14236Y523395D01*
X14217Y523397D01*
X14115Y523375D01*
X14013Y523359D01*
X13996Y523349D01*
X13976Y523345D01*
X13887Y523292D01*
X13796Y523243D01*
X13782Y523229D01*
X13765Y523219D01*
X13698Y523140D01*
X13626Y523065D01*
X13618Y523047D01*
X13605Y523032D01*
X13566Y522936D01*
X13523Y522842D01*
X13521Y522822D01*
X13513Y522804D01*
X13495Y522637D01*
X13495Y13621D01*
X13498Y13601D01*
X13496Y13582D01*
X13518Y13480D01*
X13534Y13378D01*
X13544Y13361D01*
X13548Y13341D01*
X13601Y13252D01*
X13650Y13161D01*
X13664Y13147D01*
X13674Y13130D01*
X13753Y13063D01*
X13828Y12991D01*
X13846Y12983D01*
X13861Y12970D01*
X13957Y12931D01*
X14051Y12888D01*
X14071Y12886D01*
X14089Y12878D01*
X14256Y12860D01*
X273762Y12860D01*
X273833Y12871D01*
G37*
%LPC*%
G36*
X545257Y238999D02*
X545257Y238999D01*
X543499Y240757D01*
X543499Y243706D01*
X543496Y243726D01*
X543498Y243745D01*
X543476Y243847D01*
X543460Y243949D01*
X543450Y243966D01*
X543446Y243986D01*
X543393Y244075D01*
X543344Y244166D01*
X543330Y244180D01*
X543320Y244197D01*
X543241Y244264D01*
X543166Y244336D01*
X543148Y244344D01*
X543133Y244357D01*
X543037Y244396D01*
X542943Y244439D01*
X542923Y244441D01*
X542905Y244449D01*
X542738Y244467D01*
X539875Y244467D01*
X539785Y244453D01*
X539694Y244445D01*
X539664Y244433D01*
X539632Y244428D01*
X539551Y244385D01*
X539468Y244349D01*
X539435Y244323D01*
X539415Y244312D01*
X539393Y244289D01*
X539337Y244244D01*
X538842Y243750D01*
X536349Y242717D01*
X533651Y242717D01*
X531158Y243750D01*
X529250Y245658D01*
X528217Y248151D01*
X528217Y250849D01*
X529250Y253342D01*
X531158Y255250D01*
X533651Y256283D01*
X536349Y256283D01*
X538842Y255250D01*
X539337Y254756D01*
X539410Y254703D01*
X539480Y254643D01*
X539510Y254631D01*
X539536Y254612D01*
X539623Y254585D01*
X539708Y254551D01*
X539749Y254547D01*
X539771Y254540D01*
X539804Y254541D01*
X539875Y254533D01*
X542738Y254533D01*
X542758Y254536D01*
X542777Y254534D01*
X542879Y254556D01*
X542981Y254572D01*
X542998Y254582D01*
X543018Y254586D01*
X543107Y254639D01*
X543198Y254688D01*
X543212Y254702D01*
X543229Y254712D01*
X543296Y254791D01*
X543368Y254866D01*
X543376Y254884D01*
X543389Y254899D01*
X543428Y254995D01*
X543471Y255089D01*
X543473Y255109D01*
X543481Y255127D01*
X543499Y255294D01*
X543499Y258243D01*
X544956Y259700D01*
X544998Y259758D01*
X545047Y259810D01*
X545069Y259857D01*
X545100Y259899D01*
X545121Y259968D01*
X545151Y260033D01*
X545157Y260085D01*
X545172Y260135D01*
X545170Y260206D01*
X545178Y260277D01*
X545167Y260328D01*
X545166Y260380D01*
X545141Y260448D01*
X545126Y260518D01*
X545099Y260563D01*
X545081Y260611D01*
X545036Y260667D01*
X545000Y260729D01*
X544960Y260763D01*
X544927Y260803D01*
X544867Y260842D01*
X544813Y260889D01*
X544764Y260908D01*
X544721Y260936D01*
X544651Y260954D01*
X544585Y260981D01*
X544513Y260989D01*
X544482Y260997D01*
X544459Y260995D01*
X544418Y260999D01*
X541257Y260999D01*
X539499Y262757D01*
X539499Y263383D01*
X539492Y263428D01*
X539494Y263474D01*
X539472Y263549D01*
X539460Y263626D01*
X539438Y263666D01*
X539425Y263710D01*
X539381Y263774D01*
X539344Y263843D01*
X539311Y263874D01*
X539285Y263912D01*
X539222Y263959D01*
X539166Y264012D01*
X539124Y264032D01*
X539088Y264059D01*
X539014Y264083D01*
X538943Y264116D01*
X538897Y264121D01*
X538854Y264135D01*
X538776Y264134D01*
X538699Y264143D01*
X538654Y264133D01*
X538608Y264133D01*
X538476Y264095D01*
X538458Y264091D01*
X538454Y264088D01*
X538447Y264086D01*
X536349Y263217D01*
X533651Y263217D01*
X531158Y264250D01*
X529250Y266158D01*
X528217Y268651D01*
X528217Y271349D01*
X529250Y273842D01*
X531158Y275750D01*
X533651Y276783D01*
X536349Y276783D01*
X538447Y275914D01*
X538491Y275903D01*
X538533Y275884D01*
X538610Y275876D01*
X538686Y275858D01*
X538732Y275862D01*
X538777Y275857D01*
X538854Y275874D01*
X538931Y275881D01*
X538973Y275899D01*
X539018Y275909D01*
X539085Y275949D01*
X539156Y275981D01*
X539190Y276012D01*
X539229Y276035D01*
X539280Y276095D01*
X539337Y276147D01*
X539359Y276187D01*
X539389Y276222D01*
X539418Y276295D01*
X539455Y276363D01*
X539464Y276408D01*
X539481Y276450D01*
X539496Y276586D01*
X539499Y276605D01*
X539498Y276610D01*
X539499Y276617D01*
X539499Y278243D01*
X540718Y279462D01*
X540730Y279478D01*
X540745Y279490D01*
X540801Y279578D01*
X540862Y279661D01*
X540867Y279680D01*
X540878Y279697D01*
X540904Y279798D01*
X540934Y279897D01*
X540933Y279916D01*
X540938Y279936D01*
X540930Y280039D01*
X540928Y280142D01*
X540921Y280161D01*
X540919Y280181D01*
X540879Y280276D01*
X540843Y280373D01*
X540831Y280389D01*
X540823Y280407D01*
X540718Y280538D01*
X539499Y281757D01*
X539499Y297243D01*
X541257Y299001D01*
X544206Y299001D01*
X544226Y299004D01*
X544245Y299002D01*
X544347Y299024D01*
X544449Y299040D01*
X544466Y299050D01*
X544486Y299054D01*
X544575Y299107D01*
X544666Y299156D01*
X544680Y299170D01*
X544697Y299180D01*
X544764Y299259D01*
X544836Y299334D01*
X544844Y299352D01*
X544857Y299367D01*
X544896Y299463D01*
X544939Y299557D01*
X544941Y299577D01*
X544949Y299595D01*
X544967Y299762D01*
X544967Y302625D01*
X544953Y302715D01*
X544945Y302806D01*
X544933Y302836D01*
X544928Y302868D01*
X544885Y302949D01*
X544849Y303033D01*
X544823Y303065D01*
X544812Y303085D01*
X544789Y303107D01*
X544744Y303164D01*
X544250Y303658D01*
X543217Y306151D01*
X543217Y308849D01*
X544250Y311342D01*
X546158Y313250D01*
X548651Y314283D01*
X551349Y314283D01*
X553842Y313250D01*
X555750Y311342D01*
X556783Y308849D01*
X556783Y306151D01*
X555750Y303658D01*
X555256Y303164D01*
X555202Y303089D01*
X555143Y303020D01*
X555131Y302990D01*
X555112Y302964D01*
X555085Y302877D01*
X555051Y302792D01*
X555047Y302751D01*
X555040Y302729D01*
X555041Y302696D01*
X555033Y302625D01*
X555033Y299762D01*
X555036Y299742D01*
X555034Y299723D01*
X555056Y299621D01*
X555072Y299519D01*
X555082Y299502D01*
X555086Y299482D01*
X555139Y299393D01*
X555188Y299302D01*
X555202Y299288D01*
X555212Y299271D01*
X555291Y299204D01*
X555366Y299132D01*
X555384Y299124D01*
X555399Y299111D01*
X555495Y299072D01*
X555589Y299029D01*
X555609Y299027D01*
X555627Y299019D01*
X555794Y299001D01*
X558743Y299001D01*
X560501Y297243D01*
X560501Y288890D01*
X560504Y288870D01*
X560502Y288851D01*
X560524Y288749D01*
X560540Y288647D01*
X560550Y288630D01*
X560554Y288610D01*
X560607Y288521D01*
X560656Y288430D01*
X560670Y288416D01*
X560680Y288399D01*
X560759Y288332D01*
X560834Y288260D01*
X560852Y288252D01*
X560867Y288239D01*
X560963Y288200D01*
X561057Y288157D01*
X561077Y288155D01*
X561095Y288147D01*
X561262Y288129D01*
X562110Y288129D01*
X562200Y288039D01*
X562258Y287997D01*
X562310Y287947D01*
X562357Y287926D01*
X562399Y287895D01*
X562468Y287874D01*
X562533Y287844D01*
X562585Y287838D01*
X562635Y287823D01*
X562706Y287825D01*
X562777Y287817D01*
X562828Y287828D01*
X562880Y287829D01*
X562948Y287854D01*
X563018Y287869D01*
X563063Y287896D01*
X563111Y287914D01*
X563167Y287958D01*
X563229Y287995D01*
X563263Y288035D01*
X563303Y288067D01*
X563342Y288128D01*
X563389Y288182D01*
X563408Y288230D01*
X563436Y288274D01*
X563454Y288344D01*
X563481Y288410D01*
X563489Y288482D01*
X563497Y288513D01*
X563495Y288536D01*
X563499Y288577D01*
X563499Y293493D01*
X565262Y295255D01*
X565347Y295274D01*
X565449Y295290D01*
X565466Y295300D01*
X565486Y295304D01*
X565575Y295357D01*
X565666Y295406D01*
X565680Y295420D01*
X565697Y295430D01*
X565764Y295509D01*
X565836Y295584D01*
X565844Y295602D01*
X565857Y295617D01*
X565896Y295713D01*
X565939Y295807D01*
X565941Y295827D01*
X565949Y295845D01*
X565967Y296012D01*
X565967Y300238D01*
X565964Y300258D01*
X565966Y300277D01*
X565944Y300379D01*
X565928Y300481D01*
X565918Y300498D01*
X565914Y300518D01*
X565861Y300607D01*
X565812Y300698D01*
X565798Y300712D01*
X565788Y300729D01*
X565709Y300796D01*
X565634Y300868D01*
X565616Y300876D01*
X565601Y300889D01*
X565505Y300928D01*
X565411Y300971D01*
X565391Y300973D01*
X565373Y300981D01*
X565206Y300999D01*
X563257Y300999D01*
X561499Y302757D01*
X561499Y332243D01*
X562744Y333488D01*
X562797Y333562D01*
X562857Y333631D01*
X562869Y333661D01*
X562888Y333688D01*
X562915Y333775D01*
X562949Y333860D01*
X562953Y333900D01*
X562960Y333923D01*
X562959Y333955D01*
X562967Y334026D01*
X562967Y342488D01*
X562965Y342505D01*
X562966Y342520D01*
X562966Y342523D01*
X562966Y342527D01*
X562944Y342629D01*
X562928Y342731D01*
X562918Y342748D01*
X562914Y342768D01*
X562861Y342857D01*
X562812Y342948D01*
X562798Y342962D01*
X562788Y342979D01*
X562709Y343046D01*
X562634Y343118D01*
X562616Y343126D01*
X562601Y343139D01*
X562505Y343178D01*
X562411Y343221D01*
X562391Y343223D01*
X562373Y343231D01*
X562206Y343249D01*
X560757Y343249D01*
X558999Y345007D01*
X558999Y354993D01*
X560757Y356751D01*
X575243Y356751D01*
X577001Y354993D01*
X577001Y345007D01*
X575243Y343249D01*
X573794Y343249D01*
X573774Y343246D01*
X573755Y343248D01*
X573653Y343226D01*
X573551Y343210D01*
X573534Y343200D01*
X573514Y343196D01*
X573425Y343143D01*
X573334Y343094D01*
X573320Y343080D01*
X573303Y343070D01*
X573236Y342991D01*
X573164Y342916D01*
X573156Y342898D01*
X573143Y342883D01*
X573104Y342787D01*
X573061Y342693D01*
X573059Y342673D01*
X573051Y342655D01*
X573033Y342488D01*
X573033Y334762D01*
X573036Y334742D01*
X573034Y334723D01*
X573056Y334621D01*
X573072Y334519D01*
X573082Y334502D01*
X573086Y334482D01*
X573139Y334393D01*
X573188Y334302D01*
X573202Y334288D01*
X573212Y334271D01*
X573291Y334204D01*
X573366Y334132D01*
X573384Y334124D01*
X573399Y334111D01*
X573495Y334072D01*
X573589Y334029D01*
X573609Y334027D01*
X573627Y334019D01*
X573794Y334001D01*
X578743Y334001D01*
X580501Y332243D01*
X580501Y302757D01*
X578743Y300999D01*
X576794Y300999D01*
X576774Y300996D01*
X576755Y300998D01*
X576653Y300976D01*
X576551Y300960D01*
X576534Y300950D01*
X576514Y300946D01*
X576425Y300893D01*
X576334Y300844D01*
X576320Y300830D01*
X576303Y300820D01*
X576236Y300741D01*
X576164Y300666D01*
X576156Y300648D01*
X576143Y300633D01*
X576104Y300537D01*
X576061Y300443D01*
X576059Y300423D01*
X576051Y300405D01*
X576033Y300238D01*
X576033Y296012D01*
X576034Y296006D01*
X576034Y296005D01*
X576034Y296004D01*
X576036Y295992D01*
X576034Y295973D01*
X576056Y295871D01*
X576072Y295769D01*
X576082Y295752D01*
X576086Y295732D01*
X576139Y295643D01*
X576188Y295552D01*
X576202Y295538D01*
X576212Y295521D01*
X576291Y295454D01*
X576366Y295382D01*
X576384Y295374D01*
X576399Y295361D01*
X576495Y295322D01*
X576589Y295279D01*
X576609Y295277D01*
X576627Y295269D01*
X576794Y295251D01*
X579743Y295251D01*
X581501Y293493D01*
X581501Y285794D01*
X581504Y285774D01*
X581502Y285755D01*
X581524Y285653D01*
X581540Y285551D01*
X581550Y285534D01*
X581554Y285514D01*
X581607Y285425D01*
X581656Y285334D01*
X581670Y285320D01*
X581680Y285303D01*
X581759Y285236D01*
X581834Y285164D01*
X581852Y285156D01*
X581867Y285143D01*
X581963Y285104D01*
X582057Y285061D01*
X582077Y285059D01*
X582095Y285051D01*
X582262Y285033D01*
X588338Y285033D01*
X588454Y285052D01*
X588573Y285070D01*
X588576Y285072D01*
X588580Y285072D01*
X588685Y285128D01*
X588791Y285183D01*
X588794Y285186D01*
X588798Y285188D01*
X588879Y285273D01*
X588963Y285359D01*
X588964Y285363D01*
X588967Y285366D01*
X589018Y285474D01*
X589069Y285581D01*
X589069Y285585D01*
X589071Y285589D01*
X589084Y285707D01*
X589098Y285825D01*
X589098Y285830D01*
X589098Y285833D01*
X589095Y285847D01*
X589073Y285991D01*
X588959Y286416D01*
X588959Y288126D01*
X596887Y288126D01*
X596906Y288129D01*
X596926Y288127D01*
X597028Y288149D01*
X597130Y288165D01*
X597147Y288175D01*
X597167Y288179D01*
X597256Y288232D01*
X597347Y288281D01*
X597361Y288295D01*
X597378Y288305D01*
X597445Y288384D01*
X597499Y288441D01*
X597507Y288427D01*
X597521Y288413D01*
X597531Y288396D01*
X597610Y288329D01*
X597685Y288257D01*
X597703Y288249D01*
X597718Y288236D01*
X597815Y288197D01*
X597908Y288154D01*
X597928Y288152D01*
X597946Y288144D01*
X598113Y288126D01*
X606064Y288126D01*
X606154Y288140D01*
X606245Y288148D01*
X606275Y288160D01*
X606307Y288165D01*
X606388Y288208D01*
X606471Y288244D01*
X606504Y288270D01*
X606524Y288281D01*
X606546Y288304D01*
X606602Y288349D01*
X609276Y291023D01*
X609329Y291097D01*
X609389Y291166D01*
X609401Y291196D01*
X609420Y291222D01*
X609447Y291309D01*
X609481Y291394D01*
X609485Y291435D01*
X609492Y291457D01*
X609491Y291490D01*
X609499Y291561D01*
X609499Y297243D01*
X611257Y299001D01*
X628743Y299001D01*
X630501Y297243D01*
X630501Y295794D01*
X630504Y295774D01*
X630502Y295755D01*
X630524Y295653D01*
X630540Y295551D01*
X630550Y295534D01*
X630554Y295514D01*
X630607Y295425D01*
X630656Y295334D01*
X630670Y295320D01*
X630680Y295303D01*
X630759Y295236D01*
X630834Y295164D01*
X630852Y295156D01*
X630867Y295143D01*
X630963Y295104D01*
X631057Y295061D01*
X631077Y295059D01*
X631095Y295051D01*
X631262Y295033D01*
X632625Y295033D01*
X632715Y295047D01*
X632806Y295055D01*
X632836Y295067D01*
X632868Y295072D01*
X632949Y295115D01*
X633032Y295151D01*
X633065Y295177D01*
X633085Y295188D01*
X633107Y295211D01*
X633163Y295256D01*
X633658Y295750D01*
X636151Y296783D01*
X638849Y296783D01*
X641342Y295750D01*
X643250Y293842D01*
X644283Y291349D01*
X644283Y288651D01*
X643250Y286158D01*
X641342Y284250D01*
X638849Y283217D01*
X636151Y283217D01*
X633658Y284250D01*
X633163Y284744D01*
X633090Y284797D01*
X633020Y284857D01*
X632990Y284869D01*
X632964Y284888D01*
X632877Y284915D01*
X632792Y284949D01*
X632751Y284953D01*
X632729Y284960D01*
X632696Y284959D01*
X632625Y284967D01*
X631262Y284967D01*
X631242Y284964D01*
X631223Y284966D01*
X631121Y284944D01*
X631019Y284928D01*
X631002Y284918D01*
X630982Y284914D01*
X630893Y284861D01*
X630802Y284812D01*
X630788Y284798D01*
X630771Y284788D01*
X630704Y284709D01*
X630632Y284634D01*
X630624Y284616D01*
X630611Y284601D01*
X630572Y284505D01*
X630529Y284411D01*
X630527Y284391D01*
X630519Y284373D01*
X630501Y284206D01*
X630501Y281757D01*
X628948Y280204D01*
X628879Y280108D01*
X628808Y280012D01*
X628807Y280008D01*
X628804Y280005D01*
X628770Y279892D01*
X628733Y279777D01*
X628733Y279773D01*
X628732Y279769D01*
X628735Y279651D01*
X628737Y279532D01*
X628738Y279528D01*
X628738Y279524D01*
X628779Y279412D01*
X628819Y279300D01*
X628821Y279296D01*
X628823Y279293D01*
X628897Y279200D01*
X628971Y279106D01*
X628975Y279103D01*
X628977Y279101D01*
X628988Y279093D01*
X629033Y279060D01*
X629533Y278560D01*
X629868Y277981D01*
X630041Y277334D01*
X630041Y272023D01*
X620762Y272023D01*
X620742Y272020D01*
X620723Y272022D01*
X620621Y272000D01*
X620519Y271983D01*
X620502Y271974D01*
X620482Y271970D01*
X620393Y271917D01*
X620302Y271868D01*
X620288Y271854D01*
X620271Y271844D01*
X620204Y271765D01*
X620133Y271690D01*
X620124Y271672D01*
X620111Y271657D01*
X620072Y271561D01*
X620029Y271467D01*
X620027Y271447D01*
X620019Y271429D01*
X620001Y271262D01*
X620001Y269738D01*
X620004Y269718D01*
X620002Y269699D01*
X620024Y269597D01*
X620041Y269495D01*
X620050Y269478D01*
X620054Y269458D01*
X620107Y269369D01*
X620156Y269278D01*
X620170Y269264D01*
X620180Y269247D01*
X620259Y269180D01*
X620334Y269109D01*
X620352Y269100D01*
X620367Y269087D01*
X620463Y269048D01*
X620557Y269005D01*
X620577Y269003D01*
X620595Y268995D01*
X620762Y268977D01*
X630041Y268977D01*
X630041Y263666D01*
X629868Y263019D01*
X629533Y262440D01*
X629060Y261967D01*
X628481Y261632D01*
X627834Y261459D01*
X623122Y261459D01*
X623051Y261448D01*
X622980Y261446D01*
X622931Y261428D01*
X622879Y261420D01*
X622816Y261386D01*
X622749Y261361D01*
X622708Y261329D01*
X622662Y261304D01*
X622613Y261252D01*
X622557Y261208D01*
X622529Y261164D01*
X622493Y261126D01*
X622463Y261061D01*
X622424Y261001D01*
X622411Y260950D01*
X622389Y260903D01*
X622381Y260832D01*
X622364Y260762D01*
X622368Y260710D01*
X622362Y260659D01*
X622377Y260588D01*
X622383Y260517D01*
X622403Y260469D01*
X622414Y260418D01*
X622451Y260357D01*
X622479Y260291D01*
X622524Y260235D01*
X622540Y260207D01*
X622558Y260192D01*
X622584Y260160D01*
X624501Y258243D01*
X624501Y255294D01*
X624504Y255274D01*
X624502Y255255D01*
X624524Y255153D01*
X624540Y255051D01*
X624550Y255034D01*
X624554Y255014D01*
X624607Y254925D01*
X624656Y254834D01*
X624670Y254820D01*
X624680Y254803D01*
X624759Y254736D01*
X624834Y254664D01*
X624852Y254656D01*
X624867Y254643D01*
X624963Y254604D01*
X625057Y254561D01*
X625077Y254559D01*
X625095Y254551D01*
X625262Y254533D01*
X627625Y254533D01*
X627715Y254547D01*
X627806Y254555D01*
X627836Y254567D01*
X627868Y254572D01*
X627949Y254615D01*
X628032Y254651D01*
X628065Y254677D01*
X628085Y254688D01*
X628107Y254711D01*
X628163Y254756D01*
X628658Y255250D01*
X631151Y256283D01*
X633849Y256283D01*
X636342Y255250D01*
X638250Y253342D01*
X639283Y250849D01*
X639283Y248151D01*
X638250Y245658D01*
X636342Y243750D01*
X633849Y242717D01*
X631151Y242717D01*
X628658Y243750D01*
X628163Y244244D01*
X628090Y244297D01*
X628020Y244357D01*
X627990Y244369D01*
X627964Y244388D01*
X627877Y244415D01*
X627792Y244449D01*
X627751Y244453D01*
X627729Y244460D01*
X627696Y244459D01*
X627625Y244467D01*
X625262Y244467D01*
X625242Y244464D01*
X625223Y244466D01*
X625121Y244444D01*
X625019Y244428D01*
X625002Y244418D01*
X624982Y244414D01*
X624893Y244361D01*
X624802Y244312D01*
X624788Y244298D01*
X624771Y244288D01*
X624704Y244209D01*
X624632Y244134D01*
X624624Y244116D01*
X624611Y244101D01*
X624572Y244005D01*
X624529Y243911D01*
X624527Y243891D01*
X624519Y243873D01*
X624501Y243706D01*
X624501Y240757D01*
X622743Y238999D01*
X607257Y238999D01*
X606038Y240218D01*
X606022Y240230D01*
X606010Y240245D01*
X605922Y240301D01*
X605839Y240362D01*
X605820Y240367D01*
X605803Y240378D01*
X605702Y240404D01*
X605603Y240434D01*
X605584Y240433D01*
X605564Y240438D01*
X605461Y240430D01*
X605358Y240428D01*
X605339Y240421D01*
X605319Y240419D01*
X605224Y240379D01*
X605127Y240343D01*
X605111Y240331D01*
X605093Y240323D01*
X604962Y240218D01*
X603743Y238999D01*
X588257Y238999D01*
X586499Y240757D01*
X586499Y243706D01*
X586496Y243726D01*
X586498Y243745D01*
X586476Y243847D01*
X586460Y243949D01*
X586450Y243966D01*
X586446Y243986D01*
X586393Y244075D01*
X586344Y244166D01*
X586330Y244180D01*
X586320Y244197D01*
X586241Y244264D01*
X586166Y244336D01*
X586148Y244344D01*
X586133Y244357D01*
X586037Y244396D01*
X585943Y244439D01*
X585923Y244441D01*
X585905Y244449D01*
X585738Y244467D01*
X582262Y244467D01*
X582242Y244464D01*
X582223Y244466D01*
X582121Y244444D01*
X582019Y244428D01*
X582002Y244418D01*
X581982Y244414D01*
X581893Y244361D01*
X581802Y244312D01*
X581788Y244298D01*
X581771Y244288D01*
X581704Y244209D01*
X581632Y244134D01*
X581624Y244116D01*
X581611Y244101D01*
X581572Y244005D01*
X581529Y243911D01*
X581527Y243891D01*
X581519Y243873D01*
X581501Y243706D01*
X581501Y240757D01*
X579743Y238999D01*
X564257Y238999D01*
X563038Y240218D01*
X563022Y240230D01*
X563010Y240245D01*
X562922Y240301D01*
X562839Y240362D01*
X562820Y240367D01*
X562803Y240378D01*
X562702Y240404D01*
X562603Y240434D01*
X562584Y240433D01*
X562564Y240438D01*
X562461Y240430D01*
X562358Y240428D01*
X562339Y240421D01*
X562319Y240419D01*
X562224Y240379D01*
X562127Y240343D01*
X562111Y240331D01*
X562093Y240323D01*
X561962Y240218D01*
X560743Y238999D01*
X545257Y238999D01*
G37*
%LPD*%
%LPC*%
G36*
X472757Y211999D02*
X472757Y211999D01*
X470999Y213757D01*
X470999Y216706D01*
X470996Y216726D01*
X470998Y216745D01*
X470976Y216847D01*
X470960Y216949D01*
X470950Y216966D01*
X470946Y216986D01*
X470893Y217075D01*
X470844Y217166D01*
X470830Y217180D01*
X470820Y217197D01*
X470741Y217264D01*
X470666Y217336D01*
X470648Y217344D01*
X470633Y217357D01*
X470537Y217396D01*
X470443Y217439D01*
X470423Y217441D01*
X470405Y217449D01*
X470238Y217467D01*
X467915Y217467D01*
X464744Y220638D01*
X452388Y232994D01*
X452314Y233047D01*
X452245Y233107D01*
X452215Y233119D01*
X452189Y233138D01*
X452102Y233165D01*
X452017Y233199D01*
X451976Y233203D01*
X451954Y233210D01*
X451921Y233209D01*
X451850Y233217D01*
X451151Y233217D01*
X448658Y234250D01*
X446750Y236158D01*
X445717Y238651D01*
X445717Y241349D01*
X446750Y243842D01*
X448658Y245750D01*
X451151Y246783D01*
X453849Y246783D01*
X456342Y245750D01*
X458250Y243842D01*
X459283Y241349D01*
X459283Y240650D01*
X459297Y240560D01*
X459305Y240469D01*
X459317Y240439D01*
X459322Y240407D01*
X459365Y240327D01*
X459401Y240243D01*
X459427Y240211D01*
X459438Y240190D01*
X459461Y240168D01*
X459506Y240112D01*
X469700Y229918D01*
X469758Y229876D01*
X469810Y229826D01*
X469857Y229804D01*
X469899Y229774D01*
X469968Y229753D01*
X470033Y229723D01*
X470085Y229717D01*
X470135Y229702D01*
X470206Y229704D01*
X470277Y229696D01*
X470328Y229707D01*
X470380Y229708D01*
X470448Y229733D01*
X470518Y229748D01*
X470563Y229775D01*
X470611Y229793D01*
X470667Y229837D01*
X470729Y229874D01*
X470763Y229914D01*
X470803Y229946D01*
X470842Y230007D01*
X470889Y230061D01*
X470908Y230109D01*
X470936Y230153D01*
X470954Y230223D01*
X470981Y230289D01*
X470989Y230361D01*
X470997Y230392D01*
X470995Y230415D01*
X470999Y230456D01*
X470999Y231243D01*
X472757Y233001D01*
X488243Y233001D01*
X489462Y231782D01*
X489478Y231770D01*
X489490Y231755D01*
X489578Y231699D01*
X489661Y231638D01*
X489680Y231633D01*
X489697Y231622D01*
X489798Y231596D01*
X489897Y231566D01*
X489916Y231567D01*
X489936Y231562D01*
X490039Y231570D01*
X490142Y231572D01*
X490161Y231579D01*
X490181Y231581D01*
X490276Y231621D01*
X490373Y231657D01*
X490389Y231669D01*
X490407Y231677D01*
X490538Y231782D01*
X491757Y233001D01*
X493706Y233001D01*
X493726Y233004D01*
X493745Y233002D01*
X493847Y233024D01*
X493949Y233040D01*
X493966Y233050D01*
X493986Y233054D01*
X494075Y233107D01*
X494166Y233156D01*
X494180Y233170D01*
X494197Y233180D01*
X494264Y233259D01*
X494336Y233334D01*
X494344Y233352D01*
X494357Y233367D01*
X494396Y233463D01*
X494439Y233557D01*
X494441Y233577D01*
X494449Y233595D01*
X494467Y233762D01*
X494467Y276100D01*
X494453Y276190D01*
X494445Y276281D01*
X494433Y276311D01*
X494428Y276343D01*
X494385Y276423D01*
X494349Y276507D01*
X494323Y276539D01*
X494312Y276560D01*
X494289Y276582D01*
X494244Y276638D01*
X492606Y278276D01*
X492532Y278329D01*
X492463Y278389D01*
X492433Y278401D01*
X492407Y278420D01*
X492320Y278447D01*
X492235Y278481D01*
X492194Y278485D01*
X492172Y278492D01*
X492139Y278491D01*
X492068Y278499D01*
X481257Y278499D01*
X479499Y280257D01*
X479499Y295743D01*
X480718Y296962D01*
X480730Y296978D01*
X480745Y296990D01*
X480801Y297078D01*
X480862Y297161D01*
X480867Y297180D01*
X480878Y297197D01*
X480904Y297298D01*
X480934Y297397D01*
X480933Y297416D01*
X480938Y297436D01*
X480930Y297539D01*
X480928Y297642D01*
X480921Y297661D01*
X480919Y297681D01*
X480879Y297776D01*
X480843Y297873D01*
X480831Y297889D01*
X480823Y297907D01*
X480718Y298038D01*
X479499Y299257D01*
X479499Y314743D01*
X481257Y316501D01*
X498743Y316501D01*
X500501Y314743D01*
X500501Y312794D01*
X500504Y312774D01*
X500502Y312755D01*
X500524Y312653D01*
X500540Y312551D01*
X500550Y312534D01*
X500554Y312514D01*
X500607Y312425D01*
X500656Y312334D01*
X500670Y312320D01*
X500680Y312303D01*
X500759Y312236D01*
X500834Y312164D01*
X500852Y312156D01*
X500867Y312143D01*
X500963Y312104D01*
X501057Y312061D01*
X501077Y312059D01*
X501095Y312051D01*
X501262Y312033D01*
X510238Y312033D01*
X510258Y312036D01*
X510277Y312034D01*
X510379Y312056D01*
X510481Y312072D01*
X510498Y312082D01*
X510518Y312086D01*
X510607Y312139D01*
X510698Y312188D01*
X510712Y312202D01*
X510729Y312212D01*
X510796Y312291D01*
X510868Y312366D01*
X510876Y312384D01*
X510889Y312399D01*
X510928Y312495D01*
X510971Y312589D01*
X510973Y312609D01*
X510981Y312627D01*
X510999Y312794D01*
X510999Y314243D01*
X512757Y316001D01*
X527243Y316001D01*
X529001Y314243D01*
X529001Y299757D01*
X527243Y297999D01*
X512757Y297999D01*
X510999Y299757D01*
X510999Y301206D01*
X510996Y301226D01*
X510998Y301245D01*
X510976Y301347D01*
X510960Y301449D01*
X510950Y301466D01*
X510946Y301486D01*
X510893Y301575D01*
X510844Y301666D01*
X510830Y301680D01*
X510820Y301697D01*
X510741Y301764D01*
X510666Y301836D01*
X510648Y301844D01*
X510633Y301857D01*
X510537Y301896D01*
X510443Y301939D01*
X510423Y301941D01*
X510405Y301949D01*
X510238Y301967D01*
X501262Y301967D01*
X501242Y301964D01*
X501223Y301966D01*
X501121Y301944D01*
X501019Y301928D01*
X501002Y301918D01*
X500982Y301914D01*
X500893Y301861D01*
X500802Y301812D01*
X500788Y301798D01*
X500771Y301788D01*
X500704Y301709D01*
X500632Y301634D01*
X500624Y301616D01*
X500611Y301601D01*
X500572Y301505D01*
X500529Y301411D01*
X500527Y301391D01*
X500519Y301373D01*
X500501Y301206D01*
X500501Y299257D01*
X499282Y298038D01*
X499270Y298022D01*
X499255Y298010D01*
X499199Y297922D01*
X499138Y297839D01*
X499133Y297820D01*
X499122Y297803D01*
X499096Y297702D01*
X499066Y297603D01*
X499067Y297584D01*
X499062Y297564D01*
X499070Y297461D01*
X499072Y297358D01*
X499079Y297339D01*
X499081Y297319D01*
X499121Y297224D01*
X499157Y297127D01*
X499169Y297111D01*
X499177Y297093D01*
X499282Y296962D01*
X500501Y295743D01*
X500501Y284932D01*
X500515Y284842D01*
X500523Y284751D01*
X500535Y284721D01*
X500540Y284689D01*
X500583Y284609D01*
X500619Y284525D01*
X500645Y284493D01*
X500656Y284472D01*
X500679Y284450D01*
X500724Y284394D01*
X504533Y280585D01*
X504533Y233762D01*
X504536Y233742D01*
X504534Y233723D01*
X504556Y233621D01*
X504572Y233519D01*
X504582Y233502D01*
X504586Y233482D01*
X504639Y233393D01*
X504688Y233302D01*
X504702Y233288D01*
X504712Y233271D01*
X504791Y233204D01*
X504866Y233132D01*
X504884Y233124D01*
X504899Y233111D01*
X504995Y233072D01*
X505089Y233029D01*
X505109Y233027D01*
X505127Y233019D01*
X505294Y233001D01*
X507243Y233001D01*
X509001Y231243D01*
X509001Y228294D01*
X509004Y228274D01*
X509002Y228255D01*
X509024Y228153D01*
X509040Y228051D01*
X509050Y228034D01*
X509054Y228014D01*
X509107Y227925D01*
X509156Y227834D01*
X509170Y227820D01*
X509180Y227803D01*
X509259Y227736D01*
X509334Y227664D01*
X509352Y227656D01*
X509367Y227643D01*
X509463Y227604D01*
X509557Y227561D01*
X509577Y227559D01*
X509595Y227551D01*
X509762Y227533D01*
X513238Y227533D01*
X513258Y227536D01*
X513277Y227534D01*
X513379Y227556D01*
X513481Y227572D01*
X513498Y227582D01*
X513518Y227586D01*
X513607Y227639D01*
X513698Y227688D01*
X513712Y227702D01*
X513729Y227712D01*
X513796Y227791D01*
X513868Y227866D01*
X513876Y227884D01*
X513889Y227899D01*
X513928Y227995D01*
X513971Y228089D01*
X513973Y228109D01*
X513981Y228127D01*
X513993Y228237D01*
X515757Y230001D01*
X532243Y230001D01*
X534001Y228243D01*
X534001Y215757D01*
X532243Y213999D01*
X515757Y213999D01*
X513999Y215757D01*
X513999Y216706D01*
X513996Y216726D01*
X513998Y216745D01*
X513976Y216847D01*
X513960Y216949D01*
X513950Y216966D01*
X513946Y216986D01*
X513893Y217075D01*
X513844Y217166D01*
X513830Y217180D01*
X513820Y217197D01*
X513741Y217264D01*
X513666Y217336D01*
X513648Y217344D01*
X513633Y217357D01*
X513537Y217396D01*
X513443Y217439D01*
X513423Y217441D01*
X513405Y217449D01*
X513238Y217467D01*
X509762Y217467D01*
X509742Y217464D01*
X509723Y217466D01*
X509621Y217444D01*
X509519Y217428D01*
X509502Y217418D01*
X509482Y217414D01*
X509393Y217361D01*
X509302Y217312D01*
X509288Y217298D01*
X509271Y217288D01*
X509204Y217209D01*
X509132Y217134D01*
X509124Y217116D01*
X509111Y217101D01*
X509072Y217005D01*
X509029Y216911D01*
X509027Y216891D01*
X509019Y216873D01*
X509001Y216706D01*
X509001Y213757D01*
X507243Y211999D01*
X491757Y211999D01*
X490538Y213218D01*
X490522Y213230D01*
X490510Y213245D01*
X490422Y213301D01*
X490339Y213362D01*
X490320Y213367D01*
X490303Y213378D01*
X490202Y213404D01*
X490103Y213434D01*
X490084Y213433D01*
X490064Y213438D01*
X489961Y213430D01*
X489858Y213428D01*
X489839Y213421D01*
X489819Y213419D01*
X489724Y213379D01*
X489627Y213343D01*
X489611Y213331D01*
X489593Y213323D01*
X489462Y213218D01*
X488243Y211999D01*
X472757Y211999D01*
G37*
%LPD*%
%LPC*%
G36*
X496257Y148499D02*
X496257Y148499D01*
X494499Y150257D01*
X494499Y152206D01*
X494496Y152226D01*
X494498Y152245D01*
X494476Y152347D01*
X494460Y152449D01*
X494450Y152466D01*
X494446Y152486D01*
X494393Y152575D01*
X494344Y152666D01*
X494330Y152680D01*
X494320Y152697D01*
X494241Y152764D01*
X494166Y152836D01*
X494148Y152844D01*
X494133Y152857D01*
X494037Y152896D01*
X493943Y152939D01*
X493923Y152941D01*
X493905Y152949D01*
X493738Y152967D01*
X491762Y152967D01*
X491742Y152964D01*
X491723Y152966D01*
X491621Y152944D01*
X491519Y152928D01*
X491502Y152918D01*
X491482Y152914D01*
X491393Y152861D01*
X491302Y152812D01*
X491288Y152798D01*
X491271Y152788D01*
X491204Y152709D01*
X491132Y152634D01*
X491124Y152616D01*
X491111Y152601D01*
X491072Y152505D01*
X491029Y152411D01*
X491027Y152391D01*
X491019Y152373D01*
X491001Y152206D01*
X491001Y151757D01*
X489243Y149999D01*
X472757Y149999D01*
X470999Y151757D01*
X470999Y164243D01*
X472757Y166001D01*
X489243Y166001D01*
X491001Y164243D01*
X491001Y163794D01*
X491004Y163774D01*
X491002Y163755D01*
X491024Y163653D01*
X491040Y163551D01*
X491050Y163534D01*
X491054Y163514D01*
X491107Y163425D01*
X491156Y163334D01*
X491170Y163320D01*
X491180Y163303D01*
X491259Y163236D01*
X491334Y163164D01*
X491352Y163156D01*
X491367Y163143D01*
X491463Y163104D01*
X491557Y163061D01*
X491577Y163059D01*
X491595Y163051D01*
X491762Y163033D01*
X493738Y163033D01*
X493758Y163036D01*
X493777Y163034D01*
X493879Y163056D01*
X493981Y163072D01*
X493998Y163082D01*
X494018Y163086D01*
X494107Y163139D01*
X494198Y163188D01*
X494212Y163202D01*
X494229Y163212D01*
X494296Y163291D01*
X494368Y163366D01*
X494376Y163384D01*
X494389Y163399D01*
X494428Y163495D01*
X494471Y163589D01*
X494473Y163609D01*
X494481Y163627D01*
X494499Y163794D01*
X494499Y165743D01*
X495718Y166962D01*
X495730Y166978D01*
X495745Y166990D01*
X495801Y167078D01*
X495862Y167161D01*
X495867Y167180D01*
X495878Y167197D01*
X495904Y167298D01*
X495934Y167397D01*
X495933Y167416D01*
X495938Y167436D01*
X495930Y167539D01*
X495928Y167642D01*
X495921Y167661D01*
X495919Y167681D01*
X495879Y167776D01*
X495843Y167873D01*
X495831Y167889D01*
X495823Y167907D01*
X495718Y168038D01*
X494499Y169257D01*
X494499Y184743D01*
X494744Y184988D01*
X494797Y185062D01*
X494857Y185131D01*
X494869Y185162D01*
X494888Y185188D01*
X494915Y185275D01*
X494949Y185360D01*
X494953Y185400D01*
X494960Y185423D01*
X494959Y185455D01*
X494967Y185526D01*
X494967Y185625D01*
X494953Y185715D01*
X494945Y185806D01*
X494933Y185836D01*
X494928Y185868D01*
X494885Y185949D01*
X494849Y186032D01*
X494823Y186065D01*
X494812Y186085D01*
X494789Y186107D01*
X494744Y186163D01*
X494250Y186658D01*
X493217Y189151D01*
X493217Y191849D01*
X494250Y194342D01*
X496158Y196250D01*
X498651Y197283D01*
X501349Y197283D01*
X503842Y196250D01*
X505750Y194342D01*
X506783Y191849D01*
X506783Y189151D01*
X506121Y187553D01*
X506110Y187509D01*
X506091Y187467D01*
X506083Y187390D01*
X506065Y187314D01*
X506069Y187268D01*
X506064Y187223D01*
X506081Y187146D01*
X506088Y187069D01*
X506107Y187027D01*
X506116Y186982D01*
X506156Y186915D01*
X506188Y186844D01*
X506219Y186810D01*
X506243Y186771D01*
X506302Y186720D01*
X506354Y186663D01*
X506395Y186641D01*
X506429Y186611D01*
X506502Y186582D01*
X506570Y186545D01*
X506615Y186536D01*
X506658Y186519D01*
X506794Y186504D01*
X506812Y186501D01*
X506817Y186502D01*
X506824Y186501D01*
X513743Y186501D01*
X515501Y184743D01*
X515501Y169257D01*
X514282Y168038D01*
X514270Y168022D01*
X514255Y168010D01*
X514199Y167922D01*
X514138Y167839D01*
X514133Y167820D01*
X514122Y167803D01*
X514096Y167702D01*
X514066Y167603D01*
X514067Y167584D01*
X514062Y167564D01*
X514070Y167461D01*
X514072Y167358D01*
X514079Y167339D01*
X514081Y167319D01*
X514121Y167224D01*
X514157Y167127D01*
X514169Y167111D01*
X514177Y167093D01*
X514282Y166962D01*
X515501Y165743D01*
X515501Y163794D01*
X515504Y163774D01*
X515502Y163755D01*
X515524Y163653D01*
X515540Y163551D01*
X515550Y163534D01*
X515554Y163514D01*
X515607Y163425D01*
X515656Y163334D01*
X515670Y163320D01*
X515680Y163303D01*
X515759Y163236D01*
X515834Y163164D01*
X515852Y163156D01*
X515867Y163143D01*
X515963Y163104D01*
X516057Y163061D01*
X516077Y163059D01*
X516095Y163051D01*
X516262Y163033D01*
X521238Y163033D01*
X521258Y163036D01*
X521277Y163034D01*
X521379Y163056D01*
X521481Y163072D01*
X521498Y163082D01*
X521518Y163086D01*
X521607Y163139D01*
X521698Y163188D01*
X521712Y163202D01*
X521729Y163212D01*
X521796Y163291D01*
X521868Y163366D01*
X521876Y163384D01*
X521889Y163399D01*
X521928Y163495D01*
X521971Y163589D01*
X521973Y163609D01*
X521981Y163627D01*
X521999Y163794D01*
X521999Y165743D01*
X523218Y166962D01*
X523230Y166978D01*
X523245Y166990D01*
X523301Y167078D01*
X523362Y167161D01*
X523367Y167180D01*
X523378Y167197D01*
X523404Y167298D01*
X523434Y167397D01*
X523433Y167416D01*
X523438Y167436D01*
X523430Y167539D01*
X523428Y167642D01*
X523421Y167661D01*
X523419Y167681D01*
X523379Y167776D01*
X523343Y167873D01*
X523331Y167889D01*
X523323Y167907D01*
X523218Y168038D01*
X521999Y169257D01*
X521999Y184743D01*
X523757Y186501D01*
X534568Y186501D01*
X534658Y186515D01*
X534749Y186523D01*
X534779Y186535D01*
X534811Y186540D01*
X534891Y186583D01*
X534975Y186619D01*
X535007Y186645D01*
X535028Y186656D01*
X535050Y186679D01*
X535106Y186724D01*
X540744Y192362D01*
X540797Y192436D01*
X540857Y192505D01*
X540869Y192535D01*
X540888Y192561D01*
X540915Y192648D01*
X540949Y192733D01*
X540953Y192774D01*
X540960Y192796D01*
X540959Y192829D01*
X540967Y192900D01*
X540967Y203738D01*
X540964Y203758D01*
X540966Y203777D01*
X540944Y203879D01*
X540928Y203981D01*
X540918Y203998D01*
X540914Y204018D01*
X540861Y204107D01*
X540812Y204198D01*
X540798Y204212D01*
X540788Y204229D01*
X540709Y204296D01*
X540634Y204368D01*
X540616Y204376D01*
X540601Y204389D01*
X540505Y204428D01*
X540411Y204471D01*
X540391Y204473D01*
X540373Y204481D01*
X540206Y204499D01*
X537757Y204499D01*
X535999Y206257D01*
X535999Y218743D01*
X537757Y220501D01*
X554243Y220501D01*
X556001Y218743D01*
X556001Y206257D01*
X554243Y204499D01*
X551794Y204499D01*
X551774Y204496D01*
X551755Y204498D01*
X551653Y204476D01*
X551551Y204460D01*
X551534Y204450D01*
X551514Y204446D01*
X551425Y204393D01*
X551334Y204344D01*
X551320Y204330D01*
X551303Y204320D01*
X551236Y204241D01*
X551164Y204166D01*
X551156Y204148D01*
X551143Y204133D01*
X551104Y204037D01*
X551061Y203943D01*
X551059Y203923D01*
X551051Y203905D01*
X551033Y203738D01*
X551033Y188415D01*
X543224Y180606D01*
X543171Y180532D01*
X543111Y180463D01*
X543099Y180433D01*
X543080Y180407D01*
X543053Y180320D01*
X543019Y180235D01*
X543015Y180194D01*
X543008Y180172D01*
X543009Y180139D01*
X543001Y180068D01*
X543001Y169257D01*
X541782Y168038D01*
X541770Y168022D01*
X541755Y168010D01*
X541699Y167922D01*
X541638Y167839D01*
X541633Y167820D01*
X541622Y167803D01*
X541596Y167702D01*
X541566Y167603D01*
X541567Y167584D01*
X541562Y167564D01*
X541570Y167461D01*
X541572Y167358D01*
X541579Y167339D01*
X541581Y167319D01*
X541621Y167224D01*
X541657Y167127D01*
X541669Y167111D01*
X541677Y167093D01*
X541782Y166962D01*
X543001Y165743D01*
X543001Y150257D01*
X541243Y148499D01*
X523757Y148499D01*
X521999Y150257D01*
X521999Y152206D01*
X521996Y152226D01*
X521998Y152245D01*
X521976Y152347D01*
X521960Y152449D01*
X521950Y152466D01*
X521946Y152486D01*
X521893Y152575D01*
X521844Y152666D01*
X521830Y152680D01*
X521820Y152697D01*
X521741Y152764D01*
X521666Y152836D01*
X521648Y152844D01*
X521633Y152857D01*
X521537Y152896D01*
X521443Y152939D01*
X521423Y152941D01*
X521405Y152949D01*
X521238Y152967D01*
X516262Y152967D01*
X516242Y152964D01*
X516223Y152966D01*
X516121Y152944D01*
X516019Y152928D01*
X516002Y152918D01*
X515982Y152914D01*
X515893Y152861D01*
X515802Y152812D01*
X515788Y152798D01*
X515771Y152788D01*
X515704Y152709D01*
X515632Y152634D01*
X515624Y152616D01*
X515611Y152601D01*
X515572Y152505D01*
X515529Y152411D01*
X515527Y152391D01*
X515519Y152373D01*
X515501Y152206D01*
X515501Y150257D01*
X513743Y148499D01*
X496257Y148499D01*
G37*
%LPD*%
G36*
X585758Y254536D02*
X585758Y254536D01*
X585777Y254534D01*
X585879Y254556D01*
X585981Y254572D01*
X585998Y254582D01*
X586018Y254586D01*
X586107Y254639D01*
X586198Y254688D01*
X586212Y254702D01*
X586229Y254712D01*
X586296Y254791D01*
X586368Y254866D01*
X586376Y254884D01*
X586389Y254899D01*
X586428Y254995D01*
X586471Y255089D01*
X586473Y255109D01*
X586481Y255127D01*
X586499Y255294D01*
X586499Y258243D01*
X588257Y260001D01*
X603743Y260001D01*
X604962Y258782D01*
X604978Y258770D01*
X604990Y258755D01*
X605078Y258699D01*
X605161Y258638D01*
X605180Y258633D01*
X605197Y258622D01*
X605298Y258596D01*
X605397Y258566D01*
X605416Y258567D01*
X605436Y258562D01*
X605539Y258570D01*
X605642Y258572D01*
X605661Y258579D01*
X605681Y258581D01*
X605776Y258621D01*
X605873Y258657D01*
X605889Y258669D01*
X605907Y258677D01*
X606038Y258782D01*
X607257Y260001D01*
X611827Y260001D01*
X611850Y260005D01*
X611874Y260002D01*
X611971Y260024D01*
X612069Y260040D01*
X612091Y260052D01*
X612114Y260057D01*
X612199Y260109D01*
X612287Y260156D01*
X612303Y260173D01*
X612324Y260186D01*
X612388Y260262D01*
X612456Y260334D01*
X612466Y260356D01*
X612482Y260374D01*
X612518Y260467D01*
X612560Y260557D01*
X612562Y260581D01*
X612571Y260603D01*
X612576Y260703D01*
X612587Y260801D01*
X612582Y260825D01*
X612583Y260849D01*
X612556Y260944D01*
X612535Y261042D01*
X612522Y261063D01*
X612516Y261086D01*
X612460Y261167D01*
X612408Y261253D01*
X612390Y261269D01*
X612376Y261288D01*
X612297Y261348D01*
X612222Y261413D01*
X612199Y261422D01*
X612180Y261436D01*
X612024Y261497D01*
X611519Y261632D01*
X610940Y261967D01*
X610467Y262440D01*
X610132Y263019D01*
X609959Y263666D01*
X609959Y268977D01*
X619238Y268977D01*
X619258Y268980D01*
X619277Y268978D01*
X619379Y269000D01*
X619481Y269017D01*
X619498Y269026D01*
X619518Y269030D01*
X619607Y269083D01*
X619698Y269132D01*
X619712Y269146D01*
X619729Y269156D01*
X619796Y269235D01*
X619867Y269310D01*
X619876Y269328D01*
X619889Y269343D01*
X619928Y269439D01*
X619971Y269533D01*
X619973Y269553D01*
X619981Y269571D01*
X619999Y269738D01*
X619999Y271262D01*
X619996Y271282D01*
X619998Y271301D01*
X619976Y271403D01*
X619959Y271505D01*
X619950Y271522D01*
X619946Y271542D01*
X619893Y271631D01*
X619844Y271722D01*
X619830Y271736D01*
X619820Y271753D01*
X619741Y271820D01*
X619666Y271891D01*
X619648Y271900D01*
X619633Y271913D01*
X619537Y271952D01*
X619443Y271995D01*
X619423Y271997D01*
X619405Y272005D01*
X619238Y272023D01*
X609959Y272023D01*
X609959Y275633D01*
X609948Y275704D01*
X609946Y275775D01*
X609928Y275824D01*
X609920Y275876D01*
X609886Y275939D01*
X609861Y276006D01*
X609829Y276047D01*
X609804Y276093D01*
X609752Y276143D01*
X609708Y276199D01*
X609664Y276227D01*
X609626Y276263D01*
X609561Y276293D01*
X609501Y276332D01*
X609450Y276344D01*
X609403Y276366D01*
X609332Y276374D01*
X609262Y276392D01*
X609210Y276388D01*
X609159Y276393D01*
X609088Y276378D01*
X609017Y276372D01*
X608969Y276352D01*
X608918Y276341D01*
X608857Y276304D01*
X608791Y276276D01*
X608735Y276231D01*
X608707Y276215D01*
X608692Y276197D01*
X608660Y276171D01*
X607456Y274967D01*
X606662Y274967D01*
X606546Y274948D01*
X606427Y274930D01*
X606424Y274928D01*
X606420Y274928D01*
X606315Y274872D01*
X606209Y274817D01*
X606206Y274814D01*
X606202Y274812D01*
X606121Y274727D01*
X606037Y274641D01*
X606036Y274637D01*
X606033Y274634D01*
X605982Y274526D01*
X605931Y274419D01*
X605931Y274415D01*
X605929Y274411D01*
X605916Y274293D01*
X605902Y274175D01*
X605902Y274170D01*
X605902Y274167D01*
X605905Y274153D01*
X605927Y274009D01*
X606041Y273584D01*
X606041Y271874D01*
X598113Y271874D01*
X598094Y271871D01*
X598074Y271873D01*
X597972Y271851D01*
X597870Y271835D01*
X597853Y271825D01*
X597833Y271821D01*
X597744Y271768D01*
X597653Y271719D01*
X597639Y271705D01*
X597622Y271695D01*
X597555Y271616D01*
X597501Y271559D01*
X597493Y271573D01*
X597479Y271587D01*
X597469Y271604D01*
X597390Y271671D01*
X597315Y271743D01*
X597297Y271751D01*
X597282Y271764D01*
X597185Y271803D01*
X597092Y271846D01*
X597072Y271848D01*
X597054Y271856D01*
X596887Y271874D01*
X588959Y271874D01*
X588959Y273584D01*
X589073Y274009D01*
X589085Y274128D01*
X589098Y274245D01*
X589097Y274250D01*
X589097Y274254D01*
X589071Y274369D01*
X589046Y274486D01*
X589043Y274489D01*
X589043Y274493D01*
X588981Y274594D01*
X588919Y274697D01*
X588916Y274700D01*
X588914Y274703D01*
X588823Y274780D01*
X588733Y274857D01*
X588729Y274858D01*
X588725Y274861D01*
X588615Y274904D01*
X588504Y274949D01*
X588499Y274949D01*
X588496Y274951D01*
X588483Y274951D01*
X588338Y274967D01*
X582262Y274967D01*
X582242Y274964D01*
X582223Y274966D01*
X582121Y274944D01*
X582019Y274928D01*
X582002Y274918D01*
X581982Y274914D01*
X581893Y274861D01*
X581802Y274812D01*
X581788Y274798D01*
X581771Y274788D01*
X581704Y274709D01*
X581632Y274634D01*
X581624Y274616D01*
X581611Y274601D01*
X581572Y274505D01*
X581529Y274411D01*
X581527Y274391D01*
X581519Y274373D01*
X581501Y274206D01*
X581501Y266507D01*
X579743Y264749D01*
X578294Y264749D01*
X578274Y264746D01*
X578255Y264748D01*
X578153Y264726D01*
X578051Y264710D01*
X578034Y264700D01*
X578014Y264696D01*
X577925Y264643D01*
X577834Y264594D01*
X577820Y264580D01*
X577803Y264570D01*
X577736Y264491D01*
X577664Y264416D01*
X577656Y264398D01*
X577643Y264383D01*
X577604Y264287D01*
X577561Y264193D01*
X577559Y264173D01*
X577551Y264155D01*
X577533Y263988D01*
X577533Y260762D01*
X577536Y260742D01*
X577534Y260723D01*
X577556Y260621D01*
X577572Y260519D01*
X577582Y260502D01*
X577586Y260482D01*
X577639Y260393D01*
X577688Y260302D01*
X577702Y260288D01*
X577712Y260271D01*
X577791Y260204D01*
X577866Y260132D01*
X577884Y260124D01*
X577899Y260111D01*
X577995Y260072D01*
X578089Y260029D01*
X578109Y260027D01*
X578127Y260019D01*
X578294Y260001D01*
X579743Y260001D01*
X581501Y258243D01*
X581501Y255294D01*
X581504Y255274D01*
X581502Y255255D01*
X581524Y255153D01*
X581540Y255051D01*
X581550Y255034D01*
X581554Y255014D01*
X581607Y254925D01*
X581656Y254834D01*
X581670Y254820D01*
X581680Y254803D01*
X581759Y254736D01*
X581834Y254664D01*
X581852Y254656D01*
X581867Y254643D01*
X581963Y254604D01*
X582057Y254561D01*
X582077Y254559D01*
X582095Y254551D01*
X582262Y254533D01*
X585738Y254533D01*
X585758Y254536D01*
G37*
%LPC*%
G36*
X512757Y318999D02*
X512757Y318999D01*
X510999Y320757D01*
X510999Y335243D01*
X512757Y337001D01*
X527243Y337001D01*
X529001Y335243D01*
X529001Y333294D01*
X529004Y333274D01*
X529002Y333255D01*
X529024Y333153D01*
X529040Y333051D01*
X529050Y333034D01*
X529054Y333014D01*
X529107Y332925D01*
X529156Y332834D01*
X529170Y332820D01*
X529180Y332803D01*
X529259Y332736D01*
X529334Y332664D01*
X529352Y332656D01*
X529367Y332643D01*
X529463Y332604D01*
X529557Y332561D01*
X529577Y332559D01*
X529595Y332551D01*
X529762Y332533D01*
X530125Y332533D01*
X530215Y332547D01*
X530306Y332555D01*
X530336Y332567D01*
X530368Y332572D01*
X530449Y332615D01*
X530532Y332651D01*
X530565Y332677D01*
X530585Y332688D01*
X530607Y332711D01*
X530663Y332756D01*
X531158Y333250D01*
X533651Y334283D01*
X536349Y334283D01*
X538842Y333250D01*
X540750Y331342D01*
X541783Y328849D01*
X541783Y326151D01*
X540750Y323658D01*
X538842Y321750D01*
X536349Y320717D01*
X533651Y320717D01*
X531158Y321750D01*
X530663Y322244D01*
X530590Y322297D01*
X530520Y322357D01*
X530490Y322369D01*
X530464Y322388D01*
X530377Y322415D01*
X530292Y322449D01*
X530251Y322453D01*
X530229Y322460D01*
X530196Y322459D01*
X530125Y322467D01*
X529762Y322467D01*
X529742Y322464D01*
X529723Y322466D01*
X529621Y322444D01*
X529519Y322428D01*
X529502Y322418D01*
X529482Y322414D01*
X529393Y322361D01*
X529302Y322312D01*
X529288Y322298D01*
X529271Y322288D01*
X529204Y322209D01*
X529132Y322134D01*
X529124Y322116D01*
X529111Y322101D01*
X529072Y322005D01*
X529029Y321911D01*
X529027Y321891D01*
X529019Y321873D01*
X529001Y321706D01*
X529001Y320757D01*
X527243Y318999D01*
X512757Y318999D01*
G37*
%LPD*%
%LPC*%
G36*
X472757Y168999D02*
X472757Y168999D01*
X470999Y170757D01*
X470999Y183243D01*
X472757Y185001D01*
X475069Y185001D01*
X475140Y185012D01*
X475212Y185014D01*
X475261Y185032D01*
X475312Y185040D01*
X475375Y185074D01*
X475443Y185099D01*
X475483Y185131D01*
X475529Y185156D01*
X475579Y185208D01*
X475635Y185252D01*
X475663Y185296D01*
X475699Y185334D01*
X475729Y185399D01*
X475768Y185459D01*
X475780Y185510D01*
X475802Y185557D01*
X475810Y185628D01*
X475828Y185698D01*
X475824Y185750D01*
X475829Y185801D01*
X475814Y185872D01*
X475809Y185943D01*
X475788Y185991D01*
X475777Y186042D01*
X475740Y186103D01*
X475712Y186169D01*
X475667Y186225D01*
X475651Y186253D01*
X475633Y186268D01*
X475608Y186300D01*
X475250Y186658D01*
X474217Y189151D01*
X474217Y191849D01*
X475250Y194342D01*
X477158Y196250D01*
X479651Y197283D01*
X482349Y197283D01*
X484842Y196250D01*
X486750Y194342D01*
X487783Y191849D01*
X487783Y189151D01*
X486750Y186658D01*
X486392Y186300D01*
X486351Y186242D01*
X486301Y186190D01*
X486279Y186143D01*
X486249Y186101D01*
X486228Y186032D01*
X486198Y185967D01*
X486192Y185915D01*
X486177Y185865D01*
X486178Y185794D01*
X486171Y185723D01*
X486182Y185672D01*
X486183Y185620D01*
X486208Y185552D01*
X486223Y185482D01*
X486250Y185437D01*
X486267Y185389D01*
X486312Y185333D01*
X486349Y185271D01*
X486389Y185237D01*
X486421Y185197D01*
X486481Y185158D01*
X486536Y185111D01*
X486584Y185092D01*
X486628Y185064D01*
X486697Y185046D01*
X486764Y185019D01*
X486835Y185011D01*
X486867Y185003D01*
X486890Y185005D01*
X486931Y185001D01*
X489243Y185001D01*
X491001Y183243D01*
X491001Y170757D01*
X489243Y168999D01*
X472757Y168999D01*
G37*
%LPD*%
%LPC*%
G36*
X515757Y194999D02*
X515757Y194999D01*
X514318Y196438D01*
X514223Y196507D01*
X514129Y196576D01*
X514123Y196578D01*
X514118Y196582D01*
X514007Y196616D01*
X513895Y196652D01*
X513889Y196652D01*
X513883Y196654D01*
X513766Y196651D01*
X513649Y196650D01*
X513642Y196648D01*
X513637Y196648D01*
X513620Y196642D01*
X513488Y196603D01*
X511349Y195717D01*
X508651Y195717D01*
X506158Y196750D01*
X504250Y198658D01*
X503217Y201151D01*
X503217Y203849D01*
X504250Y206342D01*
X506158Y208250D01*
X508651Y209283D01*
X511349Y209283D01*
X512947Y208621D01*
X512991Y208610D01*
X513033Y208591D01*
X513110Y208583D01*
X513186Y208565D01*
X513232Y208569D01*
X513277Y208564D01*
X513354Y208581D01*
X513431Y208588D01*
X513473Y208607D01*
X513518Y208616D01*
X513585Y208656D01*
X513656Y208688D01*
X513690Y208719D01*
X513729Y208743D01*
X513780Y208802D01*
X513837Y208854D01*
X513859Y208895D01*
X513889Y208929D01*
X513918Y209002D01*
X513955Y209070D01*
X513964Y209115D01*
X513981Y209158D01*
X513989Y209233D01*
X515757Y211001D01*
X532243Y211001D01*
X534001Y209243D01*
X534001Y196757D01*
X532243Y194999D01*
X515757Y194999D01*
G37*
%LPD*%
%LPC*%
G36*
X594757Y343249D02*
X594757Y343249D01*
X592999Y345007D01*
X592999Y354993D01*
X594757Y356751D01*
X595819Y356751D01*
X595890Y356762D01*
X595962Y356764D01*
X596011Y356782D01*
X596062Y356790D01*
X596125Y356824D01*
X596193Y356849D01*
X596233Y356881D01*
X596279Y356906D01*
X596329Y356957D01*
X596385Y357002D01*
X596413Y357046D01*
X596449Y357084D01*
X596479Y357149D01*
X596518Y357209D01*
X596530Y357260D01*
X596552Y357307D01*
X596560Y357378D01*
X596578Y357448D01*
X596574Y357500D01*
X596579Y357551D01*
X596564Y357622D01*
X596559Y357693D01*
X596538Y357741D01*
X596527Y357792D01*
X596490Y357853D01*
X596462Y357919D01*
X596418Y357975D01*
X596401Y358003D01*
X596383Y358018D01*
X596357Y358050D01*
X596250Y358158D01*
X595217Y360651D01*
X595217Y363349D01*
X596250Y365842D01*
X598158Y367750D01*
X600651Y368783D01*
X603349Y368783D01*
X605842Y367750D01*
X607750Y365842D01*
X608783Y363349D01*
X608783Y360651D01*
X607750Y358158D01*
X607643Y358050D01*
X607601Y357992D01*
X607551Y357940D01*
X607529Y357893D01*
X607499Y357851D01*
X607478Y357782D01*
X607448Y357717D01*
X607442Y357665D01*
X607427Y357616D01*
X607428Y357544D01*
X607421Y357473D01*
X607432Y357422D01*
X607433Y357370D01*
X607458Y357302D01*
X607473Y357232D01*
X607500Y357187D01*
X607517Y357139D01*
X607562Y357083D01*
X607599Y357021D01*
X607639Y356987D01*
X607671Y356947D01*
X607731Y356908D01*
X607786Y356861D01*
X607834Y356842D01*
X607878Y356814D01*
X607947Y356796D01*
X608014Y356769D01*
X608085Y356761D01*
X608116Y356753D01*
X608140Y356755D01*
X608181Y356751D01*
X609243Y356751D01*
X611001Y354993D01*
X611001Y345007D01*
X609243Y343249D01*
X594757Y343249D01*
G37*
%LPD*%
%LPC*%
G36*
X600523Y319023D02*
X600523Y319023D01*
X600523Y333541D01*
X605834Y333541D01*
X606481Y333368D01*
X607060Y333033D01*
X607533Y332560D01*
X607868Y331981D01*
X608041Y331334D01*
X608041Y319023D01*
X600523Y319023D01*
G37*
%LPD*%
%LPC*%
G36*
X600523Y301459D02*
X600523Y301459D01*
X600523Y315977D01*
X608041Y315977D01*
X608041Y303666D01*
X607868Y303019D01*
X607533Y302440D01*
X607060Y301967D01*
X606481Y301632D01*
X605834Y301459D01*
X600523Y301459D01*
G37*
%LPD*%
%LPC*%
G36*
X589959Y319023D02*
X589959Y319023D01*
X589959Y331334D01*
X590132Y331981D01*
X590467Y332560D01*
X590940Y333033D01*
X591519Y333368D01*
X592166Y333541D01*
X597477Y333541D01*
X597477Y319023D01*
X589959Y319023D01*
G37*
%LPD*%
%LPC*%
G36*
X592166Y301459D02*
X592166Y301459D01*
X591519Y301632D01*
X590940Y301967D01*
X590467Y302440D01*
X590132Y303019D01*
X589959Y303666D01*
X589959Y315977D01*
X597477Y315977D01*
X597477Y301459D01*
X592166Y301459D01*
G37*
%LPD*%
%LPC*%
G36*
X598874Y290874D02*
X598874Y290874D01*
X598874Y294791D01*
X603834Y294791D01*
X604481Y294618D01*
X605060Y294283D01*
X605533Y293810D01*
X605868Y293231D01*
X606041Y292584D01*
X606041Y290874D01*
X598874Y290874D01*
G37*
%LPD*%
%LPC*%
G36*
X588959Y290874D02*
X588959Y290874D01*
X588959Y292584D01*
X589132Y293231D01*
X589467Y293810D01*
X589940Y294283D01*
X590519Y294618D01*
X591166Y294791D01*
X596126Y294791D01*
X596126Y290874D01*
X588959Y290874D01*
G37*
%LPD*%
%LPC*%
G36*
X598874Y265209D02*
X598874Y265209D01*
X598874Y269126D01*
X606041Y269126D01*
X606041Y267416D01*
X605868Y266769D01*
X605533Y266190D01*
X605060Y265717D01*
X604481Y265382D01*
X603834Y265209D01*
X598874Y265209D01*
G37*
%LPD*%
%LPC*%
G36*
X591166Y265209D02*
X591166Y265209D01*
X590519Y265382D01*
X589940Y265717D01*
X589467Y266190D01*
X589132Y266769D01*
X588959Y267416D01*
X588959Y269126D01*
X596126Y269126D01*
X596126Y265209D01*
X591166Y265209D01*
G37*
%LPD*%
%LPC*%
G36*
X598999Y317499D02*
X598999Y317499D01*
X598999Y317501D01*
X599001Y317501D01*
X599001Y317499D01*
X598999Y317499D01*
G37*
%LPD*%
D10*
X535000Y425500D03*
X535000Y444500D03*
X507500Y425500D03*
X507500Y444500D03*
X480000Y425500D03*
X480000Y444500D03*
X452500Y425500D03*
X452500Y444500D03*
X425000Y425500D03*
X425000Y444500D03*
X397500Y425500D03*
X397500Y444500D03*
X360000Y425500D03*
X360000Y444500D03*
X332500Y425500D03*
X332500Y444500D03*
X307500Y425500D03*
X307500Y444500D03*
X125000Y420500D03*
X125000Y439500D03*
X100000Y420500D03*
X100000Y439500D03*
X72500Y420500D03*
X72500Y439500D03*
X150000Y159500D03*
X150000Y140500D03*
X180000Y159500D03*
X180000Y140500D03*
X210000Y159500D03*
X210000Y140500D03*
X240000Y159500D03*
X240000Y140500D03*
D11*
X470500Y340000D03*
X489500Y340000D03*
D12*
X638900Y492380D02*
X638900Y507620D01*
X613500Y507620D02*
X613500Y492380D01*
X588100Y492380D02*
X588100Y507620D01*
X562700Y507620D02*
X562700Y492380D01*
X537300Y492380D02*
X537300Y507620D01*
X511900Y507620D02*
X511900Y492380D01*
X486500Y492380D02*
X486500Y507620D01*
X461100Y507620D02*
X461100Y492380D01*
X424300Y492380D02*
X424300Y507620D01*
X398900Y507620D02*
X398900Y492380D01*
X373500Y492380D02*
X373500Y507620D01*
X348100Y507620D02*
X348100Y492380D01*
X322700Y492380D02*
X322700Y507620D01*
X297300Y507620D02*
X297300Y492380D01*
X271900Y492380D02*
X271900Y507620D01*
X246500Y507620D02*
X246500Y492380D01*
X221100Y492380D02*
X221100Y507620D01*
X195700Y507620D02*
X195700Y492380D01*
X506500Y37620D02*
X506500Y22380D01*
X531900Y22380D02*
X531900Y37620D01*
X557300Y37620D02*
X557300Y22380D01*
X582700Y22380D02*
X582700Y37620D01*
X608100Y37620D02*
X608100Y22380D01*
X633500Y22380D02*
X633500Y37620D01*
X458900Y37620D02*
X458900Y22380D01*
X433500Y22380D02*
X433500Y37620D01*
X408100Y37620D02*
X408100Y22380D01*
X382700Y22380D02*
X382700Y37620D01*
X357300Y37620D02*
X357300Y22380D01*
X331900Y22380D02*
X331900Y37620D01*
X306500Y37620D02*
X306500Y22380D01*
X281100Y22380D02*
X281100Y37620D01*
D11*
X480500Y222500D03*
X499500Y222500D03*
X338000Y155000D03*
X357000Y155000D03*
D13*
X417500Y372500D03*
D14*
X392100Y372500D03*
X366700Y372500D03*
X341300Y372500D03*
X315900Y372500D03*
X290500Y372500D03*
X265100Y372500D03*
X239700Y372500D03*
X214300Y372500D03*
X188900Y372500D03*
X163500Y372500D03*
X138100Y372500D03*
X112700Y372500D03*
X87300Y372500D03*
X61900Y372500D03*
D13*
X62500Y220000D03*
D14*
X87900Y220000D03*
X113300Y220000D03*
X138700Y220000D03*
X164100Y220000D03*
X189500Y220000D03*
X214900Y220000D03*
X240300Y220000D03*
X265700Y220000D03*
X291100Y220000D03*
X316500Y220000D03*
X341900Y220000D03*
X367300Y220000D03*
X392700Y220000D03*
X418100Y220000D03*
D15*
X572500Y289500D03*
X572500Y280000D03*
X572500Y270500D03*
X597500Y270500D03*
X597500Y289500D03*
D16*
X546000Y212500D03*
X524000Y203000D03*
X524000Y222000D03*
X459000Y167500D03*
X481000Y177000D03*
X481000Y158000D03*
D10*
X532500Y177000D03*
X532500Y158000D03*
X505000Y158000D03*
X505000Y177000D03*
X550000Y270500D03*
X550000Y289500D03*
X620000Y270500D03*
X620000Y289500D03*
D17*
X602000Y350000D03*
X568000Y350000D03*
D11*
X572000Y249500D03*
X553000Y249500D03*
X615000Y249500D03*
X596000Y249500D03*
D18*
X599000Y317500D03*
X571000Y317500D03*
D19*
X520000Y328000D03*
X520000Y307000D03*
D10*
X490000Y307000D03*
X490000Y288000D03*
D20*
X338400Y350000D02*
X315900Y372500D01*
X338400Y350000D02*
X445000Y350000D01*
X492500Y397500D02*
X507500Y397500D01*
X535000Y425000D01*
X535000Y425500D01*
X492500Y397500D02*
X445000Y350000D01*
D21*
X462500Y390000D03*
D20*
X482500Y410000D01*
X495000Y410000D01*
X507500Y422500D01*
X507500Y425500D01*
D21*
X442500Y390000D03*
D20*
X478000Y425500D01*
X480000Y425500D01*
D21*
X422500Y400000D03*
D20*
X427500Y400000D02*
X452500Y425000D01*
X427500Y400000D02*
X422500Y400000D01*
X452500Y425000D02*
X452500Y425500D01*
D21*
X412500Y410000D03*
D20*
X425000Y422500D01*
X425000Y425500D01*
X186000Y395000D02*
X163500Y372500D01*
X329500Y395000D02*
X360000Y425500D01*
X329500Y395000D02*
X186000Y395000D01*
X169600Y404000D02*
X138100Y372500D01*
X169600Y404000D02*
X311000Y404000D01*
X332500Y425500D01*
X152700Y412500D02*
X112700Y372500D01*
X152700Y412500D02*
X295000Y412500D01*
X307500Y425000D01*
X307500Y425500D01*
X125000Y410200D02*
X87300Y372500D01*
X125000Y410200D02*
X125000Y420500D01*
X61900Y374400D02*
X61900Y372500D01*
X61900Y374400D02*
X100000Y412500D01*
X100000Y420500D01*
X32500Y250000D02*
X62500Y220000D01*
X32500Y380500D02*
X72500Y420500D01*
X32500Y380500D02*
X32500Y250000D01*
X138700Y170800D02*
X150000Y159500D01*
X138700Y170800D02*
X138700Y220000D01*
X164100Y175400D02*
X180000Y159500D01*
X164100Y175400D02*
X164100Y220000D01*
X189500Y180000D02*
X210000Y159500D01*
X189500Y180000D02*
X189500Y220000D01*
X214900Y184600D02*
X240000Y159500D01*
X214900Y184600D02*
X214900Y220000D01*
X240300Y220000D02*
X337800Y317500D01*
X448000Y317500D02*
X470500Y340000D01*
X448000Y317500D02*
X337800Y317500D01*
X615371Y290000D02*
X620500Y290000D01*
X556404Y283096D02*
X550000Y289500D01*
X556404Y283096D02*
X560025Y283096D01*
X563121Y280000D01*
X605371Y280000D02*
X615371Y290000D01*
X605371Y280000D02*
X572500Y280000D01*
X550000Y289500D02*
X550000Y307500D01*
D21*
X550000Y307500D03*
D20*
X520500Y327500D02*
X520000Y328000D01*
X520500Y327500D02*
X535000Y327500D01*
D21*
X535000Y327500D03*
D20*
X620000Y289500D02*
X620500Y290000D01*
X637500Y290000D01*
D21*
X637500Y290000D03*
D20*
X397500Y425500D02*
X397000Y425000D01*
X380000Y425000D01*
D21*
X380000Y425000D03*
D20*
X615000Y249500D02*
X632500Y249500D01*
D21*
X632500Y249500D03*
D20*
X524000Y203000D02*
X523500Y202500D01*
X510000Y202500D01*
D21*
X510000Y202500D03*
D20*
X563121Y280000D02*
X572500Y280000D01*
X265700Y220000D02*
X265700Y189300D01*
X300000Y155000D02*
X338000Y155000D01*
X300000Y155000D02*
X265700Y189300D01*
X72500Y439500D02*
X110500Y477500D01*
X280000Y477500D01*
X297300Y494800D01*
X297300Y500000D01*
X360000Y444500D02*
X388000Y472500D01*
X402500Y472500D01*
X424300Y494300D01*
X424300Y500000D01*
X363000Y475000D02*
X332500Y444500D01*
X375517Y475000D02*
X398900Y498383D01*
X398900Y500000D01*
X375517Y475000D02*
X363000Y475000D01*
X340500Y477500D02*
X307500Y444500D01*
X352617Y477500D02*
X373500Y498383D01*
X373500Y500000D01*
X352617Y477500D02*
X340500Y477500D01*
X348100Y497500D02*
X348100Y500000D01*
X144872Y459372D02*
X125000Y439500D01*
X309972Y459372D02*
X348100Y497500D01*
X309972Y459372D02*
X144872Y459372D01*
X129000Y468500D02*
X100000Y439500D01*
X129000Y468500D02*
X293500Y468500D01*
X322700Y497700D01*
X322700Y500000D01*
X397500Y444500D02*
X433000Y480000D01*
X447500Y480000D01*
X461100Y493600D01*
X461100Y500000D01*
D21*
X150000Y125000D03*
D20*
X150000Y140500D01*
D21*
X180000Y125000D03*
D20*
X180000Y140500D01*
D21*
X210000Y125000D03*
D20*
X210000Y140500D01*
X490000Y288000D02*
X499500Y278500D01*
X499500Y222500D01*
X523500Y222500D01*
X524000Y222000D01*
X535000Y249500D02*
X553000Y249500D01*
D21*
X535000Y249500D03*
D20*
X481000Y190500D02*
X481000Y177000D01*
D21*
X481000Y190500D03*
D20*
X602000Y350000D02*
X602000Y362000D01*
D21*
X602000Y362000D03*
D20*
X500000Y182000D02*
X505000Y177000D01*
X500000Y182000D02*
X500000Y190500D01*
D21*
X500000Y190500D03*
D20*
X549500Y270000D02*
X550000Y270500D01*
X549500Y270000D02*
X535000Y270000D01*
D21*
X535000Y270000D03*
D20*
X408100Y133100D02*
X408100Y30000D01*
X408100Y133100D02*
X442500Y167500D01*
X459000Y167500D01*
D21*
X452500Y240000D03*
D20*
X470000Y222500D01*
X480500Y222500D01*
X489500Y340000D02*
X613500Y464000D01*
X613500Y500000D01*
X588100Y497600D02*
X535000Y444500D01*
X588100Y497600D02*
X588100Y500000D01*
X540500Y477500D02*
X507500Y444500D01*
X540500Y477500D02*
X542500Y477500D01*
X562700Y497700D01*
X562700Y500000D01*
X513000Y477500D02*
X480000Y444500D01*
X513000Y477500D02*
X517500Y477500D01*
X537300Y497300D01*
X537300Y500000D01*
X485500Y477500D02*
X452500Y444500D01*
X485500Y477500D02*
X492500Y477500D01*
X511900Y496900D01*
X511900Y500000D01*
X458000Y477500D02*
X425000Y444500D01*
X458000Y477500D02*
X467500Y477500D01*
X486500Y496500D01*
X486500Y500000D01*
X357000Y155000D02*
X357000Y30300D01*
X357300Y30000D01*
D21*
X240000Y125000D03*
D20*
X240000Y140500D01*
X532500Y177000D02*
X546000Y190500D01*
X546000Y212500D01*
X505000Y158000D02*
X481000Y158000D01*
X505000Y158000D02*
X532500Y158000D01*
X572500Y289500D02*
X571000Y291000D01*
X571000Y317500D01*
X568000Y320500D01*
X568000Y350000D01*
X572000Y249500D02*
X596000Y249500D01*
X572500Y250000D02*
X572000Y249500D01*
X572500Y250000D02*
X572500Y270500D01*
X520000Y307000D02*
X490000Y307000D01*
M02*
