G04 EAGLE Gerber RS-274X export*
G75*
%MOMM*%
%FSLAX34Y34*%
%LPD*%
%INSilkscreen Top*%
%IPPOS*%
%AMOC8*
5,1,8,0,0,1.08239X$1,22.5*%
G01*
%ADD10C,0.101600*%
%ADD11C,0.076200*%
%ADD12C,0.200000*%
%ADD13R,0.150000X0.300000*%
%ADD14R,0.300000X0.300000*%
%ADD15R,0.180000X0.030000*%
%ADD16R,0.300000X0.030000*%
%ADD17R,0.210000X0.030000*%
%ADD18R,0.270000X0.030000*%
%ADD19R,0.360000X0.030000*%
%ADD20R,0.510000X0.030000*%
%ADD21R,0.330000X0.030000*%
%ADD22R,0.750000X0.030000*%
%ADD23R,0.390000X0.030000*%
%ADD24R,0.450000X0.030000*%
%ADD25R,0.780000X0.030000*%
%ADD26R,0.240000X0.030000*%
%ADD27R,0.420000X0.030000*%
%ADD28R,0.570000X0.030000*%
%ADD29R,0.810000X0.030000*%
%ADD30R,0.540000X0.030000*%
%ADD31R,0.480000X0.030000*%
%ADD32R,0.630000X0.030000*%
%ADD33R,0.600000X0.030000*%
%ADD34R,0.840000X0.030000*%
%ADD35R,0.720000X0.030000*%
%ADD36R,0.660000X0.030000*%
%ADD37R,0.150000X0.030000*%
%ADD38R,0.690000X0.030000*%
%ADD39R,0.120000X0.030000*%
%ADD40R,0.060000X0.030000*%
%ADD41R,0.030000X0.030000*%
%ADD42R,0.930000X0.030000*%
%ADD43R,0.900000X0.030000*%
%ADD44R,0.870000X0.030000*%
%ADD45R,1.290000X0.030000*%
%ADD46R,1.770000X0.030000*%
%ADD47R,2.100000X0.030000*%
%ADD48R,2.370000X0.030000*%
%ADD49R,2.670000X0.030000*%
%ADD50R,2.910000X0.030000*%
%ADD51R,3.120000X0.030000*%
%ADD52R,3.390000X0.030000*%
%ADD53R,3.570000X0.030000*%
%ADD54R,3.750000X0.030000*%
%ADD55R,1.080000X0.030000*%
%ADD56R,3.930000X0.030000*%
%ADD57R,1.380000X0.030000*%
%ADD58R,4.140000X0.030000*%
%ADD59R,1.680000X0.030000*%
%ADD60R,4.290000X0.030000*%
%ADD61R,1.890000X0.030000*%
%ADD62R,2.970000X0.030000*%
%ADD63R,1.410000X0.030000*%
%ADD64R,2.160000X0.030000*%
%ADD65R,1.500000X0.030000*%
%ADD66R,2.400000X0.030000*%
%ADD67R,3.000000X0.030000*%
%ADD68R,1.620000X0.030000*%
%ADD69R,2.640000X0.030000*%
%ADD70R,1.320000X0.030000*%
%ADD71R,1.530000X0.030000*%
%ADD72R,1.740000X0.030000*%
%ADD73R,2.820000X0.030000*%
%ADD74R,1.440000X0.030000*%
%ADD75R,1.830000X0.030000*%
%ADD76R,1.980000X0.030000*%
%ADD77R,3.180000X0.030000*%
%ADD78R,1.260000X0.030000*%
%ADD79R,1.230000X0.030000*%
%ADD80R,1.920000X0.030000*%
%ADD81R,1.170000X0.030000*%
%ADD82R,2.280000X0.030000*%
%ADD83R,1.950000X0.030000*%
%ADD84R,1.050000X0.030000*%
%ADD85R,1.200000X0.030000*%
%ADD86R,0.960000X0.030000*%
%ADD87R,2.550000X0.030000*%
%ADD88R,2.010000X0.030000*%
%ADD89R,2.730000X0.030000*%
%ADD90R,2.040000X0.030000*%
%ADD91R,2.940000X0.030000*%
%ADD92R,1.140000X0.030000*%
%ADD93R,5.970000X0.030000*%
%ADD94R,5.760000X0.030000*%
%ADD95R,5.610000X0.030000*%
%ADD96R,0.090000X0.030000*%
%ADD97R,5.400000X0.030000*%
%ADD98R,1.020000X0.030000*%
%ADD99R,5.250000X0.030000*%
%ADD100R,5.040000X0.030000*%
%ADD101R,4.860000X0.030000*%
%ADD102R,4.650000X0.030000*%
%ADD103R,4.410000X0.030000*%
%ADD104R,4.170000X0.030000*%
%ADD105R,3.960000X0.030000*%
%ADD106R,3.720000X0.030000*%
%ADD107R,3.480000X0.030000*%
%ADD108R,3.240000X0.030000*%
%ADD109R,2.490000X0.030000*%
%ADD110R,2.250000X0.030000*%
%ADD111R,1.860000X0.030000*%
%ADD112R,1.650000X0.030000*%


D10*
X521792Y429158D02*
X510108Y429158D01*
X510108Y432404D01*
X510110Y432517D01*
X510116Y432630D01*
X510126Y432743D01*
X510140Y432856D01*
X510157Y432968D01*
X510179Y433079D01*
X510204Y433189D01*
X510234Y433299D01*
X510267Y433407D01*
X510304Y433514D01*
X510344Y433620D01*
X510389Y433724D01*
X510437Y433827D01*
X510488Y433928D01*
X510543Y434027D01*
X510601Y434124D01*
X510663Y434219D01*
X510728Y434312D01*
X510796Y434402D01*
X510867Y434490D01*
X510942Y434576D01*
X511019Y434659D01*
X511099Y434739D01*
X511182Y434816D01*
X511268Y434891D01*
X511356Y434962D01*
X511446Y435030D01*
X511539Y435095D01*
X511634Y435157D01*
X511731Y435215D01*
X511830Y435270D01*
X511931Y435321D01*
X512034Y435369D01*
X512138Y435414D01*
X512244Y435454D01*
X512351Y435491D01*
X512459Y435524D01*
X512569Y435554D01*
X512679Y435579D01*
X512790Y435601D01*
X512902Y435618D01*
X513015Y435632D01*
X513128Y435642D01*
X513241Y435648D01*
X513354Y435650D01*
X513467Y435648D01*
X513580Y435642D01*
X513693Y435632D01*
X513806Y435618D01*
X513918Y435601D01*
X514029Y435579D01*
X514139Y435554D01*
X514249Y435524D01*
X514357Y435491D01*
X514464Y435454D01*
X514570Y435414D01*
X514674Y435369D01*
X514777Y435321D01*
X514878Y435270D01*
X514977Y435215D01*
X515074Y435157D01*
X515169Y435095D01*
X515262Y435030D01*
X515352Y434962D01*
X515440Y434891D01*
X515526Y434816D01*
X515609Y434739D01*
X515689Y434659D01*
X515766Y434576D01*
X515841Y434490D01*
X515912Y434402D01*
X515980Y434312D01*
X516045Y434219D01*
X516107Y434124D01*
X516165Y434027D01*
X516220Y433928D01*
X516271Y433827D01*
X516319Y433724D01*
X516364Y433620D01*
X516404Y433514D01*
X516441Y433407D01*
X516474Y433299D01*
X516504Y433189D01*
X516529Y433079D01*
X516551Y432968D01*
X516568Y432856D01*
X516582Y432743D01*
X516592Y432630D01*
X516598Y432517D01*
X516600Y432404D01*
X516599Y432404D02*
X516599Y429158D01*
X516599Y433053D02*
X521792Y435649D01*
X512704Y440514D02*
X510108Y443760D01*
X521792Y443760D01*
X521792Y447005D02*
X521792Y440514D01*
X494292Y429158D02*
X482608Y429158D01*
X482608Y432404D01*
X482610Y432517D01*
X482616Y432630D01*
X482626Y432743D01*
X482640Y432856D01*
X482657Y432968D01*
X482679Y433079D01*
X482704Y433189D01*
X482734Y433299D01*
X482767Y433407D01*
X482804Y433514D01*
X482844Y433620D01*
X482889Y433724D01*
X482937Y433827D01*
X482988Y433928D01*
X483043Y434027D01*
X483101Y434124D01*
X483163Y434219D01*
X483228Y434312D01*
X483296Y434402D01*
X483367Y434490D01*
X483442Y434576D01*
X483519Y434659D01*
X483599Y434739D01*
X483682Y434816D01*
X483768Y434891D01*
X483856Y434962D01*
X483946Y435030D01*
X484039Y435095D01*
X484134Y435157D01*
X484231Y435215D01*
X484330Y435270D01*
X484431Y435321D01*
X484534Y435369D01*
X484638Y435414D01*
X484744Y435454D01*
X484851Y435491D01*
X484959Y435524D01*
X485069Y435554D01*
X485179Y435579D01*
X485290Y435601D01*
X485402Y435618D01*
X485515Y435632D01*
X485628Y435642D01*
X485741Y435648D01*
X485854Y435650D01*
X485967Y435648D01*
X486080Y435642D01*
X486193Y435632D01*
X486306Y435618D01*
X486418Y435601D01*
X486529Y435579D01*
X486639Y435554D01*
X486749Y435524D01*
X486857Y435491D01*
X486964Y435454D01*
X487070Y435414D01*
X487174Y435369D01*
X487277Y435321D01*
X487378Y435270D01*
X487477Y435215D01*
X487574Y435157D01*
X487669Y435095D01*
X487762Y435030D01*
X487852Y434962D01*
X487940Y434891D01*
X488026Y434816D01*
X488109Y434739D01*
X488189Y434659D01*
X488266Y434576D01*
X488341Y434490D01*
X488412Y434402D01*
X488480Y434312D01*
X488545Y434219D01*
X488607Y434124D01*
X488665Y434027D01*
X488720Y433928D01*
X488771Y433827D01*
X488819Y433724D01*
X488864Y433620D01*
X488904Y433514D01*
X488941Y433407D01*
X488974Y433299D01*
X489004Y433189D01*
X489029Y433079D01*
X489051Y432968D01*
X489068Y432856D01*
X489082Y432743D01*
X489092Y432630D01*
X489098Y432517D01*
X489100Y432404D01*
X489099Y432404D02*
X489099Y429158D01*
X489099Y433053D02*
X494292Y435649D01*
X485529Y447005D02*
X485422Y447003D01*
X485316Y446997D01*
X485210Y446987D01*
X485104Y446974D01*
X484998Y446956D01*
X484894Y446935D01*
X484790Y446910D01*
X484687Y446881D01*
X484586Y446849D01*
X484486Y446812D01*
X484387Y446772D01*
X484289Y446729D01*
X484193Y446682D01*
X484099Y446631D01*
X484007Y446577D01*
X483917Y446520D01*
X483829Y446460D01*
X483744Y446396D01*
X483661Y446329D01*
X483580Y446259D01*
X483502Y446187D01*
X483426Y446111D01*
X483354Y446033D01*
X483284Y445952D01*
X483217Y445869D01*
X483153Y445784D01*
X483093Y445696D01*
X483036Y445606D01*
X482982Y445514D01*
X482931Y445420D01*
X482884Y445324D01*
X482841Y445226D01*
X482801Y445127D01*
X482764Y445027D01*
X482732Y444926D01*
X482703Y444823D01*
X482678Y444719D01*
X482657Y444615D01*
X482639Y444509D01*
X482626Y444403D01*
X482616Y444297D01*
X482610Y444191D01*
X482608Y444084D01*
X482610Y443963D01*
X482616Y443842D01*
X482626Y443722D01*
X482639Y443601D01*
X482657Y443482D01*
X482678Y443362D01*
X482703Y443244D01*
X482732Y443127D01*
X482765Y443010D01*
X482801Y442895D01*
X482842Y442781D01*
X482885Y442668D01*
X482933Y442556D01*
X482984Y442447D01*
X483039Y442339D01*
X483097Y442232D01*
X483158Y442128D01*
X483223Y442026D01*
X483291Y441926D01*
X483362Y441828D01*
X483436Y441732D01*
X483513Y441639D01*
X483594Y441549D01*
X483677Y441461D01*
X483763Y441376D01*
X483852Y441293D01*
X483943Y441214D01*
X484037Y441137D01*
X484133Y441064D01*
X484231Y440994D01*
X484332Y440927D01*
X484435Y440863D01*
X484540Y440803D01*
X484647Y440745D01*
X484755Y440692D01*
X484865Y440642D01*
X484977Y440596D01*
X485090Y440553D01*
X485205Y440514D01*
X487801Y446031D02*
X487723Y446110D01*
X487643Y446186D01*
X487560Y446259D01*
X487474Y446329D01*
X487387Y446396D01*
X487296Y446460D01*
X487204Y446520D01*
X487110Y446578D01*
X487013Y446632D01*
X486915Y446682D01*
X486815Y446729D01*
X486714Y446773D01*
X486611Y446813D01*
X486506Y446849D01*
X486401Y446881D01*
X486294Y446910D01*
X486187Y446935D01*
X486078Y446957D01*
X485969Y446974D01*
X485860Y446988D01*
X485750Y446997D01*
X485639Y447003D01*
X485529Y447005D01*
X487801Y446032D02*
X494292Y440514D01*
X494292Y447005D01*
X466792Y429158D02*
X455108Y429158D01*
X455108Y432404D01*
X455110Y432517D01*
X455116Y432630D01*
X455126Y432743D01*
X455140Y432856D01*
X455157Y432968D01*
X455179Y433079D01*
X455204Y433189D01*
X455234Y433299D01*
X455267Y433407D01*
X455304Y433514D01*
X455344Y433620D01*
X455389Y433724D01*
X455437Y433827D01*
X455488Y433928D01*
X455543Y434027D01*
X455601Y434124D01*
X455663Y434219D01*
X455728Y434312D01*
X455796Y434402D01*
X455867Y434490D01*
X455942Y434576D01*
X456019Y434659D01*
X456099Y434739D01*
X456182Y434816D01*
X456268Y434891D01*
X456356Y434962D01*
X456446Y435030D01*
X456539Y435095D01*
X456634Y435157D01*
X456731Y435215D01*
X456830Y435270D01*
X456931Y435321D01*
X457034Y435369D01*
X457138Y435414D01*
X457244Y435454D01*
X457351Y435491D01*
X457459Y435524D01*
X457569Y435554D01*
X457679Y435579D01*
X457790Y435601D01*
X457902Y435618D01*
X458015Y435632D01*
X458128Y435642D01*
X458241Y435648D01*
X458354Y435650D01*
X458467Y435648D01*
X458580Y435642D01*
X458693Y435632D01*
X458806Y435618D01*
X458918Y435601D01*
X459029Y435579D01*
X459139Y435554D01*
X459249Y435524D01*
X459357Y435491D01*
X459464Y435454D01*
X459570Y435414D01*
X459674Y435369D01*
X459777Y435321D01*
X459878Y435270D01*
X459977Y435215D01*
X460074Y435157D01*
X460169Y435095D01*
X460262Y435030D01*
X460352Y434962D01*
X460440Y434891D01*
X460526Y434816D01*
X460609Y434739D01*
X460689Y434659D01*
X460766Y434576D01*
X460841Y434490D01*
X460912Y434402D01*
X460980Y434312D01*
X461045Y434219D01*
X461107Y434124D01*
X461165Y434027D01*
X461220Y433928D01*
X461271Y433827D01*
X461319Y433724D01*
X461364Y433620D01*
X461404Y433514D01*
X461441Y433407D01*
X461474Y433299D01*
X461504Y433189D01*
X461529Y433079D01*
X461551Y432968D01*
X461568Y432856D01*
X461582Y432743D01*
X461592Y432630D01*
X461598Y432517D01*
X461600Y432404D01*
X461599Y432404D02*
X461599Y429158D01*
X461599Y433053D02*
X466792Y435649D01*
X466792Y440514D02*
X466792Y443760D01*
X466790Y443873D01*
X466784Y443986D01*
X466774Y444099D01*
X466760Y444212D01*
X466743Y444324D01*
X466721Y444435D01*
X466696Y444545D01*
X466666Y444655D01*
X466633Y444763D01*
X466596Y444870D01*
X466556Y444976D01*
X466511Y445080D01*
X466463Y445183D01*
X466412Y445284D01*
X466357Y445383D01*
X466299Y445480D01*
X466237Y445575D01*
X466172Y445668D01*
X466104Y445758D01*
X466033Y445846D01*
X465958Y445932D01*
X465881Y446015D01*
X465801Y446095D01*
X465718Y446172D01*
X465632Y446247D01*
X465544Y446318D01*
X465454Y446386D01*
X465361Y446451D01*
X465266Y446513D01*
X465169Y446571D01*
X465070Y446626D01*
X464969Y446677D01*
X464866Y446725D01*
X464762Y446770D01*
X464656Y446810D01*
X464549Y446847D01*
X464441Y446880D01*
X464331Y446910D01*
X464221Y446935D01*
X464110Y446957D01*
X463998Y446974D01*
X463885Y446988D01*
X463772Y446998D01*
X463659Y447004D01*
X463546Y447006D01*
X463433Y447004D01*
X463320Y446998D01*
X463207Y446988D01*
X463094Y446974D01*
X462982Y446957D01*
X462871Y446935D01*
X462761Y446910D01*
X462651Y446880D01*
X462543Y446847D01*
X462436Y446810D01*
X462330Y446770D01*
X462226Y446725D01*
X462123Y446677D01*
X462022Y446626D01*
X461923Y446571D01*
X461826Y446513D01*
X461731Y446451D01*
X461638Y446386D01*
X461548Y446318D01*
X461460Y446247D01*
X461374Y446172D01*
X461291Y446095D01*
X461211Y446015D01*
X461134Y445932D01*
X461059Y445846D01*
X460988Y445758D01*
X460920Y445668D01*
X460855Y445575D01*
X460793Y445480D01*
X460735Y445383D01*
X460680Y445284D01*
X460629Y445183D01*
X460581Y445080D01*
X460536Y444976D01*
X460496Y444870D01*
X460459Y444763D01*
X460426Y444655D01*
X460396Y444545D01*
X460371Y444435D01*
X460349Y444324D01*
X460332Y444212D01*
X460318Y444099D01*
X460308Y443986D01*
X460302Y443873D01*
X460300Y443760D01*
X455108Y444409D02*
X455108Y440514D01*
X455108Y444409D02*
X455110Y444510D01*
X455116Y444610D01*
X455126Y444710D01*
X455139Y444810D01*
X455157Y444909D01*
X455178Y445008D01*
X455203Y445105D01*
X455232Y445202D01*
X455265Y445297D01*
X455301Y445391D01*
X455341Y445483D01*
X455384Y445574D01*
X455431Y445663D01*
X455481Y445750D01*
X455535Y445836D01*
X455592Y445919D01*
X455652Y445999D01*
X455715Y446078D01*
X455782Y446154D01*
X455851Y446227D01*
X455923Y446297D01*
X455997Y446365D01*
X456074Y446430D01*
X456154Y446491D01*
X456236Y446550D01*
X456320Y446605D01*
X456406Y446657D01*
X456494Y446706D01*
X456584Y446751D01*
X456676Y446793D01*
X456769Y446831D01*
X456864Y446865D01*
X456959Y446896D01*
X457056Y446923D01*
X457154Y446946D01*
X457253Y446966D01*
X457353Y446981D01*
X457453Y446993D01*
X457553Y447001D01*
X457654Y447005D01*
X457754Y447005D01*
X457855Y447001D01*
X457955Y446993D01*
X458055Y446981D01*
X458155Y446966D01*
X458254Y446946D01*
X458352Y446923D01*
X458449Y446896D01*
X458544Y446865D01*
X458639Y446831D01*
X458732Y446793D01*
X458824Y446751D01*
X458914Y446706D01*
X459002Y446657D01*
X459088Y446605D01*
X459172Y446550D01*
X459254Y446491D01*
X459334Y446430D01*
X459411Y446365D01*
X459485Y446297D01*
X459557Y446227D01*
X459626Y446154D01*
X459693Y446078D01*
X459756Y445999D01*
X459816Y445919D01*
X459873Y445836D01*
X459927Y445750D01*
X459977Y445663D01*
X460024Y445574D01*
X460067Y445483D01*
X460107Y445391D01*
X460143Y445297D01*
X460176Y445202D01*
X460205Y445105D01*
X460230Y445008D01*
X460251Y444909D01*
X460269Y444810D01*
X460282Y444710D01*
X460292Y444610D01*
X460298Y444510D01*
X460300Y444409D01*
X460301Y444409D02*
X460301Y441813D01*
X439292Y429158D02*
X427608Y429158D01*
X427608Y432404D01*
X427610Y432517D01*
X427616Y432630D01*
X427626Y432743D01*
X427640Y432856D01*
X427657Y432968D01*
X427679Y433079D01*
X427704Y433189D01*
X427734Y433299D01*
X427767Y433407D01*
X427804Y433514D01*
X427844Y433620D01*
X427889Y433724D01*
X427937Y433827D01*
X427988Y433928D01*
X428043Y434027D01*
X428101Y434124D01*
X428163Y434219D01*
X428228Y434312D01*
X428296Y434402D01*
X428367Y434490D01*
X428442Y434576D01*
X428519Y434659D01*
X428599Y434739D01*
X428682Y434816D01*
X428768Y434891D01*
X428856Y434962D01*
X428946Y435030D01*
X429039Y435095D01*
X429134Y435157D01*
X429231Y435215D01*
X429330Y435270D01*
X429431Y435321D01*
X429534Y435369D01*
X429638Y435414D01*
X429744Y435454D01*
X429851Y435491D01*
X429959Y435524D01*
X430069Y435554D01*
X430179Y435579D01*
X430290Y435601D01*
X430402Y435618D01*
X430515Y435632D01*
X430628Y435642D01*
X430741Y435648D01*
X430854Y435650D01*
X430967Y435648D01*
X431080Y435642D01*
X431193Y435632D01*
X431306Y435618D01*
X431418Y435601D01*
X431529Y435579D01*
X431639Y435554D01*
X431749Y435524D01*
X431857Y435491D01*
X431964Y435454D01*
X432070Y435414D01*
X432174Y435369D01*
X432277Y435321D01*
X432378Y435270D01*
X432477Y435215D01*
X432574Y435157D01*
X432669Y435095D01*
X432762Y435030D01*
X432852Y434962D01*
X432940Y434891D01*
X433026Y434816D01*
X433109Y434739D01*
X433189Y434659D01*
X433266Y434576D01*
X433341Y434490D01*
X433412Y434402D01*
X433480Y434312D01*
X433545Y434219D01*
X433607Y434124D01*
X433665Y434027D01*
X433720Y433928D01*
X433771Y433827D01*
X433819Y433724D01*
X433864Y433620D01*
X433904Y433514D01*
X433941Y433407D01*
X433974Y433299D01*
X434004Y433189D01*
X434029Y433079D01*
X434051Y432968D01*
X434068Y432856D01*
X434082Y432743D01*
X434092Y432630D01*
X434098Y432517D01*
X434100Y432404D01*
X434099Y432404D02*
X434099Y429158D01*
X434099Y433053D02*
X439292Y435649D01*
X436696Y440514D02*
X427608Y443111D01*
X436696Y440514D02*
X436696Y447005D01*
X434099Y445058D02*
X439292Y445058D01*
X411792Y429158D02*
X400108Y429158D01*
X400108Y432404D01*
X400110Y432517D01*
X400116Y432630D01*
X400126Y432743D01*
X400140Y432856D01*
X400157Y432968D01*
X400179Y433079D01*
X400204Y433189D01*
X400234Y433299D01*
X400267Y433407D01*
X400304Y433514D01*
X400344Y433620D01*
X400389Y433724D01*
X400437Y433827D01*
X400488Y433928D01*
X400543Y434027D01*
X400601Y434124D01*
X400663Y434219D01*
X400728Y434312D01*
X400796Y434402D01*
X400867Y434490D01*
X400942Y434576D01*
X401019Y434659D01*
X401099Y434739D01*
X401182Y434816D01*
X401268Y434891D01*
X401356Y434962D01*
X401446Y435030D01*
X401539Y435095D01*
X401634Y435157D01*
X401731Y435215D01*
X401830Y435270D01*
X401931Y435321D01*
X402034Y435369D01*
X402138Y435414D01*
X402244Y435454D01*
X402351Y435491D01*
X402459Y435524D01*
X402569Y435554D01*
X402679Y435579D01*
X402790Y435601D01*
X402902Y435618D01*
X403015Y435632D01*
X403128Y435642D01*
X403241Y435648D01*
X403354Y435650D01*
X403467Y435648D01*
X403580Y435642D01*
X403693Y435632D01*
X403806Y435618D01*
X403918Y435601D01*
X404029Y435579D01*
X404139Y435554D01*
X404249Y435524D01*
X404357Y435491D01*
X404464Y435454D01*
X404570Y435414D01*
X404674Y435369D01*
X404777Y435321D01*
X404878Y435270D01*
X404977Y435215D01*
X405074Y435157D01*
X405169Y435095D01*
X405262Y435030D01*
X405352Y434962D01*
X405440Y434891D01*
X405526Y434816D01*
X405609Y434739D01*
X405689Y434659D01*
X405766Y434576D01*
X405841Y434490D01*
X405912Y434402D01*
X405980Y434312D01*
X406045Y434219D01*
X406107Y434124D01*
X406165Y434027D01*
X406220Y433928D01*
X406271Y433827D01*
X406319Y433724D01*
X406364Y433620D01*
X406404Y433514D01*
X406441Y433407D01*
X406474Y433299D01*
X406504Y433189D01*
X406529Y433079D01*
X406551Y432968D01*
X406568Y432856D01*
X406582Y432743D01*
X406592Y432630D01*
X406598Y432517D01*
X406600Y432404D01*
X406599Y432404D02*
X406599Y429158D01*
X406599Y433053D02*
X411792Y435649D01*
X411792Y440514D02*
X411792Y444409D01*
X411790Y444508D01*
X411784Y444608D01*
X411775Y444707D01*
X411762Y444805D01*
X411745Y444903D01*
X411724Y445001D01*
X411699Y445097D01*
X411671Y445192D01*
X411639Y445286D01*
X411604Y445379D01*
X411565Y445471D01*
X411522Y445561D01*
X411477Y445649D01*
X411427Y445736D01*
X411375Y445820D01*
X411319Y445903D01*
X411261Y445983D01*
X411199Y446061D01*
X411134Y446136D01*
X411066Y446209D01*
X410996Y446279D01*
X410923Y446347D01*
X410848Y446412D01*
X410770Y446474D01*
X410690Y446532D01*
X410607Y446588D01*
X410523Y446640D01*
X410436Y446690D01*
X410348Y446735D01*
X410258Y446778D01*
X410166Y446817D01*
X410073Y446852D01*
X409979Y446884D01*
X409884Y446912D01*
X409788Y446937D01*
X409690Y446958D01*
X409592Y446975D01*
X409494Y446988D01*
X409395Y446997D01*
X409295Y447003D01*
X409196Y447005D01*
X407897Y447005D01*
X407798Y447003D01*
X407698Y446997D01*
X407599Y446988D01*
X407501Y446975D01*
X407403Y446958D01*
X407305Y446937D01*
X407209Y446912D01*
X407114Y446884D01*
X407020Y446852D01*
X406927Y446817D01*
X406835Y446778D01*
X406745Y446735D01*
X406657Y446690D01*
X406570Y446640D01*
X406486Y446588D01*
X406403Y446532D01*
X406323Y446474D01*
X406245Y446412D01*
X406170Y446347D01*
X406097Y446279D01*
X406027Y446209D01*
X405959Y446136D01*
X405894Y446061D01*
X405832Y445983D01*
X405774Y445903D01*
X405718Y445820D01*
X405666Y445736D01*
X405616Y445649D01*
X405571Y445561D01*
X405528Y445471D01*
X405489Y445379D01*
X405454Y445286D01*
X405422Y445192D01*
X405394Y445097D01*
X405369Y445001D01*
X405348Y444903D01*
X405331Y444805D01*
X405318Y444707D01*
X405309Y444608D01*
X405303Y444508D01*
X405301Y444409D01*
X405301Y440514D01*
X400108Y440514D01*
X400108Y447005D01*
X376658Y409892D02*
X376658Y398208D01*
X376658Y409892D02*
X379904Y409892D01*
X380017Y409890D01*
X380130Y409884D01*
X380243Y409874D01*
X380356Y409860D01*
X380468Y409843D01*
X380579Y409821D01*
X380689Y409796D01*
X380799Y409766D01*
X380907Y409733D01*
X381014Y409696D01*
X381120Y409656D01*
X381224Y409611D01*
X381327Y409563D01*
X381428Y409512D01*
X381527Y409457D01*
X381624Y409399D01*
X381719Y409337D01*
X381812Y409272D01*
X381902Y409204D01*
X381990Y409133D01*
X382076Y409058D01*
X382159Y408981D01*
X382239Y408901D01*
X382316Y408818D01*
X382391Y408732D01*
X382462Y408644D01*
X382530Y408554D01*
X382595Y408461D01*
X382657Y408366D01*
X382715Y408269D01*
X382770Y408170D01*
X382821Y408069D01*
X382869Y407966D01*
X382914Y407862D01*
X382954Y407756D01*
X382991Y407649D01*
X383024Y407541D01*
X383054Y407431D01*
X383079Y407321D01*
X383101Y407210D01*
X383118Y407098D01*
X383132Y406985D01*
X383142Y406872D01*
X383148Y406759D01*
X383150Y406646D01*
X383148Y406533D01*
X383142Y406420D01*
X383132Y406307D01*
X383118Y406194D01*
X383101Y406082D01*
X383079Y405971D01*
X383054Y405861D01*
X383024Y405751D01*
X382991Y405643D01*
X382954Y405536D01*
X382914Y405430D01*
X382869Y405326D01*
X382821Y405223D01*
X382770Y405122D01*
X382715Y405023D01*
X382657Y404926D01*
X382595Y404831D01*
X382530Y404738D01*
X382462Y404648D01*
X382391Y404560D01*
X382316Y404474D01*
X382239Y404391D01*
X382159Y404311D01*
X382076Y404234D01*
X381990Y404159D01*
X381902Y404088D01*
X381812Y404020D01*
X381719Y403955D01*
X381624Y403893D01*
X381527Y403835D01*
X381428Y403780D01*
X381327Y403729D01*
X381224Y403681D01*
X381120Y403636D01*
X381014Y403596D01*
X380907Y403559D01*
X380799Y403526D01*
X380689Y403496D01*
X380579Y403471D01*
X380468Y403449D01*
X380356Y403432D01*
X380243Y403418D01*
X380130Y403408D01*
X380017Y403402D01*
X379904Y403400D01*
X379904Y403401D02*
X376658Y403401D01*
X380553Y403401D02*
X383149Y398208D01*
X388014Y407296D02*
X391260Y409892D01*
X391260Y398208D01*
X394505Y398208D02*
X388014Y398208D01*
X402041Y403401D02*
X405935Y403401D01*
X402041Y403401D02*
X401942Y403403D01*
X401842Y403409D01*
X401743Y403418D01*
X401645Y403431D01*
X401547Y403448D01*
X401449Y403469D01*
X401353Y403494D01*
X401258Y403522D01*
X401164Y403554D01*
X401071Y403589D01*
X400979Y403628D01*
X400889Y403671D01*
X400801Y403716D01*
X400714Y403766D01*
X400630Y403818D01*
X400547Y403874D01*
X400467Y403932D01*
X400389Y403994D01*
X400314Y404059D01*
X400241Y404127D01*
X400171Y404197D01*
X400103Y404270D01*
X400038Y404345D01*
X399976Y404423D01*
X399918Y404503D01*
X399862Y404586D01*
X399810Y404670D01*
X399760Y404757D01*
X399715Y404845D01*
X399672Y404935D01*
X399633Y405027D01*
X399598Y405120D01*
X399566Y405214D01*
X399538Y405309D01*
X399513Y405405D01*
X399492Y405503D01*
X399475Y405601D01*
X399462Y405699D01*
X399453Y405798D01*
X399447Y405898D01*
X399445Y405997D01*
X399444Y405997D02*
X399444Y406646D01*
X399446Y406759D01*
X399452Y406872D01*
X399462Y406985D01*
X399476Y407098D01*
X399493Y407210D01*
X399515Y407321D01*
X399540Y407431D01*
X399570Y407541D01*
X399603Y407649D01*
X399640Y407756D01*
X399680Y407862D01*
X399725Y407966D01*
X399773Y408069D01*
X399824Y408170D01*
X399879Y408269D01*
X399937Y408366D01*
X399999Y408461D01*
X400064Y408554D01*
X400132Y408644D01*
X400203Y408732D01*
X400278Y408818D01*
X400355Y408901D01*
X400435Y408981D01*
X400518Y409058D01*
X400604Y409133D01*
X400692Y409204D01*
X400782Y409272D01*
X400875Y409337D01*
X400970Y409399D01*
X401067Y409457D01*
X401166Y409512D01*
X401267Y409563D01*
X401370Y409611D01*
X401474Y409656D01*
X401580Y409696D01*
X401687Y409733D01*
X401795Y409766D01*
X401905Y409796D01*
X402015Y409821D01*
X402126Y409843D01*
X402238Y409860D01*
X402351Y409874D01*
X402464Y409884D01*
X402577Y409890D01*
X402690Y409892D01*
X402803Y409890D01*
X402916Y409884D01*
X403029Y409874D01*
X403142Y409860D01*
X403254Y409843D01*
X403365Y409821D01*
X403475Y409796D01*
X403585Y409766D01*
X403693Y409733D01*
X403800Y409696D01*
X403906Y409656D01*
X404010Y409611D01*
X404113Y409563D01*
X404214Y409512D01*
X404313Y409457D01*
X404410Y409399D01*
X404505Y409337D01*
X404598Y409272D01*
X404688Y409204D01*
X404776Y409133D01*
X404862Y409058D01*
X404945Y408981D01*
X405025Y408901D01*
X405102Y408818D01*
X405177Y408732D01*
X405248Y408644D01*
X405316Y408554D01*
X405381Y408461D01*
X405443Y408366D01*
X405501Y408269D01*
X405556Y408170D01*
X405607Y408069D01*
X405655Y407966D01*
X405700Y407862D01*
X405740Y407756D01*
X405777Y407649D01*
X405810Y407541D01*
X405840Y407431D01*
X405865Y407321D01*
X405887Y407210D01*
X405904Y407098D01*
X405918Y406985D01*
X405928Y406872D01*
X405934Y406759D01*
X405936Y406646D01*
X405935Y406646D02*
X405935Y403401D01*
X405936Y403401D02*
X405934Y403258D01*
X405928Y403115D01*
X405918Y402972D01*
X405904Y402830D01*
X405887Y402688D01*
X405865Y402546D01*
X405840Y402405D01*
X405810Y402265D01*
X405777Y402126D01*
X405740Y401988D01*
X405699Y401851D01*
X405655Y401715D01*
X405606Y401580D01*
X405554Y401447D01*
X405499Y401315D01*
X405439Y401185D01*
X405376Y401056D01*
X405310Y400929D01*
X405240Y400804D01*
X405167Y400682D01*
X405090Y400561D01*
X405010Y400442D01*
X404927Y400326D01*
X404841Y400211D01*
X404752Y400100D01*
X404659Y399990D01*
X404564Y399884D01*
X404465Y399780D01*
X404364Y399679D01*
X404260Y399580D01*
X404154Y399485D01*
X404044Y399392D01*
X403933Y399303D01*
X403818Y399217D01*
X403702Y399134D01*
X403583Y399054D01*
X403462Y398977D01*
X403340Y398904D01*
X403215Y398834D01*
X403088Y398768D01*
X402959Y398705D01*
X402829Y398645D01*
X402697Y398590D01*
X402564Y398538D01*
X402429Y398489D01*
X402293Y398445D01*
X402156Y398404D01*
X402018Y398367D01*
X401879Y398334D01*
X401739Y398304D01*
X401598Y398279D01*
X401456Y398257D01*
X401314Y398240D01*
X401172Y398226D01*
X401029Y398216D01*
X400886Y398210D01*
X400743Y398208D01*
X349158Y398208D02*
X349158Y409892D01*
X352404Y409892D01*
X352517Y409890D01*
X352630Y409884D01*
X352743Y409874D01*
X352856Y409860D01*
X352968Y409843D01*
X353079Y409821D01*
X353189Y409796D01*
X353299Y409766D01*
X353407Y409733D01*
X353514Y409696D01*
X353620Y409656D01*
X353724Y409611D01*
X353827Y409563D01*
X353928Y409512D01*
X354027Y409457D01*
X354124Y409399D01*
X354219Y409337D01*
X354312Y409272D01*
X354402Y409204D01*
X354490Y409133D01*
X354576Y409058D01*
X354659Y408981D01*
X354739Y408901D01*
X354816Y408818D01*
X354891Y408732D01*
X354962Y408644D01*
X355030Y408554D01*
X355095Y408461D01*
X355157Y408366D01*
X355215Y408269D01*
X355270Y408170D01*
X355321Y408069D01*
X355369Y407966D01*
X355414Y407862D01*
X355454Y407756D01*
X355491Y407649D01*
X355524Y407541D01*
X355554Y407431D01*
X355579Y407321D01*
X355601Y407210D01*
X355618Y407098D01*
X355632Y406985D01*
X355642Y406872D01*
X355648Y406759D01*
X355650Y406646D01*
X355648Y406533D01*
X355642Y406420D01*
X355632Y406307D01*
X355618Y406194D01*
X355601Y406082D01*
X355579Y405971D01*
X355554Y405861D01*
X355524Y405751D01*
X355491Y405643D01*
X355454Y405536D01*
X355414Y405430D01*
X355369Y405326D01*
X355321Y405223D01*
X355270Y405122D01*
X355215Y405023D01*
X355157Y404926D01*
X355095Y404831D01*
X355030Y404738D01*
X354962Y404648D01*
X354891Y404560D01*
X354816Y404474D01*
X354739Y404391D01*
X354659Y404311D01*
X354576Y404234D01*
X354490Y404159D01*
X354402Y404088D01*
X354312Y404020D01*
X354219Y403955D01*
X354124Y403893D01*
X354027Y403835D01*
X353928Y403780D01*
X353827Y403729D01*
X353724Y403681D01*
X353620Y403636D01*
X353514Y403596D01*
X353407Y403559D01*
X353299Y403526D01*
X353189Y403496D01*
X353079Y403471D01*
X352968Y403449D01*
X352856Y403432D01*
X352743Y403418D01*
X352630Y403408D01*
X352517Y403402D01*
X352404Y403400D01*
X352404Y403401D02*
X349158Y403401D01*
X353053Y403401D02*
X355649Y398208D01*
X360514Y408594D02*
X360514Y409892D01*
X367005Y409892D01*
X363760Y398208D01*
X321658Y398208D02*
X321658Y409892D01*
X324904Y409892D01*
X325017Y409890D01*
X325130Y409884D01*
X325243Y409874D01*
X325356Y409860D01*
X325468Y409843D01*
X325579Y409821D01*
X325689Y409796D01*
X325799Y409766D01*
X325907Y409733D01*
X326014Y409696D01*
X326120Y409656D01*
X326224Y409611D01*
X326327Y409563D01*
X326428Y409512D01*
X326527Y409457D01*
X326624Y409399D01*
X326719Y409337D01*
X326812Y409272D01*
X326902Y409204D01*
X326990Y409133D01*
X327076Y409058D01*
X327159Y408981D01*
X327239Y408901D01*
X327316Y408818D01*
X327391Y408732D01*
X327462Y408644D01*
X327530Y408554D01*
X327595Y408461D01*
X327657Y408366D01*
X327715Y408269D01*
X327770Y408170D01*
X327821Y408069D01*
X327869Y407966D01*
X327914Y407862D01*
X327954Y407756D01*
X327991Y407649D01*
X328024Y407541D01*
X328054Y407431D01*
X328079Y407321D01*
X328101Y407210D01*
X328118Y407098D01*
X328132Y406985D01*
X328142Y406872D01*
X328148Y406759D01*
X328150Y406646D01*
X328148Y406533D01*
X328142Y406420D01*
X328132Y406307D01*
X328118Y406194D01*
X328101Y406082D01*
X328079Y405971D01*
X328054Y405861D01*
X328024Y405751D01*
X327991Y405643D01*
X327954Y405536D01*
X327914Y405430D01*
X327869Y405326D01*
X327821Y405223D01*
X327770Y405122D01*
X327715Y405023D01*
X327657Y404926D01*
X327595Y404831D01*
X327530Y404738D01*
X327462Y404648D01*
X327391Y404560D01*
X327316Y404474D01*
X327239Y404391D01*
X327159Y404311D01*
X327076Y404234D01*
X326990Y404159D01*
X326902Y404088D01*
X326812Y404020D01*
X326719Y403955D01*
X326624Y403893D01*
X326527Y403835D01*
X326428Y403780D01*
X326327Y403729D01*
X326224Y403681D01*
X326120Y403636D01*
X326014Y403596D01*
X325907Y403559D01*
X325799Y403526D01*
X325689Y403496D01*
X325579Y403471D01*
X325468Y403449D01*
X325356Y403432D01*
X325243Y403418D01*
X325130Y403408D01*
X325017Y403402D01*
X324904Y403400D01*
X324904Y403401D02*
X321658Y403401D01*
X325553Y403401D02*
X328149Y398208D01*
X333014Y401454D02*
X333016Y401567D01*
X333022Y401680D01*
X333032Y401793D01*
X333046Y401906D01*
X333063Y402018D01*
X333085Y402129D01*
X333110Y402239D01*
X333140Y402349D01*
X333173Y402457D01*
X333210Y402564D01*
X333250Y402670D01*
X333295Y402774D01*
X333343Y402877D01*
X333394Y402978D01*
X333449Y403077D01*
X333507Y403174D01*
X333569Y403269D01*
X333634Y403362D01*
X333702Y403452D01*
X333773Y403540D01*
X333848Y403626D01*
X333925Y403709D01*
X334005Y403789D01*
X334088Y403866D01*
X334174Y403941D01*
X334262Y404012D01*
X334352Y404080D01*
X334445Y404145D01*
X334540Y404207D01*
X334637Y404265D01*
X334736Y404320D01*
X334837Y404371D01*
X334940Y404419D01*
X335044Y404464D01*
X335150Y404504D01*
X335257Y404541D01*
X335365Y404574D01*
X335475Y404604D01*
X335585Y404629D01*
X335696Y404651D01*
X335808Y404668D01*
X335921Y404682D01*
X336034Y404692D01*
X336147Y404698D01*
X336260Y404700D01*
X336373Y404698D01*
X336486Y404692D01*
X336599Y404682D01*
X336712Y404668D01*
X336824Y404651D01*
X336935Y404629D01*
X337045Y404604D01*
X337155Y404574D01*
X337263Y404541D01*
X337370Y404504D01*
X337476Y404464D01*
X337580Y404419D01*
X337683Y404371D01*
X337784Y404320D01*
X337883Y404265D01*
X337980Y404207D01*
X338075Y404145D01*
X338168Y404080D01*
X338258Y404012D01*
X338346Y403941D01*
X338432Y403866D01*
X338515Y403789D01*
X338595Y403709D01*
X338672Y403626D01*
X338747Y403540D01*
X338818Y403452D01*
X338886Y403362D01*
X338951Y403269D01*
X339013Y403174D01*
X339071Y403077D01*
X339126Y402978D01*
X339177Y402877D01*
X339225Y402774D01*
X339270Y402670D01*
X339310Y402564D01*
X339347Y402457D01*
X339380Y402349D01*
X339410Y402239D01*
X339435Y402129D01*
X339457Y402018D01*
X339474Y401906D01*
X339488Y401793D01*
X339498Y401680D01*
X339504Y401567D01*
X339506Y401454D01*
X339504Y401341D01*
X339498Y401228D01*
X339488Y401115D01*
X339474Y401002D01*
X339457Y400890D01*
X339435Y400779D01*
X339410Y400669D01*
X339380Y400559D01*
X339347Y400451D01*
X339310Y400344D01*
X339270Y400238D01*
X339225Y400134D01*
X339177Y400031D01*
X339126Y399930D01*
X339071Y399831D01*
X339013Y399734D01*
X338951Y399639D01*
X338886Y399546D01*
X338818Y399456D01*
X338747Y399368D01*
X338672Y399282D01*
X338595Y399199D01*
X338515Y399119D01*
X338432Y399042D01*
X338346Y398967D01*
X338258Y398896D01*
X338168Y398828D01*
X338075Y398763D01*
X337980Y398701D01*
X337883Y398643D01*
X337784Y398588D01*
X337683Y398537D01*
X337580Y398489D01*
X337476Y398444D01*
X337370Y398404D01*
X337263Y398367D01*
X337155Y398334D01*
X337045Y398304D01*
X336935Y398279D01*
X336824Y398257D01*
X336712Y398240D01*
X336599Y398226D01*
X336486Y398216D01*
X336373Y398210D01*
X336260Y398208D01*
X336147Y398210D01*
X336034Y398216D01*
X335921Y398226D01*
X335808Y398240D01*
X335696Y398257D01*
X335585Y398279D01*
X335475Y398304D01*
X335365Y398334D01*
X335257Y398367D01*
X335150Y398404D01*
X335044Y398444D01*
X334940Y398489D01*
X334837Y398537D01*
X334736Y398588D01*
X334637Y398643D01*
X334540Y398701D01*
X334445Y398763D01*
X334352Y398828D01*
X334262Y398896D01*
X334174Y398967D01*
X334088Y399042D01*
X334005Y399119D01*
X333925Y399199D01*
X333848Y399282D01*
X333773Y399368D01*
X333702Y399456D01*
X333634Y399546D01*
X333569Y399639D01*
X333507Y399734D01*
X333449Y399831D01*
X333394Y399930D01*
X333343Y400031D01*
X333295Y400134D01*
X333250Y400238D01*
X333210Y400344D01*
X333173Y400451D01*
X333140Y400559D01*
X333110Y400669D01*
X333085Y400779D01*
X333063Y400890D01*
X333046Y401002D01*
X333032Y401115D01*
X333022Y401228D01*
X333016Y401341D01*
X333014Y401454D01*
X333664Y407296D02*
X333666Y407397D01*
X333672Y407497D01*
X333682Y407597D01*
X333695Y407697D01*
X333713Y407796D01*
X333734Y407895D01*
X333759Y407992D01*
X333788Y408089D01*
X333821Y408184D01*
X333857Y408278D01*
X333897Y408370D01*
X333940Y408461D01*
X333987Y408550D01*
X334037Y408637D01*
X334091Y408723D01*
X334148Y408806D01*
X334208Y408886D01*
X334271Y408965D01*
X334338Y409041D01*
X334407Y409114D01*
X334479Y409184D01*
X334553Y409252D01*
X334630Y409317D01*
X334710Y409378D01*
X334792Y409437D01*
X334876Y409492D01*
X334962Y409544D01*
X335050Y409593D01*
X335140Y409638D01*
X335232Y409680D01*
X335325Y409718D01*
X335420Y409752D01*
X335515Y409783D01*
X335612Y409810D01*
X335710Y409833D01*
X335809Y409853D01*
X335909Y409868D01*
X336009Y409880D01*
X336109Y409888D01*
X336210Y409892D01*
X336310Y409892D01*
X336411Y409888D01*
X336511Y409880D01*
X336611Y409868D01*
X336711Y409853D01*
X336810Y409833D01*
X336908Y409810D01*
X337005Y409783D01*
X337100Y409752D01*
X337195Y409718D01*
X337288Y409680D01*
X337380Y409638D01*
X337470Y409593D01*
X337558Y409544D01*
X337644Y409492D01*
X337728Y409437D01*
X337810Y409378D01*
X337890Y409317D01*
X337967Y409252D01*
X338041Y409184D01*
X338113Y409114D01*
X338182Y409041D01*
X338249Y408965D01*
X338312Y408886D01*
X338372Y408806D01*
X338429Y408723D01*
X338483Y408637D01*
X338533Y408550D01*
X338580Y408461D01*
X338623Y408370D01*
X338663Y408278D01*
X338699Y408184D01*
X338732Y408089D01*
X338761Y407992D01*
X338786Y407895D01*
X338807Y407796D01*
X338825Y407697D01*
X338838Y407597D01*
X338848Y407497D01*
X338854Y407397D01*
X338856Y407296D01*
X338854Y407195D01*
X338848Y407095D01*
X338838Y406995D01*
X338825Y406895D01*
X338807Y406796D01*
X338786Y406697D01*
X338761Y406600D01*
X338732Y406503D01*
X338699Y406408D01*
X338663Y406314D01*
X338623Y406222D01*
X338580Y406131D01*
X338533Y406042D01*
X338483Y405955D01*
X338429Y405869D01*
X338372Y405786D01*
X338312Y405706D01*
X338249Y405627D01*
X338182Y405551D01*
X338113Y405478D01*
X338041Y405408D01*
X337967Y405340D01*
X337890Y405275D01*
X337810Y405214D01*
X337728Y405155D01*
X337644Y405100D01*
X337558Y405048D01*
X337470Y404999D01*
X337380Y404954D01*
X337288Y404912D01*
X337195Y404874D01*
X337100Y404840D01*
X337005Y404809D01*
X336908Y404782D01*
X336810Y404759D01*
X336711Y404739D01*
X336611Y404724D01*
X336511Y404712D01*
X336411Y404704D01*
X336310Y404700D01*
X336210Y404700D01*
X336109Y404704D01*
X336009Y404712D01*
X335909Y404724D01*
X335809Y404739D01*
X335710Y404759D01*
X335612Y404782D01*
X335515Y404809D01*
X335420Y404840D01*
X335325Y404874D01*
X335232Y404912D01*
X335140Y404954D01*
X335050Y404999D01*
X334962Y405048D01*
X334876Y405100D01*
X334792Y405155D01*
X334710Y405214D01*
X334630Y405275D01*
X334553Y405340D01*
X334479Y405408D01*
X334407Y405478D01*
X334338Y405551D01*
X334271Y405627D01*
X334208Y405706D01*
X334148Y405786D01*
X334091Y405869D01*
X334037Y405955D01*
X333987Y406042D01*
X333940Y406131D01*
X333897Y406222D01*
X333857Y406314D01*
X333821Y406408D01*
X333788Y406503D01*
X333759Y406600D01*
X333734Y406697D01*
X333713Y406796D01*
X333695Y406895D01*
X333682Y406995D01*
X333672Y407095D01*
X333666Y407195D01*
X333664Y407296D01*
X294158Y409892D02*
X294158Y398208D01*
X294158Y409892D02*
X297404Y409892D01*
X297517Y409890D01*
X297630Y409884D01*
X297743Y409874D01*
X297856Y409860D01*
X297968Y409843D01*
X298079Y409821D01*
X298189Y409796D01*
X298299Y409766D01*
X298407Y409733D01*
X298514Y409696D01*
X298620Y409656D01*
X298724Y409611D01*
X298827Y409563D01*
X298928Y409512D01*
X299027Y409457D01*
X299124Y409399D01*
X299219Y409337D01*
X299312Y409272D01*
X299402Y409204D01*
X299490Y409133D01*
X299576Y409058D01*
X299659Y408981D01*
X299739Y408901D01*
X299816Y408818D01*
X299891Y408732D01*
X299962Y408644D01*
X300030Y408554D01*
X300095Y408461D01*
X300157Y408366D01*
X300215Y408269D01*
X300270Y408170D01*
X300321Y408069D01*
X300369Y407966D01*
X300414Y407862D01*
X300454Y407756D01*
X300491Y407649D01*
X300524Y407541D01*
X300554Y407431D01*
X300579Y407321D01*
X300601Y407210D01*
X300618Y407098D01*
X300632Y406985D01*
X300642Y406872D01*
X300648Y406759D01*
X300650Y406646D01*
X300648Y406533D01*
X300642Y406420D01*
X300632Y406307D01*
X300618Y406194D01*
X300601Y406082D01*
X300579Y405971D01*
X300554Y405861D01*
X300524Y405751D01*
X300491Y405643D01*
X300454Y405536D01*
X300414Y405430D01*
X300369Y405326D01*
X300321Y405223D01*
X300270Y405122D01*
X300215Y405023D01*
X300157Y404926D01*
X300095Y404831D01*
X300030Y404738D01*
X299962Y404648D01*
X299891Y404560D01*
X299816Y404474D01*
X299739Y404391D01*
X299659Y404311D01*
X299576Y404234D01*
X299490Y404159D01*
X299402Y404088D01*
X299312Y404020D01*
X299219Y403955D01*
X299124Y403893D01*
X299027Y403835D01*
X298928Y403780D01*
X298827Y403729D01*
X298724Y403681D01*
X298620Y403636D01*
X298514Y403596D01*
X298407Y403559D01*
X298299Y403526D01*
X298189Y403496D01*
X298079Y403471D01*
X297968Y403449D01*
X297856Y403432D01*
X297743Y403418D01*
X297630Y403408D01*
X297517Y403402D01*
X297404Y403400D01*
X297404Y403401D02*
X294158Y403401D01*
X298053Y403401D02*
X300649Y398208D01*
X308111Y403401D02*
X312005Y403401D01*
X308111Y403401D02*
X308012Y403403D01*
X307912Y403409D01*
X307813Y403418D01*
X307715Y403431D01*
X307617Y403448D01*
X307519Y403469D01*
X307423Y403494D01*
X307328Y403522D01*
X307234Y403554D01*
X307141Y403589D01*
X307049Y403628D01*
X306959Y403671D01*
X306871Y403716D01*
X306784Y403766D01*
X306700Y403818D01*
X306617Y403874D01*
X306537Y403932D01*
X306459Y403994D01*
X306384Y404059D01*
X306311Y404127D01*
X306241Y404197D01*
X306173Y404270D01*
X306108Y404345D01*
X306046Y404423D01*
X305988Y404503D01*
X305932Y404586D01*
X305880Y404670D01*
X305830Y404757D01*
X305785Y404845D01*
X305742Y404935D01*
X305703Y405027D01*
X305668Y405120D01*
X305636Y405214D01*
X305608Y405309D01*
X305583Y405405D01*
X305562Y405503D01*
X305545Y405601D01*
X305532Y405699D01*
X305523Y405798D01*
X305517Y405898D01*
X305515Y405997D01*
X305514Y405997D02*
X305514Y406646D01*
X305516Y406759D01*
X305522Y406872D01*
X305532Y406985D01*
X305546Y407098D01*
X305563Y407210D01*
X305585Y407321D01*
X305610Y407431D01*
X305640Y407541D01*
X305673Y407649D01*
X305710Y407756D01*
X305750Y407862D01*
X305795Y407966D01*
X305843Y408069D01*
X305894Y408170D01*
X305949Y408269D01*
X306007Y408366D01*
X306069Y408461D01*
X306134Y408554D01*
X306202Y408644D01*
X306273Y408732D01*
X306348Y408818D01*
X306425Y408901D01*
X306505Y408981D01*
X306588Y409058D01*
X306674Y409133D01*
X306762Y409204D01*
X306852Y409272D01*
X306945Y409337D01*
X307040Y409399D01*
X307137Y409457D01*
X307236Y409512D01*
X307337Y409563D01*
X307440Y409611D01*
X307544Y409656D01*
X307650Y409696D01*
X307757Y409733D01*
X307865Y409766D01*
X307975Y409796D01*
X308085Y409821D01*
X308196Y409843D01*
X308308Y409860D01*
X308421Y409874D01*
X308534Y409884D01*
X308647Y409890D01*
X308760Y409892D01*
X308873Y409890D01*
X308986Y409884D01*
X309099Y409874D01*
X309212Y409860D01*
X309324Y409843D01*
X309435Y409821D01*
X309545Y409796D01*
X309655Y409766D01*
X309763Y409733D01*
X309870Y409696D01*
X309976Y409656D01*
X310080Y409611D01*
X310183Y409563D01*
X310284Y409512D01*
X310383Y409457D01*
X310480Y409399D01*
X310575Y409337D01*
X310668Y409272D01*
X310758Y409204D01*
X310846Y409133D01*
X310932Y409058D01*
X311015Y408981D01*
X311095Y408901D01*
X311172Y408818D01*
X311247Y408732D01*
X311318Y408644D01*
X311386Y408554D01*
X311451Y408461D01*
X311513Y408366D01*
X311571Y408269D01*
X311626Y408170D01*
X311677Y408069D01*
X311725Y407966D01*
X311770Y407862D01*
X311810Y407756D01*
X311847Y407649D01*
X311880Y407541D01*
X311910Y407431D01*
X311935Y407321D01*
X311957Y407210D01*
X311974Y407098D01*
X311988Y406985D01*
X311998Y406872D01*
X312004Y406759D01*
X312006Y406646D01*
X312005Y406646D02*
X312005Y403401D01*
X312006Y403401D02*
X312004Y403258D01*
X311998Y403115D01*
X311988Y402972D01*
X311974Y402830D01*
X311957Y402688D01*
X311935Y402546D01*
X311910Y402405D01*
X311880Y402265D01*
X311847Y402126D01*
X311810Y401988D01*
X311769Y401851D01*
X311725Y401715D01*
X311676Y401580D01*
X311624Y401447D01*
X311569Y401315D01*
X311509Y401185D01*
X311446Y401056D01*
X311380Y400929D01*
X311310Y400804D01*
X311237Y400682D01*
X311160Y400561D01*
X311080Y400442D01*
X310997Y400326D01*
X310911Y400211D01*
X310822Y400100D01*
X310729Y399990D01*
X310634Y399884D01*
X310535Y399780D01*
X310434Y399679D01*
X310330Y399580D01*
X310224Y399485D01*
X310114Y399392D01*
X310003Y399303D01*
X309888Y399217D01*
X309772Y399134D01*
X309653Y399054D01*
X309532Y398977D01*
X309410Y398904D01*
X309285Y398834D01*
X309158Y398768D01*
X309029Y398705D01*
X308899Y398645D01*
X308767Y398590D01*
X308634Y398538D01*
X308499Y398489D01*
X308363Y398445D01*
X308226Y398404D01*
X308088Y398367D01*
X307949Y398334D01*
X307809Y398304D01*
X307668Y398279D01*
X307526Y398257D01*
X307384Y398240D01*
X307242Y398226D01*
X307099Y398216D01*
X306956Y398210D01*
X306813Y398208D01*
X114158Y395708D02*
X114158Y407392D01*
X117404Y407392D01*
X117517Y407390D01*
X117630Y407384D01*
X117743Y407374D01*
X117856Y407360D01*
X117968Y407343D01*
X118079Y407321D01*
X118189Y407296D01*
X118299Y407266D01*
X118407Y407233D01*
X118514Y407196D01*
X118620Y407156D01*
X118724Y407111D01*
X118827Y407063D01*
X118928Y407012D01*
X119027Y406957D01*
X119124Y406899D01*
X119219Y406837D01*
X119312Y406772D01*
X119402Y406704D01*
X119490Y406633D01*
X119576Y406558D01*
X119659Y406481D01*
X119739Y406401D01*
X119816Y406318D01*
X119891Y406232D01*
X119962Y406144D01*
X120030Y406054D01*
X120095Y405961D01*
X120157Y405866D01*
X120215Y405769D01*
X120270Y405670D01*
X120321Y405569D01*
X120369Y405466D01*
X120414Y405362D01*
X120454Y405256D01*
X120491Y405149D01*
X120524Y405041D01*
X120554Y404931D01*
X120579Y404821D01*
X120601Y404710D01*
X120618Y404598D01*
X120632Y404485D01*
X120642Y404372D01*
X120648Y404259D01*
X120650Y404146D01*
X120648Y404033D01*
X120642Y403920D01*
X120632Y403807D01*
X120618Y403694D01*
X120601Y403582D01*
X120579Y403471D01*
X120554Y403361D01*
X120524Y403251D01*
X120491Y403143D01*
X120454Y403036D01*
X120414Y402930D01*
X120369Y402826D01*
X120321Y402723D01*
X120270Y402622D01*
X120215Y402523D01*
X120157Y402426D01*
X120095Y402331D01*
X120030Y402238D01*
X119962Y402148D01*
X119891Y402060D01*
X119816Y401974D01*
X119739Y401891D01*
X119659Y401811D01*
X119576Y401734D01*
X119490Y401659D01*
X119402Y401588D01*
X119312Y401520D01*
X119219Y401455D01*
X119124Y401393D01*
X119027Y401335D01*
X118928Y401280D01*
X118827Y401229D01*
X118724Y401181D01*
X118620Y401136D01*
X118514Y401096D01*
X118407Y401059D01*
X118299Y401026D01*
X118189Y400996D01*
X118079Y400971D01*
X117968Y400949D01*
X117856Y400932D01*
X117743Y400918D01*
X117630Y400908D01*
X117517Y400902D01*
X117404Y400900D01*
X117404Y400901D02*
X114158Y400901D01*
X118053Y400901D02*
X120649Y395708D01*
X125514Y404796D02*
X128760Y407392D01*
X128760Y395708D01*
X132005Y395708D02*
X125514Y395708D01*
X136945Y401550D02*
X136948Y401780D01*
X136956Y402010D01*
X136970Y402239D01*
X136989Y402468D01*
X137014Y402697D01*
X137044Y402924D01*
X137079Y403152D01*
X137120Y403378D01*
X137166Y403603D01*
X137218Y403827D01*
X137275Y404049D01*
X137337Y404271D01*
X137405Y404490D01*
X137478Y404708D01*
X137556Y404925D01*
X137639Y405139D01*
X137727Y405351D01*
X137820Y405561D01*
X137919Y405769D01*
X137918Y405769D02*
X137951Y405859D01*
X137987Y405948D01*
X138027Y406036D01*
X138071Y406121D01*
X138118Y406205D01*
X138168Y406287D01*
X138222Y406367D01*
X138278Y406444D01*
X138338Y406520D01*
X138401Y406593D01*
X138466Y406663D01*
X138535Y406731D01*
X138606Y406795D01*
X138679Y406857D01*
X138755Y406916D01*
X138833Y406972D01*
X138914Y407025D01*
X138996Y407074D01*
X139080Y407120D01*
X139167Y407163D01*
X139254Y407202D01*
X139344Y407238D01*
X139434Y407270D01*
X139526Y407298D01*
X139619Y407323D01*
X139713Y407344D01*
X139807Y407361D01*
X139902Y407375D01*
X139998Y407384D01*
X140094Y407390D01*
X140190Y407392D01*
X140286Y407390D01*
X140382Y407384D01*
X140478Y407375D01*
X140573Y407361D01*
X140667Y407344D01*
X140761Y407323D01*
X140854Y407298D01*
X140946Y407270D01*
X141036Y407238D01*
X141126Y407202D01*
X141213Y407163D01*
X141300Y407120D01*
X141384Y407074D01*
X141466Y407025D01*
X141547Y406972D01*
X141625Y406916D01*
X141701Y406857D01*
X141774Y406795D01*
X141845Y406731D01*
X141914Y406663D01*
X141979Y406593D01*
X142042Y406520D01*
X142102Y406444D01*
X142158Y406367D01*
X142212Y406287D01*
X142262Y406205D01*
X142309Y406121D01*
X142353Y406036D01*
X142393Y405948D01*
X142429Y405859D01*
X142462Y405769D01*
X142561Y405562D01*
X142654Y405352D01*
X142742Y405139D01*
X142825Y404925D01*
X142903Y404709D01*
X142976Y404491D01*
X143044Y404271D01*
X143106Y404050D01*
X143163Y403827D01*
X143215Y403603D01*
X143261Y403378D01*
X143302Y403152D01*
X143337Y402925D01*
X143367Y402697D01*
X143392Y402468D01*
X143411Y402239D01*
X143425Y402010D01*
X143433Y401780D01*
X143436Y401550D01*
X136944Y401550D02*
X136947Y401320D01*
X136955Y401090D01*
X136969Y400861D01*
X136988Y400632D01*
X137013Y400403D01*
X137043Y400175D01*
X137078Y399948D01*
X137119Y399722D01*
X137165Y399497D01*
X137217Y399273D01*
X137274Y399050D01*
X137336Y398829D01*
X137404Y398609D01*
X137477Y398391D01*
X137555Y398175D01*
X137638Y397961D01*
X137726Y397749D01*
X137819Y397538D01*
X137918Y397331D01*
X137951Y397241D01*
X137987Y397152D01*
X138028Y397064D01*
X138071Y396979D01*
X138118Y396895D01*
X138168Y396813D01*
X138222Y396733D01*
X138278Y396656D01*
X138338Y396580D01*
X138401Y396507D01*
X138466Y396437D01*
X138535Y396369D01*
X138606Y396305D01*
X138679Y396243D01*
X138755Y396184D01*
X138833Y396128D01*
X138914Y396075D01*
X138996Y396026D01*
X139080Y395980D01*
X139167Y395937D01*
X139254Y395898D01*
X139344Y395862D01*
X139434Y395830D01*
X139526Y395802D01*
X139619Y395777D01*
X139713Y395756D01*
X139807Y395739D01*
X139902Y395725D01*
X139998Y395716D01*
X140094Y395710D01*
X140190Y395708D01*
X142462Y397331D02*
X142561Y397538D01*
X142654Y397749D01*
X142742Y397961D01*
X142825Y398175D01*
X142903Y398391D01*
X142976Y398609D01*
X143044Y398829D01*
X143106Y399050D01*
X143163Y399273D01*
X143215Y399497D01*
X143261Y399722D01*
X143302Y399948D01*
X143337Y400175D01*
X143367Y400403D01*
X143392Y400632D01*
X143411Y400861D01*
X143425Y401090D01*
X143433Y401320D01*
X143436Y401550D01*
X142462Y397331D02*
X142429Y397241D01*
X142393Y397152D01*
X142353Y397064D01*
X142309Y396979D01*
X142262Y396895D01*
X142212Y396813D01*
X142158Y396733D01*
X142102Y396656D01*
X142042Y396580D01*
X141979Y396507D01*
X141914Y396437D01*
X141845Y396369D01*
X141774Y396305D01*
X141701Y396243D01*
X141625Y396184D01*
X141547Y396128D01*
X141466Y396075D01*
X141384Y396026D01*
X141300Y395980D01*
X141213Y395937D01*
X141126Y395898D01*
X141036Y395862D01*
X140946Y395830D01*
X140854Y395802D01*
X140761Y395777D01*
X140667Y395756D01*
X140573Y395739D01*
X140478Y395725D01*
X140382Y395716D01*
X140286Y395710D01*
X140190Y395708D01*
X137593Y398304D02*
X142786Y404796D01*
X79158Y407392D02*
X79158Y395708D01*
X79158Y407392D02*
X82404Y407392D01*
X82517Y407390D01*
X82630Y407384D01*
X82743Y407374D01*
X82856Y407360D01*
X82968Y407343D01*
X83079Y407321D01*
X83189Y407296D01*
X83299Y407266D01*
X83407Y407233D01*
X83514Y407196D01*
X83620Y407156D01*
X83724Y407111D01*
X83827Y407063D01*
X83928Y407012D01*
X84027Y406957D01*
X84124Y406899D01*
X84219Y406837D01*
X84312Y406772D01*
X84402Y406704D01*
X84490Y406633D01*
X84576Y406558D01*
X84659Y406481D01*
X84739Y406401D01*
X84816Y406318D01*
X84891Y406232D01*
X84962Y406144D01*
X85030Y406054D01*
X85095Y405961D01*
X85157Y405866D01*
X85215Y405769D01*
X85270Y405670D01*
X85321Y405569D01*
X85369Y405466D01*
X85414Y405362D01*
X85454Y405256D01*
X85491Y405149D01*
X85524Y405041D01*
X85554Y404931D01*
X85579Y404821D01*
X85601Y404710D01*
X85618Y404598D01*
X85632Y404485D01*
X85642Y404372D01*
X85648Y404259D01*
X85650Y404146D01*
X85648Y404033D01*
X85642Y403920D01*
X85632Y403807D01*
X85618Y403694D01*
X85601Y403582D01*
X85579Y403471D01*
X85554Y403361D01*
X85524Y403251D01*
X85491Y403143D01*
X85454Y403036D01*
X85414Y402930D01*
X85369Y402826D01*
X85321Y402723D01*
X85270Y402622D01*
X85215Y402523D01*
X85157Y402426D01*
X85095Y402331D01*
X85030Y402238D01*
X84962Y402148D01*
X84891Y402060D01*
X84816Y401974D01*
X84739Y401891D01*
X84659Y401811D01*
X84576Y401734D01*
X84490Y401659D01*
X84402Y401588D01*
X84312Y401520D01*
X84219Y401455D01*
X84124Y401393D01*
X84027Y401335D01*
X83928Y401280D01*
X83827Y401229D01*
X83724Y401181D01*
X83620Y401136D01*
X83514Y401096D01*
X83407Y401059D01*
X83299Y401026D01*
X83189Y400996D01*
X83079Y400971D01*
X82968Y400949D01*
X82856Y400932D01*
X82743Y400918D01*
X82630Y400908D01*
X82517Y400902D01*
X82404Y400900D01*
X82404Y400901D02*
X79158Y400901D01*
X83053Y400901D02*
X85649Y395708D01*
X90514Y404796D02*
X93760Y407392D01*
X93760Y395708D01*
X97005Y395708D02*
X90514Y395708D01*
X101944Y404796D02*
X105190Y407392D01*
X105190Y395708D01*
X108435Y395708D02*
X101944Y395708D01*
X41658Y395708D02*
X41658Y407392D01*
X44904Y407392D01*
X45017Y407390D01*
X45130Y407384D01*
X45243Y407374D01*
X45356Y407360D01*
X45468Y407343D01*
X45579Y407321D01*
X45689Y407296D01*
X45799Y407266D01*
X45907Y407233D01*
X46014Y407196D01*
X46120Y407156D01*
X46224Y407111D01*
X46327Y407063D01*
X46428Y407012D01*
X46527Y406957D01*
X46624Y406899D01*
X46719Y406837D01*
X46812Y406772D01*
X46902Y406704D01*
X46990Y406633D01*
X47076Y406558D01*
X47159Y406481D01*
X47239Y406401D01*
X47316Y406318D01*
X47391Y406232D01*
X47462Y406144D01*
X47530Y406054D01*
X47595Y405961D01*
X47657Y405866D01*
X47715Y405769D01*
X47770Y405670D01*
X47821Y405569D01*
X47869Y405466D01*
X47914Y405362D01*
X47954Y405256D01*
X47991Y405149D01*
X48024Y405041D01*
X48054Y404931D01*
X48079Y404821D01*
X48101Y404710D01*
X48118Y404598D01*
X48132Y404485D01*
X48142Y404372D01*
X48148Y404259D01*
X48150Y404146D01*
X48148Y404033D01*
X48142Y403920D01*
X48132Y403807D01*
X48118Y403694D01*
X48101Y403582D01*
X48079Y403471D01*
X48054Y403361D01*
X48024Y403251D01*
X47991Y403143D01*
X47954Y403036D01*
X47914Y402930D01*
X47869Y402826D01*
X47821Y402723D01*
X47770Y402622D01*
X47715Y402523D01*
X47657Y402426D01*
X47595Y402331D01*
X47530Y402238D01*
X47462Y402148D01*
X47391Y402060D01*
X47316Y401974D01*
X47239Y401891D01*
X47159Y401811D01*
X47076Y401734D01*
X46990Y401659D01*
X46902Y401588D01*
X46812Y401520D01*
X46719Y401455D01*
X46624Y401393D01*
X46527Y401335D01*
X46428Y401280D01*
X46327Y401229D01*
X46224Y401181D01*
X46120Y401136D01*
X46014Y401096D01*
X45907Y401059D01*
X45799Y401026D01*
X45689Y400996D01*
X45579Y400971D01*
X45468Y400949D01*
X45356Y400932D01*
X45243Y400918D01*
X45130Y400908D01*
X45017Y400902D01*
X44904Y400900D01*
X44904Y400901D02*
X41658Y400901D01*
X45553Y400901D02*
X48149Y395708D01*
X53014Y404796D02*
X56260Y407392D01*
X56260Y395708D01*
X59505Y395708D02*
X53014Y395708D01*
X68014Y407392D02*
X68121Y407390D01*
X68227Y407384D01*
X68333Y407374D01*
X68439Y407361D01*
X68545Y407343D01*
X68649Y407322D01*
X68753Y407297D01*
X68856Y407268D01*
X68957Y407236D01*
X69057Y407199D01*
X69156Y407159D01*
X69254Y407116D01*
X69350Y407069D01*
X69444Y407018D01*
X69536Y406964D01*
X69626Y406907D01*
X69714Y406847D01*
X69799Y406783D01*
X69882Y406716D01*
X69963Y406646D01*
X70041Y406574D01*
X70117Y406498D01*
X70189Y406420D01*
X70259Y406339D01*
X70326Y406256D01*
X70390Y406171D01*
X70450Y406083D01*
X70507Y405993D01*
X70561Y405901D01*
X70612Y405807D01*
X70659Y405711D01*
X70702Y405613D01*
X70742Y405514D01*
X70779Y405414D01*
X70811Y405313D01*
X70840Y405210D01*
X70865Y405106D01*
X70886Y405002D01*
X70904Y404896D01*
X70917Y404790D01*
X70927Y404684D01*
X70933Y404578D01*
X70935Y404471D01*
X68014Y407392D02*
X67893Y407390D01*
X67772Y407384D01*
X67652Y407374D01*
X67531Y407361D01*
X67412Y407343D01*
X67292Y407322D01*
X67174Y407297D01*
X67057Y407268D01*
X66940Y407235D01*
X66825Y407199D01*
X66711Y407158D01*
X66598Y407115D01*
X66486Y407067D01*
X66377Y407016D01*
X66269Y406961D01*
X66162Y406903D01*
X66058Y406842D01*
X65956Y406777D01*
X65856Y406709D01*
X65758Y406638D01*
X65662Y406564D01*
X65569Y406487D01*
X65479Y406406D01*
X65391Y406323D01*
X65306Y406237D01*
X65223Y406148D01*
X65144Y406057D01*
X65067Y405963D01*
X64994Y405867D01*
X64924Y405769D01*
X64857Y405668D01*
X64793Y405565D01*
X64733Y405460D01*
X64676Y405353D01*
X64622Y405245D01*
X64572Y405135D01*
X64526Y405023D01*
X64483Y404910D01*
X64444Y404795D01*
X69962Y402199D02*
X70041Y402276D01*
X70117Y402357D01*
X70190Y402440D01*
X70260Y402525D01*
X70327Y402613D01*
X70391Y402703D01*
X70451Y402795D01*
X70508Y402890D01*
X70562Y402986D01*
X70613Y403084D01*
X70660Y403184D01*
X70704Y403286D01*
X70744Y403389D01*
X70780Y403493D01*
X70812Y403599D01*
X70841Y403705D01*
X70866Y403813D01*
X70888Y403921D01*
X70905Y404031D01*
X70919Y404140D01*
X70928Y404250D01*
X70934Y404361D01*
X70936Y404471D01*
X69962Y402199D02*
X64444Y395708D01*
X70935Y395708D01*
D11*
X126531Y114979D02*
X126531Y105581D01*
X126531Y114979D02*
X129142Y114979D01*
X129243Y114977D01*
X129344Y114971D01*
X129445Y114961D01*
X129545Y114948D01*
X129645Y114930D01*
X129744Y114909D01*
X129842Y114883D01*
X129939Y114854D01*
X130035Y114822D01*
X130129Y114785D01*
X130222Y114745D01*
X130314Y114701D01*
X130403Y114654D01*
X130491Y114603D01*
X130577Y114549D01*
X130660Y114492D01*
X130742Y114432D01*
X130820Y114368D01*
X130897Y114302D01*
X130970Y114232D01*
X131041Y114160D01*
X131109Y114085D01*
X131174Y114007D01*
X131236Y113927D01*
X131295Y113845D01*
X131351Y113760D01*
X131403Y113673D01*
X131452Y113585D01*
X131498Y113494D01*
X131539Y113402D01*
X131578Y113308D01*
X131612Y113213D01*
X131643Y113117D01*
X131670Y113019D01*
X131694Y112921D01*
X131713Y112821D01*
X131729Y112721D01*
X131741Y112621D01*
X131749Y112520D01*
X131753Y112419D01*
X131753Y112317D01*
X131749Y112216D01*
X131741Y112115D01*
X131729Y112015D01*
X131713Y111915D01*
X131694Y111815D01*
X131670Y111717D01*
X131643Y111619D01*
X131612Y111523D01*
X131578Y111428D01*
X131539Y111334D01*
X131498Y111242D01*
X131452Y111151D01*
X131403Y111062D01*
X131351Y110976D01*
X131295Y110891D01*
X131236Y110809D01*
X131174Y110729D01*
X131109Y110651D01*
X131041Y110576D01*
X130970Y110504D01*
X130897Y110434D01*
X130820Y110368D01*
X130742Y110304D01*
X130660Y110244D01*
X130577Y110187D01*
X130491Y110133D01*
X130403Y110082D01*
X130314Y110035D01*
X130222Y109991D01*
X130129Y109951D01*
X130035Y109914D01*
X129939Y109882D01*
X129842Y109853D01*
X129744Y109827D01*
X129645Y109806D01*
X129545Y109788D01*
X129445Y109775D01*
X129344Y109765D01*
X129243Y109759D01*
X129142Y109757D01*
X129142Y109758D02*
X126531Y109758D01*
X129664Y109758D02*
X131752Y105581D01*
X135618Y112891D02*
X138228Y114979D01*
X138228Y105581D01*
X135618Y105581D02*
X140839Y105581D01*
X144762Y105581D02*
X147372Y105581D01*
X147473Y105583D01*
X147574Y105589D01*
X147675Y105599D01*
X147775Y105612D01*
X147875Y105630D01*
X147974Y105651D01*
X148072Y105677D01*
X148169Y105706D01*
X148265Y105738D01*
X148359Y105775D01*
X148452Y105815D01*
X148544Y105859D01*
X148633Y105906D01*
X148721Y105957D01*
X148807Y106011D01*
X148890Y106068D01*
X148972Y106128D01*
X149050Y106192D01*
X149127Y106258D01*
X149200Y106328D01*
X149271Y106400D01*
X149339Y106475D01*
X149404Y106553D01*
X149466Y106633D01*
X149525Y106715D01*
X149581Y106800D01*
X149633Y106886D01*
X149682Y106975D01*
X149728Y107066D01*
X149769Y107158D01*
X149808Y107252D01*
X149842Y107347D01*
X149873Y107443D01*
X149900Y107541D01*
X149924Y107639D01*
X149943Y107739D01*
X149959Y107839D01*
X149971Y107939D01*
X149979Y108040D01*
X149983Y108141D01*
X149983Y108243D01*
X149979Y108344D01*
X149971Y108445D01*
X149959Y108545D01*
X149943Y108645D01*
X149924Y108745D01*
X149900Y108843D01*
X149873Y108941D01*
X149842Y109037D01*
X149808Y109132D01*
X149769Y109226D01*
X149728Y109318D01*
X149682Y109409D01*
X149633Y109497D01*
X149581Y109584D01*
X149525Y109669D01*
X149466Y109751D01*
X149404Y109831D01*
X149339Y109909D01*
X149271Y109984D01*
X149200Y110056D01*
X149127Y110126D01*
X149050Y110192D01*
X148972Y110256D01*
X148890Y110316D01*
X148807Y110373D01*
X148721Y110427D01*
X148633Y110478D01*
X148544Y110525D01*
X148452Y110569D01*
X148359Y110609D01*
X148265Y110646D01*
X148169Y110678D01*
X148072Y110707D01*
X147974Y110733D01*
X147875Y110754D01*
X147775Y110772D01*
X147675Y110785D01*
X147574Y110795D01*
X147473Y110801D01*
X147372Y110803D01*
X147895Y114979D02*
X144762Y114979D01*
X147895Y114979D02*
X147985Y114977D01*
X148074Y114971D01*
X148164Y114962D01*
X148253Y114948D01*
X148341Y114931D01*
X148428Y114910D01*
X148515Y114885D01*
X148600Y114856D01*
X148684Y114824D01*
X148766Y114789D01*
X148847Y114749D01*
X148926Y114707D01*
X149003Y114661D01*
X149078Y114611D01*
X149151Y114559D01*
X149222Y114503D01*
X149290Y114445D01*
X149355Y114383D01*
X149418Y114319D01*
X149478Y114252D01*
X149535Y114183D01*
X149589Y114111D01*
X149640Y114037D01*
X149688Y113961D01*
X149732Y113883D01*
X149773Y113803D01*
X149811Y113721D01*
X149845Y113638D01*
X149875Y113553D01*
X149902Y113467D01*
X149925Y113381D01*
X149944Y113293D01*
X149959Y113204D01*
X149971Y113115D01*
X149979Y113026D01*
X149983Y112936D01*
X149983Y112846D01*
X149979Y112756D01*
X149971Y112667D01*
X149959Y112578D01*
X149944Y112489D01*
X149925Y112401D01*
X149902Y112315D01*
X149875Y112229D01*
X149845Y112144D01*
X149811Y112061D01*
X149773Y111979D01*
X149732Y111899D01*
X149688Y111821D01*
X149640Y111745D01*
X149589Y111671D01*
X149535Y111599D01*
X149478Y111530D01*
X149418Y111463D01*
X149355Y111399D01*
X149290Y111337D01*
X149222Y111279D01*
X149151Y111223D01*
X149078Y111171D01*
X149003Y111121D01*
X148926Y111075D01*
X148847Y111033D01*
X148766Y110993D01*
X148684Y110958D01*
X148600Y110926D01*
X148515Y110897D01*
X148428Y110872D01*
X148341Y110851D01*
X148253Y110834D01*
X148164Y110820D01*
X148074Y110811D01*
X147985Y110805D01*
X147895Y110803D01*
X147895Y110802D02*
X145806Y110802D01*
D10*
X164158Y105708D02*
X164158Y117392D01*
X167404Y117392D01*
X167517Y117390D01*
X167630Y117384D01*
X167743Y117374D01*
X167856Y117360D01*
X167968Y117343D01*
X168079Y117321D01*
X168189Y117296D01*
X168299Y117266D01*
X168407Y117233D01*
X168514Y117196D01*
X168620Y117156D01*
X168724Y117111D01*
X168827Y117063D01*
X168928Y117012D01*
X169027Y116957D01*
X169124Y116899D01*
X169219Y116837D01*
X169312Y116772D01*
X169402Y116704D01*
X169490Y116633D01*
X169576Y116558D01*
X169659Y116481D01*
X169739Y116401D01*
X169816Y116318D01*
X169891Y116232D01*
X169962Y116144D01*
X170030Y116054D01*
X170095Y115961D01*
X170157Y115866D01*
X170215Y115769D01*
X170270Y115670D01*
X170321Y115569D01*
X170369Y115466D01*
X170414Y115362D01*
X170454Y115256D01*
X170491Y115149D01*
X170524Y115041D01*
X170554Y114931D01*
X170579Y114821D01*
X170601Y114710D01*
X170618Y114598D01*
X170632Y114485D01*
X170642Y114372D01*
X170648Y114259D01*
X170650Y114146D01*
X170648Y114033D01*
X170642Y113920D01*
X170632Y113807D01*
X170618Y113694D01*
X170601Y113582D01*
X170579Y113471D01*
X170554Y113361D01*
X170524Y113251D01*
X170491Y113143D01*
X170454Y113036D01*
X170414Y112930D01*
X170369Y112826D01*
X170321Y112723D01*
X170270Y112622D01*
X170215Y112523D01*
X170157Y112426D01*
X170095Y112331D01*
X170030Y112238D01*
X169962Y112148D01*
X169891Y112060D01*
X169816Y111974D01*
X169739Y111891D01*
X169659Y111811D01*
X169576Y111734D01*
X169490Y111659D01*
X169402Y111588D01*
X169312Y111520D01*
X169219Y111455D01*
X169124Y111393D01*
X169027Y111335D01*
X168928Y111280D01*
X168827Y111229D01*
X168724Y111181D01*
X168620Y111136D01*
X168514Y111096D01*
X168407Y111059D01*
X168299Y111026D01*
X168189Y110996D01*
X168079Y110971D01*
X167968Y110949D01*
X167856Y110932D01*
X167743Y110918D01*
X167630Y110908D01*
X167517Y110902D01*
X167404Y110900D01*
X167404Y110901D02*
X164158Y110901D01*
X168053Y110901D02*
X170649Y105708D01*
X175514Y114796D02*
X178760Y117392D01*
X178760Y105708D01*
X182005Y105708D02*
X175514Y105708D01*
X186944Y108304D02*
X189541Y117392D01*
X186944Y108304D02*
X193435Y108304D01*
X191488Y110901D02*
X191488Y105708D01*
X201658Y105708D02*
X201658Y117392D01*
X204904Y117392D01*
X205017Y117390D01*
X205130Y117384D01*
X205243Y117374D01*
X205356Y117360D01*
X205468Y117343D01*
X205579Y117321D01*
X205689Y117296D01*
X205799Y117266D01*
X205907Y117233D01*
X206014Y117196D01*
X206120Y117156D01*
X206224Y117111D01*
X206327Y117063D01*
X206428Y117012D01*
X206527Y116957D01*
X206624Y116899D01*
X206719Y116837D01*
X206812Y116772D01*
X206902Y116704D01*
X206990Y116633D01*
X207076Y116558D01*
X207159Y116481D01*
X207239Y116401D01*
X207316Y116318D01*
X207391Y116232D01*
X207462Y116144D01*
X207530Y116054D01*
X207595Y115961D01*
X207657Y115866D01*
X207715Y115769D01*
X207770Y115670D01*
X207821Y115569D01*
X207869Y115466D01*
X207914Y115362D01*
X207954Y115256D01*
X207991Y115149D01*
X208024Y115041D01*
X208054Y114931D01*
X208079Y114821D01*
X208101Y114710D01*
X208118Y114598D01*
X208132Y114485D01*
X208142Y114372D01*
X208148Y114259D01*
X208150Y114146D01*
X208148Y114033D01*
X208142Y113920D01*
X208132Y113807D01*
X208118Y113694D01*
X208101Y113582D01*
X208079Y113471D01*
X208054Y113361D01*
X208024Y113251D01*
X207991Y113143D01*
X207954Y113036D01*
X207914Y112930D01*
X207869Y112826D01*
X207821Y112723D01*
X207770Y112622D01*
X207715Y112523D01*
X207657Y112426D01*
X207595Y112331D01*
X207530Y112238D01*
X207462Y112148D01*
X207391Y112060D01*
X207316Y111974D01*
X207239Y111891D01*
X207159Y111811D01*
X207076Y111734D01*
X206990Y111659D01*
X206902Y111588D01*
X206812Y111520D01*
X206719Y111455D01*
X206624Y111393D01*
X206527Y111335D01*
X206428Y111280D01*
X206327Y111229D01*
X206224Y111181D01*
X206120Y111136D01*
X206014Y111096D01*
X205907Y111059D01*
X205799Y111026D01*
X205689Y110996D01*
X205579Y110971D01*
X205468Y110949D01*
X205356Y110932D01*
X205243Y110918D01*
X205130Y110908D01*
X205017Y110902D01*
X204904Y110900D01*
X204904Y110901D02*
X201658Y110901D01*
X205553Y110901D02*
X208149Y105708D01*
X213014Y114796D02*
X216260Y117392D01*
X216260Y105708D01*
X219505Y105708D02*
X213014Y105708D01*
X224444Y105708D02*
X228339Y105708D01*
X228438Y105710D01*
X228538Y105716D01*
X228637Y105725D01*
X228735Y105738D01*
X228833Y105755D01*
X228931Y105776D01*
X229027Y105801D01*
X229122Y105829D01*
X229216Y105861D01*
X229309Y105896D01*
X229401Y105935D01*
X229491Y105978D01*
X229579Y106023D01*
X229666Y106073D01*
X229750Y106125D01*
X229833Y106181D01*
X229913Y106239D01*
X229991Y106301D01*
X230066Y106366D01*
X230139Y106434D01*
X230209Y106504D01*
X230277Y106577D01*
X230342Y106652D01*
X230404Y106730D01*
X230462Y106810D01*
X230518Y106893D01*
X230570Y106977D01*
X230620Y107064D01*
X230665Y107152D01*
X230708Y107242D01*
X230747Y107334D01*
X230782Y107427D01*
X230814Y107521D01*
X230842Y107616D01*
X230867Y107712D01*
X230888Y107810D01*
X230905Y107908D01*
X230918Y108006D01*
X230927Y108105D01*
X230933Y108205D01*
X230935Y108304D01*
X230935Y109603D01*
X230933Y109702D01*
X230927Y109802D01*
X230918Y109901D01*
X230905Y109999D01*
X230888Y110097D01*
X230867Y110195D01*
X230842Y110291D01*
X230814Y110386D01*
X230782Y110480D01*
X230747Y110573D01*
X230708Y110665D01*
X230665Y110755D01*
X230620Y110843D01*
X230570Y110930D01*
X230518Y111014D01*
X230462Y111097D01*
X230404Y111177D01*
X230342Y111255D01*
X230277Y111330D01*
X230209Y111403D01*
X230139Y111473D01*
X230066Y111541D01*
X229991Y111606D01*
X229913Y111668D01*
X229833Y111726D01*
X229750Y111782D01*
X229666Y111834D01*
X229579Y111884D01*
X229491Y111929D01*
X229401Y111972D01*
X229309Y112011D01*
X229216Y112046D01*
X229122Y112078D01*
X229027Y112106D01*
X228931Y112131D01*
X228833Y112152D01*
X228735Y112169D01*
X228637Y112182D01*
X228538Y112191D01*
X228438Y112197D01*
X228339Y112199D01*
X224444Y112199D01*
X224444Y117392D01*
X230935Y117392D01*
X239158Y117392D02*
X239158Y105708D01*
X239158Y117392D02*
X242404Y117392D01*
X242517Y117390D01*
X242630Y117384D01*
X242743Y117374D01*
X242856Y117360D01*
X242968Y117343D01*
X243079Y117321D01*
X243189Y117296D01*
X243299Y117266D01*
X243407Y117233D01*
X243514Y117196D01*
X243620Y117156D01*
X243724Y117111D01*
X243827Y117063D01*
X243928Y117012D01*
X244027Y116957D01*
X244124Y116899D01*
X244219Y116837D01*
X244312Y116772D01*
X244402Y116704D01*
X244490Y116633D01*
X244576Y116558D01*
X244659Y116481D01*
X244739Y116401D01*
X244816Y116318D01*
X244891Y116232D01*
X244962Y116144D01*
X245030Y116054D01*
X245095Y115961D01*
X245157Y115866D01*
X245215Y115769D01*
X245270Y115670D01*
X245321Y115569D01*
X245369Y115466D01*
X245414Y115362D01*
X245454Y115256D01*
X245491Y115149D01*
X245524Y115041D01*
X245554Y114931D01*
X245579Y114821D01*
X245601Y114710D01*
X245618Y114598D01*
X245632Y114485D01*
X245642Y114372D01*
X245648Y114259D01*
X245650Y114146D01*
X245648Y114033D01*
X245642Y113920D01*
X245632Y113807D01*
X245618Y113694D01*
X245601Y113582D01*
X245579Y113471D01*
X245554Y113361D01*
X245524Y113251D01*
X245491Y113143D01*
X245454Y113036D01*
X245414Y112930D01*
X245369Y112826D01*
X245321Y112723D01*
X245270Y112622D01*
X245215Y112523D01*
X245157Y112426D01*
X245095Y112331D01*
X245030Y112238D01*
X244962Y112148D01*
X244891Y112060D01*
X244816Y111974D01*
X244739Y111891D01*
X244659Y111811D01*
X244576Y111734D01*
X244490Y111659D01*
X244402Y111588D01*
X244312Y111520D01*
X244219Y111455D01*
X244124Y111393D01*
X244027Y111335D01*
X243928Y111280D01*
X243827Y111229D01*
X243724Y111181D01*
X243620Y111136D01*
X243514Y111096D01*
X243407Y111059D01*
X243299Y111026D01*
X243189Y110996D01*
X243079Y110971D01*
X242968Y110949D01*
X242856Y110932D01*
X242743Y110918D01*
X242630Y110908D01*
X242517Y110902D01*
X242404Y110900D01*
X242404Y110901D02*
X239158Y110901D01*
X243053Y110901D02*
X245649Y105708D01*
X250514Y114796D02*
X253760Y117392D01*
X253760Y105708D01*
X257005Y105708D02*
X250514Y105708D01*
X261944Y112199D02*
X265839Y112199D01*
X265938Y112197D01*
X266038Y112191D01*
X266137Y112182D01*
X266235Y112169D01*
X266333Y112152D01*
X266431Y112131D01*
X266527Y112106D01*
X266622Y112078D01*
X266716Y112046D01*
X266809Y112011D01*
X266901Y111972D01*
X266991Y111929D01*
X267079Y111884D01*
X267166Y111834D01*
X267250Y111782D01*
X267333Y111726D01*
X267413Y111668D01*
X267491Y111606D01*
X267566Y111541D01*
X267639Y111473D01*
X267709Y111403D01*
X267777Y111330D01*
X267842Y111255D01*
X267904Y111177D01*
X267962Y111097D01*
X268018Y111014D01*
X268070Y110930D01*
X268120Y110843D01*
X268165Y110755D01*
X268208Y110665D01*
X268247Y110573D01*
X268282Y110480D01*
X268314Y110386D01*
X268342Y110291D01*
X268367Y110195D01*
X268388Y110097D01*
X268405Y109999D01*
X268418Y109901D01*
X268427Y109802D01*
X268433Y109702D01*
X268435Y109603D01*
X268435Y108954D01*
X268436Y108954D02*
X268434Y108841D01*
X268428Y108728D01*
X268418Y108615D01*
X268404Y108502D01*
X268387Y108390D01*
X268365Y108279D01*
X268340Y108169D01*
X268310Y108059D01*
X268277Y107951D01*
X268240Y107844D01*
X268200Y107738D01*
X268155Y107634D01*
X268107Y107531D01*
X268056Y107430D01*
X268001Y107331D01*
X267943Y107234D01*
X267881Y107139D01*
X267816Y107046D01*
X267748Y106956D01*
X267677Y106868D01*
X267602Y106782D01*
X267525Y106699D01*
X267445Y106619D01*
X267362Y106542D01*
X267276Y106467D01*
X267188Y106396D01*
X267098Y106328D01*
X267005Y106263D01*
X266910Y106201D01*
X266813Y106143D01*
X266714Y106088D01*
X266613Y106037D01*
X266510Y105989D01*
X266406Y105944D01*
X266300Y105904D01*
X266193Y105867D01*
X266085Y105834D01*
X265975Y105804D01*
X265865Y105779D01*
X265754Y105757D01*
X265642Y105740D01*
X265529Y105726D01*
X265416Y105716D01*
X265303Y105710D01*
X265190Y105708D01*
X265077Y105710D01*
X264964Y105716D01*
X264851Y105726D01*
X264738Y105740D01*
X264626Y105757D01*
X264515Y105779D01*
X264405Y105804D01*
X264295Y105834D01*
X264187Y105867D01*
X264080Y105904D01*
X263974Y105944D01*
X263870Y105989D01*
X263767Y106037D01*
X263666Y106088D01*
X263567Y106143D01*
X263470Y106201D01*
X263375Y106263D01*
X263282Y106328D01*
X263192Y106396D01*
X263104Y106467D01*
X263018Y106542D01*
X262935Y106619D01*
X262855Y106699D01*
X262778Y106782D01*
X262703Y106868D01*
X262632Y106956D01*
X262564Y107046D01*
X262499Y107139D01*
X262437Y107234D01*
X262379Y107331D01*
X262324Y107430D01*
X262273Y107531D01*
X262225Y107634D01*
X262180Y107738D01*
X262140Y107844D01*
X262103Y107951D01*
X262070Y108059D01*
X262040Y108169D01*
X262015Y108279D01*
X261993Y108390D01*
X261976Y108502D01*
X261962Y108615D01*
X261952Y108728D01*
X261946Y108841D01*
X261944Y108954D01*
X261944Y112199D01*
X261946Y112342D01*
X261952Y112485D01*
X261962Y112628D01*
X261976Y112770D01*
X261993Y112912D01*
X262015Y113054D01*
X262040Y113195D01*
X262070Y113335D01*
X262103Y113474D01*
X262140Y113612D01*
X262181Y113749D01*
X262225Y113885D01*
X262274Y114020D01*
X262326Y114153D01*
X262381Y114285D01*
X262441Y114415D01*
X262504Y114544D01*
X262570Y114671D01*
X262640Y114795D01*
X262713Y114918D01*
X262790Y115039D01*
X262870Y115158D01*
X262953Y115274D01*
X263039Y115389D01*
X263128Y115500D01*
X263221Y115610D01*
X263316Y115716D01*
X263415Y115820D01*
X263516Y115921D01*
X263620Y116020D01*
X263726Y116115D01*
X263836Y116208D01*
X263947Y116297D01*
X264062Y116383D01*
X264178Y116466D01*
X264297Y116546D01*
X264418Y116623D01*
X264540Y116696D01*
X264665Y116766D01*
X264792Y116832D01*
X264921Y116895D01*
X265051Y116955D01*
X265183Y117010D01*
X265316Y117062D01*
X265451Y117111D01*
X265587Y117155D01*
X265724Y117196D01*
X265862Y117233D01*
X266001Y117266D01*
X266141Y117296D01*
X266282Y117321D01*
X266424Y117343D01*
X266566Y117360D01*
X266708Y117374D01*
X266851Y117384D01*
X266994Y117390D01*
X267137Y117392D01*
X464158Y353208D02*
X464158Y364892D01*
X467404Y364892D01*
X467517Y364890D01*
X467630Y364884D01*
X467743Y364874D01*
X467856Y364860D01*
X467968Y364843D01*
X468079Y364821D01*
X468189Y364796D01*
X468299Y364766D01*
X468407Y364733D01*
X468514Y364696D01*
X468620Y364656D01*
X468724Y364611D01*
X468827Y364563D01*
X468928Y364512D01*
X469027Y364457D01*
X469124Y364399D01*
X469219Y364337D01*
X469312Y364272D01*
X469402Y364204D01*
X469490Y364133D01*
X469576Y364058D01*
X469659Y363981D01*
X469739Y363901D01*
X469816Y363818D01*
X469891Y363732D01*
X469962Y363644D01*
X470030Y363554D01*
X470095Y363461D01*
X470157Y363366D01*
X470215Y363269D01*
X470270Y363170D01*
X470321Y363069D01*
X470369Y362966D01*
X470414Y362862D01*
X470454Y362756D01*
X470491Y362649D01*
X470524Y362541D01*
X470554Y362431D01*
X470579Y362321D01*
X470601Y362210D01*
X470618Y362098D01*
X470632Y361985D01*
X470642Y361872D01*
X470648Y361759D01*
X470650Y361646D01*
X470648Y361533D01*
X470642Y361420D01*
X470632Y361307D01*
X470618Y361194D01*
X470601Y361082D01*
X470579Y360971D01*
X470554Y360861D01*
X470524Y360751D01*
X470491Y360643D01*
X470454Y360536D01*
X470414Y360430D01*
X470369Y360326D01*
X470321Y360223D01*
X470270Y360122D01*
X470215Y360023D01*
X470157Y359926D01*
X470095Y359831D01*
X470030Y359738D01*
X469962Y359648D01*
X469891Y359560D01*
X469816Y359474D01*
X469739Y359391D01*
X469659Y359311D01*
X469576Y359234D01*
X469490Y359159D01*
X469402Y359088D01*
X469312Y359020D01*
X469219Y358955D01*
X469124Y358893D01*
X469027Y358835D01*
X468928Y358780D01*
X468827Y358729D01*
X468724Y358681D01*
X468620Y358636D01*
X468514Y358596D01*
X468407Y358559D01*
X468299Y358526D01*
X468189Y358496D01*
X468079Y358471D01*
X467968Y358449D01*
X467856Y358432D01*
X467743Y358418D01*
X467630Y358408D01*
X467517Y358402D01*
X467404Y358400D01*
X467404Y358401D02*
X464158Y358401D01*
X468053Y358401D02*
X470649Y353208D01*
X475514Y362296D02*
X478760Y364892D01*
X478760Y353208D01*
X482005Y353208D02*
X475514Y353208D01*
X486944Y363594D02*
X486944Y364892D01*
X493435Y364892D01*
X490190Y353208D01*
X471658Y247392D02*
X471658Y235708D01*
X471658Y247392D02*
X474904Y247392D01*
X475017Y247390D01*
X475130Y247384D01*
X475243Y247374D01*
X475356Y247360D01*
X475468Y247343D01*
X475579Y247321D01*
X475689Y247296D01*
X475799Y247266D01*
X475907Y247233D01*
X476014Y247196D01*
X476120Y247156D01*
X476224Y247111D01*
X476327Y247063D01*
X476428Y247012D01*
X476527Y246957D01*
X476624Y246899D01*
X476719Y246837D01*
X476812Y246772D01*
X476902Y246704D01*
X476990Y246633D01*
X477076Y246558D01*
X477159Y246481D01*
X477239Y246401D01*
X477316Y246318D01*
X477391Y246232D01*
X477462Y246144D01*
X477530Y246054D01*
X477595Y245961D01*
X477657Y245866D01*
X477715Y245769D01*
X477770Y245670D01*
X477821Y245569D01*
X477869Y245466D01*
X477914Y245362D01*
X477954Y245256D01*
X477991Y245149D01*
X478024Y245041D01*
X478054Y244931D01*
X478079Y244821D01*
X478101Y244710D01*
X478118Y244598D01*
X478132Y244485D01*
X478142Y244372D01*
X478148Y244259D01*
X478150Y244146D01*
X478148Y244033D01*
X478142Y243920D01*
X478132Y243807D01*
X478118Y243694D01*
X478101Y243582D01*
X478079Y243471D01*
X478054Y243361D01*
X478024Y243251D01*
X477991Y243143D01*
X477954Y243036D01*
X477914Y242930D01*
X477869Y242826D01*
X477821Y242723D01*
X477770Y242622D01*
X477715Y242523D01*
X477657Y242426D01*
X477595Y242331D01*
X477530Y242238D01*
X477462Y242148D01*
X477391Y242060D01*
X477316Y241974D01*
X477239Y241891D01*
X477159Y241811D01*
X477076Y241734D01*
X476990Y241659D01*
X476902Y241588D01*
X476812Y241520D01*
X476719Y241455D01*
X476624Y241393D01*
X476527Y241335D01*
X476428Y241280D01*
X476327Y241229D01*
X476224Y241181D01*
X476120Y241136D01*
X476014Y241096D01*
X475907Y241059D01*
X475799Y241026D01*
X475689Y240996D01*
X475579Y240971D01*
X475468Y240949D01*
X475356Y240932D01*
X475243Y240918D01*
X475130Y240908D01*
X475017Y240902D01*
X474904Y240900D01*
X474904Y240901D02*
X471658Y240901D01*
X475553Y240901D02*
X478149Y235708D01*
X483014Y242199D02*
X486909Y242199D01*
X487008Y242197D01*
X487108Y242191D01*
X487207Y242182D01*
X487305Y242169D01*
X487403Y242152D01*
X487501Y242131D01*
X487597Y242106D01*
X487692Y242078D01*
X487786Y242046D01*
X487879Y242011D01*
X487971Y241972D01*
X488061Y241929D01*
X488149Y241884D01*
X488236Y241834D01*
X488320Y241782D01*
X488403Y241726D01*
X488483Y241668D01*
X488561Y241606D01*
X488636Y241541D01*
X488709Y241473D01*
X488779Y241403D01*
X488847Y241330D01*
X488912Y241255D01*
X488974Y241177D01*
X489032Y241097D01*
X489088Y241014D01*
X489140Y240930D01*
X489190Y240843D01*
X489235Y240755D01*
X489278Y240665D01*
X489317Y240573D01*
X489352Y240480D01*
X489384Y240386D01*
X489412Y240291D01*
X489437Y240195D01*
X489458Y240097D01*
X489475Y239999D01*
X489488Y239901D01*
X489497Y239802D01*
X489503Y239702D01*
X489505Y239603D01*
X489505Y238954D01*
X489506Y238954D02*
X489504Y238841D01*
X489498Y238728D01*
X489488Y238615D01*
X489474Y238502D01*
X489457Y238390D01*
X489435Y238279D01*
X489410Y238169D01*
X489380Y238059D01*
X489347Y237951D01*
X489310Y237844D01*
X489270Y237738D01*
X489225Y237634D01*
X489177Y237531D01*
X489126Y237430D01*
X489071Y237331D01*
X489013Y237234D01*
X488951Y237139D01*
X488886Y237046D01*
X488818Y236956D01*
X488747Y236868D01*
X488672Y236782D01*
X488595Y236699D01*
X488515Y236619D01*
X488432Y236542D01*
X488346Y236467D01*
X488258Y236396D01*
X488168Y236328D01*
X488075Y236263D01*
X487980Y236201D01*
X487883Y236143D01*
X487784Y236088D01*
X487683Y236037D01*
X487580Y235989D01*
X487476Y235944D01*
X487370Y235904D01*
X487263Y235867D01*
X487155Y235834D01*
X487045Y235804D01*
X486935Y235779D01*
X486824Y235757D01*
X486712Y235740D01*
X486599Y235726D01*
X486486Y235716D01*
X486373Y235710D01*
X486260Y235708D01*
X486147Y235710D01*
X486034Y235716D01*
X485921Y235726D01*
X485808Y235740D01*
X485696Y235757D01*
X485585Y235779D01*
X485475Y235804D01*
X485365Y235834D01*
X485257Y235867D01*
X485150Y235904D01*
X485044Y235944D01*
X484940Y235989D01*
X484837Y236037D01*
X484736Y236088D01*
X484637Y236143D01*
X484540Y236201D01*
X484445Y236263D01*
X484352Y236328D01*
X484262Y236396D01*
X484174Y236467D01*
X484088Y236542D01*
X484005Y236619D01*
X483925Y236699D01*
X483848Y236782D01*
X483773Y236868D01*
X483702Y236956D01*
X483634Y237046D01*
X483569Y237139D01*
X483507Y237234D01*
X483449Y237331D01*
X483394Y237430D01*
X483343Y237531D01*
X483295Y237634D01*
X483250Y237738D01*
X483210Y237844D01*
X483173Y237951D01*
X483140Y238059D01*
X483110Y238169D01*
X483085Y238279D01*
X483063Y238390D01*
X483046Y238502D01*
X483032Y238615D01*
X483022Y238728D01*
X483016Y238841D01*
X483014Y238954D01*
X483014Y242199D01*
X483016Y242342D01*
X483022Y242485D01*
X483032Y242628D01*
X483046Y242770D01*
X483063Y242912D01*
X483085Y243054D01*
X483110Y243195D01*
X483140Y243335D01*
X483173Y243474D01*
X483210Y243612D01*
X483251Y243749D01*
X483295Y243885D01*
X483344Y244020D01*
X483396Y244153D01*
X483451Y244285D01*
X483511Y244415D01*
X483574Y244544D01*
X483640Y244671D01*
X483710Y244795D01*
X483783Y244918D01*
X483860Y245039D01*
X483940Y245158D01*
X484023Y245274D01*
X484109Y245389D01*
X484198Y245500D01*
X484291Y245610D01*
X484386Y245716D01*
X484485Y245820D01*
X484586Y245921D01*
X484690Y246020D01*
X484796Y246115D01*
X484906Y246208D01*
X485017Y246297D01*
X485132Y246383D01*
X485248Y246466D01*
X485367Y246546D01*
X485488Y246623D01*
X485610Y246696D01*
X485735Y246766D01*
X485862Y246832D01*
X485991Y246895D01*
X486121Y246955D01*
X486253Y247010D01*
X486386Y247062D01*
X486521Y247111D01*
X486657Y247155D01*
X486794Y247196D01*
X486932Y247233D01*
X487071Y247266D01*
X487211Y247296D01*
X487352Y247321D01*
X487494Y247343D01*
X487636Y247360D01*
X487778Y247374D01*
X487921Y247384D01*
X488064Y247390D01*
X488207Y247392D01*
X319158Y142392D02*
X319158Y130708D01*
X319158Y142392D02*
X322404Y142392D01*
X322517Y142390D01*
X322630Y142384D01*
X322743Y142374D01*
X322856Y142360D01*
X322968Y142343D01*
X323079Y142321D01*
X323189Y142296D01*
X323299Y142266D01*
X323407Y142233D01*
X323514Y142196D01*
X323620Y142156D01*
X323724Y142111D01*
X323827Y142063D01*
X323928Y142012D01*
X324027Y141957D01*
X324124Y141899D01*
X324219Y141837D01*
X324312Y141772D01*
X324402Y141704D01*
X324490Y141633D01*
X324576Y141558D01*
X324659Y141481D01*
X324739Y141401D01*
X324816Y141318D01*
X324891Y141232D01*
X324962Y141144D01*
X325030Y141054D01*
X325095Y140961D01*
X325157Y140866D01*
X325215Y140769D01*
X325270Y140670D01*
X325321Y140569D01*
X325369Y140466D01*
X325414Y140362D01*
X325454Y140256D01*
X325491Y140149D01*
X325524Y140041D01*
X325554Y139931D01*
X325579Y139821D01*
X325601Y139710D01*
X325618Y139598D01*
X325632Y139485D01*
X325642Y139372D01*
X325648Y139259D01*
X325650Y139146D01*
X325648Y139033D01*
X325642Y138920D01*
X325632Y138807D01*
X325618Y138694D01*
X325601Y138582D01*
X325579Y138471D01*
X325554Y138361D01*
X325524Y138251D01*
X325491Y138143D01*
X325454Y138036D01*
X325414Y137930D01*
X325369Y137826D01*
X325321Y137723D01*
X325270Y137622D01*
X325215Y137523D01*
X325157Y137426D01*
X325095Y137331D01*
X325030Y137238D01*
X324962Y137148D01*
X324891Y137060D01*
X324816Y136974D01*
X324739Y136891D01*
X324659Y136811D01*
X324576Y136734D01*
X324490Y136659D01*
X324402Y136588D01*
X324312Y136520D01*
X324219Y136455D01*
X324124Y136393D01*
X324027Y136335D01*
X323928Y136280D01*
X323827Y136229D01*
X323724Y136181D01*
X323620Y136136D01*
X323514Y136096D01*
X323407Y136059D01*
X323299Y136026D01*
X323189Y135996D01*
X323079Y135971D01*
X322968Y135949D01*
X322856Y135932D01*
X322743Y135918D01*
X322630Y135908D01*
X322517Y135902D01*
X322404Y135900D01*
X322404Y135901D02*
X319158Y135901D01*
X323053Y135901D02*
X325649Y130708D01*
X330514Y139796D02*
X333760Y142392D01*
X333760Y130708D01*
X337005Y130708D02*
X330514Y130708D01*
X341944Y133954D02*
X341946Y134067D01*
X341952Y134180D01*
X341962Y134293D01*
X341976Y134406D01*
X341993Y134518D01*
X342015Y134629D01*
X342040Y134739D01*
X342070Y134849D01*
X342103Y134957D01*
X342140Y135064D01*
X342180Y135170D01*
X342225Y135274D01*
X342273Y135377D01*
X342324Y135478D01*
X342379Y135577D01*
X342437Y135674D01*
X342499Y135769D01*
X342564Y135862D01*
X342632Y135952D01*
X342703Y136040D01*
X342778Y136126D01*
X342855Y136209D01*
X342935Y136289D01*
X343018Y136366D01*
X343104Y136441D01*
X343192Y136512D01*
X343282Y136580D01*
X343375Y136645D01*
X343470Y136707D01*
X343567Y136765D01*
X343666Y136820D01*
X343767Y136871D01*
X343870Y136919D01*
X343974Y136964D01*
X344080Y137004D01*
X344187Y137041D01*
X344295Y137074D01*
X344405Y137104D01*
X344515Y137129D01*
X344626Y137151D01*
X344738Y137168D01*
X344851Y137182D01*
X344964Y137192D01*
X345077Y137198D01*
X345190Y137200D01*
X345303Y137198D01*
X345416Y137192D01*
X345529Y137182D01*
X345642Y137168D01*
X345754Y137151D01*
X345865Y137129D01*
X345975Y137104D01*
X346085Y137074D01*
X346193Y137041D01*
X346300Y137004D01*
X346406Y136964D01*
X346510Y136919D01*
X346613Y136871D01*
X346714Y136820D01*
X346813Y136765D01*
X346910Y136707D01*
X347005Y136645D01*
X347098Y136580D01*
X347188Y136512D01*
X347276Y136441D01*
X347362Y136366D01*
X347445Y136289D01*
X347525Y136209D01*
X347602Y136126D01*
X347677Y136040D01*
X347748Y135952D01*
X347816Y135862D01*
X347881Y135769D01*
X347943Y135674D01*
X348001Y135577D01*
X348056Y135478D01*
X348107Y135377D01*
X348155Y135274D01*
X348200Y135170D01*
X348240Y135064D01*
X348277Y134957D01*
X348310Y134849D01*
X348340Y134739D01*
X348365Y134629D01*
X348387Y134518D01*
X348404Y134406D01*
X348418Y134293D01*
X348428Y134180D01*
X348434Y134067D01*
X348436Y133954D01*
X348434Y133841D01*
X348428Y133728D01*
X348418Y133615D01*
X348404Y133502D01*
X348387Y133390D01*
X348365Y133279D01*
X348340Y133169D01*
X348310Y133059D01*
X348277Y132951D01*
X348240Y132844D01*
X348200Y132738D01*
X348155Y132634D01*
X348107Y132531D01*
X348056Y132430D01*
X348001Y132331D01*
X347943Y132234D01*
X347881Y132139D01*
X347816Y132046D01*
X347748Y131956D01*
X347677Y131868D01*
X347602Y131782D01*
X347525Y131699D01*
X347445Y131619D01*
X347362Y131542D01*
X347276Y131467D01*
X347188Y131396D01*
X347098Y131328D01*
X347005Y131263D01*
X346910Y131201D01*
X346813Y131143D01*
X346714Y131088D01*
X346613Y131037D01*
X346510Y130989D01*
X346406Y130944D01*
X346300Y130904D01*
X346193Y130867D01*
X346085Y130834D01*
X345975Y130804D01*
X345865Y130779D01*
X345754Y130757D01*
X345642Y130740D01*
X345529Y130726D01*
X345416Y130716D01*
X345303Y130710D01*
X345190Y130708D01*
X345077Y130710D01*
X344964Y130716D01*
X344851Y130726D01*
X344738Y130740D01*
X344626Y130757D01*
X344515Y130779D01*
X344405Y130804D01*
X344295Y130834D01*
X344187Y130867D01*
X344080Y130904D01*
X343974Y130944D01*
X343870Y130989D01*
X343767Y131037D01*
X343666Y131088D01*
X343567Y131143D01*
X343470Y131201D01*
X343375Y131263D01*
X343282Y131328D01*
X343192Y131396D01*
X343104Y131467D01*
X343018Y131542D01*
X342935Y131619D01*
X342855Y131699D01*
X342778Y131782D01*
X342703Y131868D01*
X342632Y131956D01*
X342564Y132046D01*
X342499Y132139D01*
X342437Y132234D01*
X342379Y132331D01*
X342324Y132430D01*
X342273Y132531D01*
X342225Y132634D01*
X342180Y132738D01*
X342140Y132844D01*
X342103Y132951D01*
X342070Y133059D01*
X342040Y133169D01*
X342015Y133279D01*
X341993Y133390D01*
X341976Y133502D01*
X341962Y133615D01*
X341952Y133728D01*
X341946Y133841D01*
X341944Y133954D01*
X342594Y139796D02*
X342596Y139897D01*
X342602Y139997D01*
X342612Y140097D01*
X342625Y140197D01*
X342643Y140296D01*
X342664Y140395D01*
X342689Y140492D01*
X342718Y140589D01*
X342751Y140684D01*
X342787Y140778D01*
X342827Y140870D01*
X342870Y140961D01*
X342917Y141050D01*
X342967Y141137D01*
X343021Y141223D01*
X343078Y141306D01*
X343138Y141386D01*
X343201Y141465D01*
X343268Y141541D01*
X343337Y141614D01*
X343409Y141684D01*
X343483Y141752D01*
X343560Y141817D01*
X343640Y141878D01*
X343722Y141937D01*
X343806Y141992D01*
X343892Y142044D01*
X343980Y142093D01*
X344070Y142138D01*
X344162Y142180D01*
X344255Y142218D01*
X344350Y142252D01*
X344445Y142283D01*
X344542Y142310D01*
X344640Y142333D01*
X344739Y142353D01*
X344839Y142368D01*
X344939Y142380D01*
X345039Y142388D01*
X345140Y142392D01*
X345240Y142392D01*
X345341Y142388D01*
X345441Y142380D01*
X345541Y142368D01*
X345641Y142353D01*
X345740Y142333D01*
X345838Y142310D01*
X345935Y142283D01*
X346030Y142252D01*
X346125Y142218D01*
X346218Y142180D01*
X346310Y142138D01*
X346400Y142093D01*
X346488Y142044D01*
X346574Y141992D01*
X346658Y141937D01*
X346740Y141878D01*
X346820Y141817D01*
X346897Y141752D01*
X346971Y141684D01*
X347043Y141614D01*
X347112Y141541D01*
X347179Y141465D01*
X347242Y141386D01*
X347302Y141306D01*
X347359Y141223D01*
X347413Y141137D01*
X347463Y141050D01*
X347510Y140961D01*
X347553Y140870D01*
X347593Y140778D01*
X347629Y140684D01*
X347662Y140589D01*
X347691Y140492D01*
X347716Y140395D01*
X347737Y140296D01*
X347755Y140197D01*
X347768Y140097D01*
X347778Y139997D01*
X347784Y139897D01*
X347786Y139796D01*
X347784Y139695D01*
X347778Y139595D01*
X347768Y139495D01*
X347755Y139395D01*
X347737Y139296D01*
X347716Y139197D01*
X347691Y139100D01*
X347662Y139003D01*
X347629Y138908D01*
X347593Y138814D01*
X347553Y138722D01*
X347510Y138631D01*
X347463Y138542D01*
X347413Y138455D01*
X347359Y138369D01*
X347302Y138286D01*
X347242Y138206D01*
X347179Y138127D01*
X347112Y138051D01*
X347043Y137978D01*
X346971Y137908D01*
X346897Y137840D01*
X346820Y137775D01*
X346740Y137714D01*
X346658Y137655D01*
X346574Y137600D01*
X346488Y137548D01*
X346400Y137499D01*
X346310Y137454D01*
X346218Y137412D01*
X346125Y137374D01*
X346030Y137340D01*
X345935Y137309D01*
X345838Y137282D01*
X345740Y137259D01*
X345641Y137239D01*
X345541Y137224D01*
X345441Y137212D01*
X345341Y137204D01*
X345240Y137200D01*
X345140Y137200D01*
X345039Y137204D01*
X344939Y137212D01*
X344839Y137224D01*
X344739Y137239D01*
X344640Y137259D01*
X344542Y137282D01*
X344445Y137309D01*
X344350Y137340D01*
X344255Y137374D01*
X344162Y137412D01*
X344070Y137454D01*
X343980Y137499D01*
X343892Y137548D01*
X343806Y137600D01*
X343722Y137655D01*
X343640Y137714D01*
X343560Y137775D01*
X343483Y137840D01*
X343409Y137908D01*
X343337Y137978D01*
X343268Y138051D01*
X343201Y138127D01*
X343138Y138206D01*
X343078Y138286D01*
X343021Y138369D01*
X342967Y138455D01*
X342917Y138542D01*
X342870Y138631D01*
X342827Y138722D01*
X342787Y138814D01*
X342751Y138908D01*
X342718Y139003D01*
X342689Y139100D01*
X342664Y139197D01*
X342643Y139296D01*
X342625Y139395D01*
X342612Y139495D01*
X342602Y139595D01*
X342596Y139695D01*
X342594Y139796D01*
D12*
X433350Y233250D02*
X62500Y233250D01*
X433350Y233250D02*
X433350Y205550D01*
X47250Y205550D01*
X47250Y220000D01*
D10*
X57192Y241658D02*
X57192Y253342D01*
X55894Y241658D02*
X58490Y241658D01*
X58490Y253342D02*
X55894Y253342D01*
X65654Y241658D02*
X68250Y241658D01*
X65654Y241658D02*
X65555Y241660D01*
X65455Y241666D01*
X65356Y241675D01*
X65258Y241688D01*
X65160Y241705D01*
X65062Y241726D01*
X64966Y241751D01*
X64871Y241779D01*
X64777Y241811D01*
X64684Y241846D01*
X64592Y241885D01*
X64502Y241928D01*
X64414Y241973D01*
X64327Y242023D01*
X64243Y242075D01*
X64160Y242131D01*
X64080Y242189D01*
X64002Y242251D01*
X63927Y242316D01*
X63854Y242384D01*
X63784Y242454D01*
X63716Y242527D01*
X63651Y242602D01*
X63589Y242680D01*
X63531Y242760D01*
X63475Y242843D01*
X63423Y242927D01*
X63373Y243014D01*
X63328Y243102D01*
X63285Y243192D01*
X63246Y243284D01*
X63211Y243377D01*
X63179Y243471D01*
X63151Y243566D01*
X63126Y243662D01*
X63105Y243760D01*
X63088Y243858D01*
X63075Y243956D01*
X63066Y244055D01*
X63060Y244155D01*
X63058Y244254D01*
X63057Y244254D02*
X63057Y250746D01*
X63058Y250746D02*
X63060Y250845D01*
X63066Y250945D01*
X63075Y251044D01*
X63088Y251142D01*
X63105Y251240D01*
X63126Y251338D01*
X63151Y251434D01*
X63179Y251529D01*
X63211Y251623D01*
X63246Y251716D01*
X63285Y251808D01*
X63328Y251898D01*
X63373Y251986D01*
X63423Y252073D01*
X63475Y252157D01*
X63531Y252240D01*
X63589Y252320D01*
X63651Y252398D01*
X63716Y252473D01*
X63784Y252546D01*
X63854Y252616D01*
X63927Y252684D01*
X64002Y252749D01*
X64080Y252811D01*
X64160Y252869D01*
X64243Y252925D01*
X64327Y252977D01*
X64414Y253027D01*
X64502Y253072D01*
X64592Y253115D01*
X64684Y253154D01*
X64776Y253189D01*
X64871Y253221D01*
X64966Y253249D01*
X65062Y253274D01*
X65160Y253295D01*
X65258Y253312D01*
X65356Y253325D01*
X65455Y253334D01*
X65555Y253340D01*
X65654Y253342D01*
X68250Y253342D01*
X76185Y253342D02*
X76292Y253340D01*
X76398Y253334D01*
X76504Y253324D01*
X76610Y253311D01*
X76716Y253293D01*
X76820Y253272D01*
X76924Y253247D01*
X77027Y253218D01*
X77128Y253186D01*
X77228Y253149D01*
X77327Y253109D01*
X77425Y253066D01*
X77521Y253019D01*
X77615Y252968D01*
X77707Y252914D01*
X77797Y252857D01*
X77885Y252797D01*
X77970Y252733D01*
X78053Y252666D01*
X78134Y252596D01*
X78212Y252524D01*
X78288Y252448D01*
X78360Y252370D01*
X78430Y252289D01*
X78497Y252206D01*
X78561Y252121D01*
X78621Y252033D01*
X78678Y251943D01*
X78732Y251851D01*
X78783Y251757D01*
X78830Y251661D01*
X78873Y251563D01*
X78913Y251464D01*
X78950Y251364D01*
X78982Y251263D01*
X79011Y251160D01*
X79036Y251056D01*
X79057Y250952D01*
X79075Y250846D01*
X79088Y250740D01*
X79098Y250634D01*
X79104Y250528D01*
X79106Y250421D01*
X76185Y253342D02*
X76064Y253340D01*
X75943Y253334D01*
X75823Y253324D01*
X75702Y253311D01*
X75583Y253293D01*
X75463Y253272D01*
X75345Y253247D01*
X75228Y253218D01*
X75111Y253185D01*
X74996Y253149D01*
X74882Y253108D01*
X74769Y253065D01*
X74657Y253017D01*
X74548Y252966D01*
X74440Y252911D01*
X74333Y252853D01*
X74229Y252792D01*
X74127Y252727D01*
X74027Y252659D01*
X73929Y252588D01*
X73833Y252514D01*
X73740Y252437D01*
X73650Y252356D01*
X73562Y252273D01*
X73477Y252187D01*
X73394Y252098D01*
X73315Y252007D01*
X73238Y251913D01*
X73165Y251817D01*
X73095Y251719D01*
X73028Y251618D01*
X72964Y251515D01*
X72904Y251410D01*
X72847Y251303D01*
X72793Y251195D01*
X72743Y251085D01*
X72697Y250973D01*
X72654Y250860D01*
X72615Y250745D01*
X78133Y248149D02*
X78212Y248226D01*
X78288Y248307D01*
X78361Y248390D01*
X78431Y248475D01*
X78498Y248563D01*
X78562Y248653D01*
X78622Y248745D01*
X78679Y248840D01*
X78733Y248936D01*
X78784Y249034D01*
X78831Y249134D01*
X78875Y249236D01*
X78915Y249339D01*
X78951Y249443D01*
X78983Y249549D01*
X79012Y249655D01*
X79037Y249763D01*
X79059Y249871D01*
X79076Y249981D01*
X79090Y250090D01*
X79099Y250200D01*
X79105Y250311D01*
X79107Y250421D01*
X78133Y248149D02*
X72615Y241658D01*
X79106Y241658D01*
D12*
X582000Y294600D02*
X588000Y294600D01*
X588000Y265400D01*
X582000Y265400D01*
X582000Y294600D01*
X578500Y294750D02*
X566500Y294750D01*
D10*
X610849Y307404D02*
X610849Y315842D01*
X610849Y307404D02*
X610851Y307291D01*
X610857Y307178D01*
X610867Y307065D01*
X610881Y306952D01*
X610898Y306840D01*
X610920Y306729D01*
X610945Y306619D01*
X610975Y306509D01*
X611008Y306401D01*
X611045Y306294D01*
X611085Y306188D01*
X611130Y306084D01*
X611178Y305981D01*
X611229Y305880D01*
X611284Y305781D01*
X611342Y305684D01*
X611404Y305589D01*
X611469Y305496D01*
X611537Y305406D01*
X611608Y305318D01*
X611683Y305232D01*
X611760Y305149D01*
X611840Y305069D01*
X611923Y304992D01*
X612009Y304917D01*
X612097Y304846D01*
X612187Y304778D01*
X612280Y304713D01*
X612375Y304651D01*
X612472Y304593D01*
X612571Y304538D01*
X612672Y304487D01*
X612775Y304439D01*
X612879Y304394D01*
X612985Y304354D01*
X613092Y304317D01*
X613200Y304284D01*
X613310Y304254D01*
X613420Y304229D01*
X613531Y304207D01*
X613643Y304190D01*
X613756Y304176D01*
X613869Y304166D01*
X613982Y304160D01*
X614095Y304158D01*
X614208Y304160D01*
X614321Y304166D01*
X614434Y304176D01*
X614547Y304190D01*
X614659Y304207D01*
X614770Y304229D01*
X614880Y304254D01*
X614990Y304284D01*
X615098Y304317D01*
X615205Y304354D01*
X615311Y304394D01*
X615415Y304439D01*
X615518Y304487D01*
X615619Y304538D01*
X615718Y304593D01*
X615815Y304651D01*
X615910Y304713D01*
X616003Y304778D01*
X616093Y304846D01*
X616181Y304917D01*
X616267Y304992D01*
X616350Y305069D01*
X616430Y305149D01*
X616507Y305232D01*
X616582Y305318D01*
X616653Y305406D01*
X616721Y305496D01*
X616786Y305589D01*
X616848Y305684D01*
X616906Y305781D01*
X616961Y305880D01*
X617012Y305981D01*
X617060Y306084D01*
X617105Y306188D01*
X617145Y306294D01*
X617182Y306401D01*
X617215Y306509D01*
X617245Y306619D01*
X617270Y306729D01*
X617292Y306840D01*
X617309Y306952D01*
X617323Y307065D01*
X617333Y307178D01*
X617339Y307291D01*
X617341Y307404D01*
X617340Y307404D02*
X617340Y315842D01*
X626230Y315842D02*
X626337Y315840D01*
X626443Y315834D01*
X626549Y315824D01*
X626655Y315811D01*
X626761Y315793D01*
X626865Y315772D01*
X626969Y315747D01*
X627072Y315718D01*
X627173Y315686D01*
X627273Y315649D01*
X627372Y315609D01*
X627470Y315566D01*
X627566Y315519D01*
X627660Y315468D01*
X627752Y315414D01*
X627842Y315357D01*
X627930Y315297D01*
X628015Y315233D01*
X628098Y315166D01*
X628179Y315096D01*
X628257Y315024D01*
X628333Y314948D01*
X628405Y314870D01*
X628475Y314789D01*
X628542Y314706D01*
X628606Y314621D01*
X628666Y314533D01*
X628723Y314443D01*
X628777Y314351D01*
X628828Y314257D01*
X628875Y314161D01*
X628918Y314063D01*
X628958Y313964D01*
X628995Y313864D01*
X629027Y313763D01*
X629056Y313660D01*
X629081Y313556D01*
X629102Y313452D01*
X629120Y313346D01*
X629133Y313240D01*
X629143Y313134D01*
X629149Y313028D01*
X629151Y312921D01*
X626230Y315842D02*
X626109Y315840D01*
X625988Y315834D01*
X625868Y315824D01*
X625747Y315811D01*
X625628Y315793D01*
X625508Y315772D01*
X625390Y315747D01*
X625273Y315718D01*
X625156Y315685D01*
X625041Y315649D01*
X624927Y315608D01*
X624814Y315565D01*
X624702Y315517D01*
X624593Y315466D01*
X624485Y315411D01*
X624378Y315353D01*
X624274Y315292D01*
X624172Y315227D01*
X624072Y315159D01*
X623974Y315088D01*
X623878Y315014D01*
X623785Y314937D01*
X623695Y314856D01*
X623607Y314773D01*
X623522Y314687D01*
X623439Y314598D01*
X623360Y314507D01*
X623283Y314413D01*
X623210Y314317D01*
X623140Y314219D01*
X623073Y314118D01*
X623009Y314015D01*
X622949Y313910D01*
X622892Y313803D01*
X622838Y313695D01*
X622788Y313585D01*
X622742Y313473D01*
X622699Y313360D01*
X622660Y313245D01*
X628178Y310649D02*
X628257Y310726D01*
X628333Y310807D01*
X628406Y310890D01*
X628476Y310975D01*
X628543Y311063D01*
X628607Y311153D01*
X628667Y311245D01*
X628724Y311340D01*
X628778Y311436D01*
X628829Y311534D01*
X628876Y311634D01*
X628920Y311736D01*
X628960Y311839D01*
X628996Y311943D01*
X629028Y312049D01*
X629057Y312155D01*
X629082Y312263D01*
X629104Y312371D01*
X629121Y312481D01*
X629135Y312590D01*
X629144Y312700D01*
X629150Y312811D01*
X629152Y312921D01*
X628177Y310649D02*
X622660Y304158D01*
X629151Y304158D01*
X557204Y208742D02*
X557204Y197058D01*
X553958Y208742D02*
X560449Y208742D01*
X568196Y208742D02*
X568303Y208740D01*
X568409Y208734D01*
X568515Y208724D01*
X568621Y208711D01*
X568727Y208693D01*
X568831Y208672D01*
X568935Y208647D01*
X569038Y208618D01*
X569139Y208586D01*
X569239Y208549D01*
X569338Y208509D01*
X569436Y208466D01*
X569532Y208419D01*
X569626Y208368D01*
X569718Y208314D01*
X569808Y208257D01*
X569896Y208197D01*
X569981Y208133D01*
X570064Y208066D01*
X570145Y207996D01*
X570223Y207924D01*
X570299Y207848D01*
X570371Y207770D01*
X570441Y207689D01*
X570508Y207606D01*
X570572Y207521D01*
X570632Y207433D01*
X570689Y207343D01*
X570743Y207251D01*
X570794Y207157D01*
X570841Y207061D01*
X570884Y206963D01*
X570924Y206864D01*
X570961Y206764D01*
X570993Y206663D01*
X571022Y206560D01*
X571047Y206456D01*
X571068Y206352D01*
X571086Y206246D01*
X571099Y206140D01*
X571109Y206034D01*
X571115Y205928D01*
X571117Y205821D01*
X568196Y208742D02*
X568075Y208740D01*
X567954Y208734D01*
X567834Y208724D01*
X567713Y208711D01*
X567594Y208693D01*
X567474Y208672D01*
X567356Y208647D01*
X567239Y208618D01*
X567122Y208585D01*
X567007Y208549D01*
X566893Y208508D01*
X566780Y208465D01*
X566668Y208417D01*
X566559Y208366D01*
X566451Y208311D01*
X566344Y208253D01*
X566240Y208192D01*
X566138Y208127D01*
X566038Y208059D01*
X565940Y207988D01*
X565844Y207914D01*
X565751Y207837D01*
X565661Y207756D01*
X565573Y207673D01*
X565488Y207587D01*
X565405Y207498D01*
X565326Y207407D01*
X565249Y207313D01*
X565176Y207217D01*
X565106Y207119D01*
X565039Y207018D01*
X564975Y206915D01*
X564915Y206810D01*
X564858Y206703D01*
X564804Y206595D01*
X564754Y206485D01*
X564708Y206373D01*
X564665Y206260D01*
X564626Y206145D01*
X570144Y203549D02*
X570223Y203626D01*
X570299Y203707D01*
X570372Y203790D01*
X570442Y203875D01*
X570509Y203963D01*
X570573Y204053D01*
X570633Y204145D01*
X570690Y204240D01*
X570744Y204336D01*
X570795Y204434D01*
X570842Y204534D01*
X570886Y204636D01*
X570926Y204739D01*
X570962Y204843D01*
X570994Y204949D01*
X571023Y205055D01*
X571048Y205163D01*
X571070Y205271D01*
X571087Y205381D01*
X571101Y205490D01*
X571110Y205600D01*
X571116Y205711D01*
X571118Y205821D01*
X570143Y203549D02*
X564626Y197058D01*
X571117Y197058D01*
X458958Y145496D02*
X458958Y140304D01*
X458958Y145496D02*
X458960Y145609D01*
X458966Y145722D01*
X458976Y145835D01*
X458990Y145948D01*
X459007Y146060D01*
X459029Y146171D01*
X459054Y146281D01*
X459084Y146391D01*
X459117Y146499D01*
X459154Y146606D01*
X459194Y146712D01*
X459239Y146816D01*
X459287Y146919D01*
X459338Y147020D01*
X459393Y147119D01*
X459451Y147216D01*
X459513Y147311D01*
X459578Y147404D01*
X459646Y147494D01*
X459717Y147582D01*
X459792Y147668D01*
X459869Y147751D01*
X459949Y147831D01*
X460032Y147908D01*
X460118Y147983D01*
X460206Y148054D01*
X460296Y148122D01*
X460389Y148187D01*
X460484Y148249D01*
X460581Y148307D01*
X460680Y148362D01*
X460781Y148413D01*
X460884Y148461D01*
X460988Y148506D01*
X461094Y148546D01*
X461201Y148583D01*
X461309Y148616D01*
X461419Y148646D01*
X461529Y148671D01*
X461640Y148693D01*
X461752Y148710D01*
X461865Y148724D01*
X461978Y148734D01*
X462091Y148740D01*
X462204Y148742D01*
X462317Y148740D01*
X462430Y148734D01*
X462543Y148724D01*
X462656Y148710D01*
X462768Y148693D01*
X462879Y148671D01*
X462989Y148646D01*
X463099Y148616D01*
X463207Y148583D01*
X463314Y148546D01*
X463420Y148506D01*
X463524Y148461D01*
X463627Y148413D01*
X463728Y148362D01*
X463827Y148307D01*
X463924Y148249D01*
X464019Y148187D01*
X464112Y148122D01*
X464202Y148054D01*
X464290Y147983D01*
X464376Y147908D01*
X464459Y147831D01*
X464539Y147751D01*
X464616Y147668D01*
X464691Y147582D01*
X464762Y147494D01*
X464830Y147404D01*
X464895Y147311D01*
X464957Y147216D01*
X465015Y147119D01*
X465070Y147020D01*
X465121Y146919D01*
X465169Y146816D01*
X465214Y146712D01*
X465254Y146606D01*
X465291Y146499D01*
X465324Y146391D01*
X465354Y146281D01*
X465379Y146171D01*
X465401Y146060D01*
X465418Y145948D01*
X465432Y145835D01*
X465442Y145722D01*
X465448Y145609D01*
X465450Y145496D01*
X465449Y145496D02*
X465449Y140304D01*
X465450Y140304D02*
X465448Y140191D01*
X465442Y140078D01*
X465432Y139965D01*
X465418Y139852D01*
X465401Y139740D01*
X465379Y139629D01*
X465354Y139519D01*
X465324Y139409D01*
X465291Y139301D01*
X465254Y139194D01*
X465214Y139088D01*
X465169Y138984D01*
X465121Y138881D01*
X465070Y138780D01*
X465015Y138681D01*
X464957Y138584D01*
X464895Y138489D01*
X464830Y138396D01*
X464762Y138306D01*
X464691Y138218D01*
X464616Y138132D01*
X464539Y138049D01*
X464459Y137969D01*
X464376Y137892D01*
X464290Y137817D01*
X464202Y137746D01*
X464112Y137678D01*
X464019Y137613D01*
X463924Y137551D01*
X463827Y137493D01*
X463728Y137438D01*
X463627Y137387D01*
X463524Y137339D01*
X463420Y137294D01*
X463314Y137254D01*
X463207Y137217D01*
X463099Y137184D01*
X462989Y137154D01*
X462879Y137129D01*
X462768Y137107D01*
X462656Y137090D01*
X462543Y137076D01*
X462430Y137066D01*
X462317Y137060D01*
X462204Y137058D01*
X462091Y137060D01*
X461978Y137066D01*
X461865Y137076D01*
X461752Y137090D01*
X461640Y137107D01*
X461529Y137129D01*
X461419Y137154D01*
X461309Y137184D01*
X461201Y137217D01*
X461094Y137254D01*
X460988Y137294D01*
X460884Y137339D01*
X460781Y137387D01*
X460680Y137438D01*
X460581Y137493D01*
X460484Y137551D01*
X460389Y137613D01*
X460296Y137678D01*
X460206Y137746D01*
X460118Y137817D01*
X460032Y137892D01*
X459949Y137969D01*
X459869Y138049D01*
X459792Y138132D01*
X459717Y138218D01*
X459646Y138306D01*
X459578Y138396D01*
X459513Y138489D01*
X459451Y138584D01*
X459393Y138681D01*
X459338Y138780D01*
X459287Y138881D01*
X459239Y138984D01*
X459194Y139088D01*
X459154Y139194D01*
X459117Y139301D01*
X459084Y139409D01*
X459054Y139519D01*
X459029Y139629D01*
X459007Y139740D01*
X458990Y139852D01*
X458976Y139965D01*
X458966Y140078D01*
X458960Y140191D01*
X458958Y140304D01*
X464151Y139654D02*
X466747Y137058D01*
X476593Y145821D02*
X476591Y145928D01*
X476585Y146034D01*
X476575Y146140D01*
X476562Y146246D01*
X476544Y146352D01*
X476523Y146456D01*
X476498Y146560D01*
X476469Y146663D01*
X476437Y146764D01*
X476400Y146864D01*
X476360Y146963D01*
X476317Y147061D01*
X476270Y147157D01*
X476219Y147251D01*
X476165Y147343D01*
X476108Y147433D01*
X476048Y147521D01*
X475984Y147606D01*
X475917Y147689D01*
X475847Y147770D01*
X475775Y147848D01*
X475699Y147924D01*
X475621Y147996D01*
X475540Y148066D01*
X475457Y148133D01*
X475372Y148197D01*
X475284Y148257D01*
X475194Y148314D01*
X475102Y148368D01*
X475008Y148419D01*
X474912Y148466D01*
X474814Y148509D01*
X474715Y148549D01*
X474615Y148586D01*
X474514Y148618D01*
X474411Y148647D01*
X474307Y148672D01*
X474203Y148693D01*
X474097Y148711D01*
X473991Y148724D01*
X473885Y148734D01*
X473779Y148740D01*
X473672Y148742D01*
X473551Y148740D01*
X473430Y148734D01*
X473310Y148724D01*
X473189Y148711D01*
X473070Y148693D01*
X472950Y148672D01*
X472832Y148647D01*
X472715Y148618D01*
X472598Y148585D01*
X472483Y148549D01*
X472369Y148508D01*
X472256Y148465D01*
X472144Y148417D01*
X472035Y148366D01*
X471927Y148311D01*
X471820Y148253D01*
X471716Y148192D01*
X471614Y148127D01*
X471514Y148059D01*
X471416Y147988D01*
X471320Y147914D01*
X471227Y147837D01*
X471137Y147756D01*
X471049Y147673D01*
X470964Y147587D01*
X470881Y147498D01*
X470802Y147407D01*
X470725Y147313D01*
X470652Y147217D01*
X470582Y147119D01*
X470515Y147018D01*
X470451Y146915D01*
X470391Y146810D01*
X470334Y146703D01*
X470280Y146595D01*
X470230Y146485D01*
X470184Y146373D01*
X470141Y146260D01*
X470102Y146145D01*
X475619Y143549D02*
X475698Y143626D01*
X475774Y143707D01*
X475847Y143790D01*
X475917Y143875D01*
X475984Y143963D01*
X476048Y144053D01*
X476108Y144145D01*
X476165Y144240D01*
X476219Y144336D01*
X476270Y144434D01*
X476317Y144534D01*
X476361Y144636D01*
X476401Y144739D01*
X476437Y144843D01*
X476469Y144949D01*
X476498Y145055D01*
X476523Y145163D01*
X476545Y145271D01*
X476562Y145381D01*
X476576Y145490D01*
X476585Y145600D01*
X476591Y145711D01*
X476593Y145821D01*
X475619Y143549D02*
X470102Y137058D01*
X476593Y137058D01*
X529158Y142392D02*
X529158Y130708D01*
X529158Y142392D02*
X532404Y142392D01*
X532517Y142390D01*
X532630Y142384D01*
X532743Y142374D01*
X532856Y142360D01*
X532968Y142343D01*
X533079Y142321D01*
X533189Y142296D01*
X533299Y142266D01*
X533407Y142233D01*
X533514Y142196D01*
X533620Y142156D01*
X533724Y142111D01*
X533827Y142063D01*
X533928Y142012D01*
X534027Y141957D01*
X534124Y141899D01*
X534219Y141837D01*
X534312Y141772D01*
X534402Y141704D01*
X534490Y141633D01*
X534576Y141558D01*
X534659Y141481D01*
X534739Y141401D01*
X534816Y141318D01*
X534891Y141232D01*
X534962Y141144D01*
X535030Y141054D01*
X535095Y140961D01*
X535157Y140866D01*
X535215Y140769D01*
X535270Y140670D01*
X535321Y140569D01*
X535369Y140466D01*
X535414Y140362D01*
X535454Y140256D01*
X535491Y140149D01*
X535524Y140041D01*
X535554Y139931D01*
X535579Y139821D01*
X535601Y139710D01*
X535618Y139598D01*
X535632Y139485D01*
X535642Y139372D01*
X535648Y139259D01*
X535650Y139146D01*
X535648Y139033D01*
X535642Y138920D01*
X535632Y138807D01*
X535618Y138694D01*
X535601Y138582D01*
X535579Y138471D01*
X535554Y138361D01*
X535524Y138251D01*
X535491Y138143D01*
X535454Y138036D01*
X535414Y137930D01*
X535369Y137826D01*
X535321Y137723D01*
X535270Y137622D01*
X535215Y137523D01*
X535157Y137426D01*
X535095Y137331D01*
X535030Y137238D01*
X534962Y137148D01*
X534891Y137060D01*
X534816Y136974D01*
X534739Y136891D01*
X534659Y136811D01*
X534576Y136734D01*
X534490Y136659D01*
X534402Y136588D01*
X534312Y136520D01*
X534219Y136455D01*
X534124Y136393D01*
X534027Y136335D01*
X533928Y136280D01*
X533827Y136229D01*
X533724Y136181D01*
X533620Y136136D01*
X533514Y136096D01*
X533407Y136059D01*
X533299Y136026D01*
X533189Y135996D01*
X533079Y135971D01*
X532968Y135949D01*
X532856Y135932D01*
X532743Y135918D01*
X532630Y135908D01*
X532517Y135902D01*
X532404Y135900D01*
X532404Y135901D02*
X529158Y135901D01*
X533053Y135901D02*
X535649Y130708D01*
X547005Y139471D02*
X547003Y139578D01*
X546997Y139684D01*
X546987Y139790D01*
X546974Y139896D01*
X546956Y140002D01*
X546935Y140106D01*
X546910Y140210D01*
X546881Y140313D01*
X546849Y140414D01*
X546812Y140514D01*
X546772Y140613D01*
X546729Y140711D01*
X546682Y140807D01*
X546631Y140901D01*
X546577Y140993D01*
X546520Y141083D01*
X546460Y141171D01*
X546396Y141256D01*
X546329Y141339D01*
X546259Y141420D01*
X546187Y141498D01*
X546111Y141574D01*
X546033Y141646D01*
X545952Y141716D01*
X545869Y141783D01*
X545784Y141847D01*
X545696Y141907D01*
X545606Y141964D01*
X545514Y142018D01*
X545420Y142069D01*
X545324Y142116D01*
X545226Y142159D01*
X545127Y142199D01*
X545027Y142236D01*
X544926Y142268D01*
X544823Y142297D01*
X544719Y142322D01*
X544615Y142343D01*
X544509Y142361D01*
X544403Y142374D01*
X544297Y142384D01*
X544191Y142390D01*
X544084Y142392D01*
X543963Y142390D01*
X543842Y142384D01*
X543722Y142374D01*
X543601Y142361D01*
X543482Y142343D01*
X543362Y142322D01*
X543244Y142297D01*
X543127Y142268D01*
X543010Y142235D01*
X542895Y142199D01*
X542781Y142158D01*
X542668Y142115D01*
X542556Y142067D01*
X542447Y142016D01*
X542339Y141961D01*
X542232Y141903D01*
X542128Y141842D01*
X542026Y141777D01*
X541926Y141709D01*
X541828Y141638D01*
X541732Y141564D01*
X541639Y141487D01*
X541549Y141406D01*
X541461Y141323D01*
X541376Y141237D01*
X541293Y141148D01*
X541214Y141057D01*
X541137Y140963D01*
X541064Y140867D01*
X540994Y140769D01*
X540927Y140668D01*
X540863Y140565D01*
X540803Y140460D01*
X540746Y140353D01*
X540692Y140245D01*
X540642Y140135D01*
X540596Y140023D01*
X540553Y139910D01*
X540514Y139795D01*
X546032Y137199D02*
X546111Y137276D01*
X546187Y137357D01*
X546260Y137440D01*
X546330Y137525D01*
X546397Y137613D01*
X546461Y137703D01*
X546521Y137795D01*
X546578Y137890D01*
X546632Y137986D01*
X546683Y138084D01*
X546730Y138184D01*
X546774Y138286D01*
X546814Y138389D01*
X546850Y138493D01*
X546882Y138599D01*
X546911Y138705D01*
X546936Y138813D01*
X546958Y138921D01*
X546975Y139031D01*
X546989Y139140D01*
X546998Y139250D01*
X547004Y139361D01*
X547006Y139471D01*
X546032Y137199D02*
X540514Y130708D01*
X547005Y130708D01*
X551944Y133304D02*
X554541Y142392D01*
X551944Y133304D02*
X558435Y133304D01*
X556488Y135901D02*
X556488Y130708D01*
X489158Y130708D02*
X489158Y142392D01*
X492404Y142392D01*
X492517Y142390D01*
X492630Y142384D01*
X492743Y142374D01*
X492856Y142360D01*
X492968Y142343D01*
X493079Y142321D01*
X493189Y142296D01*
X493299Y142266D01*
X493407Y142233D01*
X493514Y142196D01*
X493620Y142156D01*
X493724Y142111D01*
X493827Y142063D01*
X493928Y142012D01*
X494027Y141957D01*
X494124Y141899D01*
X494219Y141837D01*
X494312Y141772D01*
X494402Y141704D01*
X494490Y141633D01*
X494576Y141558D01*
X494659Y141481D01*
X494739Y141401D01*
X494816Y141318D01*
X494891Y141232D01*
X494962Y141144D01*
X495030Y141054D01*
X495095Y140961D01*
X495157Y140866D01*
X495215Y140769D01*
X495270Y140670D01*
X495321Y140569D01*
X495369Y140466D01*
X495414Y140362D01*
X495454Y140256D01*
X495491Y140149D01*
X495524Y140041D01*
X495554Y139931D01*
X495579Y139821D01*
X495601Y139710D01*
X495618Y139598D01*
X495632Y139485D01*
X495642Y139372D01*
X495648Y139259D01*
X495650Y139146D01*
X495648Y139033D01*
X495642Y138920D01*
X495632Y138807D01*
X495618Y138694D01*
X495601Y138582D01*
X495579Y138471D01*
X495554Y138361D01*
X495524Y138251D01*
X495491Y138143D01*
X495454Y138036D01*
X495414Y137930D01*
X495369Y137826D01*
X495321Y137723D01*
X495270Y137622D01*
X495215Y137523D01*
X495157Y137426D01*
X495095Y137331D01*
X495030Y137238D01*
X494962Y137148D01*
X494891Y137060D01*
X494816Y136974D01*
X494739Y136891D01*
X494659Y136811D01*
X494576Y136734D01*
X494490Y136659D01*
X494402Y136588D01*
X494312Y136520D01*
X494219Y136455D01*
X494124Y136393D01*
X494027Y136335D01*
X493928Y136280D01*
X493827Y136229D01*
X493724Y136181D01*
X493620Y136136D01*
X493514Y136096D01*
X493407Y136059D01*
X493299Y136026D01*
X493189Y135996D01*
X493079Y135971D01*
X492968Y135949D01*
X492856Y135932D01*
X492743Y135918D01*
X492630Y135908D01*
X492517Y135902D01*
X492404Y135900D01*
X492404Y135901D02*
X489158Y135901D01*
X493053Y135901D02*
X495649Y130708D01*
X507005Y139471D02*
X507003Y139578D01*
X506997Y139684D01*
X506987Y139790D01*
X506974Y139896D01*
X506956Y140002D01*
X506935Y140106D01*
X506910Y140210D01*
X506881Y140313D01*
X506849Y140414D01*
X506812Y140514D01*
X506772Y140613D01*
X506729Y140711D01*
X506682Y140807D01*
X506631Y140901D01*
X506577Y140993D01*
X506520Y141083D01*
X506460Y141171D01*
X506396Y141256D01*
X506329Y141339D01*
X506259Y141420D01*
X506187Y141498D01*
X506111Y141574D01*
X506033Y141646D01*
X505952Y141716D01*
X505869Y141783D01*
X505784Y141847D01*
X505696Y141907D01*
X505606Y141964D01*
X505514Y142018D01*
X505420Y142069D01*
X505324Y142116D01*
X505226Y142159D01*
X505127Y142199D01*
X505027Y142236D01*
X504926Y142268D01*
X504823Y142297D01*
X504719Y142322D01*
X504615Y142343D01*
X504509Y142361D01*
X504403Y142374D01*
X504297Y142384D01*
X504191Y142390D01*
X504084Y142392D01*
X503963Y142390D01*
X503842Y142384D01*
X503722Y142374D01*
X503601Y142361D01*
X503482Y142343D01*
X503362Y142322D01*
X503244Y142297D01*
X503127Y142268D01*
X503010Y142235D01*
X502895Y142199D01*
X502781Y142158D01*
X502668Y142115D01*
X502556Y142067D01*
X502447Y142016D01*
X502339Y141961D01*
X502232Y141903D01*
X502128Y141842D01*
X502026Y141777D01*
X501926Y141709D01*
X501828Y141638D01*
X501732Y141564D01*
X501639Y141487D01*
X501549Y141406D01*
X501461Y141323D01*
X501376Y141237D01*
X501293Y141148D01*
X501214Y141057D01*
X501137Y140963D01*
X501064Y140867D01*
X500994Y140769D01*
X500927Y140668D01*
X500863Y140565D01*
X500803Y140460D01*
X500746Y140353D01*
X500692Y140245D01*
X500642Y140135D01*
X500596Y140023D01*
X500553Y139910D01*
X500514Y139795D01*
X506032Y137199D02*
X506111Y137276D01*
X506187Y137357D01*
X506260Y137440D01*
X506330Y137525D01*
X506397Y137613D01*
X506461Y137703D01*
X506521Y137795D01*
X506578Y137890D01*
X506632Y137986D01*
X506683Y138084D01*
X506730Y138184D01*
X506774Y138286D01*
X506814Y138389D01*
X506850Y138493D01*
X506882Y138599D01*
X506911Y138705D01*
X506936Y138813D01*
X506958Y138921D01*
X506975Y139031D01*
X506989Y139140D01*
X506998Y139250D01*
X507004Y139361D01*
X507006Y139471D01*
X506032Y137199D02*
X500514Y130708D01*
X507005Y130708D01*
X511944Y130708D02*
X515839Y130708D01*
X515938Y130710D01*
X516038Y130716D01*
X516137Y130725D01*
X516235Y130738D01*
X516333Y130755D01*
X516431Y130776D01*
X516527Y130801D01*
X516622Y130829D01*
X516716Y130861D01*
X516809Y130896D01*
X516901Y130935D01*
X516991Y130978D01*
X517079Y131023D01*
X517166Y131073D01*
X517250Y131125D01*
X517333Y131181D01*
X517413Y131239D01*
X517491Y131301D01*
X517566Y131366D01*
X517639Y131434D01*
X517709Y131504D01*
X517777Y131577D01*
X517842Y131652D01*
X517904Y131730D01*
X517962Y131810D01*
X518018Y131893D01*
X518070Y131977D01*
X518120Y132064D01*
X518165Y132152D01*
X518208Y132242D01*
X518247Y132334D01*
X518282Y132427D01*
X518314Y132521D01*
X518342Y132616D01*
X518367Y132712D01*
X518388Y132810D01*
X518405Y132908D01*
X518418Y133006D01*
X518427Y133105D01*
X518433Y133205D01*
X518435Y133304D01*
X518435Y134603D01*
X518433Y134702D01*
X518427Y134802D01*
X518418Y134901D01*
X518405Y134999D01*
X518388Y135097D01*
X518367Y135195D01*
X518342Y135291D01*
X518314Y135386D01*
X518282Y135480D01*
X518247Y135573D01*
X518208Y135665D01*
X518165Y135755D01*
X518120Y135843D01*
X518070Y135930D01*
X518018Y136014D01*
X517962Y136097D01*
X517904Y136177D01*
X517842Y136255D01*
X517777Y136330D01*
X517709Y136403D01*
X517639Y136473D01*
X517566Y136541D01*
X517491Y136606D01*
X517413Y136668D01*
X517333Y136726D01*
X517250Y136782D01*
X517166Y136834D01*
X517079Y136884D01*
X516991Y136929D01*
X516901Y136972D01*
X516809Y137011D01*
X516716Y137046D01*
X516622Y137078D01*
X516527Y137106D01*
X516431Y137131D01*
X516333Y137152D01*
X516235Y137169D01*
X516137Y137182D01*
X516038Y137191D01*
X515938Y137197D01*
X515839Y137199D01*
X511944Y137199D01*
X511944Y142392D01*
X518435Y142392D01*
X523739Y277608D02*
X526336Y277608D01*
X523739Y277608D02*
X523640Y277610D01*
X523540Y277616D01*
X523441Y277625D01*
X523343Y277638D01*
X523245Y277655D01*
X523147Y277676D01*
X523051Y277701D01*
X522956Y277729D01*
X522862Y277761D01*
X522769Y277796D01*
X522677Y277835D01*
X522587Y277878D01*
X522499Y277923D01*
X522412Y277973D01*
X522328Y278025D01*
X522245Y278081D01*
X522165Y278139D01*
X522087Y278201D01*
X522012Y278266D01*
X521939Y278334D01*
X521869Y278404D01*
X521801Y278477D01*
X521736Y278552D01*
X521674Y278630D01*
X521616Y278710D01*
X521560Y278793D01*
X521508Y278877D01*
X521458Y278964D01*
X521413Y279052D01*
X521370Y279142D01*
X521331Y279234D01*
X521296Y279327D01*
X521264Y279421D01*
X521236Y279516D01*
X521211Y279612D01*
X521190Y279710D01*
X521173Y279808D01*
X521160Y279906D01*
X521151Y280005D01*
X521145Y280105D01*
X521143Y280204D01*
X521143Y286696D01*
X521145Y286795D01*
X521151Y286895D01*
X521160Y286994D01*
X521173Y287092D01*
X521190Y287190D01*
X521211Y287288D01*
X521236Y287384D01*
X521264Y287479D01*
X521296Y287573D01*
X521331Y287666D01*
X521370Y287758D01*
X521413Y287848D01*
X521458Y287936D01*
X521508Y288023D01*
X521560Y288107D01*
X521616Y288190D01*
X521674Y288270D01*
X521736Y288348D01*
X521801Y288423D01*
X521869Y288496D01*
X521939Y288566D01*
X522012Y288634D01*
X522087Y288699D01*
X522165Y288761D01*
X522245Y288819D01*
X522328Y288875D01*
X522412Y288927D01*
X522499Y288977D01*
X522587Y289022D01*
X522677Y289065D01*
X522769Y289104D01*
X522861Y289139D01*
X522956Y289171D01*
X523051Y289199D01*
X523147Y289224D01*
X523245Y289245D01*
X523343Y289262D01*
X523441Y289275D01*
X523540Y289284D01*
X523640Y289290D01*
X523739Y289292D01*
X526336Y289292D01*
X530701Y277608D02*
X533946Y277608D01*
X534059Y277610D01*
X534172Y277616D01*
X534285Y277626D01*
X534398Y277640D01*
X534510Y277657D01*
X534621Y277679D01*
X534731Y277704D01*
X534841Y277734D01*
X534949Y277767D01*
X535056Y277804D01*
X535162Y277844D01*
X535266Y277889D01*
X535369Y277937D01*
X535470Y277988D01*
X535569Y278043D01*
X535666Y278101D01*
X535761Y278163D01*
X535854Y278228D01*
X535944Y278296D01*
X536032Y278367D01*
X536118Y278442D01*
X536201Y278519D01*
X536281Y278599D01*
X536358Y278682D01*
X536433Y278768D01*
X536504Y278856D01*
X536572Y278946D01*
X536637Y279039D01*
X536699Y279134D01*
X536757Y279231D01*
X536812Y279330D01*
X536863Y279431D01*
X536911Y279534D01*
X536956Y279638D01*
X536996Y279744D01*
X537033Y279851D01*
X537066Y279959D01*
X537096Y280069D01*
X537121Y280179D01*
X537143Y280290D01*
X537160Y280402D01*
X537174Y280515D01*
X537184Y280628D01*
X537190Y280741D01*
X537192Y280854D01*
X537190Y280967D01*
X537184Y281080D01*
X537174Y281193D01*
X537160Y281306D01*
X537143Y281418D01*
X537121Y281529D01*
X537096Y281639D01*
X537066Y281749D01*
X537033Y281857D01*
X536996Y281964D01*
X536956Y282070D01*
X536911Y282174D01*
X536863Y282277D01*
X536812Y282378D01*
X536757Y282477D01*
X536699Y282574D01*
X536637Y282669D01*
X536572Y282762D01*
X536504Y282852D01*
X536433Y282940D01*
X536358Y283026D01*
X536281Y283109D01*
X536201Y283189D01*
X536118Y283266D01*
X536032Y283341D01*
X535944Y283412D01*
X535854Y283480D01*
X535761Y283545D01*
X535666Y283607D01*
X535569Y283665D01*
X535470Y283720D01*
X535369Y283771D01*
X535266Y283819D01*
X535162Y283864D01*
X535056Y283904D01*
X534949Y283941D01*
X534841Y283974D01*
X534731Y284004D01*
X534621Y284029D01*
X534510Y284051D01*
X534398Y284068D01*
X534285Y284082D01*
X534172Y284092D01*
X534059Y284098D01*
X533946Y284100D01*
X534596Y289292D02*
X530701Y289292D01*
X534596Y289292D02*
X534697Y289290D01*
X534797Y289284D01*
X534897Y289274D01*
X534997Y289261D01*
X535096Y289243D01*
X535195Y289222D01*
X535292Y289197D01*
X535389Y289168D01*
X535484Y289135D01*
X535578Y289099D01*
X535670Y289059D01*
X535761Y289016D01*
X535850Y288969D01*
X535937Y288919D01*
X536023Y288865D01*
X536106Y288808D01*
X536186Y288748D01*
X536265Y288685D01*
X536341Y288618D01*
X536414Y288549D01*
X536484Y288477D01*
X536552Y288403D01*
X536617Y288326D01*
X536678Y288246D01*
X536737Y288164D01*
X536792Y288080D01*
X536844Y287994D01*
X536893Y287906D01*
X536938Y287816D01*
X536980Y287724D01*
X537018Y287631D01*
X537052Y287536D01*
X537083Y287441D01*
X537110Y287344D01*
X537133Y287246D01*
X537153Y287147D01*
X537168Y287047D01*
X537180Y286947D01*
X537188Y286847D01*
X537192Y286746D01*
X537192Y286646D01*
X537188Y286545D01*
X537180Y286445D01*
X537168Y286345D01*
X537153Y286245D01*
X537133Y286146D01*
X537110Y286048D01*
X537083Y285951D01*
X537052Y285856D01*
X537018Y285761D01*
X536980Y285668D01*
X536938Y285576D01*
X536893Y285486D01*
X536844Y285398D01*
X536792Y285312D01*
X536737Y285228D01*
X536678Y285146D01*
X536617Y285066D01*
X536552Y284989D01*
X536484Y284915D01*
X536414Y284843D01*
X536341Y284774D01*
X536265Y284707D01*
X536186Y284644D01*
X536106Y284584D01*
X536023Y284527D01*
X535937Y284473D01*
X535850Y284423D01*
X535761Y284376D01*
X535670Y284333D01*
X535578Y284293D01*
X535484Y284257D01*
X535389Y284224D01*
X535292Y284195D01*
X535195Y284170D01*
X535096Y284149D01*
X534997Y284131D01*
X534897Y284118D01*
X534797Y284108D01*
X534697Y284102D01*
X534596Y284100D01*
X534596Y284099D02*
X531999Y284099D01*
X637904Y270708D02*
X640501Y270708D01*
X637904Y270708D02*
X637805Y270710D01*
X637705Y270716D01*
X637606Y270725D01*
X637508Y270738D01*
X637410Y270755D01*
X637312Y270776D01*
X637216Y270801D01*
X637121Y270829D01*
X637027Y270861D01*
X636934Y270896D01*
X636842Y270935D01*
X636752Y270978D01*
X636664Y271023D01*
X636577Y271073D01*
X636493Y271125D01*
X636410Y271181D01*
X636330Y271239D01*
X636252Y271301D01*
X636177Y271366D01*
X636104Y271434D01*
X636034Y271504D01*
X635966Y271577D01*
X635901Y271652D01*
X635839Y271730D01*
X635781Y271810D01*
X635725Y271893D01*
X635673Y271977D01*
X635623Y272064D01*
X635578Y272152D01*
X635535Y272242D01*
X635496Y272334D01*
X635461Y272427D01*
X635429Y272521D01*
X635401Y272616D01*
X635376Y272712D01*
X635355Y272810D01*
X635338Y272908D01*
X635325Y273006D01*
X635316Y273105D01*
X635310Y273205D01*
X635308Y273304D01*
X635308Y279796D01*
X635310Y279895D01*
X635316Y279995D01*
X635325Y280094D01*
X635338Y280192D01*
X635355Y280290D01*
X635376Y280388D01*
X635401Y280484D01*
X635429Y280579D01*
X635461Y280673D01*
X635496Y280766D01*
X635535Y280858D01*
X635578Y280948D01*
X635623Y281036D01*
X635673Y281123D01*
X635725Y281207D01*
X635781Y281290D01*
X635839Y281370D01*
X635901Y281448D01*
X635966Y281523D01*
X636034Y281596D01*
X636104Y281666D01*
X636177Y281734D01*
X636252Y281799D01*
X636330Y281861D01*
X636410Y281919D01*
X636493Y281975D01*
X636577Y282027D01*
X636664Y282077D01*
X636752Y282122D01*
X636842Y282165D01*
X636934Y282204D01*
X637026Y282239D01*
X637121Y282271D01*
X637216Y282299D01*
X637312Y282324D01*
X637410Y282345D01*
X637508Y282362D01*
X637606Y282375D01*
X637705Y282384D01*
X637805Y282390D01*
X637904Y282392D01*
X640501Y282392D01*
X647463Y282392D02*
X644866Y273304D01*
X651357Y273304D01*
X649410Y275901D02*
X649410Y270708D01*
D12*
X608000Y342250D02*
X571500Y342250D01*
X571500Y357750D02*
X598500Y357750D01*
D10*
X575849Y369158D02*
X575849Y380842D01*
X579095Y380842D01*
X579208Y380840D01*
X579321Y380834D01*
X579434Y380824D01*
X579547Y380810D01*
X579659Y380793D01*
X579770Y380771D01*
X579880Y380746D01*
X579990Y380716D01*
X580098Y380683D01*
X580205Y380646D01*
X580311Y380606D01*
X580415Y380561D01*
X580518Y380513D01*
X580619Y380462D01*
X580718Y380407D01*
X580815Y380349D01*
X580910Y380287D01*
X581003Y380222D01*
X581093Y380154D01*
X581181Y380083D01*
X581267Y380008D01*
X581350Y379931D01*
X581430Y379851D01*
X581507Y379768D01*
X581582Y379682D01*
X581653Y379594D01*
X581721Y379504D01*
X581786Y379411D01*
X581848Y379316D01*
X581906Y379219D01*
X581961Y379120D01*
X582012Y379019D01*
X582060Y378916D01*
X582105Y378812D01*
X582145Y378706D01*
X582182Y378599D01*
X582215Y378491D01*
X582245Y378381D01*
X582270Y378271D01*
X582292Y378160D01*
X582309Y378048D01*
X582323Y377935D01*
X582333Y377822D01*
X582339Y377709D01*
X582341Y377596D01*
X582340Y377596D02*
X582340Y372404D01*
X582341Y372404D02*
X582339Y372291D01*
X582333Y372178D01*
X582323Y372065D01*
X582309Y371952D01*
X582292Y371840D01*
X582270Y371729D01*
X582245Y371619D01*
X582215Y371509D01*
X582182Y371401D01*
X582145Y371294D01*
X582105Y371188D01*
X582060Y371084D01*
X582012Y370981D01*
X581961Y370880D01*
X581906Y370781D01*
X581848Y370684D01*
X581786Y370589D01*
X581721Y370496D01*
X581653Y370406D01*
X581582Y370318D01*
X581507Y370232D01*
X581430Y370149D01*
X581350Y370069D01*
X581267Y369992D01*
X581181Y369917D01*
X581093Y369846D01*
X581003Y369778D01*
X580910Y369713D01*
X580815Y369651D01*
X580718Y369593D01*
X580619Y369538D01*
X580518Y369487D01*
X580415Y369439D01*
X580311Y369394D01*
X580205Y369354D01*
X580098Y369317D01*
X579990Y369284D01*
X579880Y369254D01*
X579770Y369229D01*
X579659Y369207D01*
X579547Y369190D01*
X579434Y369176D01*
X579321Y369166D01*
X579208Y369160D01*
X579095Y369158D01*
X575849Y369158D01*
X591230Y380842D02*
X591337Y380840D01*
X591443Y380834D01*
X591549Y380824D01*
X591655Y380811D01*
X591761Y380793D01*
X591865Y380772D01*
X591969Y380747D01*
X592072Y380718D01*
X592173Y380686D01*
X592273Y380649D01*
X592372Y380609D01*
X592470Y380566D01*
X592566Y380519D01*
X592660Y380468D01*
X592752Y380414D01*
X592842Y380357D01*
X592930Y380297D01*
X593015Y380233D01*
X593098Y380166D01*
X593179Y380096D01*
X593257Y380024D01*
X593333Y379948D01*
X593405Y379870D01*
X593475Y379789D01*
X593542Y379706D01*
X593606Y379621D01*
X593666Y379533D01*
X593723Y379443D01*
X593777Y379351D01*
X593828Y379257D01*
X593875Y379161D01*
X593918Y379063D01*
X593958Y378964D01*
X593995Y378864D01*
X594027Y378763D01*
X594056Y378660D01*
X594081Y378556D01*
X594102Y378452D01*
X594120Y378346D01*
X594133Y378240D01*
X594143Y378134D01*
X594149Y378028D01*
X594151Y377921D01*
X591230Y380842D02*
X591109Y380840D01*
X590988Y380834D01*
X590868Y380824D01*
X590747Y380811D01*
X590628Y380793D01*
X590508Y380772D01*
X590390Y380747D01*
X590273Y380718D01*
X590156Y380685D01*
X590041Y380649D01*
X589927Y380608D01*
X589814Y380565D01*
X589702Y380517D01*
X589593Y380466D01*
X589485Y380411D01*
X589378Y380353D01*
X589274Y380292D01*
X589172Y380227D01*
X589072Y380159D01*
X588974Y380088D01*
X588878Y380014D01*
X588785Y379937D01*
X588695Y379856D01*
X588607Y379773D01*
X588522Y379687D01*
X588439Y379598D01*
X588360Y379507D01*
X588283Y379413D01*
X588210Y379317D01*
X588140Y379219D01*
X588073Y379118D01*
X588009Y379015D01*
X587949Y378910D01*
X587892Y378803D01*
X587838Y378695D01*
X587788Y378585D01*
X587742Y378473D01*
X587699Y378360D01*
X587660Y378245D01*
X593178Y375649D02*
X593257Y375726D01*
X593333Y375807D01*
X593406Y375890D01*
X593476Y375975D01*
X593543Y376063D01*
X593607Y376153D01*
X593667Y376245D01*
X593724Y376340D01*
X593778Y376436D01*
X593829Y376534D01*
X593876Y376634D01*
X593920Y376736D01*
X593960Y376839D01*
X593996Y376943D01*
X594028Y377049D01*
X594057Y377155D01*
X594082Y377263D01*
X594104Y377371D01*
X594121Y377481D01*
X594135Y377590D01*
X594144Y377700D01*
X594150Y377811D01*
X594152Y377921D01*
X593177Y375649D02*
X587660Y369158D01*
X594151Y369158D01*
X549065Y236292D02*
X549065Y224608D01*
X549065Y236292D02*
X552310Y236292D01*
X552423Y236290D01*
X552536Y236284D01*
X552649Y236274D01*
X552762Y236260D01*
X552874Y236243D01*
X552985Y236221D01*
X553095Y236196D01*
X553205Y236166D01*
X553313Y236133D01*
X553420Y236096D01*
X553526Y236056D01*
X553630Y236011D01*
X553733Y235963D01*
X553834Y235912D01*
X553933Y235857D01*
X554030Y235799D01*
X554125Y235737D01*
X554218Y235672D01*
X554308Y235604D01*
X554396Y235533D01*
X554482Y235458D01*
X554565Y235381D01*
X554645Y235301D01*
X554722Y235218D01*
X554797Y235132D01*
X554868Y235044D01*
X554936Y234954D01*
X555001Y234861D01*
X555063Y234766D01*
X555121Y234669D01*
X555176Y234570D01*
X555227Y234469D01*
X555275Y234366D01*
X555320Y234262D01*
X555360Y234156D01*
X555397Y234049D01*
X555430Y233941D01*
X555460Y233831D01*
X555485Y233721D01*
X555507Y233610D01*
X555524Y233498D01*
X555538Y233385D01*
X555548Y233272D01*
X555554Y233159D01*
X555556Y233046D01*
X555554Y232933D01*
X555548Y232820D01*
X555538Y232707D01*
X555524Y232594D01*
X555507Y232482D01*
X555485Y232371D01*
X555460Y232261D01*
X555430Y232151D01*
X555397Y232043D01*
X555360Y231936D01*
X555320Y231830D01*
X555275Y231726D01*
X555227Y231623D01*
X555176Y231522D01*
X555121Y231423D01*
X555063Y231326D01*
X555001Y231231D01*
X554936Y231138D01*
X554868Y231048D01*
X554797Y230960D01*
X554722Y230874D01*
X554645Y230791D01*
X554565Y230711D01*
X554482Y230634D01*
X554396Y230559D01*
X554308Y230488D01*
X554218Y230420D01*
X554125Y230355D01*
X554030Y230293D01*
X553933Y230235D01*
X553834Y230180D01*
X553733Y230129D01*
X553630Y230081D01*
X553526Y230036D01*
X553420Y229996D01*
X553313Y229959D01*
X553205Y229926D01*
X553095Y229896D01*
X552985Y229871D01*
X552874Y229849D01*
X552762Y229832D01*
X552649Y229818D01*
X552536Y229808D01*
X552423Y229802D01*
X552310Y229800D01*
X552310Y229801D02*
X549065Y229801D01*
X552959Y229801D02*
X555556Y224608D01*
X566912Y233371D02*
X566910Y233478D01*
X566904Y233584D01*
X566894Y233690D01*
X566881Y233796D01*
X566863Y233902D01*
X566842Y234006D01*
X566817Y234110D01*
X566788Y234213D01*
X566756Y234314D01*
X566719Y234414D01*
X566679Y234513D01*
X566636Y234611D01*
X566589Y234707D01*
X566538Y234801D01*
X566484Y234893D01*
X566427Y234983D01*
X566367Y235071D01*
X566303Y235156D01*
X566236Y235239D01*
X566166Y235320D01*
X566094Y235398D01*
X566018Y235474D01*
X565940Y235546D01*
X565859Y235616D01*
X565776Y235683D01*
X565691Y235747D01*
X565603Y235807D01*
X565513Y235864D01*
X565421Y235918D01*
X565327Y235969D01*
X565231Y236016D01*
X565133Y236059D01*
X565034Y236099D01*
X564934Y236136D01*
X564833Y236168D01*
X564730Y236197D01*
X564626Y236222D01*
X564522Y236243D01*
X564416Y236261D01*
X564310Y236274D01*
X564204Y236284D01*
X564098Y236290D01*
X563991Y236292D01*
X563870Y236290D01*
X563749Y236284D01*
X563629Y236274D01*
X563508Y236261D01*
X563389Y236243D01*
X563269Y236222D01*
X563151Y236197D01*
X563034Y236168D01*
X562917Y236135D01*
X562802Y236099D01*
X562688Y236058D01*
X562575Y236015D01*
X562463Y235967D01*
X562354Y235916D01*
X562246Y235861D01*
X562139Y235803D01*
X562035Y235742D01*
X561933Y235677D01*
X561833Y235609D01*
X561735Y235538D01*
X561639Y235464D01*
X561546Y235387D01*
X561456Y235306D01*
X561368Y235223D01*
X561283Y235137D01*
X561200Y235048D01*
X561121Y234957D01*
X561044Y234863D01*
X560971Y234767D01*
X560901Y234669D01*
X560834Y234568D01*
X560770Y234465D01*
X560710Y234360D01*
X560653Y234253D01*
X560599Y234145D01*
X560549Y234035D01*
X560503Y233923D01*
X560460Y233810D01*
X560421Y233695D01*
X565939Y231099D02*
X566018Y231176D01*
X566094Y231257D01*
X566167Y231340D01*
X566237Y231425D01*
X566304Y231513D01*
X566368Y231603D01*
X566428Y231695D01*
X566485Y231790D01*
X566539Y231886D01*
X566590Y231984D01*
X566637Y232084D01*
X566681Y232186D01*
X566721Y232289D01*
X566757Y232393D01*
X566789Y232499D01*
X566818Y232605D01*
X566843Y232713D01*
X566865Y232821D01*
X566882Y232931D01*
X566896Y233040D01*
X566905Y233150D01*
X566911Y233261D01*
X566913Y233371D01*
X565938Y231099D02*
X560421Y224608D01*
X566912Y224608D01*
X571851Y231099D02*
X575746Y231099D01*
X575845Y231097D01*
X575945Y231091D01*
X576044Y231082D01*
X576142Y231069D01*
X576240Y231052D01*
X576338Y231031D01*
X576434Y231006D01*
X576529Y230978D01*
X576623Y230946D01*
X576716Y230911D01*
X576808Y230872D01*
X576898Y230829D01*
X576986Y230784D01*
X577073Y230734D01*
X577157Y230682D01*
X577240Y230626D01*
X577320Y230568D01*
X577398Y230506D01*
X577473Y230441D01*
X577546Y230373D01*
X577616Y230303D01*
X577684Y230230D01*
X577749Y230155D01*
X577811Y230077D01*
X577869Y229997D01*
X577925Y229914D01*
X577977Y229830D01*
X578027Y229743D01*
X578072Y229655D01*
X578115Y229565D01*
X578154Y229473D01*
X578189Y229380D01*
X578221Y229286D01*
X578249Y229191D01*
X578274Y229095D01*
X578295Y228997D01*
X578312Y228899D01*
X578325Y228801D01*
X578334Y228702D01*
X578340Y228602D01*
X578342Y228503D01*
X578342Y227854D01*
X578340Y227741D01*
X578334Y227628D01*
X578324Y227515D01*
X578310Y227402D01*
X578293Y227290D01*
X578271Y227179D01*
X578246Y227069D01*
X578216Y226959D01*
X578183Y226851D01*
X578146Y226744D01*
X578106Y226638D01*
X578061Y226534D01*
X578013Y226431D01*
X577962Y226330D01*
X577907Y226231D01*
X577849Y226134D01*
X577787Y226039D01*
X577722Y225946D01*
X577654Y225856D01*
X577583Y225768D01*
X577508Y225682D01*
X577431Y225599D01*
X577351Y225519D01*
X577268Y225442D01*
X577182Y225367D01*
X577094Y225296D01*
X577004Y225228D01*
X576911Y225163D01*
X576816Y225101D01*
X576719Y225043D01*
X576620Y224988D01*
X576519Y224937D01*
X576416Y224889D01*
X576312Y224844D01*
X576206Y224804D01*
X576099Y224767D01*
X575991Y224734D01*
X575881Y224704D01*
X575771Y224679D01*
X575660Y224657D01*
X575548Y224640D01*
X575435Y224626D01*
X575322Y224616D01*
X575209Y224610D01*
X575096Y224608D01*
X574983Y224610D01*
X574870Y224616D01*
X574757Y224626D01*
X574644Y224640D01*
X574532Y224657D01*
X574421Y224679D01*
X574311Y224704D01*
X574201Y224734D01*
X574093Y224767D01*
X573986Y224804D01*
X573880Y224844D01*
X573776Y224889D01*
X573673Y224937D01*
X573572Y224988D01*
X573473Y225043D01*
X573376Y225101D01*
X573281Y225163D01*
X573188Y225228D01*
X573098Y225296D01*
X573010Y225367D01*
X572924Y225442D01*
X572841Y225519D01*
X572761Y225599D01*
X572684Y225682D01*
X572609Y225768D01*
X572538Y225856D01*
X572470Y225946D01*
X572405Y226039D01*
X572343Y226134D01*
X572285Y226231D01*
X572230Y226330D01*
X572179Y226431D01*
X572131Y226534D01*
X572086Y226638D01*
X572046Y226744D01*
X572009Y226851D01*
X571976Y226959D01*
X571946Y227069D01*
X571921Y227179D01*
X571899Y227290D01*
X571882Y227402D01*
X571868Y227515D01*
X571858Y227628D01*
X571852Y227741D01*
X571850Y227854D01*
X571851Y227854D02*
X571851Y231099D01*
X571853Y231242D01*
X571859Y231385D01*
X571869Y231528D01*
X571883Y231670D01*
X571900Y231812D01*
X571922Y231954D01*
X571947Y232095D01*
X571977Y232235D01*
X572010Y232374D01*
X572047Y232512D01*
X572088Y232649D01*
X572132Y232785D01*
X572181Y232920D01*
X572233Y233053D01*
X572288Y233185D01*
X572348Y233315D01*
X572411Y233444D01*
X572477Y233571D01*
X572547Y233695D01*
X572620Y233818D01*
X572697Y233939D01*
X572777Y234058D01*
X572860Y234174D01*
X572946Y234289D01*
X573035Y234400D01*
X573128Y234510D01*
X573223Y234616D01*
X573322Y234720D01*
X573423Y234821D01*
X573527Y234920D01*
X573633Y235015D01*
X573743Y235108D01*
X573854Y235197D01*
X573969Y235283D01*
X574085Y235366D01*
X574204Y235446D01*
X574325Y235523D01*
X574447Y235596D01*
X574572Y235666D01*
X574699Y235732D01*
X574828Y235795D01*
X574958Y235855D01*
X575090Y235910D01*
X575223Y235962D01*
X575358Y236011D01*
X575494Y236055D01*
X575631Y236096D01*
X575769Y236133D01*
X575908Y236166D01*
X576048Y236196D01*
X576189Y236221D01*
X576331Y236243D01*
X576473Y236260D01*
X576615Y236274D01*
X576758Y236284D01*
X576901Y236290D01*
X577044Y236292D01*
X589565Y236292D02*
X589565Y224608D01*
X589565Y236292D02*
X592810Y236292D01*
X592923Y236290D01*
X593036Y236284D01*
X593149Y236274D01*
X593262Y236260D01*
X593374Y236243D01*
X593485Y236221D01*
X593595Y236196D01*
X593705Y236166D01*
X593813Y236133D01*
X593920Y236096D01*
X594026Y236056D01*
X594130Y236011D01*
X594233Y235963D01*
X594334Y235912D01*
X594433Y235857D01*
X594530Y235799D01*
X594625Y235737D01*
X594718Y235672D01*
X594808Y235604D01*
X594896Y235533D01*
X594982Y235458D01*
X595065Y235381D01*
X595145Y235301D01*
X595222Y235218D01*
X595297Y235132D01*
X595368Y235044D01*
X595436Y234954D01*
X595501Y234861D01*
X595563Y234766D01*
X595621Y234669D01*
X595676Y234570D01*
X595727Y234469D01*
X595775Y234366D01*
X595820Y234262D01*
X595860Y234156D01*
X595897Y234049D01*
X595930Y233941D01*
X595960Y233831D01*
X595985Y233721D01*
X596007Y233610D01*
X596024Y233498D01*
X596038Y233385D01*
X596048Y233272D01*
X596054Y233159D01*
X596056Y233046D01*
X596054Y232933D01*
X596048Y232820D01*
X596038Y232707D01*
X596024Y232594D01*
X596007Y232482D01*
X595985Y232371D01*
X595960Y232261D01*
X595930Y232151D01*
X595897Y232043D01*
X595860Y231936D01*
X595820Y231830D01*
X595775Y231726D01*
X595727Y231623D01*
X595676Y231522D01*
X595621Y231423D01*
X595563Y231326D01*
X595501Y231231D01*
X595436Y231138D01*
X595368Y231048D01*
X595297Y230960D01*
X595222Y230874D01*
X595145Y230791D01*
X595065Y230711D01*
X594982Y230634D01*
X594896Y230559D01*
X594808Y230488D01*
X594718Y230420D01*
X594625Y230355D01*
X594530Y230293D01*
X594433Y230235D01*
X594334Y230180D01*
X594233Y230129D01*
X594130Y230081D01*
X594026Y230036D01*
X593920Y229996D01*
X593813Y229959D01*
X593705Y229926D01*
X593595Y229896D01*
X593485Y229871D01*
X593374Y229849D01*
X593262Y229832D01*
X593149Y229818D01*
X593036Y229808D01*
X592923Y229802D01*
X592810Y229800D01*
X592810Y229801D02*
X589565Y229801D01*
X593459Y229801D02*
X596056Y224608D01*
X607412Y233371D02*
X607410Y233478D01*
X607404Y233584D01*
X607394Y233690D01*
X607381Y233796D01*
X607363Y233902D01*
X607342Y234006D01*
X607317Y234110D01*
X607288Y234213D01*
X607256Y234314D01*
X607219Y234414D01*
X607179Y234513D01*
X607136Y234611D01*
X607089Y234707D01*
X607038Y234801D01*
X606984Y234893D01*
X606927Y234983D01*
X606867Y235071D01*
X606803Y235156D01*
X606736Y235239D01*
X606666Y235320D01*
X606594Y235398D01*
X606518Y235474D01*
X606440Y235546D01*
X606359Y235616D01*
X606276Y235683D01*
X606191Y235747D01*
X606103Y235807D01*
X606013Y235864D01*
X605921Y235918D01*
X605827Y235969D01*
X605731Y236016D01*
X605633Y236059D01*
X605534Y236099D01*
X605434Y236136D01*
X605333Y236168D01*
X605230Y236197D01*
X605126Y236222D01*
X605022Y236243D01*
X604916Y236261D01*
X604810Y236274D01*
X604704Y236284D01*
X604598Y236290D01*
X604491Y236292D01*
X604370Y236290D01*
X604249Y236284D01*
X604129Y236274D01*
X604008Y236261D01*
X603889Y236243D01*
X603769Y236222D01*
X603651Y236197D01*
X603534Y236168D01*
X603417Y236135D01*
X603302Y236099D01*
X603188Y236058D01*
X603075Y236015D01*
X602963Y235967D01*
X602854Y235916D01*
X602746Y235861D01*
X602639Y235803D01*
X602535Y235742D01*
X602433Y235677D01*
X602333Y235609D01*
X602235Y235538D01*
X602139Y235464D01*
X602046Y235387D01*
X601956Y235306D01*
X601868Y235223D01*
X601783Y235137D01*
X601700Y235048D01*
X601621Y234957D01*
X601544Y234863D01*
X601471Y234767D01*
X601401Y234669D01*
X601334Y234568D01*
X601270Y234465D01*
X601210Y234360D01*
X601153Y234253D01*
X601099Y234145D01*
X601049Y234035D01*
X601003Y233923D01*
X600960Y233810D01*
X600921Y233695D01*
X606439Y231099D02*
X606518Y231176D01*
X606594Y231257D01*
X606667Y231340D01*
X606737Y231425D01*
X606804Y231513D01*
X606868Y231603D01*
X606928Y231695D01*
X606985Y231790D01*
X607039Y231886D01*
X607090Y231984D01*
X607137Y232084D01*
X607181Y232186D01*
X607221Y232289D01*
X607257Y232393D01*
X607289Y232499D01*
X607318Y232605D01*
X607343Y232713D01*
X607365Y232821D01*
X607382Y232931D01*
X607396Y233040D01*
X607405Y233150D01*
X607411Y233261D01*
X607413Y233371D01*
X606438Y231099D02*
X600921Y224608D01*
X607412Y224608D01*
X612351Y234994D02*
X612351Y236292D01*
X618842Y236292D01*
X615596Y224608D01*
D12*
X585000Y306000D02*
X585000Y329000D01*
D10*
X544503Y328342D02*
X544503Y316658D01*
X549696Y316658D01*
X560497Y325421D02*
X560495Y325528D01*
X560489Y325634D01*
X560479Y325740D01*
X560466Y325846D01*
X560448Y325952D01*
X560427Y326056D01*
X560402Y326160D01*
X560373Y326263D01*
X560341Y326364D01*
X560304Y326464D01*
X560264Y326563D01*
X560221Y326661D01*
X560174Y326757D01*
X560123Y326851D01*
X560069Y326943D01*
X560012Y327033D01*
X559952Y327121D01*
X559888Y327206D01*
X559821Y327289D01*
X559751Y327370D01*
X559679Y327448D01*
X559603Y327524D01*
X559525Y327596D01*
X559444Y327666D01*
X559361Y327733D01*
X559276Y327797D01*
X559188Y327857D01*
X559098Y327914D01*
X559006Y327968D01*
X558912Y328019D01*
X558816Y328066D01*
X558718Y328109D01*
X558619Y328149D01*
X558519Y328186D01*
X558418Y328218D01*
X558315Y328247D01*
X558211Y328272D01*
X558107Y328293D01*
X558001Y328311D01*
X557895Y328324D01*
X557789Y328334D01*
X557683Y328340D01*
X557576Y328342D01*
X557455Y328340D01*
X557334Y328334D01*
X557214Y328324D01*
X557093Y328311D01*
X556974Y328293D01*
X556854Y328272D01*
X556736Y328247D01*
X556619Y328218D01*
X556502Y328185D01*
X556387Y328149D01*
X556273Y328108D01*
X556160Y328065D01*
X556048Y328017D01*
X555939Y327966D01*
X555831Y327911D01*
X555724Y327853D01*
X555620Y327792D01*
X555518Y327727D01*
X555418Y327659D01*
X555320Y327588D01*
X555224Y327514D01*
X555131Y327437D01*
X555041Y327356D01*
X554953Y327273D01*
X554868Y327187D01*
X554785Y327098D01*
X554706Y327007D01*
X554629Y326913D01*
X554556Y326817D01*
X554486Y326719D01*
X554419Y326618D01*
X554355Y326515D01*
X554295Y326410D01*
X554238Y326303D01*
X554184Y326195D01*
X554134Y326085D01*
X554088Y325973D01*
X554045Y325860D01*
X554006Y325745D01*
X559523Y323149D02*
X559602Y323226D01*
X559678Y323307D01*
X559751Y323390D01*
X559821Y323475D01*
X559888Y323563D01*
X559952Y323653D01*
X560012Y323745D01*
X560069Y323840D01*
X560123Y323936D01*
X560174Y324034D01*
X560221Y324134D01*
X560265Y324236D01*
X560305Y324339D01*
X560341Y324443D01*
X560373Y324549D01*
X560402Y324655D01*
X560427Y324763D01*
X560449Y324871D01*
X560466Y324981D01*
X560480Y325090D01*
X560489Y325200D01*
X560495Y325311D01*
X560497Y325421D01*
X559523Y323149D02*
X554006Y316658D01*
X560497Y316658D01*
D13*
X514000Y319000D03*
X526000Y319000D03*
D14*
X520000Y319000D03*
D10*
X511601Y337608D02*
X511601Y349292D01*
X511601Y337608D02*
X516793Y337608D01*
X521507Y337608D02*
X526699Y337608D01*
X521507Y337608D02*
X521507Y349292D01*
X526699Y349292D01*
X525401Y344099D02*
X521507Y344099D01*
X531390Y349292D02*
X531390Y337608D01*
X531390Y349292D02*
X534635Y349292D01*
X534748Y349290D01*
X534861Y349284D01*
X534974Y349274D01*
X535087Y349260D01*
X535199Y349243D01*
X535310Y349221D01*
X535420Y349196D01*
X535530Y349166D01*
X535638Y349133D01*
X535745Y349096D01*
X535851Y349056D01*
X535955Y349011D01*
X536058Y348963D01*
X536159Y348912D01*
X536258Y348857D01*
X536355Y348799D01*
X536450Y348737D01*
X536543Y348672D01*
X536633Y348604D01*
X536721Y348533D01*
X536807Y348458D01*
X536890Y348381D01*
X536970Y348301D01*
X537047Y348218D01*
X537122Y348132D01*
X537193Y348044D01*
X537261Y347954D01*
X537326Y347861D01*
X537388Y347766D01*
X537446Y347669D01*
X537501Y347570D01*
X537552Y347469D01*
X537600Y347366D01*
X537645Y347262D01*
X537685Y347156D01*
X537722Y347049D01*
X537755Y346941D01*
X537785Y346831D01*
X537810Y346721D01*
X537832Y346610D01*
X537849Y346498D01*
X537863Y346385D01*
X537873Y346272D01*
X537879Y346159D01*
X537881Y346046D01*
X537881Y340854D01*
X537882Y340854D02*
X537880Y340741D01*
X537874Y340628D01*
X537864Y340515D01*
X537850Y340402D01*
X537833Y340290D01*
X537811Y340179D01*
X537786Y340069D01*
X537756Y339959D01*
X537723Y339851D01*
X537686Y339744D01*
X537646Y339638D01*
X537601Y339534D01*
X537553Y339431D01*
X537502Y339330D01*
X537447Y339231D01*
X537389Y339134D01*
X537327Y339039D01*
X537262Y338946D01*
X537194Y338856D01*
X537123Y338768D01*
X537048Y338682D01*
X536971Y338599D01*
X536891Y338519D01*
X536808Y338442D01*
X536722Y338367D01*
X536634Y338296D01*
X536544Y338228D01*
X536451Y338163D01*
X536356Y338101D01*
X536259Y338043D01*
X536160Y337988D01*
X536059Y337937D01*
X535956Y337889D01*
X535852Y337844D01*
X535746Y337804D01*
X535639Y337767D01*
X535531Y337734D01*
X535421Y337704D01*
X535311Y337679D01*
X535200Y337657D01*
X535088Y337640D01*
X534975Y337626D01*
X534862Y337616D01*
X534749Y337610D01*
X534636Y337608D01*
X534635Y337608D02*
X531390Y337608D01*
X543201Y346696D02*
X546446Y349292D01*
X546446Y337608D01*
X543201Y337608D02*
X549692Y337608D01*
X446658Y302392D02*
X446658Y290708D01*
X446658Y302392D02*
X449904Y302392D01*
X450017Y302390D01*
X450130Y302384D01*
X450243Y302374D01*
X450356Y302360D01*
X450468Y302343D01*
X450579Y302321D01*
X450689Y302296D01*
X450799Y302266D01*
X450907Y302233D01*
X451014Y302196D01*
X451120Y302156D01*
X451224Y302111D01*
X451327Y302063D01*
X451428Y302012D01*
X451527Y301957D01*
X451624Y301899D01*
X451719Y301837D01*
X451812Y301772D01*
X451902Y301704D01*
X451990Y301633D01*
X452076Y301558D01*
X452159Y301481D01*
X452239Y301401D01*
X452316Y301318D01*
X452391Y301232D01*
X452462Y301144D01*
X452530Y301054D01*
X452595Y300961D01*
X452657Y300866D01*
X452715Y300769D01*
X452770Y300670D01*
X452821Y300569D01*
X452869Y300466D01*
X452914Y300362D01*
X452954Y300256D01*
X452991Y300149D01*
X453024Y300041D01*
X453054Y299931D01*
X453079Y299821D01*
X453101Y299710D01*
X453118Y299598D01*
X453132Y299485D01*
X453142Y299372D01*
X453148Y299259D01*
X453150Y299146D01*
X453148Y299033D01*
X453142Y298920D01*
X453132Y298807D01*
X453118Y298694D01*
X453101Y298582D01*
X453079Y298471D01*
X453054Y298361D01*
X453024Y298251D01*
X452991Y298143D01*
X452954Y298036D01*
X452914Y297930D01*
X452869Y297826D01*
X452821Y297723D01*
X452770Y297622D01*
X452715Y297523D01*
X452657Y297426D01*
X452595Y297331D01*
X452530Y297238D01*
X452462Y297148D01*
X452391Y297060D01*
X452316Y296974D01*
X452239Y296891D01*
X452159Y296811D01*
X452076Y296734D01*
X451990Y296659D01*
X451902Y296588D01*
X451812Y296520D01*
X451719Y296455D01*
X451624Y296393D01*
X451527Y296335D01*
X451428Y296280D01*
X451327Y296229D01*
X451224Y296181D01*
X451120Y296136D01*
X451014Y296096D01*
X450907Y296059D01*
X450799Y296026D01*
X450689Y295996D01*
X450579Y295971D01*
X450468Y295949D01*
X450356Y295932D01*
X450243Y295918D01*
X450130Y295908D01*
X450017Y295902D01*
X449904Y295900D01*
X449904Y295901D02*
X446658Y295901D01*
X450553Y295901D02*
X453149Y290708D01*
X464505Y299471D02*
X464503Y299578D01*
X464497Y299684D01*
X464487Y299790D01*
X464474Y299896D01*
X464456Y300002D01*
X464435Y300106D01*
X464410Y300210D01*
X464381Y300313D01*
X464349Y300414D01*
X464312Y300514D01*
X464272Y300613D01*
X464229Y300711D01*
X464182Y300807D01*
X464131Y300901D01*
X464077Y300993D01*
X464020Y301083D01*
X463960Y301171D01*
X463896Y301256D01*
X463829Y301339D01*
X463759Y301420D01*
X463687Y301498D01*
X463611Y301574D01*
X463533Y301646D01*
X463452Y301716D01*
X463369Y301783D01*
X463284Y301847D01*
X463196Y301907D01*
X463106Y301964D01*
X463014Y302018D01*
X462920Y302069D01*
X462824Y302116D01*
X462726Y302159D01*
X462627Y302199D01*
X462527Y302236D01*
X462426Y302268D01*
X462323Y302297D01*
X462219Y302322D01*
X462115Y302343D01*
X462009Y302361D01*
X461903Y302374D01*
X461797Y302384D01*
X461691Y302390D01*
X461584Y302392D01*
X461463Y302390D01*
X461342Y302384D01*
X461222Y302374D01*
X461101Y302361D01*
X460982Y302343D01*
X460862Y302322D01*
X460744Y302297D01*
X460627Y302268D01*
X460510Y302235D01*
X460395Y302199D01*
X460281Y302158D01*
X460168Y302115D01*
X460056Y302067D01*
X459947Y302016D01*
X459839Y301961D01*
X459732Y301903D01*
X459628Y301842D01*
X459526Y301777D01*
X459426Y301709D01*
X459328Y301638D01*
X459232Y301564D01*
X459139Y301487D01*
X459049Y301406D01*
X458961Y301323D01*
X458876Y301237D01*
X458793Y301148D01*
X458714Y301057D01*
X458637Y300963D01*
X458564Y300867D01*
X458494Y300769D01*
X458427Y300668D01*
X458363Y300565D01*
X458303Y300460D01*
X458246Y300353D01*
X458192Y300245D01*
X458142Y300135D01*
X458096Y300023D01*
X458053Y299910D01*
X458014Y299795D01*
X463532Y297199D02*
X463611Y297276D01*
X463687Y297357D01*
X463760Y297440D01*
X463830Y297525D01*
X463897Y297613D01*
X463961Y297703D01*
X464021Y297795D01*
X464078Y297890D01*
X464132Y297986D01*
X464183Y298084D01*
X464230Y298184D01*
X464274Y298286D01*
X464314Y298389D01*
X464350Y298493D01*
X464382Y298599D01*
X464411Y298705D01*
X464436Y298813D01*
X464458Y298921D01*
X464475Y299031D01*
X464489Y299140D01*
X464498Y299250D01*
X464504Y299361D01*
X464506Y299471D01*
X463532Y297199D02*
X458014Y290708D01*
X464505Y290708D01*
X469445Y296550D02*
X469448Y296780D01*
X469456Y297010D01*
X469470Y297239D01*
X469489Y297468D01*
X469514Y297697D01*
X469544Y297924D01*
X469579Y298152D01*
X469620Y298378D01*
X469666Y298603D01*
X469718Y298827D01*
X469775Y299049D01*
X469837Y299271D01*
X469905Y299490D01*
X469978Y299708D01*
X470056Y299925D01*
X470139Y300139D01*
X470227Y300351D01*
X470320Y300561D01*
X470419Y300769D01*
X470418Y300769D02*
X470451Y300859D01*
X470487Y300948D01*
X470527Y301036D01*
X470571Y301121D01*
X470618Y301205D01*
X470668Y301287D01*
X470722Y301367D01*
X470778Y301444D01*
X470838Y301520D01*
X470901Y301593D01*
X470966Y301663D01*
X471035Y301731D01*
X471106Y301795D01*
X471179Y301857D01*
X471255Y301916D01*
X471333Y301972D01*
X471414Y302025D01*
X471496Y302074D01*
X471580Y302120D01*
X471667Y302163D01*
X471754Y302202D01*
X471844Y302238D01*
X471934Y302270D01*
X472026Y302298D01*
X472119Y302323D01*
X472213Y302344D01*
X472307Y302361D01*
X472402Y302375D01*
X472498Y302384D01*
X472594Y302390D01*
X472690Y302392D01*
X472786Y302390D01*
X472882Y302384D01*
X472978Y302375D01*
X473073Y302361D01*
X473167Y302344D01*
X473261Y302323D01*
X473354Y302298D01*
X473446Y302270D01*
X473536Y302238D01*
X473626Y302202D01*
X473713Y302163D01*
X473800Y302120D01*
X473884Y302074D01*
X473966Y302025D01*
X474047Y301972D01*
X474125Y301916D01*
X474201Y301857D01*
X474274Y301795D01*
X474345Y301731D01*
X474414Y301663D01*
X474479Y301593D01*
X474542Y301520D01*
X474602Y301444D01*
X474658Y301367D01*
X474712Y301287D01*
X474762Y301205D01*
X474809Y301121D01*
X474853Y301036D01*
X474893Y300948D01*
X474929Y300859D01*
X474962Y300769D01*
X475061Y300562D01*
X475154Y300352D01*
X475242Y300139D01*
X475325Y299925D01*
X475403Y299709D01*
X475476Y299491D01*
X475544Y299271D01*
X475606Y299050D01*
X475663Y298827D01*
X475715Y298603D01*
X475761Y298378D01*
X475802Y298152D01*
X475837Y297925D01*
X475867Y297697D01*
X475892Y297468D01*
X475911Y297239D01*
X475925Y297010D01*
X475933Y296780D01*
X475936Y296550D01*
X469444Y296550D02*
X469447Y296320D01*
X469455Y296090D01*
X469469Y295861D01*
X469488Y295632D01*
X469513Y295403D01*
X469543Y295175D01*
X469578Y294948D01*
X469619Y294722D01*
X469665Y294497D01*
X469717Y294273D01*
X469774Y294050D01*
X469836Y293829D01*
X469904Y293609D01*
X469977Y293391D01*
X470055Y293175D01*
X470138Y292961D01*
X470226Y292749D01*
X470319Y292538D01*
X470418Y292331D01*
X470451Y292241D01*
X470487Y292152D01*
X470528Y292064D01*
X470571Y291979D01*
X470618Y291895D01*
X470668Y291813D01*
X470722Y291733D01*
X470778Y291656D01*
X470838Y291580D01*
X470901Y291507D01*
X470966Y291437D01*
X471035Y291369D01*
X471106Y291305D01*
X471179Y291243D01*
X471255Y291184D01*
X471333Y291128D01*
X471414Y291075D01*
X471496Y291026D01*
X471580Y290980D01*
X471667Y290937D01*
X471754Y290898D01*
X471844Y290862D01*
X471934Y290830D01*
X472026Y290802D01*
X472119Y290777D01*
X472213Y290756D01*
X472307Y290739D01*
X472402Y290725D01*
X472498Y290716D01*
X472594Y290710D01*
X472690Y290708D01*
X474962Y292331D02*
X475061Y292538D01*
X475154Y292749D01*
X475242Y292961D01*
X475325Y293175D01*
X475403Y293391D01*
X475476Y293609D01*
X475544Y293829D01*
X475606Y294050D01*
X475663Y294273D01*
X475715Y294497D01*
X475761Y294722D01*
X475802Y294948D01*
X475837Y295175D01*
X475867Y295403D01*
X475892Y295632D01*
X475911Y295861D01*
X475925Y296090D01*
X475933Y296320D01*
X475936Y296550D01*
X474962Y292331D02*
X474929Y292241D01*
X474893Y292152D01*
X474853Y292064D01*
X474809Y291979D01*
X474762Y291895D01*
X474712Y291813D01*
X474658Y291733D01*
X474602Y291656D01*
X474542Y291580D01*
X474479Y291507D01*
X474414Y291437D01*
X474345Y291369D01*
X474274Y291305D01*
X474201Y291243D01*
X474125Y291184D01*
X474047Y291128D01*
X473966Y291075D01*
X473884Y291026D01*
X473800Y290980D01*
X473713Y290937D01*
X473626Y290898D01*
X473536Y290862D01*
X473446Y290830D01*
X473354Y290802D01*
X473261Y290777D01*
X473167Y290756D01*
X473073Y290739D01*
X472978Y290725D01*
X472882Y290716D01*
X472786Y290710D01*
X472690Y290708D01*
X470093Y293304D02*
X475286Y299796D01*
D15*
X69250Y11400D03*
D16*
X78550Y11400D03*
D17*
X94000Y11400D03*
D18*
X110800Y11400D03*
X120400Y11400D03*
X128800Y11400D03*
D15*
X48550Y11700D03*
D17*
X57100Y11700D03*
X61000Y11700D03*
D15*
X65650Y11700D03*
D19*
X69250Y11700D03*
D20*
X78700Y11700D03*
D17*
X85300Y11700D03*
D21*
X94000Y11700D03*
D22*
X101200Y11700D03*
D23*
X110800Y11700D03*
X120400Y11700D03*
D24*
X128800Y11700D03*
D25*
X139450Y11700D03*
D17*
X146500Y11700D03*
X48700Y12000D03*
D18*
X57100Y12000D03*
D26*
X60850Y12000D03*
D17*
X65500Y12000D03*
D27*
X69250Y12000D03*
D28*
X78700Y12000D03*
D26*
X85150Y12000D03*
D23*
X94000Y12000D03*
D29*
X101200Y12000D03*
D20*
X110800Y12000D03*
X120400Y12000D03*
D30*
X128950Y12000D03*
D29*
X139300Y12000D03*
D26*
X146350Y12000D03*
D17*
X48700Y12300D03*
D26*
X56950Y12300D03*
D17*
X61000Y12300D03*
D15*
X65650Y12300D03*
D31*
X69250Y12300D03*
D32*
X78700Y12300D03*
D26*
X85450Y12300D03*
D23*
X94000Y12300D03*
D29*
X101200Y12300D03*
D28*
X110800Y12300D03*
X120400Y12300D03*
D33*
X129250Y12300D03*
D34*
X139450Y12300D03*
D26*
X146650Y12300D03*
X48850Y12600D03*
X56950Y12600D03*
X61150Y12600D03*
D35*
X68350Y12600D03*
D36*
X78550Y12600D03*
D26*
X85450Y12600D03*
D27*
X93850Y12600D03*
D25*
X101350Y12600D03*
D33*
X110950Y12600D03*
D32*
X120700Y12600D03*
D33*
X129550Y12600D03*
D34*
X139450Y12600D03*
D26*
X146650Y12600D03*
X48850Y12900D03*
X56950Y12900D03*
X61150Y12900D03*
D22*
X68500Y12900D03*
D36*
X78550Y12900D03*
D26*
X85450Y12900D03*
D27*
X93850Y12900D03*
D25*
X101350Y12900D03*
D36*
X110950Y12900D03*
X120550Y12900D03*
D32*
X129700Y12900D03*
D29*
X139600Y12900D03*
D26*
X146650Y12900D03*
D18*
X49000Y13200D03*
D26*
X56950Y13200D03*
X61150Y13200D03*
D25*
X68650Y13200D03*
D16*
X76450Y13200D03*
D37*
X81100Y13200D03*
D26*
X85450Y13200D03*
D24*
X94000Y13200D03*
D25*
X101350Y13200D03*
D38*
X111100Y13200D03*
X120700Y13200D03*
D39*
X127150Y13200D03*
D16*
X131650Y13200D03*
D29*
X139600Y13200D03*
D26*
X146650Y13200D03*
X49150Y13500D03*
X56950Y13500D03*
X61150Y13500D03*
D19*
X66550Y13500D03*
D16*
X71350Y13500D03*
D18*
X76300Y13500D03*
D40*
X81550Y13500D03*
D26*
X85450Y13500D03*
D18*
X93100Y13500D03*
D41*
X95800Y13500D03*
D22*
X101500Y13500D03*
D16*
X108850Y13500D03*
X113350Y13500D03*
X118450Y13500D03*
X122950Y13500D03*
D18*
X132100Y13500D03*
D29*
X139600Y13500D03*
D26*
X146650Y13500D03*
X49450Y13800D03*
D18*
X56800Y13800D03*
D26*
X61450Y13800D03*
D18*
X66400Y13800D03*
X71500Y13800D03*
D26*
X76150Y13800D03*
D17*
X85600Y13800D03*
D26*
X92950Y13800D03*
D16*
X99250Y13800D03*
D18*
X108700Y13800D03*
D26*
X113650Y13800D03*
D18*
X118300Y13800D03*
D26*
X123250Y13800D03*
D18*
X132400Y13800D03*
X137200Y13800D03*
D17*
X146800Y13800D03*
D26*
X49450Y14100D03*
X56650Y14100D03*
X61450Y14100D03*
X66250Y14100D03*
D18*
X71800Y14100D03*
D26*
X76150Y14100D03*
X85750Y14100D03*
X92950Y14100D03*
D16*
X99550Y14100D03*
D26*
X108550Y14100D03*
D18*
X113800Y14100D03*
D26*
X118150Y14100D03*
D18*
X123400Y14100D03*
D26*
X132550Y14100D03*
D18*
X137500Y14100D03*
D26*
X146950Y14100D03*
D42*
X53200Y14400D03*
D26*
X61450Y14400D03*
X66250Y14400D03*
X71950Y14400D03*
D17*
X76000Y14400D03*
D26*
X85750Y14400D03*
X92950Y14400D03*
D21*
X100000Y14400D03*
D26*
X108550Y14400D03*
X113950Y14400D03*
X118150Y14400D03*
X123550Y14400D03*
X132850Y14400D03*
D16*
X137650Y14400D03*
D26*
X146950Y14400D03*
D42*
X53200Y14700D03*
D26*
X61450Y14700D03*
X66250Y14700D03*
X71950Y14700D03*
D17*
X76000Y14700D03*
D26*
X85750Y14700D03*
D17*
X93100Y14700D03*
D21*
X100300Y14700D03*
D26*
X108550Y14700D03*
D18*
X114100Y14700D03*
D26*
X118150Y14700D03*
D18*
X123700Y14700D03*
D26*
X133150Y14700D03*
D16*
X137950Y14700D03*
D26*
X146950Y14700D03*
D43*
X53350Y15000D03*
D26*
X61450Y15000D03*
X66250Y15000D03*
X72250Y15000D03*
D17*
X76000Y15000D03*
D26*
X85750Y15000D03*
D17*
X93100Y15000D03*
D21*
X100600Y15000D03*
D26*
X108550Y15000D03*
X114250Y15000D03*
X118150Y15000D03*
X123850Y15000D03*
X133150Y15000D03*
D16*
X138250Y15000D03*
D26*
X146950Y15000D03*
D43*
X53350Y15300D03*
D17*
X61600Y15300D03*
X66400Y15300D03*
D26*
X72250Y15300D03*
X76150Y15300D03*
D17*
X85900Y15300D03*
D26*
X93250Y15300D03*
D16*
X101050Y15300D03*
D26*
X108550Y15300D03*
X114250Y15300D03*
X118150Y15300D03*
X123850Y15300D03*
D17*
X133300Y15300D03*
D16*
X138550Y15300D03*
D17*
X147100Y15300D03*
D44*
X53500Y15600D03*
D26*
X61750Y15600D03*
X66550Y15600D03*
X72250Y15600D03*
D20*
X77500Y15600D03*
D17*
X85900Y15600D03*
D26*
X93250Y15600D03*
D16*
X101350Y15600D03*
D26*
X108550Y15600D03*
X114550Y15600D03*
X118150Y15600D03*
X124150Y15600D03*
X133450Y15600D03*
D18*
X138700Y15600D03*
D26*
X147250Y15600D03*
D44*
X53500Y15900D03*
D26*
X61750Y15900D03*
X66550Y15900D03*
X72550Y15900D03*
D32*
X78100Y15900D03*
D26*
X86050Y15900D03*
X93250Y15900D03*
D21*
X101800Y15900D03*
D26*
X108550Y15900D03*
X114550Y15900D03*
X118150Y15900D03*
X124150Y15900D03*
D17*
X133600Y15900D03*
D18*
X139000Y15900D03*
D26*
X147250Y15900D03*
X50650Y16200D03*
D18*
X56500Y16200D03*
D26*
X61750Y16200D03*
X66550Y16200D03*
X72550Y16200D03*
D38*
X78400Y16200D03*
D26*
X86050Y16200D03*
D17*
X93400Y16200D03*
D21*
X102100Y16200D03*
D26*
X108550Y16200D03*
X114550Y16200D03*
X118150Y16200D03*
X124150Y16200D03*
X130150Y16200D03*
X133750Y16200D03*
D18*
X139300Y16200D03*
D26*
X147250Y16200D03*
X50950Y16500D03*
X56350Y16500D03*
D17*
X61900Y16500D03*
D26*
X66550Y16500D03*
X72550Y16500D03*
D35*
X78850Y16500D03*
D26*
X86050Y16500D03*
D17*
X93400Y16500D03*
D21*
X102400Y16500D03*
D26*
X108550Y16500D03*
X114850Y16500D03*
X118150Y16500D03*
X124450Y16500D03*
D23*
X130300Y16500D03*
D26*
X133750Y16500D03*
D16*
X139450Y16500D03*
D26*
X147250Y16500D03*
X50950Y16800D03*
X56350Y16800D03*
D17*
X61900Y16800D03*
D26*
X66850Y16800D03*
X72550Y16800D03*
D22*
X79000Y16800D03*
D26*
X86350Y16800D03*
X93550Y16800D03*
D16*
X102850Y16800D03*
D26*
X108550Y16800D03*
X114850Y16800D03*
X118150Y16800D03*
X124450Y16800D03*
D38*
X131500Y16800D03*
D16*
X139750Y16800D03*
D17*
X147400Y16800D03*
D26*
X51250Y17100D03*
X56350Y17100D03*
X62050Y17100D03*
X66850Y17100D03*
X72550Y17100D03*
X76450Y17100D03*
D16*
X81550Y17100D03*
D26*
X86350Y17100D03*
X93550Y17100D03*
D16*
X103150Y17100D03*
D26*
X108850Y17100D03*
X114850Y17100D03*
X118450Y17100D03*
X124450Y17100D03*
D35*
X131350Y17100D03*
D16*
X140050Y17100D03*
D17*
X147400Y17100D03*
D26*
X51250Y17400D03*
X56350Y17400D03*
X62050Y17400D03*
D18*
X67000Y17400D03*
D26*
X72550Y17400D03*
D17*
X76600Y17400D03*
D26*
X81850Y17400D03*
D18*
X86500Y17400D03*
D26*
X93550Y17400D03*
D16*
X103450Y17400D03*
D26*
X108850Y17400D03*
X114850Y17400D03*
X118450Y17400D03*
X124450Y17400D03*
D25*
X131350Y17400D03*
D18*
X140200Y17400D03*
D26*
X147550Y17400D03*
X51550Y17700D03*
X56350Y17700D03*
X62050Y17700D03*
D16*
X67150Y17700D03*
D26*
X72550Y17700D03*
X76750Y17700D03*
X82150Y17700D03*
D16*
X86650Y17700D03*
D17*
X93700Y17700D03*
D16*
X103450Y17700D03*
D26*
X108850Y17700D03*
X114850Y17700D03*
X118450Y17700D03*
X124450Y17700D03*
D25*
X131350Y17700D03*
D18*
X140500Y17700D03*
D26*
X147550Y17700D03*
X51550Y18000D03*
X56350Y18000D03*
D17*
X62200Y18000D03*
D21*
X67300Y18000D03*
D26*
X72550Y18000D03*
D17*
X76900Y18000D03*
D26*
X82150Y18000D03*
D16*
X86650Y18000D03*
D17*
X93700Y18000D03*
D16*
X103750Y18000D03*
D26*
X108850Y18000D03*
X115150Y18000D03*
X118450Y18000D03*
X124750Y18000D03*
D18*
X128800Y18000D03*
D21*
X133600Y18000D03*
D18*
X140800Y18000D03*
D26*
X147550Y18000D03*
X51850Y18300D03*
X56050Y18300D03*
X62350Y18300D03*
D21*
X67600Y18300D03*
D26*
X72550Y18300D03*
X77050Y18300D03*
X82150Y18300D03*
D16*
X86950Y18300D03*
D26*
X93850Y18300D03*
D16*
X104050Y18300D03*
D26*
X108850Y18300D03*
X115150Y18300D03*
X118450Y18300D03*
X124750Y18300D03*
D18*
X128500Y18300D03*
X133900Y18300D03*
X141100Y18300D03*
D17*
X147700Y18300D03*
D26*
X51850Y18600D03*
X56050Y18600D03*
X62350Y18600D03*
D19*
X67750Y18600D03*
D18*
X72400Y18600D03*
D26*
X77350Y18600D03*
X82150Y18600D03*
D19*
X87250Y18600D03*
D26*
X93850Y18600D03*
D16*
X104350Y18600D03*
D26*
X109150Y18600D03*
X115150Y18600D03*
X118750Y18600D03*
X124750Y18600D03*
X128350Y18600D03*
X134050Y18600D03*
D16*
X141250Y18600D03*
D17*
X147700Y18600D03*
D26*
X52150Y18900D03*
X56050Y18900D03*
X62350Y18900D03*
D25*
X69850Y18900D03*
D16*
X77650Y18900D03*
D18*
X82000Y18900D03*
D20*
X88000Y18900D03*
D28*
X94300Y18900D03*
D16*
X104350Y18900D03*
D26*
X109150Y18900D03*
X115150Y18900D03*
X118750Y18900D03*
X124750Y18900D03*
X128350Y18900D03*
D17*
X134200Y18900D03*
D16*
X141550Y18900D03*
D26*
X147850Y18900D03*
X52450Y19200D03*
X56050Y19200D03*
X62350Y19200D03*
D22*
X69700Y19200D03*
D36*
X79750Y19200D03*
D30*
X88150Y19200D03*
D28*
X94300Y19200D03*
D16*
X104650Y19200D03*
D26*
X109150Y19200D03*
X115150Y19200D03*
X118750Y19200D03*
X124750Y19200D03*
X128350Y19200D03*
X134350Y19200D03*
D16*
X141850Y19200D03*
D26*
X147850Y19200D03*
X52450Y19500D03*
X56050Y19500D03*
D17*
X62500Y19500D03*
D22*
X69700Y19500D03*
D32*
X79900Y19500D03*
D17*
X86500Y19500D03*
D16*
X89350Y19500D03*
D33*
X94450Y19500D03*
D16*
X104650Y19500D03*
D26*
X109450Y19500D03*
X115150Y19500D03*
X119050Y19500D03*
X124750Y19500D03*
D17*
X128500Y19500D03*
D26*
X134350Y19500D03*
D18*
X142000Y19500D03*
D26*
X147850Y19500D03*
D17*
X52600Y19800D03*
D26*
X56050Y19800D03*
X62650Y19800D03*
D17*
X67300Y19800D03*
D24*
X70900Y19800D03*
D28*
X79900Y19800D03*
D15*
X86650Y19800D03*
D18*
X89500Y19800D03*
D33*
X94450Y19800D03*
D18*
X104800Y19800D03*
D26*
X109450Y19800D03*
X115150Y19800D03*
X119050Y19800D03*
X124750Y19800D03*
X128650Y19800D03*
X134350Y19800D03*
D18*
X142300Y19800D03*
D17*
X148000Y19800D03*
D26*
X52750Y20100D03*
D17*
X55900Y20100D03*
D26*
X62650Y20100D03*
D17*
X67300Y20100D03*
D23*
X71200Y20100D03*
D31*
X80050Y20100D03*
D15*
X86650Y20100D03*
D26*
X89650Y20100D03*
D28*
X94600Y20100D03*
D16*
X104950Y20100D03*
D26*
X109450Y20100D03*
X115150Y20100D03*
X119050Y20100D03*
X124750Y20100D03*
X128650Y20100D03*
X134350Y20100D03*
D18*
X142600Y20100D03*
D17*
X148000Y20100D03*
D26*
X53050Y20400D03*
X55750Y20400D03*
X62650Y20400D03*
X67450Y20400D03*
D21*
X71200Y20400D03*
D27*
X80050Y20400D03*
D15*
X86650Y20400D03*
D17*
X89800Y20400D03*
D28*
X94600Y20400D03*
D16*
X104950Y20400D03*
D26*
X109750Y20400D03*
X115150Y20400D03*
X119350Y20400D03*
X124750Y20400D03*
X128650Y20400D03*
X134350Y20400D03*
D18*
X142900Y20400D03*
D15*
X148150Y20400D03*
D26*
X53050Y20700D03*
X55750Y20700D03*
X62650Y20700D03*
X67450Y20700D03*
D37*
X71200Y20700D03*
D26*
X80050Y20700D03*
D37*
X90100Y20700D03*
D17*
X94300Y20700D03*
D16*
X104950Y20700D03*
D26*
X109750Y20700D03*
X115150Y20700D03*
X119350Y20700D03*
X124750Y20700D03*
X128950Y20700D03*
X134350Y20700D03*
D16*
X143050Y20700D03*
D31*
X54550Y21000D03*
D17*
X62800Y21000D03*
D26*
X67450Y21000D03*
X94450Y21000D03*
D40*
X99550Y21000D03*
D16*
X104950Y21000D03*
D26*
X110050Y21000D03*
X115150Y21000D03*
X119650Y21000D03*
X124750Y21000D03*
X128950Y21000D03*
X134350Y21000D03*
D16*
X143350Y21000D03*
D24*
X54700Y21300D03*
D17*
X62800Y21300D03*
X67600Y21300D03*
D26*
X94450Y21300D03*
D39*
X99850Y21300D03*
D21*
X104800Y21300D03*
D18*
X110200Y21300D03*
X115000Y21300D03*
X119800Y21300D03*
X124600Y21300D03*
X129100Y21300D03*
D26*
X134350Y21300D03*
D18*
X143500Y21300D03*
D24*
X54700Y21600D03*
D26*
X62950Y21600D03*
D17*
X67600Y21600D03*
D26*
X94450Y21600D03*
D17*
X100300Y21600D03*
D19*
X104650Y21600D03*
D18*
X110500Y21600D03*
D16*
X114850Y21600D03*
D18*
X120100Y21600D03*
D16*
X124450Y21600D03*
D18*
X129400Y21600D03*
D26*
X134050Y21600D03*
D22*
X141400Y21600D03*
D27*
X54850Y21900D03*
D26*
X62950Y21900D03*
X67750Y21900D03*
X94450Y21900D03*
D35*
X102850Y21900D03*
D38*
X112600Y21900D03*
X122200Y21900D03*
D18*
X129700Y21900D03*
X133900Y21900D03*
D29*
X141400Y21900D03*
D15*
X148450Y21900D03*
D23*
X54700Y22200D03*
D26*
X62950Y22200D03*
X67750Y22200D03*
X94450Y22200D03*
D36*
X102850Y22200D03*
X112750Y22200D03*
X122350Y22200D03*
D38*
X131800Y22200D03*
D25*
X141550Y22200D03*
D26*
X148450Y22200D03*
D19*
X54850Y22500D03*
D17*
X63100Y22500D03*
D26*
X67750Y22500D03*
D17*
X94600Y22500D03*
D36*
X102850Y22500D03*
D32*
X112900Y22500D03*
X122500Y22500D03*
X131800Y22500D03*
D25*
X141550Y22500D03*
D18*
X148600Y22500D03*
D19*
X54850Y22800D03*
D17*
X63100Y22800D03*
X67900Y22800D03*
X94600Y22800D03*
D33*
X102850Y22800D03*
D28*
X112900Y22800D03*
X122500Y22800D03*
D33*
X131950Y22800D03*
D25*
X141550Y22800D03*
D18*
X148600Y22800D03*
D21*
X55000Y23100D03*
D26*
X63250Y23100D03*
D17*
X67900Y23100D03*
D28*
X103000Y23100D03*
D20*
X112900Y23100D03*
X122500Y23100D03*
X132100Y23100D03*
D25*
X141550Y23100D03*
D18*
X148600Y23100D03*
X55000Y23400D03*
D26*
X63250Y23400D03*
X68050Y23400D03*
D24*
X103000Y23400D03*
D27*
X113050Y23400D03*
X122650Y23400D03*
D23*
X132100Y23400D03*
D35*
X141550Y23400D03*
D26*
X148750Y23400D03*
X63250Y23700D03*
X68050Y23700D03*
X103150Y23700D03*
X113050Y23700D03*
X122650Y23700D03*
X132250Y23700D03*
X148750Y23700D03*
D17*
X63400Y24000D03*
D26*
X68050Y24000D03*
D37*
X148900Y24000D03*
D17*
X63400Y24300D03*
X68200Y24300D03*
D19*
X46150Y28200D03*
D45*
X47800Y28500D03*
D46*
X49000Y28800D03*
D47*
X49750Y29100D03*
D48*
X50200Y29400D03*
D49*
X50800Y29700D03*
D50*
X51400Y30000D03*
D51*
X52150Y30300D03*
D52*
X52900Y30600D03*
D53*
X53800Y30900D03*
D20*
X145000Y30900D03*
D54*
X54400Y31200D03*
D55*
X145150Y31200D03*
D56*
X55300Y31500D03*
D57*
X144850Y31500D03*
D58*
X56050Y31800D03*
D59*
X144550Y31800D03*
D60*
X56800Y32100D03*
D61*
X144100Y32100D03*
D62*
X49900Y32400D03*
D63*
X73000Y32400D03*
D64*
X143650Y32400D03*
D62*
X49900Y32700D03*
D65*
X74350Y32700D03*
D66*
X143350Y32700D03*
D67*
X50050Y33000D03*
D68*
X75550Y33000D03*
D69*
X142750Y33000D03*
D70*
X41650Y33300D03*
D71*
X57400Y33300D03*
D72*
X77050Y33300D03*
D73*
X141850Y33300D03*
D70*
X41650Y33600D03*
D74*
X57850Y33600D03*
D75*
X78400Y33600D03*
D67*
X140950Y33600D03*
D45*
X41500Y33900D03*
D70*
X58450Y33900D03*
D76*
X79750Y33900D03*
D77*
X140050Y33900D03*
D78*
X41650Y34200D03*
D79*
X58900Y34200D03*
D47*
X81250Y34200D03*
D80*
X131950Y34200D03*
D40*
X146950Y34200D03*
D25*
X151750Y34200D03*
D78*
X41650Y34500D03*
D81*
X59200Y34500D03*
D82*
X82750Y34500D03*
D83*
X130600Y34500D03*
D40*
X146650Y34500D03*
D33*
X152350Y34500D03*
D78*
X41650Y34800D03*
D84*
X59800Y34800D03*
D66*
X84250Y34800D03*
D76*
X129250Y34800D03*
D40*
X146350Y34800D03*
D23*
X153100Y34800D03*
D85*
X41650Y35100D03*
D41*
X53500Y35100D03*
D86*
X60250Y35100D03*
D87*
X85600Y35100D03*
D88*
X127900Y35100D03*
D40*
X146050Y35100D03*
D26*
X153550Y35100D03*
D85*
X41650Y35400D03*
D41*
X53500Y35400D03*
D44*
X60700Y35400D03*
D89*
X87400Y35400D03*
D90*
X126550Y35400D03*
D40*
X145750Y35400D03*
D15*
X153550Y35400D03*
D85*
X41650Y35700D03*
D41*
X53500Y35700D03*
D25*
X61150Y35700D03*
D91*
X89050Y35700D03*
D64*
X125050Y35700D03*
D40*
X145450Y35700D03*
D37*
X153400Y35700D03*
D92*
X41650Y36000D03*
D41*
X53200Y36000D03*
D38*
X61600Y36000D03*
D93*
X105100Y36000D03*
D40*
X145150Y36000D03*
D39*
X153250Y36000D03*
D92*
X41650Y36300D03*
D41*
X53200Y36300D03*
D33*
X62050Y36300D03*
D94*
X104950Y36300D03*
D40*
X144850Y36300D03*
D39*
X152950Y36300D03*
D92*
X41650Y36600D03*
D41*
X53200Y36600D03*
D20*
X62500Y36600D03*
D95*
X104800Y36600D03*
D40*
X144550Y36600D03*
D96*
X152800Y36600D03*
D55*
X41650Y36900D03*
D41*
X52900Y36900D03*
D27*
X62950Y36900D03*
D97*
X104650Y36900D03*
D40*
X144250Y36900D03*
D96*
X152500Y36900D03*
D98*
X41650Y37200D03*
D41*
X52900Y37200D03*
D19*
X63250Y37200D03*
D99*
X104500Y37200D03*
D40*
X143950Y37200D03*
D96*
X152200Y37200D03*
D98*
X41650Y37500D03*
D41*
X52600Y37500D03*
D18*
X63700Y37500D03*
D100*
X104350Y37500D03*
D41*
X143800Y37500D03*
D96*
X151900Y37500D03*
D86*
X41650Y37800D03*
D41*
X52600Y37800D03*
D17*
X64000Y37800D03*
D101*
X104050Y37800D03*
D40*
X143650Y37800D03*
D96*
X151600Y37800D03*
D42*
X41800Y38100D03*
D41*
X52300Y38100D03*
D39*
X64450Y38100D03*
D102*
X103900Y38100D03*
D41*
X143200Y38100D03*
D96*
X151300Y38100D03*
D44*
X41800Y38400D03*
D41*
X52300Y38400D03*
D103*
X103600Y38400D03*
D40*
X143050Y38400D03*
D96*
X151000Y38400D03*
D29*
X41800Y38700D03*
D41*
X52000Y38700D03*
D104*
X103300Y38700D03*
D40*
X142750Y38700D03*
D96*
X150700Y38700D03*
D22*
X41800Y39000D03*
D41*
X52000Y39000D03*
D105*
X102850Y39000D03*
D40*
X142450Y39000D03*
D96*
X150400Y39000D03*
D35*
X41650Y39300D03*
D41*
X51700Y39300D03*
D106*
X102550Y39300D03*
D40*
X142150Y39300D03*
D96*
X150100Y39300D03*
D36*
X41650Y39600D03*
D107*
X102250Y39600D03*
D40*
X141850Y39600D03*
D96*
X149800Y39600D03*
D33*
X41650Y39900D03*
D41*
X51400Y39900D03*
D108*
X101650Y39900D03*
D40*
X141550Y39900D03*
D96*
X149500Y39900D03*
D30*
X41650Y40200D03*
D41*
X51100Y40200D03*
D67*
X101350Y40200D03*
D40*
X141250Y40200D03*
D96*
X149200Y40200D03*
D31*
X41650Y40500D03*
D89*
X100900Y40500D03*
D40*
X140950Y40500D03*
D96*
X148900Y40500D03*
D23*
X41500Y40800D03*
D41*
X50800Y40800D03*
D109*
X100300Y40800D03*
D40*
X140650Y40800D03*
D96*
X148600Y40800D03*
D16*
X41350Y41100D03*
D41*
X50500Y41100D03*
D110*
X100000Y41100D03*
D40*
X140350Y41100D03*
D96*
X148300Y41100D03*
D17*
X41200Y41400D03*
D41*
X50200Y41400D03*
D47*
X100150Y41400D03*
D40*
X140050Y41400D03*
D96*
X148000Y41400D03*
D39*
X41050Y41700D03*
D41*
X49900Y41700D03*
D76*
X100450Y41700D03*
D40*
X139750Y41700D03*
D96*
X147700Y41700D03*
X41200Y42000D03*
D41*
X49600Y42000D03*
D37*
X61300Y42000D03*
D111*
X100750Y42000D03*
D40*
X139450Y42000D03*
D96*
X147400Y42000D03*
D39*
X41650Y42300D03*
D41*
X49300Y42300D03*
D16*
X61150Y42300D03*
D46*
X100900Y42300D03*
D40*
X139150Y42300D03*
D96*
X147100Y42300D03*
D39*
X41950Y42600D03*
D41*
X49000Y42600D03*
D39*
X59650Y42600D03*
D96*
X62500Y42600D03*
D112*
X101200Y42600D03*
D40*
X138850Y42600D03*
D96*
X146800Y42600D03*
D39*
X42250Y42900D03*
D41*
X48700Y42900D03*
D39*
X59050Y42900D03*
D40*
X62950Y42900D03*
D71*
X101500Y42900D03*
D40*
X138550Y42900D03*
D96*
X146500Y42900D03*
X42700Y43200D03*
D41*
X48400Y43200D03*
D39*
X58450Y43200D03*
D96*
X63400Y43200D03*
D63*
X101800Y43200D03*
D37*
X138700Y43200D03*
D96*
X146200Y43200D03*
X43000Y43500D03*
D41*
X48100Y43500D03*
D39*
X57850Y43500D03*
D40*
X63850Y43500D03*
D78*
X101950Y43500D03*
D40*
X137950Y43500D03*
D96*
X139600Y43500D03*
X145900Y43500D03*
D39*
X43450Y43800D03*
D41*
X47500Y43800D03*
D96*
X57400Y43800D03*
D40*
X64150Y43800D03*
D92*
X102250Y43800D03*
D40*
X137650Y43800D03*
D96*
X140200Y43800D03*
X145600Y43800D03*
D39*
X43750Y44100D03*
D41*
X47200Y44100D03*
D96*
X56800Y44100D03*
D40*
X64450Y44100D03*
D98*
X102550Y44100D03*
D40*
X137350Y44100D03*
D96*
X140800Y44100D03*
D40*
X145450Y44100D03*
D96*
X44200Y44400D03*
D41*
X46600Y44400D03*
D96*
X56500Y44400D03*
D40*
X64750Y44400D03*
D43*
X102850Y44400D03*
D40*
X137050Y44400D03*
X141250Y44400D03*
D96*
X145300Y44400D03*
D39*
X44650Y44700D03*
D96*
X46000Y44700D03*
D40*
X56050Y44700D03*
D41*
X64900Y44700D03*
D25*
X103150Y44700D03*
D40*
X136750Y44700D03*
D96*
X141700Y44700D03*
X145000Y44700D03*
D37*
X45100Y45000D03*
D96*
X55600Y45000D03*
D40*
X64750Y45000D03*
D38*
X103300Y45000D03*
D40*
X136450Y45000D03*
D96*
X142300Y45000D03*
X144700Y45000D03*
D39*
X45550Y45300D03*
D96*
X55300Y45300D03*
X64300Y45300D03*
D28*
X103600Y45300D03*
D40*
X136150Y45300D03*
D96*
X142900Y45300D03*
X144400Y45300D03*
D39*
X45850Y45600D03*
D96*
X55000Y45600D03*
X63700Y45600D03*
D24*
X103900Y45600D03*
D40*
X135850Y45600D03*
D37*
X143800Y45600D03*
D39*
X46450Y45900D03*
D96*
X54700Y45900D03*
X63100Y45900D03*
D21*
X104200Y45900D03*
D40*
X135550Y45900D03*
D96*
X143800Y45900D03*
D39*
X46750Y46200D03*
D40*
X54550Y46200D03*
D96*
X62200Y46200D03*
D15*
X104650Y46200D03*
D41*
X135100Y46200D03*
D96*
X143500Y46200D03*
D39*
X47350Y46500D03*
D40*
X54250Y46500D03*
D96*
X61600Y46500D03*
D41*
X72100Y46500D03*
D15*
X105550Y46500D03*
D41*
X134800Y46500D03*
D96*
X143200Y46500D03*
D39*
X47950Y46800D03*
D40*
X53950Y46800D03*
X61150Y46800D03*
D96*
X72100Y46800D03*
D15*
X106450Y46800D03*
D41*
X134500Y46800D03*
D96*
X142900Y46800D03*
D39*
X48250Y47100D03*
D40*
X53650Y47100D03*
X60550Y47100D03*
D41*
X71800Y47100D03*
D39*
X73150Y47100D03*
D37*
X107500Y47100D03*
D41*
X134200Y47100D03*
D96*
X142600Y47100D03*
D39*
X48850Y47400D03*
D40*
X53650Y47400D03*
X60250Y47400D03*
D41*
X71500Y47400D03*
D39*
X74350Y47400D03*
D15*
X108550Y47400D03*
D41*
X133900Y47400D03*
D96*
X142300Y47400D03*
D39*
X49450Y47700D03*
D40*
X53350Y47700D03*
X59950Y47700D03*
D41*
X71200Y47700D03*
D39*
X75550Y47700D03*
D15*
X109450Y47700D03*
D41*
X133600Y47700D03*
D96*
X142000Y47700D03*
D39*
X49750Y48000D03*
D40*
X53050Y48000D03*
X59350Y48000D03*
D41*
X71200Y48000D03*
D39*
X76750Y48000D03*
D37*
X110500Y48000D03*
D40*
X133450Y48000D03*
D96*
X141700Y48000D03*
D39*
X50350Y48300D03*
D40*
X53050Y48300D03*
X59050Y48300D03*
D41*
X70900Y48300D03*
D39*
X77950Y48300D03*
D15*
X111550Y48300D03*
D96*
X133300Y48300D03*
X141400Y48300D03*
D39*
X50950Y48600D03*
D40*
X52750Y48600D03*
X58750Y48600D03*
X70750Y48600D03*
D39*
X79150Y48600D03*
D15*
X112450Y48600D03*
D41*
X132700Y48600D03*
D96*
X133900Y48600D03*
D40*
X141250Y48600D03*
D39*
X51550Y48900D03*
D40*
X52750Y48900D03*
X58450Y48900D03*
D41*
X70600Y48900D03*
D39*
X80350Y48900D03*
D15*
X113650Y48900D03*
D40*
X132250Y48900D03*
D96*
X134800Y48900D03*
D40*
X140950Y48900D03*
D37*
X52000Y49200D03*
D41*
X58000Y49200D03*
X70300Y49200D03*
D39*
X81550Y49200D03*
D37*
X114700Y49200D03*
D40*
X131950Y49200D03*
X135850Y49200D03*
X140650Y49200D03*
D39*
X52450Y49500D03*
D41*
X57700Y49500D03*
X70300Y49500D03*
D37*
X82900Y49500D03*
D15*
X115750Y49500D03*
D40*
X131650Y49500D03*
D96*
X136600Y49500D03*
X140500Y49500D03*
X52900Y49800D03*
D41*
X57400Y49800D03*
X70000Y49800D03*
D37*
X84100Y49800D03*
D15*
X116650Y49800D03*
D40*
X131350Y49800D03*
X137350Y49800D03*
D96*
X140200Y49800D03*
D39*
X53350Y50100D03*
D40*
X57250Y50100D03*
D41*
X69700Y50100D03*
D15*
X85150Y50100D03*
X117550Y50100D03*
D40*
X131050Y50100D03*
D96*
X138100Y50100D03*
D40*
X140050Y50100D03*
D39*
X53650Y50400D03*
D41*
X57100Y50400D03*
D40*
X69550Y50400D03*
D37*
X86200Y50400D03*
X118600Y50400D03*
D40*
X130750Y50400D03*
X138850Y50400D03*
X140050Y50400D03*
D96*
X54100Y50700D03*
D41*
X56800Y50700D03*
X69400Y50700D03*
D39*
X87250Y50700D03*
D15*
X119650Y50700D03*
D40*
X130450Y50700D03*
D39*
X139750Y50700D03*
D96*
X54400Y51000D03*
D41*
X56500Y51000D03*
X69100Y51000D03*
D39*
X88450Y51000D03*
D15*
X120550Y51000D03*
D40*
X130150Y51000D03*
X140050Y51000D03*
D96*
X54700Y51300D03*
D41*
X56500Y51300D03*
D40*
X68950Y51300D03*
D39*
X89650Y51300D03*
D15*
X121750Y51300D03*
D40*
X129850Y51300D03*
X140350Y51300D03*
D96*
X55000Y51600D03*
D40*
X68650Y51600D03*
D39*
X90850Y51600D03*
D37*
X122800Y51600D03*
D40*
X129550Y51600D03*
X140350Y51600D03*
D37*
X55600Y51900D03*
D40*
X68350Y51900D03*
D39*
X92050Y51900D03*
D15*
X123850Y51900D03*
D40*
X129250Y51900D03*
D96*
X140500Y51900D03*
D39*
X55750Y52200D03*
D40*
X68050Y52200D03*
D39*
X93250Y52200D03*
D15*
X124750Y52200D03*
D41*
X128800Y52200D03*
D40*
X140650Y52200D03*
D96*
X56200Y52500D03*
D41*
X67600Y52500D03*
D96*
X94300Y52500D03*
D37*
X125800Y52500D03*
D41*
X128500Y52500D03*
D40*
X140650Y52500D03*
D39*
X56650Y52800D03*
D41*
X67300Y52800D03*
D96*
X95200Y52800D03*
D15*
X126850Y52800D03*
D41*
X128200Y52800D03*
D96*
X140800Y52800D03*
D39*
X56950Y53100D03*
D41*
X67000Y53100D03*
D96*
X96100Y53100D03*
D15*
X127750Y53100D03*
D96*
X140800Y53100D03*
D39*
X57550Y53400D03*
D40*
X66550Y53400D03*
D96*
X97000Y53400D03*
D15*
X128650Y53400D03*
D96*
X140800Y53400D03*
D17*
X58300Y53700D03*
D40*
X66250Y53700D03*
D96*
X97900Y53700D03*
D37*
X129700Y53700D03*
D40*
X140950Y53700D03*
D17*
X59200Y54000D03*
D41*
X65800Y54000D03*
D96*
X98800Y54000D03*
D15*
X130750Y54000D03*
D40*
X140950Y54000D03*
D26*
X60250Y54300D03*
D41*
X65500Y54300D03*
D96*
X99700Y54300D03*
D15*
X131950Y54300D03*
D40*
X140950Y54300D03*
D17*
X61300Y54600D03*
D40*
X65050Y54600D03*
D96*
X100600Y54600D03*
D15*
X132850Y54600D03*
D40*
X140950Y54600D03*
D26*
X62350Y54900D03*
D41*
X64600Y54900D03*
D96*
X101500Y54900D03*
D37*
X133900Y54900D03*
D40*
X140950Y54900D03*
D26*
X63250Y55200D03*
D96*
X102400Y55200D03*
D37*
X134800Y55200D03*
D40*
X140950Y55200D03*
D17*
X64300Y55500D03*
D96*
X103300Y55500D03*
D15*
X135850Y55500D03*
D40*
X140950Y55500D03*
D26*
X65350Y55800D03*
D96*
X104200Y55800D03*
D15*
X136750Y55800D03*
D40*
X140950Y55800D03*
D26*
X66250Y56100D03*
D96*
X105100Y56100D03*
D37*
X137800Y56100D03*
D40*
X140950Y56100D03*
D26*
X67450Y56400D03*
D96*
X106000Y56400D03*
D15*
X138850Y56400D03*
D40*
X140950Y56400D03*
D17*
X68500Y56700D03*
D96*
X106900Y56700D03*
D17*
X140200Y56700D03*
D26*
X69550Y57000D03*
D96*
X107800Y57000D03*
D37*
X140800Y57000D03*
D17*
X70600Y57300D03*
D96*
X108700Y57300D03*
D26*
X141850Y57300D03*
X71650Y57600D03*
D96*
X109600Y57600D03*
D19*
X142450Y57600D03*
D26*
X72550Y57900D03*
D96*
X110500Y57900D03*
D40*
X140950Y57900D03*
D26*
X143650Y57900D03*
D17*
X73600Y58200D03*
D96*
X111400Y58200D03*
D40*
X140950Y58200D03*
D18*
X144700Y58200D03*
D26*
X74650Y58500D03*
D96*
X112300Y58500D03*
D40*
X140950Y58500D03*
D41*
X143500Y58500D03*
D15*
X145750Y58500D03*
D26*
X75850Y58800D03*
D96*
X113200Y58800D03*
D40*
X140950Y58800D03*
D41*
X145300Y58800D03*
D15*
X146650Y58800D03*
D26*
X76750Y59100D03*
D96*
X114100Y59100D03*
D40*
X140950Y59100D03*
D41*
X143800Y59100D03*
D37*
X147100Y59100D03*
D26*
X77950Y59400D03*
D40*
X114850Y59400D03*
X140950Y59400D03*
D41*
X143800Y59400D03*
X146500Y59400D03*
D40*
X147550Y59400D03*
D17*
X79000Y59700D03*
D40*
X140950Y59700D03*
D41*
X143800Y59700D03*
X146500Y59700D03*
D40*
X147850Y59700D03*
D26*
X80050Y60000D03*
D40*
X140950Y60000D03*
D41*
X143800Y60000D03*
X146500Y60000D03*
D40*
X147850Y60000D03*
D26*
X80950Y60300D03*
D40*
X140950Y60300D03*
D41*
X143800Y60300D03*
X146500Y60300D03*
D40*
X147850Y60300D03*
D17*
X82000Y60600D03*
D40*
X140950Y60600D03*
D41*
X143800Y60600D03*
X146500Y60600D03*
D40*
X147850Y60600D03*
D26*
X83050Y60900D03*
D40*
X140950Y60900D03*
D41*
X146500Y60900D03*
D40*
X147850Y60900D03*
D26*
X83950Y61200D03*
D40*
X140950Y61200D03*
D41*
X146500Y61200D03*
D40*
X147850Y61200D03*
D26*
X85150Y61500D03*
D39*
X141250Y61500D03*
D41*
X143500Y61500D03*
X146500Y61500D03*
D40*
X147850Y61500D03*
D26*
X86050Y61800D03*
D37*
X141700Y61800D03*
D40*
X147850Y61800D03*
D26*
X87250Y62100D03*
D15*
X142450Y62100D03*
D40*
X147850Y62100D03*
D26*
X88450Y62400D03*
D15*
X143050Y62400D03*
D41*
X146200Y62400D03*
D40*
X147550Y62400D03*
D26*
X89350Y62700D03*
D37*
X143800Y62700D03*
D40*
X147550Y62700D03*
D26*
X90250Y63000D03*
D37*
X144400Y63000D03*
D41*
X145900Y63000D03*
D96*
X147400Y63000D03*
D19*
X90850Y63300D03*
D15*
X145150Y63300D03*
D96*
X147400Y63300D03*
D24*
X91300Y63600D03*
D18*
X146200Y63600D03*
D41*
X148000Y63600D03*
D20*
X91900Y63900D03*
D15*
X146350Y63900D03*
D18*
X90700Y64200D03*
D26*
X94450Y64200D03*
D39*
X146950Y64200D03*
D16*
X90850Y64500D03*
D17*
X95500Y64500D03*
D96*
X141400Y64500D03*
D39*
X147550Y64500D03*
D18*
X91000Y64800D03*
D26*
X96550Y64800D03*
D39*
X141550Y64800D03*
D40*
X147850Y64800D03*
D18*
X91000Y65100D03*
D17*
X97600Y65100D03*
D39*
X141550Y65100D03*
D96*
X148000Y65100D03*
D16*
X91150Y65400D03*
D26*
X98650Y65400D03*
D96*
X141400Y65400D03*
D40*
X148150Y65400D03*
D18*
X91300Y65700D03*
D26*
X99550Y65700D03*
D96*
X141400Y65700D03*
D40*
X148150Y65700D03*
D18*
X91300Y66000D03*
D17*
X100600Y66000D03*
D41*
X141400Y66000D03*
D96*
X143500Y66000D03*
D40*
X148150Y66000D03*
D18*
X91300Y66300D03*
D17*
X101500Y66300D03*
D39*
X143650Y66300D03*
D40*
X148150Y66300D03*
D16*
X91450Y66600D03*
D26*
X102550Y66600D03*
D39*
X143650Y66600D03*
D40*
X148150Y66600D03*
D18*
X91600Y66900D03*
D17*
X103600Y66900D03*
D96*
X143500Y66900D03*
X145900Y66900D03*
D40*
X148150Y66900D03*
D18*
X91600Y67200D03*
D26*
X104650Y67200D03*
D41*
X143500Y67200D03*
D39*
X145750Y67200D03*
D40*
X148150Y67200D03*
D16*
X91750Y67500D03*
D26*
X105850Y67500D03*
D39*
X145750Y67500D03*
D40*
X147850Y67500D03*
D18*
X91900Y67800D03*
D26*
X106750Y67800D03*
D39*
X145750Y67800D03*
D40*
X147850Y67800D03*
D18*
X91900Y68100D03*
D17*
X107800Y68100D03*
D41*
X145600Y68100D03*
D40*
X147850Y68100D03*
D16*
X92050Y68400D03*
D17*
X108700Y68400D03*
D40*
X147850Y68400D03*
D18*
X92200Y68700D03*
D16*
X109150Y68700D03*
D40*
X147850Y68700D03*
D18*
X92200Y69000D03*
D40*
X107650Y69000D03*
D26*
X110650Y69000D03*
D15*
X122950Y69000D03*
D40*
X147550Y69000D03*
D18*
X92200Y69300D03*
D41*
X107500Y69300D03*
D17*
X111700Y69300D03*
D21*
X123100Y69300D03*
D40*
X147550Y69300D03*
D18*
X92500Y69600D03*
D41*
X107200Y69600D03*
D17*
X112600Y69600D03*
D26*
X122650Y69600D03*
D37*
X124900Y69600D03*
D40*
X143350Y69600D03*
X147550Y69600D03*
D18*
X92500Y69900D03*
D41*
X106900Y69900D03*
D17*
X113500Y69900D03*
D41*
X117400Y69900D03*
D26*
X122650Y69900D03*
D37*
X126100Y69900D03*
D17*
X143500Y69900D03*
D40*
X147550Y69900D03*
D18*
X92500Y70200D03*
D41*
X106600Y70200D03*
D17*
X114400Y70200D03*
D40*
X116950Y70200D03*
D26*
X122650Y70200D03*
D39*
X126850Y70200D03*
D40*
X142450Y70200D03*
D39*
X144550Y70200D03*
D40*
X147250Y70200D03*
D18*
X92500Y70500D03*
D40*
X106150Y70500D03*
D96*
X113500Y70500D03*
D37*
X115000Y70500D03*
D96*
X116500Y70500D03*
D26*
X122950Y70500D03*
D37*
X127600Y70500D03*
D40*
X142450Y70500D03*
D96*
X145000Y70500D03*
D39*
X146950Y70500D03*
D18*
X92800Y70800D03*
D40*
X105850Y70800D03*
D96*
X113200Y70800D03*
D39*
X115750Y70800D03*
D26*
X122950Y70800D03*
D37*
X128500Y70800D03*
D41*
X142300Y70800D03*
X143800Y70800D03*
D17*
X146200Y70800D03*
D18*
X92800Y71100D03*
D40*
X105550Y71100D03*
D39*
X112750Y71100D03*
D40*
X115750Y71100D03*
D26*
X123250Y71100D03*
D37*
X129400Y71100D03*
D40*
X142150Y71100D03*
D41*
X143800Y71100D03*
D39*
X146050Y71100D03*
D18*
X92800Y71400D03*
D40*
X105250Y71400D03*
D39*
X112450Y71400D03*
D40*
X115750Y71400D03*
D18*
X123400Y71400D03*
D39*
X130150Y71400D03*
D40*
X142150Y71400D03*
X145750Y71400D03*
D26*
X92950Y71700D03*
D40*
X104950Y71700D03*
D96*
X112000Y71700D03*
D40*
X115750Y71700D03*
D26*
X123550Y71700D03*
D39*
X131050Y71700D03*
D40*
X141850Y71700D03*
D41*
X143500Y71700D03*
D40*
X145750Y71700D03*
D18*
X93100Y72000D03*
D40*
X104650Y72000D03*
D39*
X111550Y72000D03*
D40*
X115750Y72000D03*
D26*
X123850Y72000D03*
D37*
X131800Y72000D03*
D40*
X141850Y72000D03*
X145750Y72000D03*
D18*
X93100Y72300D03*
D40*
X104350Y72300D03*
D96*
X111100Y72300D03*
D40*
X115750Y72300D03*
D17*
X124000Y72300D03*
D37*
X132700Y72300D03*
D40*
X141550Y72300D03*
X145750Y72300D03*
D18*
X93100Y72600D03*
D40*
X104050Y72600D03*
D96*
X110800Y72600D03*
D40*
X115750Y72600D03*
D26*
X124150Y72600D03*
D37*
X133600Y72600D03*
D96*
X141100Y72600D03*
D40*
X145750Y72600D03*
D18*
X93400Y72900D03*
D41*
X103600Y72900D03*
D39*
X110350Y72900D03*
D40*
X115750Y72900D03*
D26*
X124450Y72900D03*
D17*
X134800Y72900D03*
D37*
X140500Y72900D03*
D40*
X145750Y72900D03*
D18*
X93400Y73200D03*
D41*
X103300Y73200D03*
D96*
X109900Y73200D03*
D40*
X115750Y73200D03*
D26*
X124750Y73200D03*
D17*
X135700Y73200D03*
D15*
X139450Y73200D03*
D96*
X141100Y73200D03*
D40*
X145450Y73200D03*
D18*
X93400Y73500D03*
D41*
X103000Y73500D03*
D39*
X109450Y73500D03*
D40*
X116050Y73500D03*
D17*
X124900Y73500D03*
D96*
X135400Y73500D03*
D21*
X137800Y73500D03*
D96*
X141700Y73500D03*
D40*
X145450Y73500D03*
D18*
X93700Y73800D03*
D41*
X102700Y73800D03*
D39*
X109150Y73800D03*
D96*
X116200Y73800D03*
D26*
X125050Y73800D03*
D40*
X135550Y73800D03*
D41*
X138400Y73800D03*
D37*
X142000Y73800D03*
D96*
X145300Y73800D03*
D18*
X93700Y74100D03*
D41*
X102400Y74100D03*
D96*
X108700Y74100D03*
X116500Y74100D03*
D26*
X125350Y74100D03*
D40*
X135850Y74100D03*
D41*
X138400Y74100D03*
D39*
X142750Y74100D03*
X144850Y74100D03*
D16*
X93850Y74400D03*
D40*
X101950Y74400D03*
D39*
X108250Y74400D03*
D96*
X116800Y74400D03*
D26*
X125650Y74400D03*
D96*
X136300Y74400D03*
D41*
X138100Y74400D03*
X141100Y74400D03*
D26*
X143950Y74400D03*
D18*
X94000Y74700D03*
D40*
X101650Y74700D03*
D39*
X107950Y74700D03*
D96*
X117100Y74700D03*
D26*
X125950Y74700D03*
D96*
X136600Y74700D03*
D41*
X137800Y74700D03*
X140800Y74700D03*
D37*
X143500Y74700D03*
D16*
X94150Y75000D03*
D41*
X101200Y75000D03*
D96*
X107500Y75000D03*
X117400Y75000D03*
D26*
X126250Y75000D03*
D39*
X137050Y75000D03*
D96*
X142900Y75000D03*
D21*
X94600Y75300D03*
D41*
X100900Y75300D03*
D39*
X107050Y75300D03*
X117850Y75300D03*
D17*
X126400Y75300D03*
D40*
X137350Y75300D03*
X142750Y75300D03*
D21*
X95200Y75600D03*
D40*
X100450Y75600D03*
D96*
X106600Y75600D03*
X118300Y75600D03*
D26*
X126550Y75600D03*
D40*
X137650Y75600D03*
D41*
X141400Y75600D03*
D96*
X142600Y75600D03*
D21*
X95800Y75900D03*
D41*
X100000Y75900D03*
D39*
X106150Y75900D03*
X118750Y75900D03*
D26*
X126850Y75900D03*
D40*
X137950Y75900D03*
D41*
X141100Y75900D03*
D96*
X142300Y75900D03*
D21*
X96400Y76200D03*
D41*
X99700Y76200D03*
D39*
X105850Y76200D03*
D37*
X119200Y76200D03*
D26*
X127150Y76200D03*
D96*
X138400Y76200D03*
D41*
X139300Y76200D03*
X140800Y76200D03*
D96*
X142000Y76200D03*
D27*
X97450Y76500D03*
D96*
X105400Y76500D03*
D39*
X119650Y76500D03*
D26*
X127450Y76500D03*
D37*
X139000Y76500D03*
D41*
X140500Y76500D03*
D96*
X141700Y76500D03*
D23*
X97900Y76800D03*
D39*
X104950Y76800D03*
X120250Y76800D03*
D26*
X127750Y76800D03*
D21*
X140200Y76800D03*
D23*
X98800Y77100D03*
D39*
X104650Y77100D03*
D37*
X120700Y77100D03*
D26*
X128050Y77100D03*
D18*
X140200Y77100D03*
D27*
X99550Y77400D03*
D39*
X104050Y77400D03*
D37*
X121600Y77400D03*
D26*
X128350Y77400D03*
D39*
X139750Y77400D03*
D27*
X100450Y77700D03*
D39*
X103750Y77700D03*
D37*
X122200Y77700D03*
D26*
X128350Y77700D03*
D96*
X140200Y77700D03*
D31*
X101350Y78000D03*
D15*
X122950Y78000D03*
D26*
X128650Y78000D03*
D96*
X140500Y78000D03*
D19*
X101650Y78300D03*
D15*
X123850Y78300D03*
D26*
X128950Y78300D03*
D39*
X140950Y78300D03*
D17*
X101800Y78600D03*
D15*
X124450Y78600D03*
D26*
X129250Y78600D03*
D39*
X141250Y78600D03*
D15*
X125350Y78900D03*
D26*
X129550Y78900D03*
D96*
X141400Y78900D03*
D15*
X125950Y79200D03*
D26*
X129850Y79200D03*
D96*
X141700Y79200D03*
D15*
X126850Y79500D03*
D26*
X130150Y79500D03*
D96*
X142000Y79500D03*
D15*
X127750Y79800D03*
D18*
X130300Y79800D03*
D96*
X142300Y79800D03*
D23*
X129700Y80100D03*
D40*
X142450Y80100D03*
D21*
X130300Y80400D03*
D96*
X142600Y80400D03*
D18*
X130900Y80700D03*
D96*
X142900Y80700D03*
D18*
X131200Y81000D03*
D40*
X143050Y81000D03*
D18*
X131500Y81300D03*
D96*
X143200Y81300D03*
D18*
X131800Y81600D03*
D40*
X143350Y81600D03*
D18*
X132100Y81900D03*
D40*
X143650Y81900D03*
D18*
X132400Y82200D03*
D96*
X143800Y82200D03*
D26*
X132550Y82500D03*
D40*
X143950Y82500D03*
D18*
X132700Y82800D03*
D96*
X144100Y82800D03*
D18*
X133000Y83100D03*
D96*
X144400Y83100D03*
D18*
X133300Y83400D03*
D40*
X144550Y83400D03*
D18*
X133600Y83700D03*
D96*
X144700Y83700D03*
D18*
X133900Y84000D03*
D40*
X144850Y84000D03*
D18*
X134200Y84300D03*
D40*
X145150Y84300D03*
D18*
X134500Y84600D03*
D96*
X145300Y84600D03*
D18*
X134800Y84900D03*
D96*
X145600Y84900D03*
D26*
X134950Y85200D03*
D96*
X145600Y85200D03*
D18*
X135100Y85500D03*
D96*
X145900Y85500D03*
D18*
X135400Y85800D03*
D40*
X146050Y85800D03*
D18*
X135700Y86100D03*
D96*
X146200Y86100D03*
D18*
X136000Y86400D03*
D40*
X146350Y86400D03*
D18*
X136300Y86700D03*
D96*
X146500Y86700D03*
D18*
X136600Y87000D03*
D96*
X146800Y87000D03*
D18*
X136900Y87300D03*
D40*
X146950Y87300D03*
D18*
X137200Y87600D03*
D39*
X147250Y87600D03*
D26*
X137350Y87900D03*
D96*
X147400Y87900D03*
D18*
X137500Y88200D03*
D96*
X147700Y88200D03*
D18*
X137800Y88500D03*
D96*
X147700Y88500D03*
D18*
X138100Y88800D03*
D40*
X147850Y88800D03*
D18*
X138400Y89100D03*
D96*
X148000Y89100D03*
D18*
X138700Y89400D03*
D40*
X148150Y89400D03*
D18*
X139000Y89700D03*
D40*
X148450Y89700D03*
D18*
X139300Y90000D03*
D96*
X148600Y90000D03*
D18*
X139600Y90300D03*
D40*
X148750Y90300D03*
D18*
X139900Y90600D03*
D96*
X148900Y90600D03*
D18*
X140200Y90900D03*
D96*
X149200Y90900D03*
D18*
X140500Y91200D03*
D40*
X149350Y91200D03*
D18*
X140800Y91500D03*
D96*
X149500Y91500D03*
D18*
X141100Y91800D03*
D40*
X149650Y91800D03*
D18*
X141100Y92100D03*
D40*
X149950Y92100D03*
D18*
X141400Y92400D03*
D96*
X150100Y92400D03*
D18*
X141700Y92700D03*
D40*
X150250Y92700D03*
D18*
X142000Y93000D03*
D96*
X150400Y93000D03*
D18*
X142300Y93300D03*
D40*
X150550Y93300D03*
D18*
X142600Y93600D03*
D96*
X150700Y93600D03*
D18*
X142900Y93900D03*
D96*
X151000Y93900D03*
D18*
X143200Y94200D03*
D40*
X151150Y94200D03*
D18*
X143500Y94500D03*
D96*
X151300Y94500D03*
D18*
X143800Y94800D03*
D40*
X151450Y94800D03*
D18*
X144100Y95100D03*
D96*
X151600Y95100D03*
D18*
X144400Y95400D03*
D96*
X151900Y95400D03*
D18*
X144700Y95700D03*
D40*
X152050Y95700D03*
D18*
X145000Y96000D03*
D96*
X152200Y96000D03*
D16*
X145450Y96300D03*
D40*
X152350Y96300D03*
D16*
X145750Y96600D03*
D96*
X152500Y96600D03*
D21*
X146200Y96900D03*
D40*
X152650Y96900D03*
D19*
X146650Y97200D03*
D40*
X152950Y97200D03*
D19*
X147250Y97500D03*
D96*
X153100Y97500D03*
D27*
X147850Y97800D03*
D40*
X153250Y97800D03*
D24*
X148600Y98100D03*
D96*
X153400Y98100D03*
D20*
X149500Y98400D03*
D40*
X153550Y98400D03*
D36*
X150850Y98700D03*
D32*
X151300Y99000D03*
D28*
X151600Y99300D03*
D30*
X152050Y99600D03*
D24*
X152500Y99900D03*
D23*
X152800Y100200D03*
D16*
X153250Y100500D03*
D37*
X153700Y100800D03*
M02*
