G04 EAGLE Gerber RS-274X export*
G75*
%MOMM*%
%FSLAX34Y34*%
%LPD*%
%INSilkscreen Bottom*%
%IPPOS*%
%AMOC8*
5,1,8,0,0,1.08239X$1,22.5*%
G01*
%ADD10C,0.152400*%
%ADD11C,0.127000*%
%ADD12C,0.200000*%
%ADD13C,0.101600*%


D10*
X492850Y512700D02*
X480150Y512700D01*
X473800Y506350D01*
X473800Y493650D01*
X480150Y487300D01*
X518250Y512700D02*
X524600Y506350D01*
X518250Y512700D02*
X505550Y512700D01*
X499200Y506350D01*
X499200Y493650D01*
X505550Y487300D01*
X518250Y487300D01*
X524600Y493650D01*
X499200Y506350D02*
X492850Y512700D01*
X499200Y493650D02*
X492850Y487300D01*
X480150Y487300D01*
X556350Y512700D02*
X569050Y512700D01*
X556350Y512700D02*
X550000Y506350D01*
X550000Y493650D01*
X556350Y487300D01*
X550000Y506350D02*
X543650Y512700D01*
X530950Y512700D01*
X524600Y506350D01*
X524600Y493650D01*
X530950Y487300D01*
X543650Y487300D01*
X550000Y493650D01*
X594450Y512700D02*
X600800Y506350D01*
X594450Y512700D02*
X581750Y512700D01*
X575400Y506350D01*
X575400Y493650D01*
X581750Y487300D01*
X594450Y487300D01*
X600800Y493650D01*
X575400Y506350D02*
X569050Y512700D01*
X575400Y493650D02*
X569050Y487300D01*
X556350Y487300D01*
X632550Y512700D02*
X645250Y512700D01*
X632550Y512700D02*
X626200Y506350D01*
X626200Y493650D01*
X632550Y487300D01*
X626200Y506350D02*
X619850Y512700D01*
X607150Y512700D01*
X600800Y506350D01*
X600800Y493650D01*
X607150Y487300D01*
X619850Y487300D01*
X626200Y493650D01*
X651600Y493650D02*
X651600Y506350D01*
X645250Y512700D01*
X651600Y493650D02*
X645250Y487300D01*
X632550Y487300D01*
X467450Y512700D02*
X454750Y512700D01*
X448400Y506350D01*
X448400Y493650D01*
X454750Y487300D01*
X473800Y506350D02*
X467450Y512700D01*
X473800Y493650D02*
X467450Y487300D01*
X454750Y487300D01*
D11*
X647917Y521463D02*
X647917Y530353D01*
X647917Y521463D02*
X647919Y521363D01*
X647925Y521264D01*
X647935Y521164D01*
X647948Y521066D01*
X647966Y520967D01*
X647987Y520870D01*
X648012Y520774D01*
X648041Y520678D01*
X648074Y520584D01*
X648110Y520491D01*
X648150Y520400D01*
X648194Y520310D01*
X648241Y520222D01*
X648291Y520136D01*
X648345Y520052D01*
X648402Y519970D01*
X648462Y519891D01*
X648526Y519813D01*
X648592Y519739D01*
X648661Y519667D01*
X648733Y519598D01*
X648807Y519532D01*
X648885Y519468D01*
X648964Y519408D01*
X649046Y519351D01*
X649130Y519297D01*
X649216Y519247D01*
X649304Y519200D01*
X649394Y519156D01*
X649485Y519116D01*
X649578Y519080D01*
X649672Y519047D01*
X649768Y519018D01*
X649864Y518993D01*
X649961Y518972D01*
X650060Y518954D01*
X650158Y518941D01*
X650258Y518931D01*
X650357Y518925D01*
X650457Y518923D01*
X651727Y518923D01*
X641937Y518923D02*
X641937Y530353D01*
X638762Y530353D01*
X638651Y530351D01*
X638541Y530345D01*
X638430Y530336D01*
X638320Y530322D01*
X638211Y530305D01*
X638102Y530284D01*
X637994Y530259D01*
X637887Y530230D01*
X637781Y530198D01*
X637676Y530162D01*
X637573Y530122D01*
X637471Y530079D01*
X637370Y530032D01*
X637271Y529981D01*
X637175Y529928D01*
X637080Y529871D01*
X636987Y529810D01*
X636896Y529747D01*
X636807Y529680D01*
X636721Y529610D01*
X636638Y529537D01*
X636556Y529462D01*
X636478Y529384D01*
X636403Y529302D01*
X636330Y529219D01*
X636260Y529133D01*
X636193Y529044D01*
X636130Y528953D01*
X636069Y528860D01*
X636012Y528766D01*
X635959Y528669D01*
X635908Y528570D01*
X635861Y528469D01*
X635818Y528367D01*
X635778Y528264D01*
X635742Y528159D01*
X635710Y528053D01*
X635681Y527946D01*
X635656Y527838D01*
X635635Y527729D01*
X635618Y527620D01*
X635604Y527510D01*
X635595Y527399D01*
X635589Y527289D01*
X635587Y527178D01*
X635589Y527067D01*
X635595Y526957D01*
X635604Y526846D01*
X635618Y526736D01*
X635635Y526627D01*
X635656Y526518D01*
X635681Y526410D01*
X635710Y526303D01*
X635742Y526197D01*
X635778Y526092D01*
X635818Y525989D01*
X635861Y525887D01*
X635908Y525786D01*
X635959Y525687D01*
X636012Y525591D01*
X636069Y525496D01*
X636130Y525403D01*
X636193Y525312D01*
X636260Y525223D01*
X636330Y525137D01*
X636403Y525054D01*
X636478Y524972D01*
X636556Y524894D01*
X636638Y524819D01*
X636721Y524746D01*
X636807Y524676D01*
X636896Y524609D01*
X636987Y524546D01*
X637080Y524485D01*
X637175Y524428D01*
X637271Y524375D01*
X637370Y524324D01*
X637471Y524277D01*
X637573Y524234D01*
X637676Y524194D01*
X637781Y524158D01*
X637887Y524126D01*
X637994Y524097D01*
X638102Y524072D01*
X638211Y524051D01*
X638320Y524034D01*
X638430Y524020D01*
X638541Y524011D01*
X638651Y524005D01*
X638762Y524003D01*
X641937Y524003D01*
X631078Y527813D02*
X627903Y530353D01*
X627903Y518923D01*
X631078Y518923D02*
X624728Y518923D01*
D10*
X233800Y506350D02*
X227450Y512700D01*
X214750Y512700D01*
X208400Y506350D01*
X208400Y493650D01*
X214750Y487300D01*
X227450Y487300D01*
X233800Y493650D01*
X265550Y512700D02*
X278250Y512700D01*
X265550Y512700D02*
X259200Y506350D01*
X259200Y493650D01*
X265550Y487300D01*
X259200Y506350D02*
X252850Y512700D01*
X240150Y512700D01*
X233800Y506350D01*
X233800Y493650D01*
X240150Y487300D01*
X252850Y487300D01*
X259200Y493650D01*
X303650Y512700D02*
X310000Y506350D01*
X303650Y512700D02*
X290950Y512700D01*
X284600Y506350D01*
X284600Y493650D01*
X290950Y487300D01*
X303650Y487300D01*
X310000Y493650D01*
X284600Y506350D02*
X278250Y512700D01*
X284600Y493650D02*
X278250Y487300D01*
X265550Y487300D01*
X341750Y512700D02*
X354450Y512700D01*
X341750Y512700D02*
X335400Y506350D01*
X335400Y493650D01*
X341750Y487300D01*
X335400Y506350D02*
X329050Y512700D01*
X316350Y512700D01*
X310000Y506350D01*
X310000Y493650D01*
X316350Y487300D01*
X329050Y487300D01*
X335400Y493650D01*
X379850Y512700D02*
X386200Y506350D01*
X379850Y512700D02*
X367150Y512700D01*
X360800Y506350D01*
X360800Y493650D01*
X367150Y487300D01*
X379850Y487300D01*
X386200Y493650D01*
X360800Y506350D02*
X354450Y512700D01*
X360800Y493650D02*
X354450Y487300D01*
X341750Y487300D01*
X417950Y512700D02*
X430650Y512700D01*
X417950Y512700D02*
X411600Y506350D01*
X411600Y493650D01*
X417950Y487300D01*
X411600Y506350D02*
X405250Y512700D01*
X392550Y512700D01*
X386200Y506350D01*
X386200Y493650D01*
X392550Y487300D01*
X405250Y487300D01*
X411600Y493650D01*
X437000Y493650D02*
X437000Y506350D01*
X430650Y512700D01*
X437000Y493650D02*
X430650Y487300D01*
X417950Y487300D01*
X202050Y512700D02*
X189350Y512700D01*
X183000Y506350D01*
X183000Y493650D01*
X189350Y487300D01*
X208400Y506350D02*
X202050Y512700D01*
X208400Y493650D02*
X202050Y487300D01*
X189350Y487300D01*
D11*
X433317Y521463D02*
X433317Y530353D01*
X433317Y521463D02*
X433319Y521363D01*
X433325Y521264D01*
X433335Y521164D01*
X433348Y521066D01*
X433366Y520967D01*
X433387Y520870D01*
X433412Y520774D01*
X433441Y520678D01*
X433474Y520584D01*
X433510Y520491D01*
X433550Y520400D01*
X433594Y520310D01*
X433641Y520222D01*
X433691Y520136D01*
X433745Y520052D01*
X433802Y519970D01*
X433862Y519891D01*
X433926Y519813D01*
X433992Y519739D01*
X434061Y519667D01*
X434133Y519598D01*
X434207Y519532D01*
X434285Y519468D01*
X434364Y519408D01*
X434446Y519351D01*
X434530Y519297D01*
X434616Y519247D01*
X434704Y519200D01*
X434794Y519156D01*
X434885Y519116D01*
X434978Y519080D01*
X435072Y519047D01*
X435168Y519018D01*
X435264Y518993D01*
X435361Y518972D01*
X435460Y518954D01*
X435558Y518941D01*
X435658Y518931D01*
X435757Y518925D01*
X435857Y518923D01*
X437127Y518923D01*
X427337Y518923D02*
X427337Y530353D01*
X424162Y530353D01*
X424051Y530351D01*
X423941Y530345D01*
X423830Y530336D01*
X423720Y530322D01*
X423611Y530305D01*
X423502Y530284D01*
X423394Y530259D01*
X423287Y530230D01*
X423181Y530198D01*
X423076Y530162D01*
X422973Y530122D01*
X422871Y530079D01*
X422770Y530032D01*
X422671Y529981D01*
X422575Y529928D01*
X422480Y529871D01*
X422387Y529810D01*
X422296Y529747D01*
X422207Y529680D01*
X422121Y529610D01*
X422038Y529537D01*
X421956Y529462D01*
X421878Y529384D01*
X421803Y529302D01*
X421730Y529219D01*
X421660Y529133D01*
X421593Y529044D01*
X421530Y528953D01*
X421469Y528860D01*
X421412Y528766D01*
X421359Y528669D01*
X421308Y528570D01*
X421261Y528469D01*
X421218Y528367D01*
X421178Y528264D01*
X421142Y528159D01*
X421110Y528053D01*
X421081Y527946D01*
X421056Y527838D01*
X421035Y527729D01*
X421018Y527620D01*
X421004Y527510D01*
X420995Y527399D01*
X420989Y527289D01*
X420987Y527178D01*
X420989Y527067D01*
X420995Y526957D01*
X421004Y526846D01*
X421018Y526736D01*
X421035Y526627D01*
X421056Y526518D01*
X421081Y526410D01*
X421110Y526303D01*
X421142Y526197D01*
X421178Y526092D01*
X421218Y525989D01*
X421261Y525887D01*
X421308Y525786D01*
X421359Y525687D01*
X421412Y525591D01*
X421469Y525496D01*
X421530Y525403D01*
X421593Y525312D01*
X421660Y525223D01*
X421730Y525137D01*
X421803Y525054D01*
X421878Y524972D01*
X421956Y524894D01*
X422038Y524819D01*
X422121Y524746D01*
X422207Y524676D01*
X422296Y524609D01*
X422387Y524546D01*
X422480Y524485D01*
X422575Y524428D01*
X422671Y524375D01*
X422770Y524324D01*
X422871Y524277D01*
X422973Y524234D01*
X423076Y524194D01*
X423181Y524158D01*
X423287Y524126D01*
X423394Y524097D01*
X423502Y524072D01*
X423611Y524051D01*
X423720Y524034D01*
X423830Y524020D01*
X423941Y524011D01*
X424051Y524005D01*
X424162Y524003D01*
X427337Y524003D01*
X412986Y530354D02*
X412882Y530352D01*
X412777Y530346D01*
X412673Y530337D01*
X412570Y530324D01*
X412467Y530306D01*
X412365Y530286D01*
X412263Y530261D01*
X412163Y530233D01*
X412063Y530201D01*
X411965Y530165D01*
X411868Y530126D01*
X411773Y530084D01*
X411679Y530038D01*
X411587Y529988D01*
X411497Y529936D01*
X411409Y529880D01*
X411323Y529820D01*
X411239Y529758D01*
X411158Y529693D01*
X411079Y529625D01*
X411002Y529553D01*
X410929Y529480D01*
X410857Y529403D01*
X410789Y529324D01*
X410724Y529243D01*
X410662Y529159D01*
X410602Y529073D01*
X410546Y528985D01*
X410494Y528895D01*
X410444Y528803D01*
X410398Y528709D01*
X410356Y528614D01*
X410317Y528517D01*
X410281Y528419D01*
X410249Y528319D01*
X410221Y528219D01*
X410196Y528117D01*
X410176Y528015D01*
X410158Y527912D01*
X410145Y527809D01*
X410136Y527705D01*
X410130Y527600D01*
X410128Y527496D01*
X412986Y530353D02*
X413104Y530351D01*
X413223Y530345D01*
X413341Y530336D01*
X413458Y530323D01*
X413575Y530305D01*
X413692Y530285D01*
X413808Y530260D01*
X413923Y530232D01*
X414036Y530199D01*
X414149Y530164D01*
X414261Y530124D01*
X414371Y530082D01*
X414480Y530035D01*
X414588Y529985D01*
X414693Y529932D01*
X414797Y529875D01*
X414899Y529815D01*
X414999Y529752D01*
X415097Y529685D01*
X415193Y529616D01*
X415286Y529543D01*
X415377Y529467D01*
X415466Y529389D01*
X415552Y529307D01*
X415635Y529223D01*
X415716Y529137D01*
X415793Y529047D01*
X415868Y528956D01*
X415940Y528862D01*
X416009Y528765D01*
X416074Y528667D01*
X416137Y528566D01*
X416196Y528463D01*
X416252Y528359D01*
X416304Y528253D01*
X416353Y528145D01*
X416398Y528036D01*
X416440Y527925D01*
X416478Y527813D01*
X411080Y525274D02*
X411004Y525349D01*
X410929Y525428D01*
X410858Y525509D01*
X410789Y525593D01*
X410724Y525679D01*
X410662Y525767D01*
X410602Y525857D01*
X410546Y525949D01*
X410493Y526044D01*
X410444Y526140D01*
X410398Y526238D01*
X410355Y526337D01*
X410316Y526438D01*
X410281Y526540D01*
X410249Y526643D01*
X410221Y526747D01*
X410196Y526852D01*
X410175Y526959D01*
X410158Y527065D01*
X410145Y527172D01*
X410136Y527280D01*
X410130Y527388D01*
X410128Y527496D01*
X411081Y525273D02*
X416478Y518923D01*
X410128Y518923D01*
D10*
X576350Y17300D02*
X589050Y17300D01*
X595400Y23650D01*
X595400Y36350D01*
X589050Y42700D01*
X595400Y23650D02*
X601750Y17300D01*
X614450Y17300D01*
X620800Y23650D01*
X620800Y36350D01*
X614450Y42700D01*
X601750Y42700D01*
X595400Y36350D01*
X550950Y17300D02*
X544600Y23650D01*
X550950Y17300D02*
X563650Y17300D01*
X570000Y23650D01*
X570000Y36350D01*
X563650Y42700D01*
X550950Y42700D01*
X544600Y36350D01*
X570000Y23650D02*
X576350Y17300D01*
X570000Y36350D02*
X576350Y42700D01*
X589050Y42700D01*
X512850Y17300D02*
X500150Y17300D01*
X512850Y17300D02*
X519200Y23650D01*
X519200Y36350D01*
X512850Y42700D01*
X519200Y23650D02*
X525550Y17300D01*
X538250Y17300D01*
X544600Y23650D01*
X544600Y36350D01*
X538250Y42700D01*
X525550Y42700D01*
X519200Y36350D01*
X493800Y36350D02*
X493800Y23650D01*
X500150Y17300D01*
X493800Y36350D02*
X500150Y42700D01*
X512850Y42700D01*
X627150Y17300D02*
X639850Y17300D01*
X646200Y23650D01*
X646200Y36350D01*
X639850Y42700D01*
X620800Y23650D02*
X627150Y17300D01*
X620800Y36350D02*
X627150Y42700D01*
X639850Y42700D01*
D11*
X516862Y11077D02*
X516862Y2187D01*
X516864Y2087D01*
X516870Y1988D01*
X516880Y1888D01*
X516893Y1790D01*
X516911Y1691D01*
X516932Y1594D01*
X516957Y1498D01*
X516986Y1402D01*
X517019Y1308D01*
X517055Y1215D01*
X517095Y1124D01*
X517139Y1034D01*
X517186Y946D01*
X517236Y860D01*
X517290Y776D01*
X517347Y694D01*
X517407Y615D01*
X517471Y537D01*
X517537Y463D01*
X517606Y391D01*
X517678Y322D01*
X517752Y256D01*
X517830Y192D01*
X517909Y132D01*
X517991Y75D01*
X518075Y21D01*
X518161Y-29D01*
X518249Y-76D01*
X518339Y-120D01*
X518430Y-160D01*
X518523Y-196D01*
X518617Y-229D01*
X518713Y-258D01*
X518809Y-283D01*
X518906Y-304D01*
X519005Y-322D01*
X519103Y-335D01*
X519203Y-345D01*
X519302Y-351D01*
X519402Y-353D01*
X520672Y-353D01*
X510882Y-353D02*
X510882Y11077D01*
X507707Y11077D01*
X507596Y11075D01*
X507486Y11069D01*
X507375Y11060D01*
X507265Y11046D01*
X507156Y11029D01*
X507047Y11008D01*
X506939Y10983D01*
X506832Y10954D01*
X506726Y10922D01*
X506621Y10886D01*
X506518Y10846D01*
X506416Y10803D01*
X506315Y10756D01*
X506216Y10705D01*
X506120Y10652D01*
X506025Y10595D01*
X505932Y10534D01*
X505841Y10471D01*
X505752Y10404D01*
X505666Y10334D01*
X505583Y10261D01*
X505501Y10186D01*
X505423Y10108D01*
X505348Y10026D01*
X505275Y9943D01*
X505205Y9857D01*
X505138Y9768D01*
X505075Y9677D01*
X505014Y9584D01*
X504957Y9489D01*
X504904Y9393D01*
X504853Y9294D01*
X504806Y9193D01*
X504763Y9091D01*
X504723Y8988D01*
X504687Y8883D01*
X504655Y8777D01*
X504626Y8670D01*
X504601Y8562D01*
X504580Y8453D01*
X504563Y8344D01*
X504549Y8234D01*
X504540Y8123D01*
X504534Y8013D01*
X504532Y7902D01*
X504534Y7791D01*
X504540Y7681D01*
X504549Y7570D01*
X504563Y7460D01*
X504580Y7351D01*
X504601Y7242D01*
X504626Y7134D01*
X504655Y7027D01*
X504687Y6921D01*
X504723Y6816D01*
X504763Y6713D01*
X504806Y6611D01*
X504853Y6510D01*
X504904Y6411D01*
X504957Y6314D01*
X505014Y6220D01*
X505075Y6127D01*
X505138Y6036D01*
X505205Y5947D01*
X505275Y5861D01*
X505348Y5778D01*
X505423Y5696D01*
X505501Y5618D01*
X505583Y5543D01*
X505666Y5470D01*
X505752Y5400D01*
X505841Y5333D01*
X505932Y5270D01*
X506025Y5209D01*
X506120Y5152D01*
X506216Y5099D01*
X506315Y5048D01*
X506416Y5001D01*
X506518Y4958D01*
X506621Y4918D01*
X506726Y4882D01*
X506832Y4850D01*
X506939Y4821D01*
X507047Y4796D01*
X507156Y4775D01*
X507265Y4758D01*
X507375Y4744D01*
X507486Y4735D01*
X507596Y4729D01*
X507707Y4727D01*
X510882Y4727D01*
X500023Y-353D02*
X496848Y-353D01*
X496737Y-351D01*
X496627Y-345D01*
X496516Y-336D01*
X496406Y-322D01*
X496297Y-305D01*
X496188Y-284D01*
X496080Y-259D01*
X495973Y-230D01*
X495867Y-198D01*
X495762Y-162D01*
X495659Y-122D01*
X495557Y-79D01*
X495456Y-32D01*
X495357Y19D01*
X495261Y72D01*
X495166Y129D01*
X495073Y190D01*
X494982Y253D01*
X494893Y320D01*
X494807Y390D01*
X494724Y463D01*
X494642Y538D01*
X494564Y616D01*
X494489Y698D01*
X494416Y781D01*
X494346Y867D01*
X494279Y956D01*
X494216Y1047D01*
X494155Y1140D01*
X494098Y1234D01*
X494045Y1331D01*
X493994Y1430D01*
X493947Y1531D01*
X493904Y1633D01*
X493864Y1736D01*
X493828Y1841D01*
X493796Y1947D01*
X493767Y2054D01*
X493742Y2162D01*
X493721Y2271D01*
X493704Y2380D01*
X493690Y2490D01*
X493681Y2601D01*
X493675Y2711D01*
X493673Y2822D01*
X493675Y2933D01*
X493681Y3043D01*
X493690Y3154D01*
X493704Y3264D01*
X493721Y3373D01*
X493742Y3482D01*
X493767Y3590D01*
X493796Y3697D01*
X493828Y3803D01*
X493864Y3908D01*
X493904Y4011D01*
X493947Y4113D01*
X493994Y4214D01*
X494045Y4313D01*
X494098Y4409D01*
X494155Y4504D01*
X494216Y4597D01*
X494279Y4688D01*
X494346Y4777D01*
X494416Y4863D01*
X494489Y4946D01*
X494564Y5028D01*
X494642Y5106D01*
X494724Y5181D01*
X494807Y5254D01*
X494893Y5324D01*
X494982Y5391D01*
X495073Y5454D01*
X495166Y5515D01*
X495261Y5572D01*
X495357Y5625D01*
X495456Y5676D01*
X495557Y5723D01*
X495659Y5766D01*
X495762Y5806D01*
X495867Y5842D01*
X495973Y5874D01*
X496080Y5903D01*
X496188Y5928D01*
X496297Y5949D01*
X496406Y5966D01*
X496516Y5980D01*
X496627Y5989D01*
X496737Y5995D01*
X496848Y5997D01*
X496213Y11077D02*
X500023Y11077D01*
X496213Y11077D02*
X496113Y11075D01*
X496014Y11069D01*
X495914Y11059D01*
X495816Y11046D01*
X495717Y11028D01*
X495620Y11007D01*
X495524Y10982D01*
X495428Y10953D01*
X495334Y10920D01*
X495241Y10884D01*
X495150Y10844D01*
X495060Y10800D01*
X494972Y10753D01*
X494886Y10703D01*
X494802Y10649D01*
X494720Y10592D01*
X494641Y10532D01*
X494563Y10468D01*
X494489Y10402D01*
X494417Y10333D01*
X494348Y10261D01*
X494282Y10187D01*
X494218Y10109D01*
X494158Y10030D01*
X494101Y9948D01*
X494047Y9864D01*
X493997Y9778D01*
X493950Y9690D01*
X493906Y9600D01*
X493866Y9509D01*
X493830Y9416D01*
X493797Y9322D01*
X493768Y9226D01*
X493743Y9130D01*
X493722Y9033D01*
X493704Y8934D01*
X493691Y8836D01*
X493681Y8736D01*
X493675Y8637D01*
X493673Y8537D01*
X493675Y8437D01*
X493681Y8338D01*
X493691Y8238D01*
X493704Y8140D01*
X493722Y8041D01*
X493743Y7944D01*
X493768Y7848D01*
X493797Y7752D01*
X493830Y7658D01*
X493866Y7565D01*
X493906Y7474D01*
X493950Y7384D01*
X493997Y7296D01*
X494047Y7210D01*
X494101Y7126D01*
X494158Y7044D01*
X494218Y6965D01*
X494282Y6887D01*
X494348Y6813D01*
X494417Y6741D01*
X494489Y6672D01*
X494563Y6606D01*
X494641Y6542D01*
X494720Y6482D01*
X494802Y6425D01*
X494886Y6371D01*
X494972Y6321D01*
X495060Y6274D01*
X495150Y6230D01*
X495241Y6190D01*
X495334Y6154D01*
X495428Y6121D01*
X495524Y6092D01*
X495620Y6067D01*
X495717Y6046D01*
X495816Y6028D01*
X495914Y6015D01*
X496014Y6005D01*
X496113Y5999D01*
X496213Y5997D01*
X498753Y5997D01*
D10*
X312850Y42700D02*
X300150Y42700D01*
X293800Y36350D01*
X293800Y23650D01*
X300150Y17300D01*
X338250Y42700D02*
X344600Y36350D01*
X338250Y42700D02*
X325550Y42700D01*
X319200Y36350D01*
X319200Y23650D01*
X325550Y17300D01*
X338250Y17300D01*
X344600Y23650D01*
X319200Y36350D02*
X312850Y42700D01*
X319200Y23650D02*
X312850Y17300D01*
X300150Y17300D01*
X376350Y42700D02*
X389050Y42700D01*
X376350Y42700D02*
X370000Y36350D01*
X370000Y23650D01*
X376350Y17300D01*
X370000Y36350D02*
X363650Y42700D01*
X350950Y42700D01*
X344600Y36350D01*
X344600Y23650D01*
X350950Y17300D01*
X363650Y17300D01*
X370000Y23650D01*
X414450Y42700D02*
X420800Y36350D01*
X414450Y42700D02*
X401750Y42700D01*
X395400Y36350D01*
X395400Y23650D01*
X401750Y17300D01*
X414450Y17300D01*
X420800Y23650D01*
X395400Y36350D02*
X389050Y42700D01*
X395400Y23650D02*
X389050Y17300D01*
X376350Y17300D01*
X452550Y42700D02*
X465250Y42700D01*
X452550Y42700D02*
X446200Y36350D01*
X446200Y23650D01*
X452550Y17300D01*
X446200Y36350D02*
X439850Y42700D01*
X427150Y42700D01*
X420800Y36350D01*
X420800Y23650D01*
X427150Y17300D01*
X439850Y17300D01*
X446200Y23650D01*
X471600Y23650D02*
X471600Y36350D01*
X465250Y42700D01*
X471600Y23650D02*
X465250Y17300D01*
X452550Y17300D01*
X287450Y42700D02*
X274750Y42700D01*
X268400Y36350D01*
X268400Y23650D01*
X274750Y17300D01*
X293800Y36350D02*
X287450Y42700D01*
X293800Y23650D02*
X287450Y17300D01*
X274750Y17300D01*
D11*
X467917Y51463D02*
X467917Y60353D01*
X467917Y51463D02*
X467919Y51363D01*
X467925Y51264D01*
X467935Y51164D01*
X467948Y51066D01*
X467966Y50967D01*
X467987Y50870D01*
X468012Y50774D01*
X468041Y50678D01*
X468074Y50584D01*
X468110Y50491D01*
X468150Y50400D01*
X468194Y50310D01*
X468241Y50222D01*
X468291Y50136D01*
X468345Y50052D01*
X468402Y49970D01*
X468462Y49891D01*
X468526Y49813D01*
X468592Y49739D01*
X468661Y49667D01*
X468733Y49598D01*
X468807Y49532D01*
X468885Y49468D01*
X468964Y49408D01*
X469046Y49351D01*
X469130Y49297D01*
X469216Y49247D01*
X469304Y49200D01*
X469394Y49156D01*
X469485Y49116D01*
X469578Y49080D01*
X469672Y49047D01*
X469768Y49018D01*
X469864Y48993D01*
X469961Y48972D01*
X470060Y48954D01*
X470158Y48941D01*
X470258Y48931D01*
X470357Y48925D01*
X470457Y48923D01*
X471727Y48923D01*
X461937Y48923D02*
X461937Y60353D01*
X458762Y60353D01*
X458651Y60351D01*
X458541Y60345D01*
X458430Y60336D01*
X458320Y60322D01*
X458211Y60305D01*
X458102Y60284D01*
X457994Y60259D01*
X457887Y60230D01*
X457781Y60198D01*
X457676Y60162D01*
X457573Y60122D01*
X457471Y60079D01*
X457370Y60032D01*
X457271Y59981D01*
X457175Y59928D01*
X457080Y59871D01*
X456987Y59810D01*
X456896Y59747D01*
X456807Y59680D01*
X456721Y59610D01*
X456638Y59537D01*
X456556Y59462D01*
X456478Y59384D01*
X456403Y59302D01*
X456330Y59219D01*
X456260Y59133D01*
X456193Y59044D01*
X456130Y58953D01*
X456069Y58860D01*
X456012Y58765D01*
X455959Y58669D01*
X455908Y58570D01*
X455861Y58469D01*
X455818Y58367D01*
X455778Y58264D01*
X455742Y58159D01*
X455710Y58053D01*
X455681Y57946D01*
X455656Y57838D01*
X455635Y57729D01*
X455618Y57620D01*
X455604Y57510D01*
X455595Y57399D01*
X455589Y57289D01*
X455587Y57178D01*
X455589Y57067D01*
X455595Y56957D01*
X455604Y56846D01*
X455618Y56736D01*
X455635Y56627D01*
X455656Y56518D01*
X455681Y56410D01*
X455710Y56303D01*
X455742Y56197D01*
X455778Y56092D01*
X455818Y55989D01*
X455861Y55887D01*
X455908Y55786D01*
X455959Y55687D01*
X456012Y55590D01*
X456069Y55496D01*
X456130Y55403D01*
X456193Y55312D01*
X456260Y55223D01*
X456330Y55137D01*
X456403Y55054D01*
X456478Y54972D01*
X456556Y54894D01*
X456638Y54819D01*
X456721Y54746D01*
X456807Y54676D01*
X456896Y54609D01*
X456987Y54546D01*
X457080Y54485D01*
X457175Y54428D01*
X457271Y54375D01*
X457370Y54324D01*
X457471Y54277D01*
X457573Y54234D01*
X457676Y54194D01*
X457781Y54158D01*
X457887Y54126D01*
X457994Y54097D01*
X458102Y54072D01*
X458211Y54051D01*
X458320Y54034D01*
X458430Y54020D01*
X458541Y54011D01*
X458651Y54005D01*
X458762Y54003D01*
X461937Y54003D01*
X451078Y51463D02*
X448538Y60353D01*
X451078Y51463D02*
X444728Y51463D01*
X446633Y54003D02*
X446633Y48923D01*
D12*
X417500Y385750D02*
X46650Y385750D01*
X46650Y358050D01*
X432750Y358050D01*
X432750Y372500D01*
D13*
X475808Y392658D02*
X475808Y404342D01*
X477106Y392658D02*
X474510Y392658D01*
X474510Y404342D02*
X477106Y404342D01*
X467346Y392658D02*
X464750Y392658D01*
X467346Y392658D02*
X467445Y392660D01*
X467545Y392666D01*
X467644Y392675D01*
X467742Y392688D01*
X467840Y392705D01*
X467938Y392726D01*
X468034Y392751D01*
X468129Y392779D01*
X468223Y392811D01*
X468316Y392846D01*
X468408Y392885D01*
X468498Y392928D01*
X468586Y392973D01*
X468673Y393023D01*
X468757Y393075D01*
X468840Y393131D01*
X468920Y393189D01*
X468998Y393251D01*
X469073Y393316D01*
X469146Y393384D01*
X469216Y393454D01*
X469284Y393527D01*
X469349Y393602D01*
X469411Y393680D01*
X469469Y393760D01*
X469525Y393843D01*
X469577Y393927D01*
X469627Y394014D01*
X469672Y394102D01*
X469715Y394192D01*
X469754Y394284D01*
X469789Y394377D01*
X469821Y394471D01*
X469849Y394566D01*
X469874Y394662D01*
X469895Y394760D01*
X469912Y394858D01*
X469925Y394956D01*
X469934Y395055D01*
X469940Y395155D01*
X469942Y395254D01*
X469943Y395254D02*
X469943Y401746D01*
X469942Y401746D02*
X469940Y401845D01*
X469934Y401945D01*
X469925Y402044D01*
X469912Y402142D01*
X469895Y402240D01*
X469874Y402338D01*
X469849Y402434D01*
X469821Y402529D01*
X469789Y402623D01*
X469754Y402716D01*
X469715Y402808D01*
X469672Y402898D01*
X469627Y402986D01*
X469577Y403073D01*
X469525Y403157D01*
X469469Y403240D01*
X469411Y403320D01*
X469349Y403398D01*
X469284Y403473D01*
X469216Y403546D01*
X469146Y403616D01*
X469073Y403684D01*
X468998Y403749D01*
X468920Y403811D01*
X468840Y403869D01*
X468757Y403925D01*
X468673Y403977D01*
X468586Y404027D01*
X468498Y404072D01*
X468408Y404115D01*
X468316Y404154D01*
X468223Y404189D01*
X468129Y404221D01*
X468034Y404249D01*
X467938Y404274D01*
X467840Y404295D01*
X467742Y404312D01*
X467644Y404325D01*
X467545Y404334D01*
X467445Y404340D01*
X467346Y404342D01*
X464750Y404342D01*
X460385Y401746D02*
X457139Y404342D01*
X457139Y392658D01*
X453894Y392658D02*
X460385Y392658D01*
M02*
