G04 EAGLE Gerber RS-274X export*
G75*
%MOMM*%
%FSLAX34Y34*%
%LPD*%
%INSoldermask Bottom*%
%IPPOS*%
%AMOC8*
5,1,8,0,0,1.08239X$1,22.5*%
G01*
%ADD10C,1.727200*%
%ADD11R,2.153200X2.153200*%
%ADD12C,2.153200*%
%ADD13C,0.959600*%


D10*
X638900Y492380D02*
X638900Y507620D01*
X613500Y507620D02*
X613500Y492380D01*
X588100Y492380D02*
X588100Y507620D01*
X562700Y507620D02*
X562700Y492380D01*
X537300Y492380D02*
X537300Y507620D01*
X511900Y507620D02*
X511900Y492380D01*
X486500Y492380D02*
X486500Y507620D01*
X461100Y507620D02*
X461100Y492380D01*
X424300Y492380D02*
X424300Y507620D01*
X398900Y507620D02*
X398900Y492380D01*
X373500Y492380D02*
X373500Y507620D01*
X348100Y507620D02*
X348100Y492380D01*
X322700Y492380D02*
X322700Y507620D01*
X297300Y507620D02*
X297300Y492380D01*
X271900Y492380D02*
X271900Y507620D01*
X246500Y507620D02*
X246500Y492380D01*
X221100Y492380D02*
X221100Y507620D01*
X195700Y507620D02*
X195700Y492380D01*
X506500Y37620D02*
X506500Y22380D01*
X531900Y22380D02*
X531900Y37620D01*
X557300Y37620D02*
X557300Y22380D01*
X582700Y22380D02*
X582700Y37620D01*
X608100Y37620D02*
X608100Y22380D01*
X633500Y22380D02*
X633500Y37620D01*
X458900Y37620D02*
X458900Y22380D01*
X433500Y22380D02*
X433500Y37620D01*
X408100Y37620D02*
X408100Y22380D01*
X382700Y22380D02*
X382700Y37620D01*
X357300Y37620D02*
X357300Y22380D01*
X331900Y22380D02*
X331900Y37620D01*
X306500Y37620D02*
X306500Y22380D01*
X281100Y22380D02*
X281100Y37620D01*
D11*
X417500Y372500D03*
D12*
X392100Y372500D03*
X366700Y372500D03*
X341300Y372500D03*
X315900Y372500D03*
X290500Y372500D03*
X265100Y372500D03*
X239700Y372500D03*
X214300Y372500D03*
X188900Y372500D03*
X163500Y372500D03*
X138100Y372500D03*
X112700Y372500D03*
X87300Y372500D03*
X61900Y372500D03*
D11*
X62500Y220000D03*
D12*
X87900Y220000D03*
X113300Y220000D03*
X138700Y220000D03*
X164100Y220000D03*
X189500Y220000D03*
X214900Y220000D03*
X240300Y220000D03*
X265700Y220000D03*
X291100Y220000D03*
X316500Y220000D03*
X341900Y220000D03*
X367300Y220000D03*
X392700Y220000D03*
X418100Y220000D03*
D13*
X462500Y390000D03*
X442500Y390000D03*
X422500Y400000D03*
X412500Y410000D03*
X150000Y125000D03*
X180000Y125000D03*
X210000Y125000D03*
X535000Y249500D03*
X481000Y190500D03*
X602000Y362000D03*
X500000Y190500D03*
X535000Y270000D03*
X452500Y240000D03*
X240000Y125000D03*
M02*
