G04 EAGLE Gerber RS-274X export*
G75*
%MOMM*%
%FSLAX34Y34*%
%LPD*%
%INBottom Copper*%
%IPPOS*%
%AMOC8*
5,1,8,0,0,1.08239X$1,22.5*%
G01*
%ADD10C,1.524000*%
%ADD11R,1.950000X1.950000*%
%ADD12C,1.950000*%
%ADD13C,0.406400*%
%ADD14C,0.756400*%

G36*
X273833Y12871D02*
X273833Y12871D01*
X273905Y12873D01*
X273954Y12891D01*
X274005Y12899D01*
X274069Y12933D01*
X274136Y12958D01*
X274177Y12990D01*
X274223Y13015D01*
X274272Y13067D01*
X274328Y13111D01*
X274356Y13155D01*
X274392Y13193D01*
X274422Y13258D01*
X274461Y13318D01*
X274474Y13369D01*
X274496Y13416D01*
X274504Y13487D01*
X274521Y13557D01*
X274517Y13609D01*
X274523Y13660D01*
X274507Y13731D01*
X274502Y13802D01*
X274482Y13850D01*
X274470Y13901D01*
X274434Y13962D01*
X274406Y14028D01*
X274361Y14084D01*
X274344Y14112D01*
X274326Y14127D01*
X274301Y14159D01*
X272096Y16364D01*
X270479Y20267D01*
X270479Y39733D01*
X272096Y43636D01*
X275084Y46624D01*
X278987Y48241D01*
X283213Y48241D01*
X287116Y46624D01*
X290104Y43636D01*
X291721Y39733D01*
X291721Y20267D01*
X290104Y16364D01*
X287899Y14159D01*
X287857Y14101D01*
X287808Y14049D01*
X287786Y14002D01*
X287756Y13960D01*
X287735Y13891D01*
X287704Y13826D01*
X287699Y13774D01*
X287683Y13724D01*
X287685Y13653D01*
X287677Y13582D01*
X287688Y13531D01*
X287690Y13479D01*
X287714Y13411D01*
X287730Y13341D01*
X287756Y13296D01*
X287774Y13248D01*
X287819Y13192D01*
X287856Y13130D01*
X287895Y13096D01*
X287928Y13056D01*
X287988Y13017D01*
X288043Y12970D01*
X288091Y12951D01*
X288135Y12923D01*
X288204Y12905D01*
X288271Y12878D01*
X288342Y12870D01*
X288373Y12862D01*
X288397Y12864D01*
X288438Y12860D01*
X299162Y12860D01*
X299233Y12871D01*
X299305Y12873D01*
X299354Y12891D01*
X299405Y12899D01*
X299469Y12933D01*
X299536Y12958D01*
X299577Y12990D01*
X299623Y13015D01*
X299672Y13067D01*
X299728Y13111D01*
X299756Y13155D01*
X299792Y13193D01*
X299822Y13258D01*
X299861Y13318D01*
X299874Y13369D01*
X299896Y13416D01*
X299904Y13487D01*
X299921Y13557D01*
X299917Y13609D01*
X299923Y13660D01*
X299907Y13731D01*
X299902Y13802D01*
X299882Y13850D01*
X299870Y13901D01*
X299834Y13962D01*
X299806Y14028D01*
X299761Y14084D01*
X299744Y14112D01*
X299726Y14127D01*
X299701Y14159D01*
X297496Y16364D01*
X295879Y20267D01*
X295879Y39733D01*
X297496Y43636D01*
X300484Y46624D01*
X304387Y48241D01*
X308613Y48241D01*
X312516Y46624D01*
X315504Y43636D01*
X317121Y39733D01*
X317121Y20267D01*
X315504Y16364D01*
X313299Y14159D01*
X313257Y14101D01*
X313208Y14049D01*
X313186Y14002D01*
X313156Y13960D01*
X313135Y13891D01*
X313104Y13826D01*
X313099Y13774D01*
X313083Y13724D01*
X313085Y13653D01*
X313077Y13582D01*
X313088Y13531D01*
X313090Y13479D01*
X313114Y13411D01*
X313130Y13341D01*
X313156Y13296D01*
X313174Y13248D01*
X313219Y13192D01*
X313256Y13130D01*
X313295Y13096D01*
X313328Y13056D01*
X313388Y13017D01*
X313443Y12970D01*
X313491Y12951D01*
X313535Y12923D01*
X313604Y12905D01*
X313671Y12878D01*
X313742Y12870D01*
X313773Y12862D01*
X313797Y12864D01*
X313838Y12860D01*
X324562Y12860D01*
X324633Y12871D01*
X324705Y12873D01*
X324754Y12891D01*
X324805Y12899D01*
X324869Y12933D01*
X324936Y12958D01*
X324977Y12990D01*
X325023Y13015D01*
X325072Y13067D01*
X325128Y13111D01*
X325156Y13155D01*
X325192Y13193D01*
X325222Y13258D01*
X325261Y13318D01*
X325274Y13369D01*
X325296Y13416D01*
X325304Y13487D01*
X325321Y13557D01*
X325317Y13609D01*
X325323Y13660D01*
X325307Y13731D01*
X325302Y13802D01*
X325282Y13850D01*
X325270Y13901D01*
X325234Y13962D01*
X325206Y14028D01*
X325161Y14084D01*
X325144Y14112D01*
X325126Y14127D01*
X325101Y14159D01*
X322896Y16364D01*
X321279Y20267D01*
X321279Y39733D01*
X322896Y43636D01*
X325884Y46624D01*
X329787Y48241D01*
X334013Y48241D01*
X337916Y46624D01*
X340904Y43636D01*
X342521Y39733D01*
X342521Y20267D01*
X340904Y16364D01*
X338699Y14159D01*
X338657Y14101D01*
X338608Y14049D01*
X338586Y14002D01*
X338556Y13960D01*
X338535Y13891D01*
X338504Y13826D01*
X338499Y13774D01*
X338483Y13724D01*
X338485Y13653D01*
X338477Y13582D01*
X338488Y13531D01*
X338490Y13479D01*
X338514Y13411D01*
X338530Y13341D01*
X338556Y13296D01*
X338574Y13248D01*
X338619Y13192D01*
X338656Y13130D01*
X338695Y13096D01*
X338728Y13056D01*
X338788Y13017D01*
X338843Y12970D01*
X338891Y12951D01*
X338935Y12923D01*
X339004Y12905D01*
X339071Y12878D01*
X339142Y12870D01*
X339173Y12862D01*
X339197Y12864D01*
X339238Y12860D01*
X349962Y12860D01*
X350033Y12871D01*
X350105Y12873D01*
X350154Y12891D01*
X350205Y12899D01*
X350269Y12933D01*
X350336Y12958D01*
X350377Y12990D01*
X350423Y13015D01*
X350472Y13067D01*
X350528Y13111D01*
X350556Y13155D01*
X350592Y13193D01*
X350622Y13258D01*
X350661Y13318D01*
X350674Y13369D01*
X350696Y13416D01*
X350704Y13487D01*
X350721Y13557D01*
X350717Y13609D01*
X350723Y13660D01*
X350707Y13731D01*
X350702Y13802D01*
X350682Y13850D01*
X350670Y13901D01*
X350634Y13962D01*
X350606Y14028D01*
X350561Y14084D01*
X350544Y14112D01*
X350526Y14127D01*
X350501Y14159D01*
X348296Y16364D01*
X346679Y20267D01*
X346679Y39733D01*
X348296Y43636D01*
X351284Y46624D01*
X351797Y46836D01*
X351896Y46898D01*
X351997Y46958D01*
X352001Y46963D01*
X352006Y46966D01*
X352080Y47056D01*
X352157Y47145D01*
X352159Y47151D01*
X352163Y47156D01*
X352205Y47263D01*
X352249Y47373D01*
X352250Y47381D01*
X352251Y47385D01*
X352252Y47403D01*
X352267Y47540D01*
X352267Y49385D01*
X362915Y60033D01*
X422085Y60033D01*
X433654Y48464D01*
X433728Y48411D01*
X433797Y48351D01*
X433827Y48339D01*
X433853Y48320D01*
X433940Y48293D01*
X434025Y48259D01*
X434066Y48255D01*
X434088Y48248D01*
X434121Y48249D01*
X434192Y48241D01*
X435613Y48241D01*
X439516Y46624D01*
X442504Y43636D01*
X444121Y39733D01*
X444121Y20267D01*
X442504Y16364D01*
X440299Y14159D01*
X440257Y14101D01*
X440208Y14049D01*
X440186Y14002D01*
X440156Y13960D01*
X440135Y13891D01*
X440104Y13826D01*
X440099Y13774D01*
X440083Y13724D01*
X440085Y13653D01*
X440077Y13582D01*
X440088Y13531D01*
X440090Y13479D01*
X440114Y13411D01*
X440130Y13341D01*
X440156Y13296D01*
X440174Y13248D01*
X440219Y13192D01*
X440256Y13130D01*
X440295Y13096D01*
X440328Y13056D01*
X440388Y13017D01*
X440443Y12970D01*
X440491Y12951D01*
X440535Y12923D01*
X440604Y12905D01*
X440671Y12878D01*
X440742Y12870D01*
X440773Y12862D01*
X440797Y12864D01*
X440838Y12860D01*
X451562Y12860D01*
X451633Y12871D01*
X451705Y12873D01*
X451754Y12891D01*
X451805Y12899D01*
X451869Y12933D01*
X451936Y12958D01*
X451977Y12990D01*
X452023Y13015D01*
X452072Y13067D01*
X452128Y13111D01*
X452156Y13155D01*
X452192Y13193D01*
X452222Y13258D01*
X452261Y13318D01*
X452274Y13369D01*
X452296Y13416D01*
X452304Y13487D01*
X452321Y13557D01*
X452317Y13609D01*
X452323Y13660D01*
X452307Y13731D01*
X452302Y13802D01*
X452282Y13850D01*
X452270Y13901D01*
X452234Y13962D01*
X452206Y14028D01*
X452161Y14084D01*
X452144Y14112D01*
X452126Y14127D01*
X452101Y14159D01*
X449896Y16364D01*
X448279Y20267D01*
X448279Y39733D01*
X449896Y43636D01*
X452884Y46624D01*
X456787Y48241D01*
X461013Y48241D01*
X464916Y46624D01*
X467904Y43636D01*
X469521Y39733D01*
X469521Y20267D01*
X467904Y16364D01*
X465699Y14159D01*
X465657Y14101D01*
X465608Y14049D01*
X465586Y14002D01*
X465556Y13960D01*
X465535Y13891D01*
X465504Y13826D01*
X465499Y13774D01*
X465483Y13724D01*
X465485Y13653D01*
X465477Y13582D01*
X465488Y13531D01*
X465490Y13479D01*
X465514Y13411D01*
X465530Y13341D01*
X465556Y13296D01*
X465574Y13248D01*
X465619Y13192D01*
X465656Y13130D01*
X465695Y13096D01*
X465728Y13056D01*
X465788Y13017D01*
X465843Y12970D01*
X465891Y12951D01*
X465935Y12923D01*
X466004Y12905D01*
X466071Y12878D01*
X466142Y12870D01*
X466173Y12862D01*
X466197Y12864D01*
X466238Y12860D01*
X499162Y12860D01*
X499233Y12871D01*
X499305Y12873D01*
X499354Y12891D01*
X499405Y12899D01*
X499469Y12933D01*
X499536Y12958D01*
X499577Y12990D01*
X499623Y13015D01*
X499672Y13067D01*
X499728Y13111D01*
X499756Y13155D01*
X499792Y13193D01*
X499822Y13258D01*
X499861Y13318D01*
X499874Y13369D01*
X499896Y13416D01*
X499904Y13487D01*
X499921Y13557D01*
X499917Y13609D01*
X499923Y13660D01*
X499907Y13731D01*
X499902Y13802D01*
X499882Y13850D01*
X499870Y13901D01*
X499834Y13962D01*
X499806Y14028D01*
X499761Y14084D01*
X499744Y14112D01*
X499726Y14127D01*
X499701Y14159D01*
X497496Y16364D01*
X495879Y20267D01*
X495879Y39733D01*
X497496Y43636D01*
X500484Y46624D01*
X500997Y46837D01*
X501097Y46898D01*
X501197Y46958D01*
X501201Y46963D01*
X501206Y46966D01*
X501281Y47056D01*
X501357Y47145D01*
X501359Y47151D01*
X501363Y47156D01*
X501405Y47264D01*
X501449Y47373D01*
X501450Y47381D01*
X501451Y47385D01*
X501452Y47404D01*
X501467Y47540D01*
X501467Y63600D01*
X501453Y63690D01*
X501445Y63781D01*
X501433Y63811D01*
X501428Y63843D01*
X501385Y63923D01*
X501349Y64007D01*
X501323Y64039D01*
X501312Y64060D01*
X501289Y64082D01*
X501244Y64138D01*
X490638Y74744D01*
X490564Y74797D01*
X490495Y74857D01*
X490465Y74869D01*
X490439Y74888D01*
X490352Y74915D01*
X490267Y74949D01*
X490226Y74953D01*
X490204Y74960D01*
X490171Y74959D01*
X490100Y74967D01*
X192915Y74967D01*
X149888Y117994D01*
X149814Y118047D01*
X149745Y118107D01*
X149715Y118119D01*
X149689Y118138D01*
X149602Y118165D01*
X149517Y118199D01*
X149476Y118203D01*
X149454Y118210D01*
X149421Y118209D01*
X149350Y118217D01*
X148651Y118217D01*
X146158Y119250D01*
X144250Y121158D01*
X143217Y123651D01*
X143217Y126349D01*
X144250Y128842D01*
X146158Y130750D01*
X148651Y131783D01*
X151349Y131783D01*
X153842Y130750D01*
X155750Y128842D01*
X156783Y126349D01*
X156783Y125650D01*
X156797Y125560D01*
X156805Y125469D01*
X156817Y125439D01*
X156822Y125407D01*
X156865Y125327D01*
X156901Y125243D01*
X156927Y125211D01*
X156938Y125190D01*
X156961Y125168D01*
X157006Y125112D01*
X196862Y85256D01*
X196936Y85203D01*
X197005Y85143D01*
X197035Y85131D01*
X197061Y85112D01*
X197148Y85085D01*
X197233Y85051D01*
X197274Y85047D01*
X197296Y85040D01*
X197329Y85041D01*
X197400Y85033D01*
X494585Y85033D01*
X511533Y68085D01*
X511533Y47540D01*
X511552Y47425D01*
X511569Y47309D01*
X511571Y47303D01*
X511572Y47297D01*
X511627Y47194D01*
X511680Y47090D01*
X511685Y47085D01*
X511688Y47080D01*
X511772Y46999D01*
X511856Y46917D01*
X511862Y46914D01*
X511866Y46910D01*
X511883Y46903D01*
X512003Y46837D01*
X512516Y46624D01*
X515504Y43636D01*
X517121Y39733D01*
X517121Y20267D01*
X515504Y16364D01*
X513299Y14159D01*
X513257Y14101D01*
X513208Y14049D01*
X513186Y14002D01*
X513156Y13960D01*
X513135Y13891D01*
X513104Y13826D01*
X513099Y13774D01*
X513083Y13724D01*
X513085Y13653D01*
X513077Y13582D01*
X513088Y13531D01*
X513090Y13479D01*
X513114Y13411D01*
X513130Y13341D01*
X513156Y13296D01*
X513174Y13248D01*
X513219Y13192D01*
X513256Y13130D01*
X513295Y13096D01*
X513328Y13056D01*
X513388Y13017D01*
X513443Y12970D01*
X513491Y12951D01*
X513535Y12923D01*
X513604Y12905D01*
X513671Y12878D01*
X513742Y12870D01*
X513773Y12862D01*
X513797Y12864D01*
X513838Y12860D01*
X524562Y12860D01*
X524633Y12871D01*
X524705Y12873D01*
X524754Y12891D01*
X524805Y12899D01*
X524869Y12933D01*
X524936Y12958D01*
X524977Y12990D01*
X525023Y13015D01*
X525072Y13067D01*
X525128Y13111D01*
X525156Y13155D01*
X525192Y13193D01*
X525222Y13258D01*
X525261Y13318D01*
X525274Y13369D01*
X525296Y13416D01*
X525304Y13487D01*
X525321Y13557D01*
X525317Y13609D01*
X525323Y13660D01*
X525307Y13731D01*
X525302Y13802D01*
X525282Y13850D01*
X525270Y13901D01*
X525234Y13962D01*
X525206Y14028D01*
X525161Y14084D01*
X525144Y14112D01*
X525126Y14127D01*
X525101Y14159D01*
X522896Y16364D01*
X521279Y20267D01*
X521279Y39733D01*
X522896Y43636D01*
X525884Y46624D01*
X526497Y46878D01*
X526597Y46940D01*
X526697Y46999D01*
X526701Y47004D01*
X526706Y47008D01*
X526781Y47098D01*
X526857Y47186D01*
X526859Y47192D01*
X526863Y47197D01*
X526905Y47305D01*
X526949Y47415D01*
X526950Y47422D01*
X526951Y47427D01*
X526952Y47445D01*
X526967Y47581D01*
X526967Y80600D01*
X526953Y80690D01*
X526945Y80781D01*
X526933Y80811D01*
X526928Y80843D01*
X526904Y80888D01*
X526903Y80891D01*
X526895Y80905D01*
X526885Y80923D01*
X526849Y81007D01*
X526823Y81039D01*
X526812Y81060D01*
X526789Y81082D01*
X526787Y81085D01*
X526777Y81102D01*
X526766Y81111D01*
X526744Y81138D01*
X515638Y92244D01*
X515564Y92297D01*
X515495Y92357D01*
X515465Y92369D01*
X515439Y92388D01*
X515352Y92415D01*
X515267Y92449D01*
X515226Y92453D01*
X515204Y92460D01*
X515171Y92459D01*
X515100Y92467D01*
X205415Y92467D01*
X179888Y117994D01*
X179814Y118047D01*
X179745Y118107D01*
X179715Y118119D01*
X179689Y118138D01*
X179602Y118165D01*
X179517Y118199D01*
X179476Y118203D01*
X179454Y118210D01*
X179421Y118209D01*
X179350Y118217D01*
X178651Y118217D01*
X176158Y119250D01*
X174250Y121158D01*
X173217Y123651D01*
X173217Y126349D01*
X174250Y128842D01*
X176158Y130750D01*
X178651Y131783D01*
X181349Y131783D01*
X183842Y130750D01*
X185750Y128842D01*
X186783Y126349D01*
X186783Y125650D01*
X186797Y125560D01*
X186805Y125469D01*
X186817Y125439D01*
X186822Y125407D01*
X186865Y125327D01*
X186901Y125243D01*
X186927Y125211D01*
X186938Y125190D01*
X186961Y125168D01*
X187006Y125112D01*
X209362Y102756D01*
X209436Y102703D01*
X209505Y102643D01*
X209535Y102631D01*
X209561Y102612D01*
X209648Y102585D01*
X209733Y102551D01*
X209774Y102547D01*
X209796Y102540D01*
X209829Y102541D01*
X209900Y102533D01*
X519585Y102533D01*
X537033Y85085D01*
X537033Y47498D01*
X537052Y47384D01*
X537069Y47267D01*
X537071Y47262D01*
X537072Y47256D01*
X537127Y47153D01*
X537180Y47048D01*
X537185Y47044D01*
X537188Y47038D01*
X537272Y46958D01*
X537356Y46876D01*
X537362Y46872D01*
X537366Y46869D01*
X537383Y46861D01*
X537503Y46795D01*
X537916Y46624D01*
X540904Y43636D01*
X542521Y39733D01*
X542521Y20267D01*
X540904Y16364D01*
X538699Y14159D01*
X538657Y14101D01*
X538608Y14049D01*
X538586Y14002D01*
X538556Y13960D01*
X538535Y13891D01*
X538504Y13826D01*
X538499Y13774D01*
X538483Y13724D01*
X538485Y13653D01*
X538477Y13582D01*
X538488Y13531D01*
X538490Y13479D01*
X538514Y13411D01*
X538530Y13341D01*
X538556Y13296D01*
X538574Y13248D01*
X538619Y13192D01*
X538656Y13130D01*
X538695Y13096D01*
X538728Y13056D01*
X538788Y13017D01*
X538843Y12970D01*
X538891Y12951D01*
X538935Y12923D01*
X539004Y12905D01*
X539071Y12878D01*
X539142Y12870D01*
X539173Y12862D01*
X539197Y12864D01*
X539238Y12860D01*
X549962Y12860D01*
X550033Y12871D01*
X550105Y12873D01*
X550154Y12891D01*
X550205Y12899D01*
X550269Y12933D01*
X550336Y12958D01*
X550377Y12990D01*
X550423Y13015D01*
X550472Y13067D01*
X550528Y13111D01*
X550556Y13155D01*
X550592Y13193D01*
X550622Y13258D01*
X550661Y13318D01*
X550674Y13369D01*
X550696Y13416D01*
X550704Y13487D01*
X550721Y13557D01*
X550717Y13609D01*
X550723Y13660D01*
X550707Y13731D01*
X550702Y13802D01*
X550682Y13850D01*
X550670Y13901D01*
X550634Y13962D01*
X550606Y14028D01*
X550561Y14084D01*
X550544Y14112D01*
X550526Y14127D01*
X550501Y14159D01*
X548296Y16364D01*
X546679Y20267D01*
X546679Y39733D01*
X548296Y43636D01*
X551284Y46624D01*
X551997Y46919D01*
X552097Y46981D01*
X552197Y47041D01*
X552201Y47046D01*
X552206Y47049D01*
X552281Y47139D01*
X552357Y47228D01*
X552359Y47234D01*
X552363Y47238D01*
X552405Y47347D01*
X552449Y47456D01*
X552450Y47463D01*
X552451Y47468D01*
X552452Y47486D01*
X552467Y47623D01*
X552467Y87600D01*
X552453Y87690D01*
X552445Y87781D01*
X552433Y87811D01*
X552428Y87843D01*
X552385Y87923D01*
X552349Y88007D01*
X552323Y88039D01*
X552312Y88060D01*
X552289Y88082D01*
X552244Y88138D01*
X533138Y107244D01*
X533064Y107297D01*
X532995Y107357D01*
X532965Y107369D01*
X532939Y107388D01*
X532852Y107415D01*
X532767Y107449D01*
X532726Y107453D01*
X532704Y107460D01*
X532671Y107459D01*
X532600Y107467D01*
X220415Y107467D01*
X209888Y117994D01*
X209814Y118047D01*
X209745Y118107D01*
X209715Y118119D01*
X209689Y118138D01*
X209602Y118165D01*
X209517Y118199D01*
X209476Y118203D01*
X209454Y118210D01*
X209421Y118209D01*
X209350Y118217D01*
X208651Y118217D01*
X206158Y119250D01*
X204250Y121158D01*
X203217Y123651D01*
X203217Y126349D01*
X204250Y128842D01*
X206158Y130750D01*
X208651Y131783D01*
X211349Y131783D01*
X213842Y130750D01*
X215750Y128842D01*
X216783Y126349D01*
X216783Y125650D01*
X216797Y125560D01*
X216805Y125469D01*
X216817Y125439D01*
X216822Y125407D01*
X216865Y125327D01*
X216901Y125243D01*
X216927Y125211D01*
X216938Y125190D01*
X216961Y125168D01*
X217006Y125112D01*
X224362Y117756D01*
X224436Y117703D01*
X224505Y117643D01*
X224535Y117631D01*
X224561Y117612D01*
X224648Y117585D01*
X224733Y117551D01*
X224774Y117547D01*
X224796Y117540D01*
X224829Y117541D01*
X224900Y117533D01*
X236476Y117533D01*
X236572Y117548D01*
X236669Y117558D01*
X236693Y117568D01*
X236719Y117572D01*
X236805Y117618D01*
X236894Y117658D01*
X236914Y117675D01*
X236937Y117688D01*
X237004Y117758D01*
X237075Y117824D01*
X237088Y117847D01*
X237106Y117866D01*
X237147Y117954D01*
X237194Y118040D01*
X237199Y118065D01*
X237210Y118089D01*
X237220Y118186D01*
X237238Y118282D01*
X237234Y118308D01*
X237237Y118333D01*
X237216Y118428D01*
X237202Y118525D01*
X237190Y118548D01*
X237184Y118574D01*
X237134Y118658D01*
X237090Y118744D01*
X237072Y118762D01*
X237058Y118785D01*
X236984Y118848D01*
X236915Y118916D01*
X236886Y118932D01*
X236871Y118945D01*
X236841Y118957D01*
X236768Y118997D01*
X236158Y119250D01*
X234250Y121158D01*
X233217Y123651D01*
X233217Y126349D01*
X234250Y128842D01*
X236158Y130750D01*
X238651Y131783D01*
X241349Y131783D01*
X243842Y130750D01*
X244337Y130256D01*
X244410Y130203D01*
X244480Y130143D01*
X244510Y130131D01*
X244536Y130112D01*
X244623Y130085D01*
X244708Y130051D01*
X244749Y130047D01*
X244771Y130040D01*
X244804Y130041D01*
X244875Y130033D01*
X554585Y130033D01*
X587733Y96885D01*
X587733Y47540D01*
X587752Y47425D01*
X587769Y47309D01*
X587771Y47303D01*
X587772Y47297D01*
X587827Y47194D01*
X587880Y47090D01*
X587885Y47085D01*
X587888Y47080D01*
X587972Y46999D01*
X588056Y46917D01*
X588062Y46914D01*
X588066Y46910D01*
X588083Y46903D01*
X588203Y46837D01*
X588716Y46624D01*
X591704Y43636D01*
X593321Y39733D01*
X593321Y20267D01*
X591704Y16364D01*
X589499Y14159D01*
X589457Y14101D01*
X589408Y14049D01*
X589386Y14002D01*
X589356Y13960D01*
X589335Y13891D01*
X589304Y13826D01*
X589299Y13774D01*
X589283Y13724D01*
X589285Y13653D01*
X589277Y13582D01*
X589288Y13531D01*
X589290Y13479D01*
X589314Y13411D01*
X589330Y13341D01*
X589356Y13296D01*
X589374Y13248D01*
X589419Y13192D01*
X589456Y13130D01*
X589495Y13096D01*
X589528Y13056D01*
X589588Y13017D01*
X589643Y12970D01*
X589691Y12951D01*
X589735Y12923D01*
X589804Y12905D01*
X589871Y12878D01*
X589942Y12870D01*
X589973Y12862D01*
X589997Y12864D01*
X590038Y12860D01*
X600762Y12860D01*
X600833Y12871D01*
X600905Y12873D01*
X600954Y12891D01*
X601005Y12899D01*
X601069Y12933D01*
X601136Y12958D01*
X601177Y12990D01*
X601223Y13015D01*
X601272Y13067D01*
X601328Y13111D01*
X601356Y13155D01*
X601392Y13193D01*
X601422Y13258D01*
X601461Y13318D01*
X601474Y13369D01*
X601496Y13416D01*
X601504Y13487D01*
X601521Y13557D01*
X601517Y13609D01*
X601523Y13660D01*
X601507Y13731D01*
X601502Y13802D01*
X601482Y13850D01*
X601470Y13901D01*
X601434Y13962D01*
X601406Y14028D01*
X601361Y14084D01*
X601344Y14112D01*
X601326Y14127D01*
X601301Y14159D01*
X599096Y16364D01*
X597479Y20267D01*
X597479Y39733D01*
X599096Y43636D01*
X602084Y46624D01*
X605987Y48241D01*
X610213Y48241D01*
X614116Y46624D01*
X617104Y43636D01*
X618721Y39733D01*
X618721Y20267D01*
X617104Y16364D01*
X614899Y14159D01*
X614857Y14101D01*
X614808Y14049D01*
X614786Y14002D01*
X614756Y13960D01*
X614735Y13891D01*
X614704Y13826D01*
X614699Y13774D01*
X614683Y13724D01*
X614685Y13653D01*
X614677Y13582D01*
X614688Y13531D01*
X614690Y13479D01*
X614714Y13411D01*
X614730Y13341D01*
X614756Y13296D01*
X614774Y13248D01*
X614819Y13192D01*
X614856Y13130D01*
X614895Y13096D01*
X614928Y13056D01*
X614988Y13017D01*
X615043Y12970D01*
X615091Y12951D01*
X615135Y12923D01*
X615204Y12905D01*
X615271Y12878D01*
X615342Y12870D01*
X615373Y12862D01*
X615397Y12864D01*
X615438Y12860D01*
X626162Y12860D01*
X626233Y12871D01*
X626305Y12873D01*
X626354Y12891D01*
X626405Y12899D01*
X626469Y12933D01*
X626536Y12958D01*
X626577Y12990D01*
X626623Y13015D01*
X626672Y13067D01*
X626728Y13111D01*
X626756Y13155D01*
X626792Y13193D01*
X626822Y13258D01*
X626861Y13318D01*
X626874Y13369D01*
X626896Y13416D01*
X626904Y13487D01*
X626921Y13557D01*
X626917Y13609D01*
X626923Y13660D01*
X626907Y13731D01*
X626902Y13802D01*
X626882Y13850D01*
X626870Y13901D01*
X626834Y13962D01*
X626806Y14028D01*
X626761Y14084D01*
X626744Y14112D01*
X626726Y14127D01*
X626701Y14159D01*
X624496Y16364D01*
X622879Y20267D01*
X622879Y39733D01*
X624496Y43636D01*
X627484Y46624D01*
X631387Y48241D01*
X635613Y48241D01*
X639516Y46624D01*
X642504Y43636D01*
X644121Y39733D01*
X644121Y20267D01*
X642504Y16364D01*
X640299Y14159D01*
X640257Y14101D01*
X640208Y14049D01*
X640186Y14002D01*
X640156Y13960D01*
X640135Y13891D01*
X640104Y13826D01*
X640099Y13774D01*
X640083Y13724D01*
X640085Y13653D01*
X640077Y13582D01*
X640088Y13531D01*
X640090Y13479D01*
X640114Y13411D01*
X640130Y13341D01*
X640156Y13296D01*
X640174Y13248D01*
X640219Y13192D01*
X640256Y13130D01*
X640295Y13096D01*
X640328Y13056D01*
X640388Y13017D01*
X640443Y12970D01*
X640491Y12951D01*
X640535Y12923D01*
X640604Y12905D01*
X640671Y12878D01*
X640742Y12870D01*
X640773Y12862D01*
X640797Y12864D01*
X640838Y12860D01*
X650272Y12860D01*
X650292Y12863D01*
X650311Y12861D01*
X650413Y12883D01*
X650515Y12899D01*
X650532Y12909D01*
X650552Y12913D01*
X650641Y12966D01*
X650732Y13015D01*
X650746Y13029D01*
X650763Y13039D01*
X650830Y13118D01*
X650902Y13193D01*
X650910Y13211D01*
X650923Y13226D01*
X650962Y13322D01*
X651005Y13416D01*
X651007Y13436D01*
X651015Y13454D01*
X651033Y13621D01*
X651033Y29103D01*
X652774Y33304D01*
X676210Y56741D01*
X676263Y56815D01*
X676323Y56884D01*
X676335Y56914D01*
X676354Y56941D01*
X676381Y57027D01*
X676415Y57112D01*
X676419Y57153D01*
X676426Y57176D01*
X676425Y57208D01*
X676433Y57279D01*
X676433Y374839D01*
X676419Y374929D01*
X676411Y375020D01*
X676399Y375050D01*
X676394Y375082D01*
X676351Y375162D01*
X676315Y375246D01*
X676289Y375278D01*
X676278Y375299D01*
X676255Y375321D01*
X676210Y375377D01*
X652774Y398814D01*
X651033Y403015D01*
X651033Y490092D01*
X651018Y490188D01*
X651008Y490285D01*
X650998Y490309D01*
X650994Y490335D01*
X650948Y490421D01*
X650908Y490510D01*
X650891Y490529D01*
X650878Y490552D01*
X650808Y490619D01*
X650742Y490691D01*
X650719Y490703D01*
X650700Y490721D01*
X650612Y490762D01*
X650526Y490809D01*
X650501Y490814D01*
X650477Y490825D01*
X650380Y490836D01*
X650284Y490853D01*
X650258Y490849D01*
X650233Y490852D01*
X650137Y490832D01*
X650041Y490817D01*
X650018Y490806D01*
X649992Y490800D01*
X649909Y490750D01*
X649822Y490706D01*
X649803Y490687D01*
X649781Y490674D01*
X649718Y490600D01*
X649650Y490530D01*
X649634Y490502D01*
X649621Y490487D01*
X649609Y490456D01*
X649569Y490383D01*
X647904Y486364D01*
X644916Y483376D01*
X641013Y481759D01*
X636787Y481759D01*
X632884Y483376D01*
X629896Y486364D01*
X628279Y490267D01*
X628279Y509733D01*
X629896Y513636D01*
X632884Y516624D01*
X636787Y518241D01*
X641013Y518241D01*
X644916Y516624D01*
X647904Y513636D01*
X649569Y509617D01*
X649620Y509534D01*
X649666Y509448D01*
X649685Y509430D01*
X649698Y509408D01*
X649773Y509346D01*
X649844Y509279D01*
X649868Y509268D01*
X649888Y509251D01*
X649979Y509216D01*
X650067Y509175D01*
X650093Y509172D01*
X650117Y509163D01*
X650215Y509159D01*
X650311Y509148D01*
X650337Y509153D01*
X650363Y509152D01*
X650457Y509179D01*
X650552Y509200D01*
X650574Y509213D01*
X650599Y509221D01*
X650679Y509276D01*
X650763Y509326D01*
X650780Y509346D01*
X650801Y509361D01*
X650860Y509439D01*
X650923Y509513D01*
X650933Y509537D01*
X650948Y509558D01*
X650978Y509651D01*
X651015Y509741D01*
X651018Y509774D01*
X651024Y509792D01*
X651024Y509825D01*
X651033Y509908D01*
X651033Y514539D01*
X651031Y514552D01*
X651032Y514563D01*
X651020Y514617D01*
X651019Y514629D01*
X651011Y514720D01*
X650999Y514750D01*
X650994Y514782D01*
X650951Y514862D01*
X650915Y514946D01*
X650889Y514978D01*
X650878Y514999D01*
X650855Y515021D01*
X650810Y515077D01*
X642712Y523175D01*
X642638Y523228D01*
X642569Y523288D01*
X642539Y523300D01*
X642512Y523319D01*
X642426Y523346D01*
X642341Y523380D01*
X642300Y523384D01*
X642277Y523391D01*
X642245Y523390D01*
X642174Y523398D01*
X14256Y523398D01*
X14236Y523395D01*
X14217Y523397D01*
X14115Y523375D01*
X14013Y523359D01*
X13996Y523349D01*
X13976Y523345D01*
X13887Y523292D01*
X13796Y523243D01*
X13782Y523229D01*
X13765Y523219D01*
X13698Y523140D01*
X13626Y523065D01*
X13618Y523047D01*
X13605Y523032D01*
X13566Y522936D01*
X13523Y522842D01*
X13521Y522822D01*
X13513Y522804D01*
X13495Y522637D01*
X13495Y13621D01*
X13498Y13601D01*
X13496Y13582D01*
X13518Y13480D01*
X13534Y13378D01*
X13544Y13361D01*
X13548Y13341D01*
X13601Y13252D01*
X13650Y13161D01*
X13664Y13147D01*
X13674Y13130D01*
X13753Y13063D01*
X13828Y12991D01*
X13846Y12983D01*
X13861Y12970D01*
X13957Y12931D01*
X14051Y12888D01*
X14071Y12886D01*
X14089Y12878D01*
X14256Y12860D01*
X273762Y12860D01*
X273833Y12871D01*
G37*
%LPC*%
G36*
X451151Y233217D02*
X451151Y233217D01*
X448658Y234250D01*
X446750Y236158D01*
X445717Y238651D01*
X445717Y241349D01*
X446750Y243842D01*
X447244Y244336D01*
X447298Y244411D01*
X447357Y244480D01*
X447369Y244510D01*
X447388Y244536D01*
X447415Y244623D01*
X447449Y244708D01*
X447453Y244749D01*
X447460Y244771D01*
X447459Y244804D01*
X447467Y244875D01*
X447467Y252600D01*
X447453Y252690D01*
X447445Y252781D01*
X447433Y252811D01*
X447428Y252843D01*
X447385Y252923D01*
X447349Y253007D01*
X447323Y253039D01*
X447312Y253060D01*
X447289Y253082D01*
X447244Y253138D01*
X418138Y282244D01*
X418064Y282297D01*
X417995Y282357D01*
X417965Y282369D01*
X417939Y282388D01*
X417852Y282415D01*
X417767Y282449D01*
X417726Y282453D01*
X417704Y282460D01*
X417671Y282459D01*
X417600Y282467D01*
X240415Y282467D01*
X237244Y285638D01*
X187038Y335844D01*
X183867Y339015D01*
X183867Y360275D01*
X183848Y360389D01*
X183831Y360506D01*
X183829Y360511D01*
X183828Y360517D01*
X183773Y360620D01*
X183720Y360725D01*
X183715Y360729D01*
X183712Y360735D01*
X183629Y360814D01*
X183544Y360897D01*
X183538Y360901D01*
X183534Y360904D01*
X183517Y360912D01*
X183397Y360978D01*
X181677Y361690D01*
X178090Y365277D01*
X176903Y368143D01*
X176865Y368204D01*
X176836Y368270D01*
X176801Y368308D01*
X176774Y368352D01*
X176718Y368398D01*
X176670Y368451D01*
X176624Y368476D01*
X176584Y368509D01*
X176517Y368535D01*
X176454Y368569D01*
X176403Y368579D01*
X176355Y368597D01*
X176283Y368600D01*
X176212Y368613D01*
X176161Y368606D01*
X176109Y368608D01*
X176040Y368588D01*
X175969Y368577D01*
X175923Y368554D01*
X175873Y368539D01*
X175814Y368498D01*
X175750Y368466D01*
X175713Y368429D01*
X175671Y368399D01*
X175628Y368341D01*
X175578Y368290D01*
X175543Y368227D01*
X175524Y368202D01*
X175517Y368179D01*
X175497Y368143D01*
X174310Y365277D01*
X170723Y361690D01*
X166036Y359749D01*
X160964Y359749D01*
X156277Y361690D01*
X152690Y365277D01*
X151503Y368143D01*
X151465Y368204D01*
X151436Y368270D01*
X151401Y368308D01*
X151374Y368352D01*
X151318Y368398D01*
X151270Y368451D01*
X151224Y368476D01*
X151184Y368509D01*
X151117Y368535D01*
X151054Y368569D01*
X151003Y368579D01*
X150955Y368597D01*
X150883Y368600D01*
X150812Y368613D01*
X150761Y368606D01*
X150709Y368608D01*
X150640Y368588D01*
X150569Y368577D01*
X150523Y368554D01*
X150473Y368539D01*
X150414Y368498D01*
X150350Y368466D01*
X150313Y368429D01*
X150271Y368399D01*
X150228Y368341D01*
X150178Y368290D01*
X150143Y368227D01*
X150124Y368202D01*
X150117Y368179D01*
X150097Y368143D01*
X148910Y365277D01*
X145323Y361690D01*
X140636Y359749D01*
X135564Y359749D01*
X130877Y361690D01*
X127290Y365277D01*
X126103Y368143D01*
X126065Y368204D01*
X126036Y368270D01*
X126001Y368308D01*
X125974Y368352D01*
X125918Y368398D01*
X125870Y368451D01*
X125824Y368476D01*
X125784Y368509D01*
X125717Y368535D01*
X125654Y368569D01*
X125603Y368579D01*
X125555Y368597D01*
X125483Y368600D01*
X125412Y368613D01*
X125361Y368606D01*
X125309Y368608D01*
X125240Y368588D01*
X125169Y368577D01*
X125123Y368554D01*
X125073Y368539D01*
X125014Y368498D01*
X124950Y368466D01*
X124913Y368429D01*
X124871Y368399D01*
X124828Y368341D01*
X124778Y368290D01*
X124743Y368227D01*
X124724Y368202D01*
X124717Y368179D01*
X124697Y368143D01*
X123510Y365277D01*
X119923Y361690D01*
X115236Y359749D01*
X110164Y359749D01*
X105477Y361690D01*
X101890Y365277D01*
X100703Y368143D01*
X100665Y368204D01*
X100636Y368270D01*
X100601Y368308D01*
X100574Y368352D01*
X100518Y368398D01*
X100470Y368451D01*
X100424Y368476D01*
X100384Y368509D01*
X100317Y368535D01*
X100254Y368569D01*
X100203Y368579D01*
X100155Y368597D01*
X100083Y368600D01*
X100012Y368613D01*
X99961Y368606D01*
X99909Y368608D01*
X99840Y368588D01*
X99769Y368577D01*
X99723Y368554D01*
X99673Y368539D01*
X99614Y368498D01*
X99550Y368466D01*
X99513Y368429D01*
X99471Y368399D01*
X99428Y368341D01*
X99378Y368290D01*
X99343Y368227D01*
X99324Y368202D01*
X99317Y368179D01*
X99297Y368143D01*
X98110Y365277D01*
X94523Y361690D01*
X89836Y359749D01*
X84764Y359749D01*
X80077Y361690D01*
X76490Y365277D01*
X75303Y368143D01*
X75265Y368204D01*
X75236Y368270D01*
X75201Y368308D01*
X75174Y368352D01*
X75118Y368398D01*
X75070Y368451D01*
X75024Y368476D01*
X74984Y368509D01*
X74917Y368535D01*
X74854Y368569D01*
X74803Y368579D01*
X74755Y368597D01*
X74683Y368600D01*
X74612Y368613D01*
X74561Y368606D01*
X74509Y368608D01*
X74440Y368588D01*
X74369Y368577D01*
X74323Y368554D01*
X74273Y368539D01*
X74214Y368498D01*
X74150Y368466D01*
X74113Y368429D01*
X74071Y368399D01*
X74028Y368341D01*
X73978Y368290D01*
X73943Y368227D01*
X73924Y368202D01*
X73917Y368179D01*
X73897Y368143D01*
X72710Y365277D01*
X69123Y361690D01*
X64436Y359749D01*
X59364Y359749D01*
X54677Y361690D01*
X51090Y365277D01*
X49149Y369964D01*
X49149Y375036D01*
X51090Y379723D01*
X54677Y383310D01*
X59364Y385251D01*
X64436Y385251D01*
X69123Y383310D01*
X72710Y379723D01*
X73897Y376857D01*
X73935Y376796D01*
X73964Y376730D01*
X73999Y376692D01*
X74026Y376648D01*
X74082Y376602D01*
X74130Y376549D01*
X74176Y376524D01*
X74216Y376491D01*
X74283Y376465D01*
X74346Y376431D01*
X74397Y376421D01*
X74445Y376403D01*
X74517Y376400D01*
X74588Y376387D01*
X74639Y376394D01*
X74691Y376392D01*
X74760Y376412D01*
X74831Y376423D01*
X74877Y376446D01*
X74927Y376461D01*
X74986Y376502D01*
X75050Y376534D01*
X75087Y376571D01*
X75129Y376601D01*
X75172Y376659D01*
X75222Y376710D01*
X75257Y376773D01*
X75276Y376798D01*
X75283Y376821D01*
X75303Y376857D01*
X76490Y379723D01*
X80077Y383310D01*
X84764Y385251D01*
X89836Y385251D01*
X94523Y383310D01*
X98110Y379723D01*
X99297Y376857D01*
X99335Y376796D01*
X99364Y376730D01*
X99399Y376692D01*
X99426Y376648D01*
X99482Y376602D01*
X99530Y376549D01*
X99576Y376524D01*
X99616Y376491D01*
X99683Y376465D01*
X99746Y376431D01*
X99797Y376421D01*
X99845Y376403D01*
X99917Y376400D01*
X99988Y376387D01*
X100039Y376394D01*
X100091Y376392D01*
X100160Y376412D01*
X100231Y376423D01*
X100277Y376446D01*
X100327Y376461D01*
X100386Y376502D01*
X100450Y376534D01*
X100487Y376571D01*
X100529Y376601D01*
X100572Y376659D01*
X100622Y376710D01*
X100657Y376773D01*
X100676Y376798D01*
X100683Y376821D01*
X100703Y376857D01*
X101890Y379723D01*
X105477Y383310D01*
X110164Y385251D01*
X115236Y385251D01*
X119923Y383310D01*
X123510Y379723D01*
X124697Y376857D01*
X124735Y376796D01*
X124764Y376730D01*
X124799Y376692D01*
X124826Y376648D01*
X124882Y376602D01*
X124930Y376549D01*
X124976Y376524D01*
X125016Y376491D01*
X125083Y376465D01*
X125146Y376431D01*
X125197Y376421D01*
X125245Y376403D01*
X125317Y376400D01*
X125388Y376387D01*
X125439Y376394D01*
X125491Y376392D01*
X125560Y376412D01*
X125631Y376423D01*
X125677Y376446D01*
X125727Y376461D01*
X125786Y376502D01*
X125850Y376534D01*
X125887Y376571D01*
X125929Y376601D01*
X125972Y376659D01*
X126022Y376710D01*
X126057Y376773D01*
X126076Y376798D01*
X126083Y376821D01*
X126103Y376857D01*
X127290Y379723D01*
X130877Y383310D01*
X135564Y385251D01*
X140636Y385251D01*
X145323Y383310D01*
X148910Y379723D01*
X150097Y376857D01*
X150135Y376796D01*
X150164Y376730D01*
X150199Y376692D01*
X150226Y376648D01*
X150282Y376602D01*
X150330Y376549D01*
X150376Y376524D01*
X150416Y376491D01*
X150483Y376465D01*
X150546Y376431D01*
X150597Y376421D01*
X150645Y376403D01*
X150717Y376400D01*
X150788Y376387D01*
X150839Y376394D01*
X150891Y376392D01*
X150960Y376412D01*
X151031Y376423D01*
X151077Y376446D01*
X151127Y376461D01*
X151186Y376502D01*
X151250Y376534D01*
X151287Y376571D01*
X151329Y376601D01*
X151372Y376659D01*
X151422Y376710D01*
X151457Y376773D01*
X151476Y376798D01*
X151483Y376821D01*
X151503Y376857D01*
X152690Y379723D01*
X156277Y383310D01*
X160964Y385251D01*
X166036Y385251D01*
X170723Y383310D01*
X174310Y379723D01*
X175497Y376857D01*
X175535Y376796D01*
X175564Y376730D01*
X175599Y376692D01*
X175626Y376648D01*
X175682Y376602D01*
X175730Y376549D01*
X175776Y376524D01*
X175816Y376491D01*
X175883Y376465D01*
X175946Y376431D01*
X175997Y376421D01*
X176045Y376403D01*
X176117Y376400D01*
X176188Y376387D01*
X176239Y376394D01*
X176291Y376392D01*
X176360Y376412D01*
X176431Y376423D01*
X176477Y376446D01*
X176527Y376461D01*
X176586Y376502D01*
X176650Y376534D01*
X176687Y376571D01*
X176729Y376601D01*
X176772Y376659D01*
X176822Y376710D01*
X176857Y376773D01*
X176876Y376798D01*
X176883Y376821D01*
X176903Y376857D01*
X178090Y379723D01*
X181677Y383310D01*
X186364Y385251D01*
X191436Y385251D01*
X196123Y383310D01*
X199710Y379723D01*
X200897Y376857D01*
X200935Y376796D01*
X200964Y376730D01*
X200999Y376692D01*
X201026Y376648D01*
X201082Y376602D01*
X201130Y376549D01*
X201176Y376524D01*
X201216Y376491D01*
X201283Y376465D01*
X201346Y376431D01*
X201397Y376421D01*
X201445Y376403D01*
X201517Y376400D01*
X201588Y376387D01*
X201639Y376394D01*
X201691Y376392D01*
X201760Y376412D01*
X201831Y376423D01*
X201877Y376446D01*
X201927Y376461D01*
X201986Y376502D01*
X202050Y376534D01*
X202087Y376571D01*
X202129Y376601D01*
X202172Y376659D01*
X202222Y376710D01*
X202257Y376773D01*
X202276Y376798D01*
X202283Y376821D01*
X202303Y376857D01*
X203490Y379723D01*
X207077Y383310D01*
X211764Y385251D01*
X216836Y385251D01*
X218556Y384538D01*
X218670Y384512D01*
X218783Y384483D01*
X218790Y384484D01*
X218796Y384482D01*
X218912Y384493D01*
X219029Y384502D01*
X219034Y384505D01*
X219041Y384505D01*
X219148Y384553D01*
X219255Y384598D01*
X219261Y384603D01*
X219265Y384605D01*
X219279Y384618D01*
X219386Y384703D01*
X246544Y411862D01*
X249715Y415033D01*
X407625Y415033D01*
X407715Y415047D01*
X407806Y415055D01*
X407836Y415067D01*
X407868Y415072D01*
X407949Y415115D01*
X408032Y415151D01*
X408065Y415177D01*
X408085Y415188D01*
X408107Y415211D01*
X408163Y415256D01*
X408658Y415750D01*
X411151Y416783D01*
X413849Y416783D01*
X416342Y415750D01*
X418250Y413842D01*
X419283Y411349D01*
X419283Y408651D01*
X418665Y407160D01*
X418649Y407090D01*
X418623Y407023D01*
X418621Y406971D01*
X418609Y406920D01*
X418616Y406849D01*
X418613Y406777D01*
X418627Y406727D01*
X418632Y406675D01*
X418661Y406610D01*
X418681Y406541D01*
X418711Y406498D01*
X418732Y406451D01*
X418780Y406398D01*
X418821Y406339D01*
X418863Y406308D01*
X418898Y406270D01*
X418961Y406235D01*
X419019Y406192D01*
X419068Y406176D01*
X419114Y406151D01*
X419184Y406138D01*
X419253Y406116D01*
X419305Y406116D01*
X419356Y406107D01*
X419427Y406118D01*
X419499Y406118D01*
X419567Y406138D01*
X419599Y406143D01*
X419620Y406154D01*
X419660Y406165D01*
X421151Y406783D01*
X423849Y406783D01*
X426342Y405750D01*
X428250Y403842D01*
X429283Y401349D01*
X429283Y398651D01*
X428220Y396085D01*
X428210Y396041D01*
X428190Y395999D01*
X428182Y395922D01*
X428164Y395846D01*
X428168Y395800D01*
X428163Y395755D01*
X428180Y395678D01*
X428187Y395601D01*
X428206Y395559D01*
X428215Y395514D01*
X428255Y395447D01*
X428287Y395376D01*
X428318Y395342D01*
X428342Y395303D01*
X428401Y395252D01*
X428453Y395195D01*
X428494Y395173D01*
X428528Y395143D01*
X428601Y395114D01*
X428669Y395077D01*
X428714Y395068D01*
X428757Y395051D01*
X428893Y395036D01*
X428911Y395033D01*
X428916Y395034D01*
X428923Y395033D01*
X437625Y395033D01*
X437715Y395047D01*
X437806Y395055D01*
X437836Y395067D01*
X437868Y395072D01*
X437949Y395115D01*
X438032Y395151D01*
X438065Y395177D01*
X438085Y395188D01*
X438107Y395211D01*
X438163Y395256D01*
X438658Y395750D01*
X441151Y396783D01*
X443849Y396783D01*
X446342Y395750D01*
X448250Y393842D01*
X449283Y391349D01*
X449283Y388651D01*
X448250Y386158D01*
X446342Y384250D01*
X443849Y383217D01*
X441151Y383217D01*
X438658Y384250D01*
X438163Y384744D01*
X438090Y384797D01*
X438020Y384857D01*
X437990Y384869D01*
X437964Y384888D01*
X437877Y384915D01*
X437792Y384949D01*
X437751Y384953D01*
X437729Y384960D01*
X437696Y384959D01*
X437625Y384967D01*
X430614Y384967D01*
X430543Y384956D01*
X430472Y384954D01*
X430423Y384936D01*
X430371Y384928D01*
X430308Y384894D01*
X430241Y384869D01*
X430200Y384837D01*
X430154Y384812D01*
X430105Y384761D01*
X430049Y384716D01*
X430021Y384672D01*
X429985Y384634D01*
X429954Y384569D01*
X429916Y384509D01*
X429903Y384458D01*
X429881Y384411D01*
X429873Y384340D01*
X429856Y384270D01*
X429860Y384218D01*
X429854Y384167D01*
X429869Y384096D01*
X429875Y384025D01*
X429895Y383977D01*
X429906Y383926D01*
X429943Y383865D01*
X429971Y383799D01*
X430016Y383743D01*
X430032Y383715D01*
X430050Y383700D01*
X430076Y383668D01*
X430251Y383493D01*
X430251Y366706D01*
X430262Y366635D01*
X430264Y366563D01*
X430282Y366514D01*
X430290Y366463D01*
X430324Y366400D01*
X430349Y366332D01*
X430381Y366292D01*
X430406Y366246D01*
X430458Y366196D01*
X430502Y366140D01*
X430546Y366112D01*
X430584Y366076D01*
X430649Y366046D01*
X430709Y366007D01*
X430760Y365995D01*
X430807Y365973D01*
X430878Y365965D01*
X430948Y365947D01*
X431000Y365951D01*
X431051Y365946D01*
X431122Y365961D01*
X431193Y365966D01*
X431241Y365987D01*
X431292Y365998D01*
X431353Y366035D01*
X431419Y366063D01*
X431475Y366108D01*
X431503Y366124D01*
X431518Y366142D01*
X431550Y366168D01*
X455494Y390112D01*
X455547Y390186D01*
X455607Y390255D01*
X455619Y390285D01*
X455638Y390311D01*
X455665Y390398D01*
X455699Y390483D01*
X455703Y390524D01*
X455710Y390546D01*
X455709Y390579D01*
X455717Y390650D01*
X455717Y391349D01*
X456750Y393842D01*
X458658Y395750D01*
X461151Y396783D01*
X463849Y396783D01*
X466342Y395750D01*
X468250Y393842D01*
X469283Y391349D01*
X469283Y388651D01*
X468250Y386158D01*
X466342Y384250D01*
X463849Y383217D01*
X463150Y383217D01*
X463060Y383203D01*
X462969Y383195D01*
X462939Y383183D01*
X462907Y383178D01*
X462827Y383135D01*
X462743Y383099D01*
X462711Y383073D01*
X462690Y383062D01*
X462668Y383039D01*
X462612Y382994D01*
X438602Y358984D01*
X438557Y358922D01*
X438532Y358895D01*
X438527Y358885D01*
X438489Y358841D01*
X438477Y358811D01*
X438458Y358785D01*
X438431Y358698D01*
X438397Y358613D01*
X438393Y358572D01*
X438386Y358550D01*
X438387Y358517D01*
X438379Y358446D01*
X438379Y358140D01*
X431860Y351621D01*
X307252Y351621D01*
X304081Y354792D01*
X297700Y361173D01*
X297606Y361240D01*
X297512Y361311D01*
X297506Y361312D01*
X297501Y361316D01*
X297390Y361350D01*
X297278Y361387D01*
X297272Y361387D01*
X297266Y361388D01*
X297149Y361385D01*
X297032Y361384D01*
X297025Y361382D01*
X297020Y361382D01*
X297002Y361376D01*
X296871Y361338D01*
X293036Y359749D01*
X287964Y359749D01*
X283277Y361690D01*
X279690Y365277D01*
X278503Y368143D01*
X278465Y368204D01*
X278436Y368270D01*
X278401Y368308D01*
X278374Y368352D01*
X278318Y368398D01*
X278270Y368451D01*
X278224Y368476D01*
X278184Y368509D01*
X278117Y368535D01*
X278054Y368569D01*
X278003Y368579D01*
X277955Y368597D01*
X277883Y368600D01*
X277812Y368613D01*
X277761Y368606D01*
X277709Y368608D01*
X277640Y368588D01*
X277569Y368577D01*
X277523Y368554D01*
X277473Y368539D01*
X277414Y368498D01*
X277350Y368466D01*
X277313Y368429D01*
X277271Y368399D01*
X277228Y368341D01*
X277178Y368290D01*
X277143Y368227D01*
X277124Y368202D01*
X277117Y368179D01*
X277097Y368143D01*
X275910Y365277D01*
X272323Y361690D01*
X267636Y359749D01*
X262564Y359749D01*
X257877Y361690D01*
X254290Y365277D01*
X253103Y368143D01*
X253065Y368204D01*
X253036Y368270D01*
X253001Y368308D01*
X252974Y368352D01*
X252918Y368398D01*
X252870Y368451D01*
X252824Y368476D01*
X252784Y368509D01*
X252717Y368535D01*
X252654Y368569D01*
X252603Y368579D01*
X252555Y368597D01*
X252483Y368600D01*
X252412Y368613D01*
X252361Y368606D01*
X252309Y368608D01*
X252240Y368588D01*
X252169Y368577D01*
X252123Y368554D01*
X252073Y368539D01*
X252014Y368498D01*
X251950Y368466D01*
X251913Y368429D01*
X251871Y368399D01*
X251828Y368341D01*
X251778Y368290D01*
X251743Y368227D01*
X251724Y368202D01*
X251717Y368179D01*
X251697Y368143D01*
X250510Y365277D01*
X246923Y361690D01*
X242236Y359749D01*
X237164Y359749D01*
X232477Y361690D01*
X228890Y365277D01*
X227703Y368143D01*
X227665Y368204D01*
X227636Y368270D01*
X227601Y368308D01*
X227574Y368352D01*
X227518Y368398D01*
X227470Y368451D01*
X227424Y368476D01*
X227384Y368509D01*
X227317Y368535D01*
X227254Y368569D01*
X227203Y368579D01*
X227155Y368597D01*
X227083Y368600D01*
X227012Y368613D01*
X226961Y368606D01*
X226909Y368608D01*
X226840Y368588D01*
X226769Y368577D01*
X226723Y368554D01*
X226673Y368539D01*
X226614Y368498D01*
X226550Y368466D01*
X226513Y368429D01*
X226471Y368399D01*
X226428Y368341D01*
X226378Y368290D01*
X226343Y368227D01*
X226324Y368202D01*
X226317Y368179D01*
X226297Y368143D01*
X225110Y365277D01*
X221523Y361690D01*
X216836Y359749D01*
X211764Y359749D01*
X207077Y361690D01*
X203490Y365277D01*
X202303Y368143D01*
X202265Y368204D01*
X202236Y368270D01*
X202201Y368308D01*
X202174Y368352D01*
X202118Y368398D01*
X202070Y368451D01*
X202024Y368476D01*
X201984Y368509D01*
X201917Y368535D01*
X201854Y368569D01*
X201803Y368579D01*
X201755Y368597D01*
X201683Y368600D01*
X201612Y368613D01*
X201561Y368606D01*
X201509Y368608D01*
X201440Y368588D01*
X201369Y368577D01*
X201323Y368554D01*
X201273Y368539D01*
X201214Y368498D01*
X201150Y368466D01*
X201113Y368429D01*
X201071Y368399D01*
X201028Y368341D01*
X200978Y368290D01*
X200943Y368227D01*
X200924Y368202D01*
X200917Y368179D01*
X200897Y368143D01*
X199710Y365277D01*
X196123Y361690D01*
X194403Y360978D01*
X194303Y360916D01*
X194203Y360856D01*
X194199Y360852D01*
X194194Y360848D01*
X194119Y360758D01*
X194043Y360670D01*
X194041Y360664D01*
X194037Y360659D01*
X193995Y360550D01*
X193951Y360441D01*
X193950Y360434D01*
X193949Y360429D01*
X193948Y360411D01*
X193933Y360275D01*
X193933Y343500D01*
X193947Y343410D01*
X193955Y343319D01*
X193967Y343289D01*
X193972Y343257D01*
X194015Y343176D01*
X194051Y343093D01*
X194077Y343060D01*
X194088Y343040D01*
X194111Y343018D01*
X194156Y342962D01*
X244362Y292756D01*
X244436Y292703D01*
X244505Y292643D01*
X244535Y292631D01*
X244561Y292612D01*
X244648Y292585D01*
X244733Y292551D01*
X244774Y292547D01*
X244796Y292540D01*
X244829Y292541D01*
X244900Y292533D01*
X422085Y292533D01*
X457533Y257085D01*
X457533Y244875D01*
X457547Y244785D01*
X457555Y244694D01*
X457567Y244664D01*
X457572Y244632D01*
X457615Y244551D01*
X457651Y244467D01*
X457677Y244435D01*
X457688Y244415D01*
X457711Y244393D01*
X457756Y244336D01*
X458250Y243842D01*
X459283Y241349D01*
X459283Y238651D01*
X458250Y236158D01*
X456342Y234250D01*
X453849Y233217D01*
X451151Y233217D01*
G37*
%LPD*%
%LPC*%
G36*
X51507Y207249D02*
X51507Y207249D01*
X49749Y209007D01*
X49749Y230993D01*
X51507Y232751D01*
X73493Y232751D01*
X75251Y230993D01*
X75251Y226608D01*
X75266Y226512D01*
X75276Y226415D01*
X75286Y226391D01*
X75290Y226366D01*
X75336Y226280D01*
X75376Y226190D01*
X75393Y226171D01*
X75406Y226148D01*
X75476Y226081D01*
X75542Y226009D01*
X75565Y225997D01*
X75584Y225979D01*
X75672Y225938D01*
X75758Y225891D01*
X75783Y225886D01*
X75807Y225875D01*
X75904Y225864D01*
X76000Y225847D01*
X76026Y225851D01*
X76051Y225848D01*
X76146Y225869D01*
X76243Y225883D01*
X76266Y225895D01*
X76292Y225900D01*
X76376Y225950D01*
X76462Y225994D01*
X76480Y226013D01*
X76503Y226026D01*
X76566Y226101D01*
X76634Y226170D01*
X76650Y226199D01*
X76663Y226213D01*
X76675Y226244D01*
X76715Y226317D01*
X77090Y227223D01*
X80677Y230810D01*
X85364Y232751D01*
X90436Y232751D01*
X95123Y230810D01*
X98710Y227223D01*
X99897Y224357D01*
X99935Y224296D01*
X99964Y224230D01*
X99999Y224192D01*
X100026Y224148D01*
X100082Y224102D01*
X100130Y224049D01*
X100176Y224024D01*
X100216Y223991D01*
X100283Y223965D01*
X100346Y223931D01*
X100397Y223921D01*
X100445Y223903D01*
X100517Y223900D01*
X100588Y223887D01*
X100639Y223894D01*
X100691Y223892D01*
X100760Y223912D01*
X100831Y223923D01*
X100877Y223946D01*
X100927Y223961D01*
X100986Y224002D01*
X101050Y224034D01*
X101087Y224071D01*
X101129Y224101D01*
X101172Y224159D01*
X101222Y224210D01*
X101257Y224273D01*
X101276Y224298D01*
X101283Y224321D01*
X101303Y224357D01*
X102490Y227223D01*
X106077Y230810D01*
X110764Y232751D01*
X115836Y232751D01*
X120523Y230810D01*
X124110Y227223D01*
X125297Y224357D01*
X125335Y224296D01*
X125364Y224230D01*
X125399Y224192D01*
X125426Y224148D01*
X125482Y224102D01*
X125530Y224049D01*
X125576Y224024D01*
X125616Y223991D01*
X125683Y223965D01*
X125746Y223931D01*
X125797Y223921D01*
X125845Y223903D01*
X125917Y223900D01*
X125988Y223887D01*
X126039Y223894D01*
X126091Y223892D01*
X126160Y223912D01*
X126231Y223923D01*
X126277Y223946D01*
X126327Y223961D01*
X126386Y224002D01*
X126450Y224034D01*
X126487Y224071D01*
X126529Y224101D01*
X126572Y224159D01*
X126622Y224210D01*
X126657Y224273D01*
X126676Y224298D01*
X126683Y224321D01*
X126703Y224357D01*
X127890Y227223D01*
X131477Y230810D01*
X136164Y232751D01*
X141236Y232751D01*
X145923Y230810D01*
X149510Y227223D01*
X150697Y224357D01*
X150735Y224296D01*
X150764Y224230D01*
X150799Y224192D01*
X150826Y224148D01*
X150882Y224102D01*
X150930Y224049D01*
X150976Y224024D01*
X151016Y223991D01*
X151083Y223965D01*
X151146Y223931D01*
X151197Y223921D01*
X151245Y223903D01*
X151317Y223900D01*
X151388Y223887D01*
X151439Y223894D01*
X151491Y223892D01*
X151560Y223912D01*
X151631Y223923D01*
X151677Y223946D01*
X151727Y223961D01*
X151786Y224002D01*
X151850Y224034D01*
X151887Y224071D01*
X151929Y224101D01*
X151972Y224159D01*
X152022Y224210D01*
X152057Y224273D01*
X152076Y224298D01*
X152083Y224321D01*
X152103Y224357D01*
X153290Y227223D01*
X156877Y230810D01*
X161564Y232751D01*
X166636Y232751D01*
X171323Y230810D01*
X174910Y227223D01*
X176097Y224357D01*
X176135Y224296D01*
X176164Y224230D01*
X176199Y224192D01*
X176226Y224148D01*
X176282Y224102D01*
X176330Y224049D01*
X176376Y224024D01*
X176416Y223991D01*
X176483Y223965D01*
X176546Y223931D01*
X176597Y223921D01*
X176645Y223903D01*
X176717Y223900D01*
X176788Y223887D01*
X176839Y223894D01*
X176891Y223892D01*
X176960Y223912D01*
X177031Y223923D01*
X177077Y223946D01*
X177127Y223961D01*
X177186Y224002D01*
X177250Y224034D01*
X177287Y224071D01*
X177329Y224101D01*
X177372Y224159D01*
X177422Y224210D01*
X177457Y224273D01*
X177476Y224298D01*
X177483Y224321D01*
X177503Y224357D01*
X178690Y227223D01*
X182277Y230810D01*
X186964Y232751D01*
X192036Y232751D01*
X196723Y230810D01*
X200310Y227223D01*
X201497Y224357D01*
X201535Y224296D01*
X201564Y224230D01*
X201599Y224192D01*
X201626Y224148D01*
X201682Y224102D01*
X201730Y224049D01*
X201776Y224024D01*
X201816Y223991D01*
X201883Y223965D01*
X201946Y223931D01*
X201997Y223921D01*
X202045Y223903D01*
X202117Y223900D01*
X202188Y223887D01*
X202239Y223894D01*
X202291Y223892D01*
X202360Y223912D01*
X202431Y223923D01*
X202477Y223946D01*
X202527Y223961D01*
X202586Y224002D01*
X202650Y224034D01*
X202687Y224071D01*
X202729Y224101D01*
X202772Y224159D01*
X202822Y224210D01*
X202857Y224273D01*
X202876Y224298D01*
X202883Y224321D01*
X202903Y224357D01*
X204090Y227223D01*
X207677Y230810D01*
X212364Y232751D01*
X217436Y232751D01*
X222123Y230810D01*
X225710Y227223D01*
X226897Y224357D01*
X226935Y224296D01*
X226964Y224230D01*
X226999Y224192D01*
X227026Y224148D01*
X227082Y224102D01*
X227130Y224049D01*
X227176Y224024D01*
X227216Y223991D01*
X227283Y223965D01*
X227346Y223931D01*
X227397Y223921D01*
X227445Y223903D01*
X227517Y223900D01*
X227588Y223887D01*
X227639Y223894D01*
X227691Y223892D01*
X227760Y223912D01*
X227831Y223923D01*
X227877Y223946D01*
X227927Y223961D01*
X227986Y224002D01*
X228050Y224034D01*
X228087Y224071D01*
X228129Y224101D01*
X228172Y224159D01*
X228222Y224210D01*
X228257Y224273D01*
X228276Y224298D01*
X228283Y224321D01*
X228303Y224357D01*
X229490Y227223D01*
X233077Y230810D01*
X237764Y232751D01*
X242836Y232751D01*
X247523Y230810D01*
X251110Y227223D01*
X252297Y224357D01*
X252335Y224296D01*
X252364Y224230D01*
X252399Y224192D01*
X252426Y224148D01*
X252482Y224102D01*
X252530Y224049D01*
X252576Y224024D01*
X252616Y223991D01*
X252683Y223965D01*
X252746Y223931D01*
X252797Y223921D01*
X252845Y223903D01*
X252917Y223900D01*
X252988Y223887D01*
X253039Y223894D01*
X253091Y223892D01*
X253160Y223912D01*
X253231Y223923D01*
X253277Y223946D01*
X253327Y223961D01*
X253386Y224002D01*
X253450Y224034D01*
X253487Y224071D01*
X253529Y224101D01*
X253572Y224159D01*
X253622Y224210D01*
X253657Y224273D01*
X253676Y224298D01*
X253683Y224321D01*
X253703Y224357D01*
X254890Y227223D01*
X258477Y230810D01*
X263164Y232751D01*
X268236Y232751D01*
X272923Y230810D01*
X276510Y227223D01*
X277697Y224357D01*
X277735Y224296D01*
X277764Y224230D01*
X277799Y224192D01*
X277826Y224148D01*
X277882Y224102D01*
X277930Y224049D01*
X277976Y224024D01*
X278016Y223991D01*
X278083Y223965D01*
X278146Y223931D01*
X278197Y223921D01*
X278245Y223903D01*
X278317Y223900D01*
X278388Y223887D01*
X278439Y223894D01*
X278491Y223892D01*
X278560Y223912D01*
X278631Y223923D01*
X278677Y223946D01*
X278727Y223961D01*
X278786Y224002D01*
X278850Y224034D01*
X278887Y224071D01*
X278929Y224101D01*
X278972Y224159D01*
X279022Y224210D01*
X279057Y224273D01*
X279076Y224298D01*
X279083Y224321D01*
X279103Y224357D01*
X280290Y227223D01*
X283877Y230810D01*
X288564Y232751D01*
X293636Y232751D01*
X298323Y230810D01*
X301910Y227223D01*
X303097Y224357D01*
X303135Y224296D01*
X303164Y224230D01*
X303199Y224192D01*
X303226Y224148D01*
X303282Y224102D01*
X303330Y224049D01*
X303376Y224024D01*
X303416Y223991D01*
X303483Y223965D01*
X303546Y223931D01*
X303597Y223921D01*
X303645Y223903D01*
X303717Y223900D01*
X303788Y223887D01*
X303839Y223894D01*
X303891Y223892D01*
X303960Y223912D01*
X304031Y223923D01*
X304077Y223946D01*
X304127Y223961D01*
X304186Y224002D01*
X304250Y224034D01*
X304287Y224071D01*
X304329Y224101D01*
X304372Y224159D01*
X304422Y224210D01*
X304457Y224273D01*
X304476Y224298D01*
X304483Y224321D01*
X304503Y224357D01*
X305690Y227223D01*
X309277Y230810D01*
X313964Y232751D01*
X319036Y232751D01*
X323723Y230810D01*
X327310Y227223D01*
X328497Y224357D01*
X328535Y224296D01*
X328564Y224230D01*
X328599Y224192D01*
X328626Y224148D01*
X328682Y224102D01*
X328730Y224049D01*
X328776Y224024D01*
X328816Y223991D01*
X328883Y223965D01*
X328946Y223931D01*
X328997Y223921D01*
X329045Y223903D01*
X329117Y223900D01*
X329188Y223887D01*
X329239Y223894D01*
X329291Y223892D01*
X329360Y223912D01*
X329431Y223923D01*
X329477Y223946D01*
X329527Y223961D01*
X329586Y224002D01*
X329650Y224034D01*
X329687Y224071D01*
X329729Y224101D01*
X329772Y224159D01*
X329822Y224210D01*
X329857Y224273D01*
X329876Y224298D01*
X329883Y224321D01*
X329903Y224357D01*
X331090Y227223D01*
X334677Y230810D01*
X339364Y232751D01*
X344436Y232751D01*
X349123Y230810D01*
X352710Y227223D01*
X353897Y224357D01*
X353935Y224296D01*
X353964Y224230D01*
X353999Y224192D01*
X354026Y224148D01*
X354082Y224102D01*
X354130Y224049D01*
X354176Y224024D01*
X354216Y223991D01*
X354283Y223965D01*
X354346Y223931D01*
X354397Y223921D01*
X354445Y223903D01*
X354517Y223900D01*
X354588Y223887D01*
X354639Y223894D01*
X354691Y223892D01*
X354760Y223912D01*
X354831Y223923D01*
X354877Y223946D01*
X354927Y223961D01*
X354986Y224002D01*
X355050Y224034D01*
X355087Y224071D01*
X355129Y224101D01*
X355172Y224159D01*
X355222Y224210D01*
X355257Y224273D01*
X355276Y224298D01*
X355283Y224321D01*
X355303Y224357D01*
X356490Y227223D01*
X360077Y230810D01*
X364764Y232751D01*
X369836Y232751D01*
X374523Y230810D01*
X378110Y227223D01*
X379297Y224357D01*
X379335Y224296D01*
X379364Y224230D01*
X379399Y224192D01*
X379426Y224148D01*
X379482Y224102D01*
X379530Y224049D01*
X379576Y224024D01*
X379616Y223991D01*
X379683Y223965D01*
X379746Y223931D01*
X379797Y223921D01*
X379845Y223903D01*
X379917Y223900D01*
X379988Y223887D01*
X380039Y223894D01*
X380091Y223892D01*
X380160Y223912D01*
X380231Y223923D01*
X380277Y223946D01*
X380327Y223961D01*
X380386Y224002D01*
X380450Y224034D01*
X380487Y224071D01*
X380529Y224101D01*
X380572Y224159D01*
X380622Y224210D01*
X380657Y224273D01*
X380676Y224298D01*
X380683Y224321D01*
X380703Y224357D01*
X381890Y227223D01*
X385477Y230810D01*
X390164Y232751D01*
X395236Y232751D01*
X399923Y230810D01*
X403510Y227223D01*
X404697Y224357D01*
X404735Y224296D01*
X404764Y224230D01*
X404799Y224192D01*
X404826Y224148D01*
X404882Y224102D01*
X404930Y224049D01*
X404976Y224024D01*
X405016Y223991D01*
X405083Y223965D01*
X405146Y223931D01*
X405197Y223921D01*
X405245Y223903D01*
X405317Y223900D01*
X405388Y223887D01*
X405439Y223894D01*
X405491Y223892D01*
X405560Y223912D01*
X405631Y223923D01*
X405677Y223946D01*
X405727Y223961D01*
X405786Y224002D01*
X405850Y224034D01*
X405887Y224071D01*
X405929Y224101D01*
X405972Y224159D01*
X406022Y224210D01*
X406057Y224273D01*
X406076Y224298D01*
X406083Y224321D01*
X406103Y224357D01*
X407290Y227223D01*
X410877Y230810D01*
X415564Y232751D01*
X420636Y232751D01*
X425323Y230810D01*
X428910Y227223D01*
X430851Y222536D01*
X430851Y217464D01*
X428910Y212777D01*
X425323Y209190D01*
X420636Y207249D01*
X415564Y207249D01*
X410877Y209190D01*
X407290Y212777D01*
X406103Y215643D01*
X406065Y215704D01*
X406036Y215770D01*
X406001Y215808D01*
X405974Y215852D01*
X405918Y215898D01*
X405870Y215951D01*
X405824Y215976D01*
X405784Y216009D01*
X405717Y216035D01*
X405654Y216069D01*
X405603Y216079D01*
X405555Y216097D01*
X405483Y216100D01*
X405412Y216113D01*
X405361Y216106D01*
X405309Y216108D01*
X405240Y216088D01*
X405169Y216077D01*
X405123Y216054D01*
X405073Y216039D01*
X405014Y215998D01*
X404950Y215966D01*
X404913Y215929D01*
X404871Y215899D01*
X404828Y215841D01*
X404778Y215790D01*
X404743Y215727D01*
X404724Y215702D01*
X404717Y215679D01*
X404697Y215643D01*
X403510Y212777D01*
X399923Y209190D01*
X395236Y207249D01*
X390164Y207249D01*
X385477Y209190D01*
X381890Y212777D01*
X380703Y215643D01*
X380665Y215704D01*
X380636Y215770D01*
X380601Y215808D01*
X380574Y215852D01*
X380518Y215898D01*
X380470Y215951D01*
X380424Y215976D01*
X380384Y216009D01*
X380317Y216035D01*
X380254Y216069D01*
X380203Y216079D01*
X380155Y216097D01*
X380083Y216100D01*
X380012Y216113D01*
X379961Y216106D01*
X379909Y216108D01*
X379840Y216088D01*
X379769Y216077D01*
X379723Y216054D01*
X379673Y216039D01*
X379614Y215998D01*
X379550Y215966D01*
X379513Y215929D01*
X379471Y215899D01*
X379428Y215841D01*
X379378Y215790D01*
X379343Y215727D01*
X379324Y215702D01*
X379317Y215679D01*
X379297Y215643D01*
X378110Y212777D01*
X374523Y209190D01*
X369836Y207249D01*
X364764Y207249D01*
X360077Y209190D01*
X356490Y212777D01*
X355303Y215643D01*
X355265Y215704D01*
X355236Y215770D01*
X355201Y215808D01*
X355174Y215852D01*
X355118Y215898D01*
X355070Y215951D01*
X355024Y215976D01*
X354984Y216009D01*
X354917Y216035D01*
X354854Y216069D01*
X354803Y216079D01*
X354755Y216097D01*
X354683Y216100D01*
X354612Y216113D01*
X354561Y216106D01*
X354509Y216108D01*
X354440Y216088D01*
X354369Y216077D01*
X354323Y216054D01*
X354273Y216039D01*
X354214Y215998D01*
X354150Y215966D01*
X354113Y215929D01*
X354071Y215899D01*
X354028Y215841D01*
X353978Y215790D01*
X353943Y215727D01*
X353924Y215702D01*
X353917Y215679D01*
X353897Y215643D01*
X352710Y212777D01*
X349123Y209190D01*
X344436Y207249D01*
X339364Y207249D01*
X334677Y209190D01*
X331090Y212777D01*
X329903Y215643D01*
X329865Y215704D01*
X329836Y215770D01*
X329801Y215808D01*
X329774Y215852D01*
X329718Y215898D01*
X329670Y215951D01*
X329624Y215976D01*
X329584Y216009D01*
X329517Y216035D01*
X329454Y216069D01*
X329403Y216079D01*
X329355Y216097D01*
X329283Y216100D01*
X329212Y216113D01*
X329161Y216106D01*
X329109Y216108D01*
X329040Y216088D01*
X328969Y216077D01*
X328923Y216054D01*
X328873Y216039D01*
X328814Y215998D01*
X328750Y215966D01*
X328713Y215929D01*
X328671Y215899D01*
X328628Y215841D01*
X328578Y215790D01*
X328543Y215727D01*
X328524Y215702D01*
X328517Y215679D01*
X328497Y215643D01*
X327310Y212777D01*
X323723Y209190D01*
X319036Y207249D01*
X313964Y207249D01*
X309277Y209190D01*
X305690Y212777D01*
X304503Y215643D01*
X304465Y215704D01*
X304436Y215770D01*
X304401Y215808D01*
X304374Y215852D01*
X304318Y215898D01*
X304270Y215951D01*
X304224Y215976D01*
X304184Y216009D01*
X304117Y216035D01*
X304054Y216069D01*
X304003Y216079D01*
X303955Y216097D01*
X303883Y216100D01*
X303812Y216113D01*
X303761Y216106D01*
X303709Y216108D01*
X303640Y216088D01*
X303569Y216077D01*
X303523Y216054D01*
X303473Y216039D01*
X303414Y215998D01*
X303350Y215966D01*
X303313Y215929D01*
X303271Y215899D01*
X303228Y215841D01*
X303178Y215790D01*
X303143Y215727D01*
X303124Y215702D01*
X303117Y215679D01*
X303097Y215643D01*
X301910Y212777D01*
X298323Y209190D01*
X293636Y207249D01*
X288564Y207249D01*
X283877Y209190D01*
X280290Y212777D01*
X279103Y215643D01*
X279065Y215704D01*
X279036Y215770D01*
X279001Y215808D01*
X278974Y215852D01*
X278918Y215898D01*
X278870Y215951D01*
X278824Y215976D01*
X278784Y216009D01*
X278717Y216035D01*
X278654Y216069D01*
X278603Y216079D01*
X278555Y216097D01*
X278483Y216100D01*
X278412Y216113D01*
X278361Y216106D01*
X278309Y216108D01*
X278240Y216088D01*
X278169Y216077D01*
X278123Y216054D01*
X278073Y216039D01*
X278014Y215998D01*
X277950Y215966D01*
X277913Y215929D01*
X277871Y215899D01*
X277828Y215841D01*
X277778Y215790D01*
X277743Y215727D01*
X277724Y215702D01*
X277717Y215679D01*
X277697Y215643D01*
X276510Y212777D01*
X272923Y209190D01*
X268236Y207249D01*
X263164Y207249D01*
X258477Y209190D01*
X254890Y212777D01*
X253703Y215643D01*
X253665Y215704D01*
X253636Y215770D01*
X253601Y215808D01*
X253574Y215852D01*
X253518Y215898D01*
X253470Y215951D01*
X253424Y215976D01*
X253384Y216009D01*
X253317Y216035D01*
X253254Y216069D01*
X253203Y216079D01*
X253155Y216097D01*
X253083Y216100D01*
X253012Y216113D01*
X252961Y216106D01*
X252909Y216108D01*
X252840Y216088D01*
X252769Y216077D01*
X252723Y216054D01*
X252673Y216039D01*
X252614Y215998D01*
X252550Y215966D01*
X252513Y215929D01*
X252471Y215899D01*
X252428Y215841D01*
X252378Y215790D01*
X252343Y215727D01*
X252324Y215702D01*
X252317Y215679D01*
X252297Y215643D01*
X251110Y212777D01*
X247523Y209190D01*
X242836Y207249D01*
X237764Y207249D01*
X233077Y209190D01*
X229490Y212777D01*
X228303Y215643D01*
X228265Y215704D01*
X228236Y215770D01*
X228201Y215808D01*
X228174Y215852D01*
X228118Y215898D01*
X228070Y215951D01*
X228024Y215976D01*
X227984Y216009D01*
X227917Y216035D01*
X227854Y216069D01*
X227803Y216079D01*
X227755Y216097D01*
X227683Y216100D01*
X227612Y216113D01*
X227561Y216106D01*
X227509Y216108D01*
X227440Y216088D01*
X227369Y216077D01*
X227323Y216054D01*
X227273Y216039D01*
X227214Y215998D01*
X227150Y215966D01*
X227113Y215929D01*
X227071Y215899D01*
X227028Y215841D01*
X226978Y215790D01*
X226943Y215727D01*
X226924Y215702D01*
X226917Y215679D01*
X226897Y215643D01*
X225710Y212777D01*
X222123Y209190D01*
X217436Y207249D01*
X212364Y207249D01*
X207677Y209190D01*
X204090Y212777D01*
X202903Y215643D01*
X202865Y215704D01*
X202836Y215770D01*
X202801Y215808D01*
X202774Y215852D01*
X202718Y215898D01*
X202670Y215951D01*
X202624Y215976D01*
X202584Y216009D01*
X202517Y216035D01*
X202454Y216069D01*
X202403Y216079D01*
X202355Y216097D01*
X202283Y216100D01*
X202212Y216113D01*
X202161Y216106D01*
X202109Y216108D01*
X202040Y216088D01*
X201969Y216077D01*
X201923Y216054D01*
X201873Y216039D01*
X201814Y215998D01*
X201750Y215966D01*
X201713Y215929D01*
X201671Y215899D01*
X201628Y215841D01*
X201578Y215790D01*
X201543Y215727D01*
X201524Y215702D01*
X201517Y215679D01*
X201497Y215643D01*
X200310Y212777D01*
X196723Y209190D01*
X192036Y207249D01*
X186964Y207249D01*
X182277Y209190D01*
X178690Y212777D01*
X177503Y215643D01*
X177465Y215704D01*
X177436Y215770D01*
X177401Y215808D01*
X177374Y215852D01*
X177318Y215898D01*
X177270Y215951D01*
X177224Y215976D01*
X177184Y216009D01*
X177117Y216035D01*
X177054Y216069D01*
X177003Y216079D01*
X176955Y216097D01*
X176883Y216100D01*
X176812Y216113D01*
X176761Y216106D01*
X176709Y216108D01*
X176640Y216088D01*
X176569Y216077D01*
X176523Y216054D01*
X176473Y216039D01*
X176414Y215998D01*
X176350Y215966D01*
X176313Y215929D01*
X176271Y215899D01*
X176228Y215841D01*
X176178Y215790D01*
X176143Y215727D01*
X176124Y215702D01*
X176117Y215679D01*
X176097Y215643D01*
X174910Y212777D01*
X171323Y209190D01*
X166636Y207249D01*
X161564Y207249D01*
X156877Y209190D01*
X153290Y212777D01*
X152103Y215643D01*
X152065Y215704D01*
X152036Y215770D01*
X152001Y215808D01*
X151974Y215852D01*
X151918Y215898D01*
X151870Y215951D01*
X151824Y215976D01*
X151784Y216009D01*
X151717Y216035D01*
X151654Y216069D01*
X151603Y216079D01*
X151555Y216097D01*
X151483Y216100D01*
X151412Y216113D01*
X151361Y216106D01*
X151309Y216108D01*
X151240Y216088D01*
X151169Y216077D01*
X151123Y216054D01*
X151073Y216039D01*
X151014Y215998D01*
X150950Y215966D01*
X150913Y215929D01*
X150871Y215899D01*
X150828Y215841D01*
X150778Y215790D01*
X150743Y215727D01*
X150724Y215702D01*
X150717Y215679D01*
X150697Y215643D01*
X149510Y212777D01*
X145923Y209190D01*
X141236Y207249D01*
X136164Y207249D01*
X131477Y209190D01*
X127890Y212777D01*
X126703Y215643D01*
X126665Y215704D01*
X126636Y215770D01*
X126601Y215808D01*
X126574Y215852D01*
X126518Y215898D01*
X126470Y215951D01*
X126424Y215976D01*
X126384Y216009D01*
X126317Y216035D01*
X126254Y216069D01*
X126203Y216079D01*
X126155Y216097D01*
X126083Y216100D01*
X126012Y216113D01*
X125961Y216106D01*
X125909Y216108D01*
X125840Y216088D01*
X125769Y216077D01*
X125723Y216054D01*
X125673Y216039D01*
X125614Y215998D01*
X125550Y215966D01*
X125513Y215929D01*
X125471Y215899D01*
X125428Y215841D01*
X125378Y215790D01*
X125343Y215727D01*
X125324Y215702D01*
X125317Y215679D01*
X125297Y215643D01*
X124110Y212777D01*
X120523Y209190D01*
X115836Y207249D01*
X110764Y207249D01*
X106077Y209190D01*
X102490Y212777D01*
X101303Y215643D01*
X101265Y215704D01*
X101236Y215770D01*
X101201Y215808D01*
X101174Y215852D01*
X101118Y215898D01*
X101070Y215951D01*
X101024Y215976D01*
X100984Y216009D01*
X100917Y216035D01*
X100854Y216069D01*
X100803Y216079D01*
X100755Y216097D01*
X100683Y216100D01*
X100612Y216113D01*
X100561Y216106D01*
X100509Y216108D01*
X100440Y216088D01*
X100369Y216077D01*
X100323Y216054D01*
X100273Y216039D01*
X100214Y215998D01*
X100150Y215966D01*
X100113Y215929D01*
X100071Y215899D01*
X100028Y215841D01*
X99978Y215790D01*
X99943Y215727D01*
X99924Y215702D01*
X99917Y215679D01*
X99897Y215643D01*
X98710Y212777D01*
X95123Y209190D01*
X90436Y207249D01*
X85364Y207249D01*
X80677Y209190D01*
X77090Y212777D01*
X76715Y213683D01*
X76664Y213766D01*
X76618Y213852D01*
X76599Y213870D01*
X76586Y213892D01*
X76511Y213954D01*
X76440Y214021D01*
X76416Y214032D01*
X76396Y214049D01*
X76305Y214084D01*
X76217Y214125D01*
X76191Y214128D01*
X76167Y214137D01*
X76069Y214141D01*
X75973Y214152D01*
X75947Y214146D01*
X75921Y214148D01*
X75827Y214120D01*
X75732Y214100D01*
X75710Y214086D01*
X75685Y214079D01*
X75605Y214023D01*
X75521Y213974D01*
X75504Y213954D01*
X75483Y213939D01*
X75424Y213861D01*
X75361Y213787D01*
X75351Y213762D01*
X75336Y213741D01*
X75306Y213649D01*
X75269Y213558D01*
X75266Y213526D01*
X75260Y213507D01*
X75260Y213474D01*
X75251Y213392D01*
X75251Y209007D01*
X73493Y207249D01*
X51507Y207249D01*
G37*
%LPD*%
%LPC*%
G36*
X193587Y481759D02*
X193587Y481759D01*
X189684Y483376D01*
X186696Y486364D01*
X185079Y490267D01*
X185079Y509733D01*
X186696Y513636D01*
X189684Y516624D01*
X193587Y518241D01*
X197813Y518241D01*
X201716Y516624D01*
X204704Y513636D01*
X206321Y509733D01*
X206321Y490267D01*
X204704Y486364D01*
X201716Y483376D01*
X197813Y481759D01*
X193587Y481759D01*
G37*
%LPD*%
%LPC*%
G36*
X611387Y481759D02*
X611387Y481759D01*
X607484Y483376D01*
X604496Y486364D01*
X602879Y490267D01*
X602879Y509733D01*
X604496Y513636D01*
X607484Y516624D01*
X611387Y518241D01*
X615613Y518241D01*
X619516Y516624D01*
X622504Y513636D01*
X624121Y509733D01*
X624121Y490267D01*
X622504Y486364D01*
X619516Y483376D01*
X615613Y481759D01*
X611387Y481759D01*
G37*
%LPD*%
%LPC*%
G36*
X585987Y481759D02*
X585987Y481759D01*
X582084Y483376D01*
X579096Y486364D01*
X577479Y490267D01*
X577479Y509733D01*
X579096Y513636D01*
X582084Y516624D01*
X585987Y518241D01*
X590213Y518241D01*
X594116Y516624D01*
X597104Y513636D01*
X598721Y509733D01*
X598721Y490267D01*
X597104Y486364D01*
X594116Y483376D01*
X590213Y481759D01*
X585987Y481759D01*
G37*
%LPD*%
%LPC*%
G36*
X484387Y481759D02*
X484387Y481759D01*
X480484Y483376D01*
X477496Y486364D01*
X475879Y490267D01*
X475879Y509733D01*
X477496Y513636D01*
X480484Y516624D01*
X484387Y518241D01*
X488613Y518241D01*
X492516Y516624D01*
X495504Y513636D01*
X497121Y509733D01*
X497121Y490267D01*
X495504Y486364D01*
X492516Y483376D01*
X488613Y481759D01*
X484387Y481759D01*
G37*
%LPD*%
%LPC*%
G36*
X269787Y481759D02*
X269787Y481759D01*
X265884Y483376D01*
X262896Y486364D01*
X261279Y490267D01*
X261279Y509733D01*
X262896Y513636D01*
X265884Y516624D01*
X269787Y518241D01*
X274013Y518241D01*
X277916Y516624D01*
X280904Y513636D01*
X282521Y509733D01*
X282521Y490267D01*
X280904Y486364D01*
X277916Y483376D01*
X274013Y481759D01*
X269787Y481759D01*
G37*
%LPD*%
%LPC*%
G36*
X295187Y481759D02*
X295187Y481759D01*
X291284Y483376D01*
X288296Y486364D01*
X286679Y490267D01*
X286679Y509733D01*
X288296Y513636D01*
X291284Y516624D01*
X295187Y518241D01*
X299413Y518241D01*
X303316Y516624D01*
X306304Y513636D01*
X307921Y509733D01*
X307921Y490267D01*
X306304Y486364D01*
X303316Y483376D01*
X299413Y481759D01*
X295187Y481759D01*
G37*
%LPD*%
%LPC*%
G36*
X320587Y481759D02*
X320587Y481759D01*
X316684Y483376D01*
X313696Y486364D01*
X312079Y490267D01*
X312079Y509733D01*
X313696Y513636D01*
X316684Y516624D01*
X320587Y518241D01*
X324813Y518241D01*
X328716Y516624D01*
X331704Y513636D01*
X333321Y509733D01*
X333321Y490267D01*
X331704Y486364D01*
X328716Y483376D01*
X324813Y481759D01*
X320587Y481759D01*
G37*
%LPD*%
%LPC*%
G36*
X244387Y481759D02*
X244387Y481759D01*
X240484Y483376D01*
X237496Y486364D01*
X235879Y490267D01*
X235879Y509733D01*
X237496Y513636D01*
X240484Y516624D01*
X244387Y518241D01*
X248613Y518241D01*
X252516Y516624D01*
X255504Y513636D01*
X257121Y509733D01*
X257121Y490267D01*
X255504Y486364D01*
X252516Y483376D01*
X248613Y481759D01*
X244387Y481759D01*
G37*
%LPD*%
%LPC*%
G36*
X371387Y481759D02*
X371387Y481759D01*
X367484Y483376D01*
X364496Y486364D01*
X362879Y490267D01*
X362879Y509733D01*
X364496Y513636D01*
X367484Y516624D01*
X371387Y518241D01*
X375613Y518241D01*
X379516Y516624D01*
X382504Y513636D01*
X384121Y509733D01*
X384121Y490267D01*
X382504Y486364D01*
X379516Y483376D01*
X375613Y481759D01*
X371387Y481759D01*
G37*
%LPD*%
%LPC*%
G36*
X396787Y481759D02*
X396787Y481759D01*
X392884Y483376D01*
X389896Y486364D01*
X388279Y490267D01*
X388279Y509733D01*
X389896Y513636D01*
X392884Y516624D01*
X396787Y518241D01*
X401013Y518241D01*
X404916Y516624D01*
X407904Y513636D01*
X409521Y509733D01*
X409521Y490267D01*
X407904Y486364D01*
X404916Y483376D01*
X401013Y481759D01*
X396787Y481759D01*
G37*
%LPD*%
%LPC*%
G36*
X509787Y481759D02*
X509787Y481759D01*
X505884Y483376D01*
X502896Y486364D01*
X501279Y490267D01*
X501279Y509733D01*
X502896Y513636D01*
X505884Y516624D01*
X509787Y518241D01*
X514013Y518241D01*
X517916Y516624D01*
X520904Y513636D01*
X522521Y509733D01*
X522521Y490267D01*
X520904Y486364D01*
X517916Y483376D01*
X514013Y481759D01*
X509787Y481759D01*
G37*
%LPD*%
%LPC*%
G36*
X422187Y481759D02*
X422187Y481759D01*
X418284Y483376D01*
X415296Y486364D01*
X413679Y490267D01*
X413679Y509733D01*
X415296Y513636D01*
X418284Y516624D01*
X422187Y518241D01*
X426413Y518241D01*
X430316Y516624D01*
X433304Y513636D01*
X434921Y509733D01*
X434921Y490267D01*
X433304Y486364D01*
X430316Y483376D01*
X426413Y481759D01*
X422187Y481759D01*
G37*
%LPD*%
%LPC*%
G36*
X535187Y481759D02*
X535187Y481759D01*
X531284Y483376D01*
X528296Y486364D01*
X526679Y490267D01*
X526679Y509733D01*
X528296Y513636D01*
X531284Y516624D01*
X535187Y518241D01*
X539413Y518241D01*
X543316Y516624D01*
X546304Y513636D01*
X547921Y509733D01*
X547921Y490267D01*
X546304Y486364D01*
X543316Y483376D01*
X539413Y481759D01*
X535187Y481759D01*
G37*
%LPD*%
%LPC*%
G36*
X458987Y481759D02*
X458987Y481759D01*
X455084Y483376D01*
X452096Y486364D01*
X450479Y490267D01*
X450479Y509733D01*
X452096Y513636D01*
X455084Y516624D01*
X458987Y518241D01*
X463213Y518241D01*
X467116Y516624D01*
X470104Y513636D01*
X471721Y509733D01*
X471721Y490267D01*
X470104Y486364D01*
X467116Y483376D01*
X463213Y481759D01*
X458987Y481759D01*
G37*
%LPD*%
%LPC*%
G36*
X560587Y481759D02*
X560587Y481759D01*
X556684Y483376D01*
X553696Y486364D01*
X552079Y490267D01*
X552079Y509733D01*
X553696Y513636D01*
X556684Y516624D01*
X560587Y518241D01*
X564813Y518241D01*
X568716Y516624D01*
X571704Y513636D01*
X573321Y509733D01*
X573321Y490267D01*
X571704Y486364D01*
X568716Y483376D01*
X564813Y481759D01*
X560587Y481759D01*
G37*
%LPD*%
%LPC*%
G36*
X345987Y481759D02*
X345987Y481759D01*
X342084Y483376D01*
X339096Y486364D01*
X337479Y490267D01*
X337479Y509733D01*
X339096Y513636D01*
X342084Y516624D01*
X345987Y518241D01*
X350213Y518241D01*
X354116Y516624D01*
X357104Y513636D01*
X358721Y509733D01*
X358721Y490267D01*
X357104Y486364D01*
X354116Y483376D01*
X350213Y481759D01*
X345987Y481759D01*
G37*
%LPD*%
%LPC*%
G36*
X218987Y481759D02*
X218987Y481759D01*
X215084Y483376D01*
X212096Y486364D01*
X210479Y490267D01*
X210479Y509733D01*
X212096Y513636D01*
X215084Y516624D01*
X218987Y518241D01*
X223213Y518241D01*
X227116Y516624D01*
X230104Y513636D01*
X231721Y509733D01*
X231721Y490267D01*
X230104Y486364D01*
X227116Y483376D01*
X223213Y481759D01*
X218987Y481759D01*
G37*
%LPD*%
D10*
X638900Y492380D02*
X638900Y507620D01*
X613500Y507620D02*
X613500Y492380D01*
X588100Y492380D02*
X588100Y507620D01*
X562700Y507620D02*
X562700Y492380D01*
X537300Y492380D02*
X537300Y507620D01*
X511900Y507620D02*
X511900Y492380D01*
X486500Y492380D02*
X486500Y507620D01*
X461100Y507620D02*
X461100Y492380D01*
X424300Y492380D02*
X424300Y507620D01*
X398900Y507620D02*
X398900Y492380D01*
X373500Y492380D02*
X373500Y507620D01*
X348100Y507620D02*
X348100Y492380D01*
X322700Y492380D02*
X322700Y507620D01*
X297300Y507620D02*
X297300Y492380D01*
X271900Y492380D02*
X271900Y507620D01*
X246500Y507620D02*
X246500Y492380D01*
X221100Y492380D02*
X221100Y507620D01*
X195700Y507620D02*
X195700Y492380D01*
X506500Y37620D02*
X506500Y22380D01*
X531900Y22380D02*
X531900Y37620D01*
X557300Y37620D02*
X557300Y22380D01*
X582700Y22380D02*
X582700Y37620D01*
X608100Y37620D02*
X608100Y22380D01*
X633500Y22380D02*
X633500Y37620D01*
X458900Y37620D02*
X458900Y22380D01*
X433500Y22380D02*
X433500Y37620D01*
X408100Y37620D02*
X408100Y22380D01*
X382700Y22380D02*
X382700Y37620D01*
X357300Y37620D02*
X357300Y22380D01*
X331900Y22380D02*
X331900Y37620D01*
X306500Y37620D02*
X306500Y22380D01*
X281100Y22380D02*
X281100Y37620D01*
D11*
X417500Y372500D03*
D12*
X392100Y372500D03*
X366700Y372500D03*
X341300Y372500D03*
X315900Y372500D03*
X290500Y372500D03*
X265100Y372500D03*
X239700Y372500D03*
X214300Y372500D03*
X188900Y372500D03*
X163500Y372500D03*
X138100Y372500D03*
X112700Y372500D03*
X87300Y372500D03*
X61900Y372500D03*
D11*
X62500Y220000D03*
D12*
X87900Y220000D03*
X113300Y220000D03*
X138700Y220000D03*
X164100Y220000D03*
X189500Y220000D03*
X214900Y220000D03*
X240300Y220000D03*
X265700Y220000D03*
X291100Y220000D03*
X316500Y220000D03*
X341900Y220000D03*
X367300Y220000D03*
X392700Y220000D03*
X418100Y220000D03*
D13*
X429775Y356654D02*
X433346Y360225D01*
X293490Y372500D02*
X290500Y372500D01*
X433346Y360846D02*
X433346Y360225D01*
X309336Y356654D02*
X293490Y372500D01*
X309336Y356654D02*
X429775Y356654D01*
X433346Y360846D02*
X462500Y390000D01*
D14*
X462500Y390000D03*
D13*
X282600Y390000D02*
X265100Y372500D01*
X282600Y390000D02*
X442500Y390000D01*
D14*
X442500Y390000D03*
D13*
X267200Y400000D02*
X239700Y372500D01*
X267200Y400000D02*
X422500Y400000D01*
D14*
X422500Y400000D03*
D13*
X251800Y410000D02*
X214300Y372500D01*
X251800Y410000D02*
X412500Y410000D01*
D14*
X412500Y410000D03*
D13*
X492500Y80000D02*
X506500Y66000D01*
X506500Y30000D01*
X492500Y80000D02*
X195000Y80000D01*
X150000Y125000D01*
D14*
X150000Y125000D03*
D13*
X517500Y97500D02*
X532000Y83000D01*
X532000Y35000D01*
X207500Y97500D02*
X180000Y125000D01*
D14*
X180000Y125000D03*
D13*
X207500Y97500D02*
X517500Y97500D01*
X531900Y34900D02*
X531900Y30000D01*
X531900Y34900D02*
X532000Y35000D01*
X557500Y90000D02*
X535000Y112500D01*
X557500Y90000D02*
X557500Y30200D01*
X557300Y30000D01*
X222500Y112500D02*
X210000Y125000D01*
D14*
X210000Y125000D03*
D13*
X222500Y112500D02*
X535000Y112500D01*
D14*
X535000Y249500D03*
X481000Y190500D03*
X602000Y362000D03*
X500000Y190500D03*
X535000Y270000D03*
D13*
X188900Y341100D02*
X188900Y372500D01*
X242500Y287500D02*
X420000Y287500D01*
X452500Y255000D01*
X452500Y240000D01*
D14*
X452500Y240000D03*
D13*
X242500Y287500D02*
X188900Y341100D01*
X357300Y47300D02*
X357300Y30000D01*
X365000Y55000D02*
X420000Y55000D01*
X433500Y41500D01*
X433500Y30000D01*
X365000Y55000D02*
X357300Y47300D01*
X240000Y125000D02*
X552500Y125000D01*
X582700Y94800D02*
X582700Y30000D01*
X582700Y94800D02*
X552500Y125000D01*
D14*
X240000Y125000D03*
M02*
